G75*
%MOIN*%
%OFA0B0*%
%FSLAX24Y24*%
%IPPOS*%
%LPD*%
%AMOC8*
5,1,8,0,0,1.08239X$1,22.5*
%
%ADD10C,0.0000*%
%ADD11OC8,0.0740*%
%ADD12R,0.0630X0.0551*%
%ADD13R,0.0551X0.0630*%
%ADD14R,0.0740X0.0740*%
%ADD15C,0.0740*%
%ADD16R,0.0800X0.0800*%
%ADD17C,0.0800*%
%ADD18R,0.0236X0.0866*%
%ADD19C,0.0650*%
%ADD20R,0.0650X0.0650*%
%ADD21R,0.0480X0.0880*%
%ADD22R,0.1417X0.0866*%
%ADD23R,0.0500X0.0579*%
%ADD24R,0.0197X0.0591*%
%ADD25R,0.0591X0.0197*%
%ADD26R,0.0433X0.0394*%
%ADD27R,0.0394X0.0433*%
%ADD28R,0.0630X0.0709*%
%ADD29R,0.0709X0.0630*%
%ADD30R,0.0515X0.0515*%
%ADD31C,0.0515*%
%ADD32R,0.0710X0.0630*%
%ADD33R,0.1260X0.0984*%
%ADD34R,0.0551X0.0394*%
%ADD35C,0.0320*%
%ADD36C,0.0240*%
%ADD37R,0.0475X0.0475*%
%ADD38C,0.0160*%
%ADD39R,0.0396X0.0396*%
%ADD40C,0.0120*%
%ADD41R,0.0436X0.0436*%
D10*
X000120Y000100D02*
X000120Y020496D01*
X023390Y020496D01*
X023390Y000100D01*
X000120Y000100D01*
X001270Y009500D02*
X001272Y009550D01*
X001278Y009600D01*
X001288Y009650D01*
X001301Y009698D01*
X001318Y009746D01*
X001339Y009792D01*
X001363Y009836D01*
X001391Y009878D01*
X001422Y009918D01*
X001456Y009955D01*
X001493Y009990D01*
X001532Y010021D01*
X001573Y010050D01*
X001617Y010075D01*
X001663Y010097D01*
X001710Y010115D01*
X001758Y010129D01*
X001807Y010140D01*
X001857Y010147D01*
X001907Y010150D01*
X001958Y010149D01*
X002008Y010144D01*
X002058Y010135D01*
X002106Y010123D01*
X002154Y010106D01*
X002200Y010086D01*
X002245Y010063D01*
X002288Y010036D01*
X002328Y010006D01*
X002366Y009973D01*
X002401Y009937D01*
X002434Y009898D01*
X002463Y009857D01*
X002489Y009814D01*
X002512Y009769D01*
X002531Y009722D01*
X002546Y009674D01*
X002558Y009625D01*
X002566Y009575D01*
X002570Y009525D01*
X002570Y009475D01*
X002566Y009425D01*
X002558Y009375D01*
X002546Y009326D01*
X002531Y009278D01*
X002512Y009231D01*
X002489Y009186D01*
X002463Y009143D01*
X002434Y009102D01*
X002401Y009063D01*
X002366Y009027D01*
X002328Y008994D01*
X002288Y008964D01*
X002245Y008937D01*
X002200Y008914D01*
X002154Y008894D01*
X002106Y008877D01*
X002058Y008865D01*
X002008Y008856D01*
X001958Y008851D01*
X001907Y008850D01*
X001857Y008853D01*
X001807Y008860D01*
X001758Y008871D01*
X001710Y008885D01*
X001663Y008903D01*
X001617Y008925D01*
X001573Y008950D01*
X001532Y008979D01*
X001493Y009010D01*
X001456Y009045D01*
X001422Y009082D01*
X001391Y009122D01*
X001363Y009164D01*
X001339Y009208D01*
X001318Y009254D01*
X001301Y009302D01*
X001288Y009350D01*
X001278Y009400D01*
X001272Y009450D01*
X001270Y009500D01*
X015570Y001600D02*
X015572Y001650D01*
X015578Y001700D01*
X015588Y001750D01*
X015601Y001798D01*
X015618Y001846D01*
X015639Y001892D01*
X015663Y001936D01*
X015691Y001978D01*
X015722Y002018D01*
X015756Y002055D01*
X015793Y002090D01*
X015832Y002121D01*
X015873Y002150D01*
X015917Y002175D01*
X015963Y002197D01*
X016010Y002215D01*
X016058Y002229D01*
X016107Y002240D01*
X016157Y002247D01*
X016207Y002250D01*
X016258Y002249D01*
X016308Y002244D01*
X016358Y002235D01*
X016406Y002223D01*
X016454Y002206D01*
X016500Y002186D01*
X016545Y002163D01*
X016588Y002136D01*
X016628Y002106D01*
X016666Y002073D01*
X016701Y002037D01*
X016734Y001998D01*
X016763Y001957D01*
X016789Y001914D01*
X016812Y001869D01*
X016831Y001822D01*
X016846Y001774D01*
X016858Y001725D01*
X016866Y001675D01*
X016870Y001625D01*
X016870Y001575D01*
X016866Y001525D01*
X016858Y001475D01*
X016846Y001426D01*
X016831Y001378D01*
X016812Y001331D01*
X016789Y001286D01*
X016763Y001243D01*
X016734Y001202D01*
X016701Y001163D01*
X016666Y001127D01*
X016628Y001094D01*
X016588Y001064D01*
X016545Y001037D01*
X016500Y001014D01*
X016454Y000994D01*
X016406Y000977D01*
X016358Y000965D01*
X016308Y000956D01*
X016258Y000951D01*
X016207Y000950D01*
X016157Y000953D01*
X016107Y000960D01*
X016058Y000971D01*
X016010Y000985D01*
X015963Y001003D01*
X015917Y001025D01*
X015873Y001050D01*
X015832Y001079D01*
X015793Y001110D01*
X015756Y001145D01*
X015722Y001182D01*
X015691Y001222D01*
X015663Y001264D01*
X015639Y001308D01*
X015618Y001354D01*
X015601Y001402D01*
X015588Y001450D01*
X015578Y001500D01*
X015572Y001550D01*
X015570Y001600D01*
X018627Y002214D02*
X018629Y002239D01*
X018635Y002263D01*
X018644Y002285D01*
X018657Y002306D01*
X018673Y002325D01*
X018692Y002341D01*
X018713Y002354D01*
X018735Y002363D01*
X018759Y002369D01*
X018784Y002371D01*
X018809Y002369D01*
X018833Y002363D01*
X018855Y002354D01*
X018876Y002341D01*
X018895Y002325D01*
X018911Y002306D01*
X018924Y002285D01*
X018933Y002263D01*
X018939Y002239D01*
X018941Y002214D01*
X018939Y002189D01*
X018933Y002165D01*
X018924Y002143D01*
X018911Y002122D01*
X018895Y002103D01*
X018876Y002087D01*
X018855Y002074D01*
X018833Y002065D01*
X018809Y002059D01*
X018784Y002057D01*
X018759Y002059D01*
X018735Y002065D01*
X018713Y002074D01*
X018692Y002087D01*
X018673Y002103D01*
X018657Y002122D01*
X018644Y002143D01*
X018635Y002165D01*
X018629Y002189D01*
X018627Y002214D01*
X021048Y004635D02*
X021050Y004660D01*
X021056Y004684D01*
X021065Y004706D01*
X021078Y004727D01*
X021094Y004746D01*
X021113Y004762D01*
X021134Y004775D01*
X021156Y004784D01*
X021180Y004790D01*
X021205Y004792D01*
X021230Y004790D01*
X021254Y004784D01*
X021276Y004775D01*
X021297Y004762D01*
X021316Y004746D01*
X021332Y004727D01*
X021345Y004706D01*
X021354Y004684D01*
X021360Y004660D01*
X021362Y004635D01*
X021360Y004610D01*
X021354Y004586D01*
X021345Y004564D01*
X021332Y004543D01*
X021316Y004524D01*
X021297Y004508D01*
X021276Y004495D01*
X021254Y004486D01*
X021230Y004480D01*
X021205Y004478D01*
X021180Y004480D01*
X021156Y004486D01*
X021134Y004495D01*
X021113Y004508D01*
X021094Y004524D01*
X021078Y004543D01*
X021065Y004564D01*
X021056Y004586D01*
X021050Y004610D01*
X021048Y004635D01*
X020770Y018500D02*
X020772Y018550D01*
X020778Y018600D01*
X020788Y018650D01*
X020801Y018698D01*
X020818Y018746D01*
X020839Y018792D01*
X020863Y018836D01*
X020891Y018878D01*
X020922Y018918D01*
X020956Y018955D01*
X020993Y018990D01*
X021032Y019021D01*
X021073Y019050D01*
X021117Y019075D01*
X021163Y019097D01*
X021210Y019115D01*
X021258Y019129D01*
X021307Y019140D01*
X021357Y019147D01*
X021407Y019150D01*
X021458Y019149D01*
X021508Y019144D01*
X021558Y019135D01*
X021606Y019123D01*
X021654Y019106D01*
X021700Y019086D01*
X021745Y019063D01*
X021788Y019036D01*
X021828Y019006D01*
X021866Y018973D01*
X021901Y018937D01*
X021934Y018898D01*
X021963Y018857D01*
X021989Y018814D01*
X022012Y018769D01*
X022031Y018722D01*
X022046Y018674D01*
X022058Y018625D01*
X022066Y018575D01*
X022070Y018525D01*
X022070Y018475D01*
X022066Y018425D01*
X022058Y018375D01*
X022046Y018326D01*
X022031Y018278D01*
X022012Y018231D01*
X021989Y018186D01*
X021963Y018143D01*
X021934Y018102D01*
X021901Y018063D01*
X021866Y018027D01*
X021828Y017994D01*
X021788Y017964D01*
X021745Y017937D01*
X021700Y017914D01*
X021654Y017894D01*
X021606Y017877D01*
X021558Y017865D01*
X021508Y017856D01*
X021458Y017851D01*
X021407Y017850D01*
X021357Y017853D01*
X021307Y017860D01*
X021258Y017871D01*
X021210Y017885D01*
X021163Y017903D01*
X021117Y017925D01*
X021073Y017950D01*
X021032Y017979D01*
X020993Y018010D01*
X020956Y018045D01*
X020922Y018082D01*
X020891Y018122D01*
X020863Y018164D01*
X020839Y018208D01*
X020818Y018254D01*
X020801Y018302D01*
X020788Y018350D01*
X020778Y018400D01*
X020772Y018450D01*
X020770Y018500D01*
D11*
X006220Y012800D03*
X005220Y012800D03*
X005220Y011800D03*
X006220Y011800D03*
X004220Y011800D03*
X004220Y012800D03*
X010220Y002600D03*
X011220Y002600D03*
X012220Y002600D03*
X013220Y002600D03*
X014220Y002600D03*
X014220Y001600D03*
X013220Y001600D03*
X012220Y001600D03*
X011220Y001600D03*
X010220Y001600D03*
D12*
X007520Y012649D03*
X007520Y013751D03*
D13*
X007471Y015200D03*
X006368Y015200D03*
X007768Y001500D03*
X008871Y001500D03*
D14*
X012620Y018700D03*
X015320Y018700D03*
X018020Y018700D03*
D15*
X017020Y018700D03*
X014320Y018700D03*
X011620Y018700D03*
X010720Y014100D03*
X009970Y013600D03*
X010720Y013100D03*
X001720Y006300D03*
X001720Y005300D03*
X001720Y004300D03*
X001720Y003300D03*
X001720Y002300D03*
X001720Y001300D03*
X005520Y002900D03*
X006520Y002900D03*
X007520Y002900D03*
X022120Y007300D03*
X022120Y008300D03*
D16*
X003220Y018300D03*
D17*
X001842Y018300D03*
D18*
X004870Y018824D03*
X005370Y018824D03*
X005870Y018824D03*
X006370Y018824D03*
X006370Y016776D03*
X005870Y016776D03*
X005370Y016776D03*
X004870Y016776D03*
D19*
X003220Y015300D03*
X001420Y013400D03*
D20*
X001420Y014400D03*
X004220Y015300D03*
D21*
X007510Y016780D03*
X008420Y016780D03*
X009330Y016780D03*
D22*
X008420Y019220D03*
D23*
X011273Y016600D03*
X012966Y016600D03*
D24*
X007794Y009783D03*
X007479Y009783D03*
X007164Y009783D03*
X006849Y009783D03*
X006534Y009783D03*
X006220Y009783D03*
X005905Y009783D03*
X005590Y009783D03*
X005275Y009783D03*
X004960Y009783D03*
X004645Y009783D03*
X004645Y005217D03*
X004960Y005217D03*
X005275Y005217D03*
X005590Y005217D03*
X005905Y005217D03*
X006220Y005217D03*
X006534Y005217D03*
X006849Y005217D03*
X007164Y005217D03*
X007479Y005217D03*
X007794Y005217D03*
D25*
X008503Y005925D03*
X008503Y006240D03*
X008503Y006555D03*
X008503Y006870D03*
X008503Y007185D03*
X008503Y007500D03*
X008503Y007815D03*
X008503Y008130D03*
X008503Y008445D03*
X008503Y008760D03*
X008503Y009075D03*
X003936Y009075D03*
X003936Y008760D03*
X003936Y008445D03*
X003936Y008130D03*
X003936Y007815D03*
X003936Y007500D03*
X003936Y007185D03*
X003936Y006870D03*
X003936Y006555D03*
X003936Y006240D03*
X003936Y005925D03*
D26*
X006685Y004300D03*
X007354Y004300D03*
X006054Y010600D03*
X005385Y010600D03*
D27*
X002820Y008235D03*
X002820Y007565D03*
X009720Y007565D03*
X009720Y008235D03*
D28*
X002871Y011400D03*
X001768Y011400D03*
X017968Y005800D03*
X019071Y005800D03*
D29*
X015920Y006251D03*
X015920Y005149D03*
X010020Y005051D03*
X009120Y005051D03*
X009120Y003949D03*
X010020Y003949D03*
X009420Y010949D03*
X009420Y012051D03*
X012620Y011849D03*
X012620Y012951D03*
D30*
X015920Y007594D03*
D31*
X016707Y007594D03*
X017495Y007594D03*
X018282Y007594D03*
X019070Y007594D03*
X019070Y013500D03*
X018282Y013500D03*
X017495Y013500D03*
X016707Y013500D03*
X015920Y013500D03*
X014345Y013500D03*
D32*
X012620Y010960D03*
X012620Y009840D03*
X016920Y006260D03*
X016920Y005140D03*
D33*
X018745Y003100D03*
X021894Y003100D03*
D34*
X016953Y003800D03*
X016086Y003426D03*
X016086Y004174D03*
D35*
X010720Y014100D02*
X011273Y014654D01*
X011273Y016600D01*
X011273Y017954D01*
X011620Y018300D01*
X011620Y018700D01*
X012620Y018700D02*
X012620Y018300D01*
X012966Y017954D01*
X012966Y016600D01*
X012620Y018700D02*
X012620Y019200D01*
X011820Y020000D01*
X003020Y020000D01*
X001842Y018822D01*
X001842Y018300D01*
X001842Y017500D01*
X001942Y017400D01*
X004620Y017400D01*
X004870Y017150D01*
X004870Y016776D01*
X003220Y018300D02*
X003743Y018824D01*
X004870Y018824D01*
X005370Y018824D01*
X005870Y018824D01*
X006370Y018824D01*
X001842Y017500D02*
X001842Y014778D01*
X001420Y014400D01*
D36*
X003168Y012800D02*
X001768Y011400D01*
X000520Y010151D01*
X000520Y008700D01*
X001020Y008200D01*
X001020Y007600D01*
X001054Y007565D01*
X002820Y007565D01*
X001020Y007600D02*
X001020Y000900D01*
X001320Y000600D01*
X003820Y000600D01*
X005320Y002100D01*
X008271Y002100D01*
X008871Y001500D01*
X009971Y002600D01*
X010220Y002600D01*
X000920Y011800D02*
X000920Y011900D01*
X001220Y012200D01*
X001720Y012200D01*
X004120Y014500D01*
X004220Y014700D01*
X004220Y015300D01*
X004220Y014700D02*
X006020Y014700D01*
X006368Y015049D01*
X006368Y015200D01*
X005870Y015899D01*
X005870Y016776D01*
X005870Y017550D01*
X005520Y017900D01*
X005120Y017900D01*
X005370Y016776D02*
X005370Y015650D01*
X005520Y015400D01*
X005520Y015200D01*
X004571Y013751D02*
X004220Y013400D01*
X004220Y012800D01*
X003168Y012800D01*
X004571Y013751D02*
X007520Y013751D01*
X007520Y014100D01*
X009330Y015810D01*
X009330Y016780D01*
X010020Y017200D02*
X009220Y018200D01*
X007700Y018200D01*
X007510Y018210D01*
X007120Y018600D01*
X007510Y018210D02*
X007510Y016780D01*
X008420Y016780D02*
X008420Y016000D01*
X008220Y015800D01*
X007820Y015449D01*
X007471Y015200D01*
X006920Y012800D02*
X006220Y012800D01*
X006920Y012800D02*
X007071Y012649D01*
X007520Y012649D01*
X010020Y015900D02*
X010020Y017200D01*
D37*
X010020Y015900D03*
X008220Y015800D03*
X005520Y015200D03*
X005120Y017900D03*
X007120Y018600D03*
X000920Y011800D03*
X004820Y008300D03*
X005720Y008600D03*
X007620Y007200D03*
X006520Y006200D03*
X006620Y001500D03*
X013420Y009000D03*
D38*
X012820Y009000D01*
X012620Y009200D01*
X012620Y009840D01*
X012620Y010960D02*
X012620Y011849D01*
X012620Y012951D02*
X013796Y012951D01*
X014345Y013500D01*
X015545Y014700D01*
X020120Y014700D01*
X020420Y014400D01*
X020420Y012400D01*
X020120Y012100D01*
X017520Y012100D01*
X015420Y010000D01*
X015420Y009200D01*
X016720Y007900D01*
X016720Y007607D01*
X016707Y007594D01*
X016707Y007312D01*
X017120Y006900D01*
X017971Y006900D01*
X019071Y005800D01*
X019846Y005149D01*
X021894Y003100D01*
X018745Y003100D02*
X018620Y003100D01*
X017920Y003800D01*
X016953Y003800D01*
X016920Y003833D01*
X016920Y005140D01*
X016086Y004982D02*
X016086Y004174D01*
X016086Y003426D02*
X015294Y003426D01*
X015020Y003700D01*
X015020Y003800D01*
X016086Y004982D02*
X015920Y005149D01*
X015920Y006251D02*
X015868Y006251D01*
X015120Y007000D01*
X015120Y010100D01*
X017420Y012400D01*
X019920Y012400D01*
X020120Y012600D01*
X020120Y014200D01*
X019920Y014400D01*
X016820Y014400D01*
X015920Y013500D01*
X016707Y013500D02*
X016720Y013488D01*
X016720Y012100D01*
X014320Y009700D01*
X014320Y008100D01*
X016920Y006260D02*
X017509Y006260D01*
X017968Y005800D01*
X019077Y006800D02*
X021620Y006800D01*
X021664Y006802D01*
X021707Y006808D01*
X021749Y006817D01*
X021791Y006830D01*
X021831Y006847D01*
X021870Y006867D01*
X021907Y006890D01*
X021941Y006917D01*
X021974Y006946D01*
X022003Y006979D01*
X022030Y007013D01*
X022053Y007050D01*
X022073Y007089D01*
X022090Y007129D01*
X022103Y007171D01*
X022112Y007213D01*
X022118Y007256D01*
X022120Y007300D01*
X022120Y008300D02*
X018200Y008300D01*
X018150Y008298D01*
X018100Y008293D01*
X018050Y008284D01*
X018001Y008271D01*
X017953Y008255D01*
X017907Y008236D01*
X017862Y008214D01*
X017818Y008188D01*
X017777Y008159D01*
X017738Y008128D01*
X017701Y008093D01*
X017666Y008056D01*
X017635Y008017D01*
X017606Y007976D01*
X017580Y007932D01*
X017558Y007887D01*
X017539Y007841D01*
X017523Y007793D01*
X017510Y007744D01*
X017501Y007694D01*
X017496Y007644D01*
X017494Y007594D01*
X018283Y007594D02*
X018285Y007540D01*
X018290Y007486D01*
X018300Y007432D01*
X018312Y007380D01*
X018329Y007328D01*
X018349Y007278D01*
X018372Y007229D01*
X018399Y007181D01*
X018428Y007136D01*
X018461Y007093D01*
X018497Y007052D01*
X018535Y007014D01*
X018576Y006978D01*
X018619Y006945D01*
X018664Y006916D01*
X018712Y006889D01*
X018761Y006866D01*
X018811Y006846D01*
X018863Y006829D01*
X018915Y006817D01*
X018969Y006807D01*
X019023Y006802D01*
X019077Y006800D01*
X009970Y013600D02*
X009720Y013600D01*
X009420Y013300D01*
X009420Y012051D01*
X008820Y011200D02*
X008820Y013600D01*
X010820Y015600D01*
X010820Y017700D01*
X010720Y017800D01*
X010220Y017600D02*
X010520Y017200D01*
X010520Y015700D01*
X008520Y013700D01*
X008520Y011300D01*
X008420Y011200D01*
X007320Y011200D01*
X006534Y010415D01*
X006534Y009783D01*
X006236Y009783D02*
X006220Y009783D01*
X005905Y009783D02*
X005905Y009415D01*
X006420Y008700D01*
X006820Y008700D01*
X006920Y008100D02*
X006720Y008000D01*
X006675Y007955D01*
X005275Y007955D01*
X005275Y009783D01*
X005285Y010394D01*
X005385Y010600D01*
X005590Y010170D02*
X005920Y010500D01*
X005920Y010565D01*
X006054Y010600D01*
X005590Y010170D02*
X005590Y009783D01*
X005590Y009030D01*
X005720Y008600D01*
X005275Y007955D02*
X004820Y007500D01*
X003936Y007500D01*
X002885Y007500D01*
X002820Y007565D01*
X003405Y007815D02*
X003020Y008200D01*
X002854Y008200D01*
X002820Y008235D01*
X003405Y007815D02*
X003936Y007815D01*
X004534Y007815D01*
X004820Y008100D01*
X004820Y008300D01*
X004960Y009783D02*
X004960Y010940D01*
X005120Y011100D01*
X006520Y011100D01*
X007020Y011600D01*
X007920Y011600D01*
X007420Y010900D02*
X008520Y010900D01*
X008820Y011200D01*
X009071Y010600D02*
X009420Y010949D01*
X009071Y010600D02*
X007520Y010600D01*
X007164Y010245D01*
X007164Y009783D01*
X006849Y009783D02*
X006849Y010330D01*
X007420Y010900D01*
X007520Y008900D02*
X007520Y008500D01*
X007890Y008130D02*
X006920Y008100D01*
X006720Y008000D02*
X006720Y007200D01*
X007164Y006755D01*
X007164Y005217D01*
X007164Y004490D01*
X007354Y004300D01*
X006849Y004465D02*
X006685Y004300D01*
X006849Y004465D02*
X006849Y005217D01*
X006849Y005870D01*
X006520Y006200D01*
X007620Y007200D02*
X007634Y007815D01*
X008503Y007815D01*
X008518Y007800D01*
X009220Y007800D01*
X009454Y007565D01*
X009720Y007565D01*
X009249Y008130D02*
X009420Y008300D01*
X009585Y008300D01*
X009720Y008235D01*
X009249Y008130D02*
X008503Y008130D01*
X007890Y008130D01*
X007768Y001500D02*
X006620Y001500D01*
X010220Y017600D02*
X010220Y018800D01*
X010520Y019100D01*
X013520Y019700D02*
X017020Y019700D01*
X018020Y018700D01*
X015320Y018700D02*
X015320Y018400D01*
X014720Y017800D01*
X013720Y017800D01*
D39*
X013720Y017800D03*
X013520Y019700D03*
X010720Y017800D03*
X010520Y019100D03*
X007920Y011600D03*
X006820Y008700D03*
X007520Y008500D03*
X003120Y010600D03*
X002620Y006000D03*
X014320Y008100D03*
X015020Y003800D03*
D40*
X013720Y003100D02*
X013720Y002100D01*
X014220Y001600D01*
X013720Y003100D02*
X011920Y004900D01*
X011920Y005300D01*
X011320Y005200D02*
X011320Y006400D01*
X011020Y006700D01*
X009820Y006700D01*
X009020Y007500D01*
X008503Y007500D01*
X008503Y007185D02*
X009034Y007185D01*
X009720Y006500D01*
X010920Y006500D01*
X011120Y006300D01*
X011120Y005100D01*
X012220Y004000D01*
X012220Y003600D01*
X012720Y003800D02*
X011320Y005200D01*
X010920Y005000D02*
X010920Y006200D01*
X010820Y006300D01*
X009620Y006300D01*
X009049Y006870D01*
X008503Y006870D01*
X008503Y006555D02*
X009064Y006555D01*
X009520Y006100D01*
X010720Y006100D01*
X010720Y004900D01*
X011520Y004100D01*
X011520Y003100D01*
X011220Y002800D01*
X011220Y002600D01*
X011720Y003100D02*
X012220Y002600D01*
X011720Y003100D02*
X011720Y004200D01*
X010920Y005000D01*
X010020Y005051D02*
X009920Y005151D01*
X009920Y005400D01*
X009079Y006240D01*
X008503Y006240D01*
X008503Y005925D02*
X008894Y005925D01*
X009020Y005800D01*
X009020Y005151D01*
X009120Y005051D01*
X008120Y004600D02*
X007920Y004600D01*
X007794Y004725D01*
X007794Y005217D01*
X009120Y003949D02*
X009168Y003949D01*
X008820Y003600D01*
X007220Y003600D01*
X006520Y002900D01*
X007520Y002900D02*
X008971Y002900D01*
X010020Y003949D01*
X012720Y003800D02*
X012720Y002100D01*
X012220Y001600D01*
X007520Y008900D02*
X007320Y009100D01*
X006520Y009100D01*
X006220Y009400D01*
X006220Y009783D01*
X004220Y011800D02*
X003520Y011100D01*
X003520Y009200D01*
X003645Y009075D01*
X003936Y009075D01*
X003936Y008760D02*
X003560Y008760D01*
X003320Y009000D01*
X003320Y010400D01*
X003120Y010600D01*
X002871Y010849D01*
X002871Y011400D01*
X003405Y007185D02*
X002620Y006400D01*
X002620Y006000D01*
X003020Y005700D02*
X002620Y005300D01*
X001720Y005300D01*
X003020Y005700D02*
X003020Y006500D01*
X003390Y006870D01*
X003936Y006870D01*
X003936Y007185D02*
X003405Y007185D01*
D41*
X008120Y004600D03*
X011920Y005300D03*
X012220Y003600D03*
M02*
