G75*
%MOIN*%
%OFA0B0*%
%FSLAX24Y24*%
%IPPOS*%
%LPD*%
%AMOC8*
5,1,8,0,0,1.08239X$1,22.5*
%
%ADD10OC8,0.0820*%
%ADD11R,0.0710X0.0631*%
%ADD12R,0.0631X0.0710*%
%ADD13R,0.0820X0.0820*%
%ADD14C,0.0820*%
%ADD15C,0.1380*%
%ADD16R,0.0880X0.0880*%
%ADD17C,0.0880*%
%ADD18R,0.0316X0.0946*%
%ADD19C,0.0730*%
%ADD20R,0.0730X0.0730*%
%ADD21R,0.0560X0.0960*%
%ADD22R,0.1497X0.0946*%
%ADD23R,0.0580X0.0659*%
%ADD24R,0.0277X0.0671*%
%ADD25R,0.0671X0.0277*%
%ADD26R,0.0513X0.0474*%
%ADD27R,0.0474X0.0513*%
%ADD28R,0.0710X0.0789*%
%ADD29R,0.0789X0.0710*%
%ADD30R,0.0595X0.0595*%
%ADD31C,0.0595*%
%ADD32R,0.0790X0.0710*%
%ADD33R,0.1340X0.1064*%
%ADD34C,0.0395*%
%ADD35R,0.0631X0.0474*%
%ADD36R,0.0555X0.0555*%
%ADD37R,0.0476X0.0476*%
%ADD38R,0.0516X0.0516*%
D10*
X010220Y001600D03*
X011220Y001600D03*
X012220Y001600D03*
X013220Y001600D03*
X014220Y001600D03*
X014220Y002600D03*
X013220Y002600D03*
X012220Y002600D03*
X011220Y002600D03*
X010220Y002600D03*
X006220Y011800D03*
X005220Y011800D03*
X005220Y012800D03*
X006220Y012800D03*
X004220Y012800D03*
X004220Y011800D03*
D11*
X007520Y012649D03*
X007520Y013751D03*
D12*
X007471Y015200D03*
X006368Y015200D03*
X007768Y001500D03*
X008871Y001500D03*
D13*
X012620Y018700D03*
X015320Y018700D03*
X018020Y018700D03*
D14*
X001720Y001300D03*
X001720Y002300D03*
X001720Y003300D03*
X001720Y004300D03*
X001720Y005300D03*
X001720Y006300D03*
X005520Y002900D03*
X006520Y002900D03*
X007520Y002900D03*
X010720Y013100D03*
X009970Y013600D03*
X010720Y014100D03*
X011620Y018700D03*
X014320Y018700D03*
X017020Y018700D03*
X022120Y008300D03*
X022120Y007300D03*
D15*
X016220Y001600D03*
X001920Y009500D03*
X021420Y018500D03*
D16*
X003220Y018300D03*
D17*
X001842Y018300D03*
D18*
X004870Y018824D03*
X005370Y018824D03*
X005870Y018824D03*
X006370Y018824D03*
X006370Y016776D03*
X005870Y016776D03*
X005370Y016776D03*
X004870Y016776D03*
D19*
X003220Y015300D03*
X001420Y013400D03*
D20*
X001420Y014400D03*
X004220Y015300D03*
D21*
X007510Y016780D03*
X008420Y016780D03*
X009330Y016780D03*
D22*
X008420Y019220D03*
D23*
X011273Y016600D03*
X012966Y016600D03*
D24*
X007794Y009783D03*
X007479Y009783D03*
X007164Y009783D03*
X006849Y009783D03*
X006534Y009783D03*
X006220Y009783D03*
X005905Y009783D03*
X005590Y009783D03*
X005275Y009783D03*
X004960Y009783D03*
X004645Y009783D03*
X004645Y005217D03*
X004960Y005217D03*
X005275Y005217D03*
X005590Y005217D03*
X005905Y005217D03*
X006220Y005217D03*
X006534Y005217D03*
X006849Y005217D03*
X007164Y005217D03*
X007479Y005217D03*
X007794Y005217D03*
D25*
X008503Y005925D03*
X008503Y006240D03*
X008503Y006555D03*
X008503Y006870D03*
X008503Y007185D03*
X008503Y007500D03*
X008503Y007815D03*
X008503Y008130D03*
X008503Y008445D03*
X008503Y008760D03*
X008503Y009075D03*
X003936Y009075D03*
X003936Y008760D03*
X003936Y008445D03*
X003936Y008130D03*
X003936Y007815D03*
X003936Y007500D03*
X003936Y007185D03*
X003936Y006870D03*
X003936Y006555D03*
X003936Y006240D03*
X003936Y005925D03*
D26*
X006685Y004300D03*
X007354Y004300D03*
X006054Y010600D03*
X005385Y010600D03*
D27*
X002820Y008235D03*
X002820Y007565D03*
X009720Y007565D03*
X009720Y008235D03*
D28*
X002871Y011400D03*
X001768Y011400D03*
X017968Y005800D03*
X019071Y005800D03*
D29*
X015920Y006251D03*
X015920Y005149D03*
X010020Y005051D03*
X009120Y005051D03*
X009120Y003949D03*
X010020Y003949D03*
X009420Y010949D03*
X009420Y012051D03*
X012620Y011849D03*
X012620Y012951D03*
D30*
X015920Y007594D03*
D31*
X016707Y007594D03*
X017495Y007594D03*
X018282Y007594D03*
X019070Y007594D03*
X019070Y013500D03*
X018282Y013500D03*
X017495Y013500D03*
X016707Y013500D03*
X015920Y013500D03*
X014345Y013500D03*
D32*
X012620Y010960D03*
X012620Y009840D03*
X016920Y006260D03*
X016920Y005140D03*
D33*
X018745Y003100D03*
X021894Y003100D03*
D34*
X021205Y004635D03*
X018784Y002214D03*
D35*
X016953Y003800D03*
X016086Y003426D03*
X016086Y004174D03*
D36*
X013420Y009000D03*
X007620Y007200D03*
X006520Y006200D03*
X004820Y008300D03*
X005720Y008600D03*
X000920Y011800D03*
X005520Y015200D03*
X008220Y015800D03*
X010020Y015900D03*
X007120Y018600D03*
X005120Y017900D03*
X006620Y001500D03*
D37*
X002620Y006000D03*
X006820Y008700D03*
X007520Y008500D03*
X007920Y011600D03*
X003120Y010600D03*
X010720Y017800D03*
X010520Y019100D03*
X013520Y019700D03*
X013720Y017800D03*
X014320Y008100D03*
X015020Y003800D03*
D38*
X012220Y003600D03*
X011920Y005300D03*
X008120Y004600D03*
M02*
