%
M48
M72
T01C0.0236
T02C0.0276
T03C0.0315
T04C0.0320
T05C0.0400
T06C0.0472
T07C0.1300
%
T01
X2620Y6000
X6820Y8700
X7520Y8500
X7920Y11600
X3120Y10600
X10720Y17800
X10520Y19100
X13520Y19700
X13720Y17800
X14320Y8100
X15020Y3800
T02
X12220Y3600
X11920Y5300
X8120Y4600
X1420Y13400
X1420Y14400
X3220Y15300
X4220Y15300
T03
X5520Y15200
X8220Y15800
X10020Y15900
X7120Y18600
X5120Y17900
X920Y11800
X4820Y8300
X5720Y8600
X7620Y7200
X6520Y6200
X6620Y1500
X13420Y9000
X15920Y7594
X16707Y7594
X17495Y7594
X18282Y7594
X19070Y7594
X21205Y4635
X18784Y2214
X19070Y13500
X18282Y13500
X17495Y13500
X16707Y13500
X15920Y13500
X14345Y13500
T04
X10720Y13100
X9970Y13600
X10720Y14100
T05
X1720Y1300
X1720Y2300
X1720Y3300
X1720Y4300
X1720Y5300
X1720Y6300
X5520Y2900
X6520Y2900
X7520Y2900
X10220Y2600
X11220Y2600
X12220Y2600
X13220Y2600
X14220Y2600
X14220Y1600
X13220Y1600
X12220Y1600
X11220Y1600
X10220Y1600
X6220Y11800
X5220Y11800
X5220Y12800
X6220Y12800
X4220Y12800
X4220Y11800
X11620Y18700
X12620Y18700
X14320Y18700
X15320Y18700
X17020Y18700
X18020Y18700
X22120Y8300
X22120Y7300
T06
X3220Y18300
X1842Y18300
T07
X1920Y9500
X16220Y1600
X21420Y18500
M30
