G75*
%MOIN*%
%OFA0B0*%
%FSLAX24Y24*%
%IPPOS*%
%LPD*%
%AMOC8*
5,1,8,0,0,1.08239X$1,22.5*
%
%ADD10C,0.0600*%
%ADD11R,0.0820X0.0820*%
%ADD12C,0.0820*%
%ADD13C,0.1380*%
%ADD14OC8,0.0820*%
%ADD15C,0.0730*%
%ADD16R,0.0730X0.0730*%
%ADD17R,0.0789X0.0789*%
%ADD18R,0.0611X0.0611*%
%ADD19R,0.0476X0.0476*%
D10*
X002340Y003480D02*
X002860Y003480D01*
X002860Y004480D02*
X002340Y004480D01*
X002340Y005480D02*
X002860Y005480D01*
X002860Y006480D02*
X002340Y006480D01*
X002340Y007480D02*
X002860Y007480D01*
X002860Y008480D02*
X002340Y008480D01*
X002340Y009480D02*
X002860Y009480D01*
X002860Y010480D02*
X002340Y010480D01*
X002340Y011480D02*
X002860Y011480D01*
X005340Y011480D02*
X005860Y011480D01*
X005860Y010480D02*
X005340Y010480D01*
X005340Y009480D02*
X005860Y009480D01*
X005860Y008480D02*
X005340Y008480D01*
X005340Y007480D02*
X005860Y007480D01*
X005860Y006480D02*
X005340Y006480D01*
X005340Y005480D02*
X005860Y005480D01*
X005860Y004480D02*
X005340Y004480D01*
X005340Y003480D02*
X005860Y003480D01*
X007340Y003480D02*
X007860Y003480D01*
X007860Y004480D02*
X007340Y004480D01*
X007340Y005480D02*
X007860Y005480D01*
X007860Y006480D02*
X007340Y006480D01*
X007340Y007480D02*
X007860Y007480D01*
X007860Y008480D02*
X007340Y008480D01*
X007340Y009480D02*
X007860Y009480D01*
X007860Y010480D02*
X007340Y010480D01*
X007340Y011480D02*
X007860Y011480D01*
X007860Y012480D02*
X007340Y012480D01*
X010340Y012480D02*
X010860Y012480D01*
X010860Y011480D02*
X010340Y011480D01*
X010340Y010480D02*
X010860Y010480D01*
X010860Y009480D02*
X010340Y009480D01*
X010340Y008480D02*
X010860Y008480D01*
X010860Y007480D02*
X010340Y007480D01*
X010340Y006480D02*
X010860Y006480D01*
X010860Y005480D02*
X010340Y005480D01*
X010340Y004480D02*
X010860Y004480D01*
X010860Y003480D02*
X010340Y003480D01*
X013340Y003480D02*
X013860Y003480D01*
X013860Y004480D02*
X013340Y004480D01*
X013340Y005480D02*
X013860Y005480D01*
X013860Y006480D02*
X013340Y006480D01*
X013340Y007480D02*
X013860Y007480D01*
X013860Y008480D02*
X013340Y008480D01*
X013340Y009480D02*
X013860Y009480D01*
X013860Y010480D02*
X013340Y010480D01*
X013340Y011480D02*
X013860Y011480D01*
X016340Y011480D02*
X016860Y011480D01*
X016860Y010480D02*
X016340Y010480D01*
X016340Y009480D02*
X016860Y009480D01*
X016860Y008480D02*
X016340Y008480D01*
X016340Y007480D02*
X016860Y007480D01*
X016860Y006480D02*
X016340Y006480D01*
X016340Y005480D02*
X016860Y005480D01*
X016860Y004480D02*
X016340Y004480D01*
X016340Y003480D02*
X016860Y003480D01*
X018340Y003480D02*
X018860Y003480D01*
X018860Y004480D02*
X018340Y004480D01*
X018340Y005480D02*
X018860Y005480D01*
X018860Y006480D02*
X018340Y006480D01*
X018340Y007480D02*
X018860Y007480D01*
X018860Y008480D02*
X018340Y008480D01*
X018340Y009480D02*
X018860Y009480D01*
X018860Y010480D02*
X018340Y010480D01*
X018340Y011480D02*
X018860Y011480D01*
X018860Y012480D02*
X018340Y012480D01*
X021340Y012480D02*
X021860Y012480D01*
X021860Y011480D02*
X021340Y011480D01*
X021340Y010480D02*
X021860Y010480D01*
X021860Y009480D02*
X021340Y009480D01*
X021340Y008480D02*
X021860Y008480D01*
X021860Y007480D02*
X021340Y007480D01*
X021340Y006480D02*
X021860Y006480D01*
X021860Y005480D02*
X021340Y005480D01*
X021340Y004480D02*
X021860Y004480D01*
X021860Y003480D02*
X021340Y003480D01*
D11*
X018100Y017980D03*
D12*
X019100Y017980D03*
X020100Y017980D03*
D13*
X001800Y001680D03*
X001600Y017980D03*
X022100Y017480D03*
X022100Y001680D03*
D14*
X005200Y014380D03*
X005200Y015380D03*
X005200Y016380D03*
X005200Y017380D03*
X004200Y017380D03*
X004200Y016380D03*
X004200Y015380D03*
X004200Y014380D03*
D15*
X016100Y016980D03*
X018100Y015480D03*
D16*
X018100Y014480D03*
X016100Y017980D03*
D17*
X020600Y015480D03*
X017100Y001980D03*
X006100Y001980D03*
D18*
X012100Y010980D03*
D19*
X012200Y010080D03*
X014700Y014180D03*
X012900Y014780D03*
X008900Y017180D03*
X007800Y017580D03*
X007900Y014280D03*
X006800Y013780D03*
X006300Y013080D03*
X001700Y015180D03*
X001600Y013580D03*
X000800Y002780D03*
X011800Y002380D03*
M02*
