G75*
%MOIN*%
%OFA0B0*%
%FSLAX24Y24*%
%IPPOS*%
%LPD*%
%AMOC8*
5,1,8,0,0,1.08239X$1,22.5*
%
%ADD10R,0.0709X0.0630*%
%ADD11R,0.0236X0.0866*%
%ADD12R,0.0630X0.0551*%
%ADD13R,0.0551X0.0630*%
%ADD14R,0.0433X0.0394*%
D10*
X001200Y003429D03*
X001200Y004531D03*
X001200Y005529D03*
X001200Y006631D03*
X001200Y007629D03*
X001200Y008731D03*
X012200Y008831D03*
X012200Y007729D03*
X012200Y006631D03*
X012200Y005529D03*
X012200Y004431D03*
X012200Y003329D03*
D11*
X012400Y015156D03*
X011900Y015156D03*
X011400Y015156D03*
X010900Y015156D03*
X010400Y015156D03*
X009900Y015156D03*
X009400Y015156D03*
X009400Y017204D03*
X009900Y017204D03*
X010400Y017204D03*
X010900Y017204D03*
X011400Y017204D03*
X011900Y017204D03*
X012400Y017204D03*
D12*
X012100Y013531D03*
X012100Y012429D03*
X021600Y014429D03*
X021600Y015531D03*
D13*
X003549Y001980D03*
X004651Y001980D03*
X014549Y001980D03*
X015651Y001980D03*
D14*
X003235Y013480D03*
X002565Y013480D03*
X002565Y014280D03*
X003235Y014280D03*
X003235Y015080D03*
X002565Y015080D03*
X006165Y016480D03*
X006835Y016480D03*
X006565Y018180D03*
X007235Y018180D03*
X007865Y018180D03*
X008535Y018180D03*
X009165Y018180D03*
X009835Y018180D03*
X013165Y014180D03*
X013835Y014180D03*
M02*
