G75*
%MOIN*%
%OFA0B0*%
%FSLAX24Y24*%
%IPPOS*%
%LPD*%
%AMOC8*
5,1,8,0,0,1.08239X$1,22.5*
%
%ADD10C,0.0000*%
%ADD11R,0.0709X0.0630*%
%ADD12C,0.0520*%
%ADD13R,0.0236X0.0866*%
%ADD14R,0.0740X0.0740*%
%ADD15C,0.0740*%
%ADD16OC8,0.0740*%
%ADD17R,0.0630X0.0551*%
%ADD18R,0.0551X0.0630*%
%ADD19C,0.0650*%
%ADD20R,0.0650X0.0650*%
%ADD21R,0.0433X0.0394*%
%ADD22C,0.0400*%
%ADD23R,0.0709X0.0709*%
%ADD24C,0.0240*%
%ADD25R,0.0531X0.0531*%
%ADD26C,0.0120*%
%ADD27R,0.0396X0.0396*%
%ADD28C,0.0160*%
D10*
X000100Y000180D02*
X000100Y019476D01*
X023470Y019476D01*
X023470Y000180D01*
X000100Y000180D01*
X001150Y001680D02*
X001152Y001730D01*
X001158Y001780D01*
X001168Y001830D01*
X001181Y001878D01*
X001198Y001926D01*
X001219Y001972D01*
X001243Y002016D01*
X001271Y002058D01*
X001302Y002098D01*
X001336Y002135D01*
X001373Y002170D01*
X001412Y002201D01*
X001453Y002230D01*
X001497Y002255D01*
X001543Y002277D01*
X001590Y002295D01*
X001638Y002309D01*
X001687Y002320D01*
X001737Y002327D01*
X001787Y002330D01*
X001838Y002329D01*
X001888Y002324D01*
X001938Y002315D01*
X001986Y002303D01*
X002034Y002286D01*
X002080Y002266D01*
X002125Y002243D01*
X002168Y002216D01*
X002208Y002186D01*
X002246Y002153D01*
X002281Y002117D01*
X002314Y002078D01*
X002343Y002037D01*
X002369Y001994D01*
X002392Y001949D01*
X002411Y001902D01*
X002426Y001854D01*
X002438Y001805D01*
X002446Y001755D01*
X002450Y001705D01*
X002450Y001655D01*
X002446Y001605D01*
X002438Y001555D01*
X002426Y001506D01*
X002411Y001458D01*
X002392Y001411D01*
X002369Y001366D01*
X002343Y001323D01*
X002314Y001282D01*
X002281Y001243D01*
X002246Y001207D01*
X002208Y001174D01*
X002168Y001144D01*
X002125Y001117D01*
X002080Y001094D01*
X002034Y001074D01*
X001986Y001057D01*
X001938Y001045D01*
X001888Y001036D01*
X001838Y001031D01*
X001787Y001030D01*
X001737Y001033D01*
X001687Y001040D01*
X001638Y001051D01*
X001590Y001065D01*
X001543Y001083D01*
X001497Y001105D01*
X001453Y001130D01*
X001412Y001159D01*
X001373Y001190D01*
X001336Y001225D01*
X001302Y001262D01*
X001271Y001302D01*
X001243Y001344D01*
X001219Y001388D01*
X001198Y001434D01*
X001181Y001482D01*
X001168Y001530D01*
X001158Y001580D01*
X001152Y001630D01*
X001150Y001680D01*
X000950Y017980D02*
X000952Y018030D01*
X000958Y018080D01*
X000968Y018130D01*
X000981Y018178D01*
X000998Y018226D01*
X001019Y018272D01*
X001043Y018316D01*
X001071Y018358D01*
X001102Y018398D01*
X001136Y018435D01*
X001173Y018470D01*
X001212Y018501D01*
X001253Y018530D01*
X001297Y018555D01*
X001343Y018577D01*
X001390Y018595D01*
X001438Y018609D01*
X001487Y018620D01*
X001537Y018627D01*
X001587Y018630D01*
X001638Y018629D01*
X001688Y018624D01*
X001738Y018615D01*
X001786Y018603D01*
X001834Y018586D01*
X001880Y018566D01*
X001925Y018543D01*
X001968Y018516D01*
X002008Y018486D01*
X002046Y018453D01*
X002081Y018417D01*
X002114Y018378D01*
X002143Y018337D01*
X002169Y018294D01*
X002192Y018249D01*
X002211Y018202D01*
X002226Y018154D01*
X002238Y018105D01*
X002246Y018055D01*
X002250Y018005D01*
X002250Y017955D01*
X002246Y017905D01*
X002238Y017855D01*
X002226Y017806D01*
X002211Y017758D01*
X002192Y017711D01*
X002169Y017666D01*
X002143Y017623D01*
X002114Y017582D01*
X002081Y017543D01*
X002046Y017507D01*
X002008Y017474D01*
X001968Y017444D01*
X001925Y017417D01*
X001880Y017394D01*
X001834Y017374D01*
X001786Y017357D01*
X001738Y017345D01*
X001688Y017336D01*
X001638Y017331D01*
X001587Y017330D01*
X001537Y017333D01*
X001487Y017340D01*
X001438Y017351D01*
X001390Y017365D01*
X001343Y017383D01*
X001297Y017405D01*
X001253Y017430D01*
X001212Y017459D01*
X001173Y017490D01*
X001136Y017525D01*
X001102Y017562D01*
X001071Y017602D01*
X001043Y017644D01*
X001019Y017688D01*
X000998Y017734D01*
X000981Y017782D01*
X000968Y017830D01*
X000958Y017880D01*
X000952Y017930D01*
X000950Y017980D01*
X021450Y017480D02*
X021452Y017530D01*
X021458Y017580D01*
X021468Y017630D01*
X021481Y017678D01*
X021498Y017726D01*
X021519Y017772D01*
X021543Y017816D01*
X021571Y017858D01*
X021602Y017898D01*
X021636Y017935D01*
X021673Y017970D01*
X021712Y018001D01*
X021753Y018030D01*
X021797Y018055D01*
X021843Y018077D01*
X021890Y018095D01*
X021938Y018109D01*
X021987Y018120D01*
X022037Y018127D01*
X022087Y018130D01*
X022138Y018129D01*
X022188Y018124D01*
X022238Y018115D01*
X022286Y018103D01*
X022334Y018086D01*
X022380Y018066D01*
X022425Y018043D01*
X022468Y018016D01*
X022508Y017986D01*
X022546Y017953D01*
X022581Y017917D01*
X022614Y017878D01*
X022643Y017837D01*
X022669Y017794D01*
X022692Y017749D01*
X022711Y017702D01*
X022726Y017654D01*
X022738Y017605D01*
X022746Y017555D01*
X022750Y017505D01*
X022750Y017455D01*
X022746Y017405D01*
X022738Y017355D01*
X022726Y017306D01*
X022711Y017258D01*
X022692Y017211D01*
X022669Y017166D01*
X022643Y017123D01*
X022614Y017082D01*
X022581Y017043D01*
X022546Y017007D01*
X022508Y016974D01*
X022468Y016944D01*
X022425Y016917D01*
X022380Y016894D01*
X022334Y016874D01*
X022286Y016857D01*
X022238Y016845D01*
X022188Y016836D01*
X022138Y016831D01*
X022087Y016830D01*
X022037Y016833D01*
X021987Y016840D01*
X021938Y016851D01*
X021890Y016865D01*
X021843Y016883D01*
X021797Y016905D01*
X021753Y016930D01*
X021712Y016959D01*
X021673Y016990D01*
X021636Y017025D01*
X021602Y017062D01*
X021571Y017102D01*
X021543Y017144D01*
X021519Y017188D01*
X021498Y017234D01*
X021481Y017282D01*
X021468Y017330D01*
X021458Y017380D01*
X021452Y017430D01*
X021450Y017480D01*
X021450Y001680D02*
X021452Y001730D01*
X021458Y001780D01*
X021468Y001830D01*
X021481Y001878D01*
X021498Y001926D01*
X021519Y001972D01*
X021543Y002016D01*
X021571Y002058D01*
X021602Y002098D01*
X021636Y002135D01*
X021673Y002170D01*
X021712Y002201D01*
X021753Y002230D01*
X021797Y002255D01*
X021843Y002277D01*
X021890Y002295D01*
X021938Y002309D01*
X021987Y002320D01*
X022037Y002327D01*
X022087Y002330D01*
X022138Y002329D01*
X022188Y002324D01*
X022238Y002315D01*
X022286Y002303D01*
X022334Y002286D01*
X022380Y002266D01*
X022425Y002243D01*
X022468Y002216D01*
X022508Y002186D01*
X022546Y002153D01*
X022581Y002117D01*
X022614Y002078D01*
X022643Y002037D01*
X022669Y001994D01*
X022692Y001949D01*
X022711Y001902D01*
X022726Y001854D01*
X022738Y001805D01*
X022746Y001755D01*
X022750Y001705D01*
X022750Y001655D01*
X022746Y001605D01*
X022738Y001555D01*
X022726Y001506D01*
X022711Y001458D01*
X022692Y001411D01*
X022669Y001366D01*
X022643Y001323D01*
X022614Y001282D01*
X022581Y001243D01*
X022546Y001207D01*
X022508Y001174D01*
X022468Y001144D01*
X022425Y001117D01*
X022380Y001094D01*
X022334Y001074D01*
X022286Y001057D01*
X022238Y001045D01*
X022188Y001036D01*
X022138Y001031D01*
X022087Y001030D01*
X022037Y001033D01*
X021987Y001040D01*
X021938Y001051D01*
X021890Y001065D01*
X021843Y001083D01*
X021797Y001105D01*
X021753Y001130D01*
X021712Y001159D01*
X021673Y001190D01*
X021636Y001225D01*
X021602Y001262D01*
X021571Y001302D01*
X021543Y001344D01*
X021519Y001388D01*
X021498Y001434D01*
X021481Y001482D01*
X021468Y001530D01*
X021458Y001580D01*
X021452Y001630D01*
X021450Y001680D01*
D11*
X012200Y003329D03*
X012200Y004431D03*
X012200Y005529D03*
X012200Y006631D03*
X012200Y007729D03*
X012200Y008831D03*
X001200Y008731D03*
X001200Y007629D03*
X001200Y006631D03*
X001200Y005529D03*
X001200Y004531D03*
X001200Y003429D03*
D12*
X002340Y003480D02*
X002860Y003480D01*
X002860Y004480D02*
X002340Y004480D01*
X002340Y005480D02*
X002860Y005480D01*
X002860Y006480D02*
X002340Y006480D01*
X002340Y007480D02*
X002860Y007480D01*
X002860Y008480D02*
X002340Y008480D01*
X002340Y009480D02*
X002860Y009480D01*
X002860Y010480D02*
X002340Y010480D01*
X002340Y011480D02*
X002860Y011480D01*
X005340Y011480D02*
X005860Y011480D01*
X005860Y010480D02*
X005340Y010480D01*
X005340Y009480D02*
X005860Y009480D01*
X005860Y008480D02*
X005340Y008480D01*
X005340Y007480D02*
X005860Y007480D01*
X005860Y006480D02*
X005340Y006480D01*
X005340Y005480D02*
X005860Y005480D01*
X005860Y004480D02*
X005340Y004480D01*
X005340Y003480D02*
X005860Y003480D01*
X007340Y003480D02*
X007860Y003480D01*
X007860Y004480D02*
X007340Y004480D01*
X007340Y005480D02*
X007860Y005480D01*
X007860Y006480D02*
X007340Y006480D01*
X007340Y007480D02*
X007860Y007480D01*
X007860Y008480D02*
X007340Y008480D01*
X007340Y009480D02*
X007860Y009480D01*
X007860Y010480D02*
X007340Y010480D01*
X007340Y011480D02*
X007860Y011480D01*
X007860Y012480D02*
X007340Y012480D01*
X010340Y012480D02*
X010860Y012480D01*
X010860Y011480D02*
X010340Y011480D01*
X010340Y010480D02*
X010860Y010480D01*
X010860Y009480D02*
X010340Y009480D01*
X010340Y008480D02*
X010860Y008480D01*
X010860Y007480D02*
X010340Y007480D01*
X010340Y006480D02*
X010860Y006480D01*
X010860Y005480D02*
X010340Y005480D01*
X010340Y004480D02*
X010860Y004480D01*
X010860Y003480D02*
X010340Y003480D01*
X013340Y003480D02*
X013860Y003480D01*
X013860Y004480D02*
X013340Y004480D01*
X013340Y005480D02*
X013860Y005480D01*
X013860Y006480D02*
X013340Y006480D01*
X013340Y007480D02*
X013860Y007480D01*
X013860Y008480D02*
X013340Y008480D01*
X013340Y009480D02*
X013860Y009480D01*
X013860Y010480D02*
X013340Y010480D01*
X013340Y011480D02*
X013860Y011480D01*
X016340Y011480D02*
X016860Y011480D01*
X016860Y010480D02*
X016340Y010480D01*
X016340Y009480D02*
X016860Y009480D01*
X016860Y008480D02*
X016340Y008480D01*
X016340Y007480D02*
X016860Y007480D01*
X016860Y006480D02*
X016340Y006480D01*
X016340Y005480D02*
X016860Y005480D01*
X016860Y004480D02*
X016340Y004480D01*
X016340Y003480D02*
X016860Y003480D01*
X018340Y003480D02*
X018860Y003480D01*
X018860Y004480D02*
X018340Y004480D01*
X018340Y005480D02*
X018860Y005480D01*
X018860Y006480D02*
X018340Y006480D01*
X018340Y007480D02*
X018860Y007480D01*
X018860Y008480D02*
X018340Y008480D01*
X018340Y009480D02*
X018860Y009480D01*
X018860Y010480D02*
X018340Y010480D01*
X018340Y011480D02*
X018860Y011480D01*
X018860Y012480D02*
X018340Y012480D01*
X021340Y012480D02*
X021860Y012480D01*
X021860Y011480D02*
X021340Y011480D01*
X021340Y010480D02*
X021860Y010480D01*
X021860Y009480D02*
X021340Y009480D01*
X021340Y008480D02*
X021860Y008480D01*
X021860Y007480D02*
X021340Y007480D01*
X021340Y006480D02*
X021860Y006480D01*
X021860Y005480D02*
X021340Y005480D01*
X021340Y004480D02*
X021860Y004480D01*
X021860Y003480D02*
X021340Y003480D01*
D13*
X012400Y015156D03*
X011900Y015156D03*
X011400Y015156D03*
X010900Y015156D03*
X010400Y015156D03*
X009900Y015156D03*
X009400Y015156D03*
X009400Y017204D03*
X009900Y017204D03*
X010400Y017204D03*
X010900Y017204D03*
X011400Y017204D03*
X011900Y017204D03*
X012400Y017204D03*
D14*
X018100Y017980D03*
D15*
X019100Y017980D03*
X020100Y017980D03*
D16*
X005200Y017380D03*
X005200Y016380D03*
X005200Y015380D03*
X005200Y014380D03*
X004200Y014380D03*
X004200Y015380D03*
X004200Y016380D03*
X004200Y017380D03*
D17*
X012100Y013531D03*
X012100Y012429D03*
X021600Y014429D03*
X021600Y015531D03*
D18*
X015651Y001980D03*
X014549Y001980D03*
X004651Y001980D03*
X003549Y001980D03*
D19*
X018100Y015480D03*
X016100Y016980D03*
D20*
X016100Y017980D03*
X018100Y014480D03*
D21*
X013835Y014180D03*
X013165Y014180D03*
X009835Y018180D03*
X009165Y018180D03*
X008535Y018180D03*
X007865Y018180D03*
X007235Y018180D03*
X006565Y018180D03*
X006835Y016480D03*
X006165Y016480D03*
X003235Y015080D03*
X002565Y015080D03*
X002565Y014280D03*
X003235Y014280D03*
X003235Y013480D03*
X002565Y013480D03*
D22*
X010600Y013480D02*
X010600Y013380D01*
X010600Y012480D01*
X010600Y011480D01*
X010600Y010480D01*
X010600Y009480D01*
X010600Y008480D01*
X010600Y007480D01*
X010600Y006480D01*
X010600Y005480D01*
X010600Y004480D01*
X010600Y003480D01*
X010600Y012480D02*
X010651Y012531D01*
X010600Y013480D02*
X010651Y013531D01*
X012100Y013531D01*
X013111Y013521D01*
X017049Y013480D01*
X017600Y013980D01*
X018100Y014480D01*
X018151Y014429D01*
X019600Y014429D01*
X019600Y016480D01*
X020100Y016980D01*
X020100Y017980D01*
X018100Y017980D02*
X018100Y017480D01*
X017600Y016980D01*
X016100Y016980D01*
X019600Y014429D02*
X021600Y014429D01*
X021600Y012480D01*
X021600Y011480D01*
X021600Y010480D01*
X021600Y009480D01*
X021600Y008480D01*
X021600Y007480D01*
X021600Y006480D01*
X021600Y005480D01*
X021600Y004480D01*
X021600Y003480D01*
X021600Y015480D02*
X020600Y015480D01*
X021600Y015480D02*
X021600Y015531D01*
D23*
X020600Y015480D03*
X017100Y001980D03*
X006100Y001980D03*
D24*
X004651Y001980D01*
X003549Y001980D02*
X003549Y003031D01*
X003600Y003480D01*
X004100Y003980D01*
X004100Y009480D01*
X004100Y011280D01*
X004900Y012080D01*
X006400Y012080D01*
X006800Y011980D01*
X008400Y011980D01*
X009900Y013480D01*
X010500Y013480D01*
X010600Y013380D01*
X010600Y013480D02*
X010900Y013580D01*
X010900Y015156D01*
X013111Y013521D02*
X013111Y012491D01*
X012800Y011580D01*
X012800Y009780D01*
X013100Y009480D01*
X013600Y009480D01*
X014600Y009480D01*
X015100Y008980D01*
X015100Y003980D01*
X014600Y003480D01*
X014549Y003429D01*
X014549Y001980D01*
X015651Y001980D02*
X017100Y001980D01*
X014600Y003480D02*
X013600Y003480D01*
X013600Y005480D02*
X013600Y006480D01*
X012100Y010980D02*
X012100Y012429D01*
X004100Y009480D02*
X002600Y009480D01*
X002600Y003480D02*
X003600Y003480D01*
D25*
X012100Y010980D03*
D26*
X012200Y010080D02*
X012200Y008831D01*
X012200Y007729D02*
X012449Y007480D01*
X013600Y007480D01*
X013449Y006631D02*
X013600Y006480D01*
X013449Y006631D02*
X012200Y006631D01*
X012200Y005529D02*
X012200Y004431D01*
X013551Y004431D01*
X013600Y004480D01*
X012200Y003329D02*
X012200Y002980D01*
X011800Y002580D01*
X011800Y002380D01*
X002600Y004480D02*
X001251Y004480D01*
X001200Y004531D01*
X001200Y005529D01*
X001351Y006480D02*
X001200Y006631D01*
X001351Y006480D02*
X002600Y006480D01*
X002600Y005480D01*
X002600Y007480D02*
X001349Y007480D01*
X001200Y007629D01*
X001200Y008731D02*
X001100Y008831D01*
X001100Y012380D01*
X001400Y012680D01*
X002900Y012680D01*
X003235Y013015D01*
X003235Y013480D01*
X006000Y013480D01*
X006300Y013080D01*
X006800Y013780D02*
X009200Y016180D01*
X011700Y016180D01*
X011900Y015980D01*
X011900Y015156D01*
X011400Y015156D02*
X011400Y015780D01*
X011200Y015980D01*
X009300Y015980D01*
X007900Y014580D01*
X007900Y014280D01*
X006065Y016380D02*
X005200Y016380D01*
X006065Y016380D02*
X006165Y016480D01*
X006835Y016480D02*
X009700Y016480D01*
X009900Y016680D01*
X009900Y017204D01*
X009835Y017269D01*
X009835Y018180D01*
X009200Y018145D02*
X009200Y017780D01*
X009400Y017580D01*
X009400Y017204D01*
X009376Y017180D01*
X008900Y017180D01*
X007865Y017645D02*
X007800Y017580D01*
X007865Y017645D02*
X007865Y018180D01*
X007235Y018180D02*
X007235Y018415D01*
X007600Y018780D01*
X008500Y018780D01*
X010100Y018780D01*
X010400Y018480D01*
X010400Y017204D01*
X010900Y017204D02*
X010900Y018580D01*
X011200Y018880D01*
X013600Y018880D01*
X015500Y016980D01*
X016100Y016980D01*
X014700Y014180D02*
X013835Y014180D01*
X013165Y014180D02*
X011900Y014180D01*
X011400Y014680D01*
X011400Y015156D01*
X012400Y015156D02*
X012776Y014780D01*
X012900Y014780D01*
X009200Y018145D02*
X009165Y018180D01*
X008535Y018180D02*
X008500Y018215D01*
X008500Y018780D01*
X006565Y018180D02*
X006000Y018180D01*
X005200Y017380D01*
X004200Y015380D02*
X004000Y015380D01*
X003700Y015080D01*
X003235Y015080D01*
X002565Y015080D02*
X002465Y015180D01*
X001700Y015180D01*
X002565Y014280D02*
X002565Y013480D01*
X002465Y013580D01*
X001600Y013580D01*
X003235Y014280D02*
X003335Y014380D01*
X004200Y014380D01*
D27*
X006300Y013080D03*
X006800Y013780D03*
X007900Y014280D03*
X008900Y017180D03*
X007800Y017580D03*
X012900Y014780D03*
X014700Y014180D03*
X012200Y010080D03*
X011800Y002380D03*
X000800Y002780D03*
X001600Y013580D03*
X001700Y015180D03*
D28*
X003600Y012480D02*
X002600Y011480D01*
X003600Y012480D02*
X007600Y012480D01*
X007600Y011480D02*
X005600Y011480D01*
X005600Y010480D02*
X007600Y010480D01*
X007600Y009480D02*
X005600Y009480D01*
X005600Y008480D02*
X007600Y008480D01*
X007600Y007480D02*
X005600Y007480D01*
X005600Y006480D02*
X007600Y006480D01*
X007600Y005480D02*
X005600Y005480D01*
X005600Y004480D02*
X007600Y004480D01*
X007600Y003480D02*
X005600Y003480D01*
X001200Y003429D02*
X000800Y003429D01*
X000800Y002780D01*
X013600Y011480D02*
X014600Y012480D01*
X018600Y012480D01*
X018600Y011480D02*
X016600Y011480D01*
X016600Y010480D02*
X018600Y010480D01*
X018600Y009480D02*
X016600Y009480D01*
X016600Y008480D02*
X018600Y008480D01*
X018600Y007480D02*
X016600Y007480D01*
X016600Y006480D02*
X018600Y006480D01*
X018600Y005480D02*
X016600Y005480D01*
X016600Y004480D02*
X018600Y004480D01*
X018600Y003480D02*
X016600Y003480D01*
M02*
