%
M48
M72
T01C0.0236
T02C0.0276
T03C0.0320
T04C0.0354
T05C0.0400
T06C0.0472
T07C0.1300
%
T01
X800Y2780
X11800Y2380
X12200Y10080
X14700Y14180
X12900Y14780
X8900Y17180
X7800Y17580
X7900Y14280
X6800Y13780
X6300Y13080
X1700Y15180
X1600Y13580
T02
X16100Y16980
X16100Y17980
X18100Y15480
X18100Y14480
T03
X18600Y12480
X18600Y11480
X18600Y10480
X18600Y9480
X18600Y8480
X18600Y7480
X18600Y6480
X18600Y5480
X18600Y4480
X18600Y3480
X16600Y3480
X16600Y4480
X16600Y5480
X16600Y6480
X16600Y7480
X16600Y8480
X16600Y9480
X16600Y10480
X16600Y11480
X13600Y11480
X13600Y10480
X13600Y9480
X13600Y8480
X13600Y7480
X13600Y6480
X13600Y5480
X13600Y4480
X13600Y3480
X10600Y3480
X10600Y4480
X10600Y5480
X10600Y6480
X10600Y7480
X10600Y8480
X10600Y9480
X10600Y10480
X10600Y11480
X10600Y12480
X7600Y12480
X7600Y11480
X7600Y10480
X7600Y9480
X7600Y8480
X7600Y7480
X7600Y6480
X7600Y5480
X7600Y4480
X7600Y3480
X5600Y3480
X5600Y4480
X5600Y5480
X5600Y6480
X5600Y7480
X5600Y8480
X5600Y9480
X5600Y10480
X5600Y11480
X2600Y11480
X2600Y10480
X2600Y9480
X2600Y8480
X2600Y7480
X2600Y6480
X2600Y5480
X2600Y4480
X2600Y3480
X21600Y3480
X21600Y4480
X21600Y5480
X21600Y6480
X21600Y7480
X21600Y8480
X21600Y9480
X21600Y10480
X21600Y11480
X21600Y12480
T04
X12100Y10980
T05
X5200Y14380
X5200Y15380
X5200Y16380
X5200Y17380
X4200Y17380
X4200Y16380
X4200Y15380
X4200Y14380
X18100Y17980
X19100Y17980
X20100Y17980
T06
X20600Y15480
X17100Y1980
X6100Y1980
T07
X1800Y1680
X1600Y17980
X22100Y17480
X22100Y1680
M30
