G75*
%MOIN*%
%OFA0B0*%
%FSLAX24Y24*%
%IPPOS*%
%LPD*%
%AMOC8*
5,1,8,0,0,1.08239X$1,22.5*
%
%ADD10C,0.0060*%
D10*
X008238Y012130D02*
X008238Y012771D01*
X008558Y012450D01*
X008131Y012450D01*
X008776Y012130D02*
X009203Y012130D01*
X008989Y012130D02*
X008989Y012771D01*
X009203Y012557D01*
X009420Y012664D02*
X009847Y012237D01*
X009740Y012130D01*
X009527Y012130D01*
X009420Y012237D01*
X009420Y012664D01*
X009527Y012771D01*
X009740Y012771D01*
X009847Y012664D01*
X009847Y012237D01*
X010065Y012130D02*
X010492Y012130D01*
X010065Y012557D01*
X010065Y012664D01*
X010172Y012771D01*
X010385Y012771D01*
X010492Y012664D01*
X011354Y012557D02*
X011567Y012130D01*
X011781Y012557D01*
X011998Y012450D02*
X012105Y012557D01*
X012319Y012557D01*
X012425Y012450D01*
X012425Y012237D01*
X012319Y012130D01*
X012105Y012130D01*
X011998Y012237D01*
X011998Y012450D01*
X012643Y012130D02*
X012643Y012771D01*
X013070Y012771D02*
X012643Y012130D01*
X013070Y012130D02*
X013070Y012771D01*
X015024Y012771D02*
X015024Y012130D01*
X015024Y012450D02*
X015451Y012450D01*
X015451Y012130D02*
X015451Y012771D01*
X016313Y012450D02*
X016313Y012130D01*
X016313Y012450D02*
X016420Y012557D01*
X016740Y012557D01*
X016740Y012130D01*
X016957Y012130D02*
X017278Y012130D01*
X017384Y012237D01*
X017278Y012344D01*
X016957Y012344D01*
X016957Y012450D02*
X016957Y012130D01*
X016957Y012450D02*
X017064Y012557D01*
X017278Y012557D01*
X017601Y012557D02*
X017814Y012557D01*
X017707Y012664D02*
X017707Y012237D01*
X017601Y012130D01*
X018032Y012237D02*
X018138Y012344D01*
X018352Y012344D01*
X018459Y012450D01*
X018352Y012557D01*
X018032Y012557D01*
X018032Y012237D02*
X018138Y012130D01*
X018459Y012130D01*
X018675Y012130D02*
X018888Y012130D01*
X018782Y012130D02*
X018782Y012557D01*
X018888Y012557D01*
X019105Y012557D02*
X019212Y012557D01*
X019425Y012344D01*
X019425Y012557D02*
X019425Y012130D01*
X019856Y012130D02*
X019856Y012771D01*
X019643Y012771D02*
X020070Y012771D01*
X018782Y012771D02*
X018782Y012877D01*
M02*
