G75*
%MOIN*%
%OFA0B0*%
%FSLAX24Y24*%
%IPPOS*%
%LPD*%
%AMOC8*
5,1,8,0,0,1.08239X$1,22.5*
%
%ADD10C,0.2440*%
%ADD11R,0.0740X0.0740*%
%ADD12C,0.0740*%
%ADD13C,0.0748*%
%ADD14C,0.0760*%
D10*
X007600Y002100D03*
X011100Y002100D03*
X002600Y006100D03*
X002600Y009100D03*
X024100Y009100D03*
X024100Y006100D03*
D11*
X015600Y002100D03*
D12*
X016600Y002100D03*
X017600Y002100D03*
X018600Y002100D03*
D13*
X016576Y006159D03*
X015576Y006159D03*
X014576Y006159D03*
X013576Y006159D03*
X012576Y006159D03*
X011576Y006159D03*
X010576Y006159D03*
X009576Y006159D03*
X010076Y008159D03*
X011076Y008159D03*
X012076Y008159D03*
X013076Y008159D03*
X014076Y008159D03*
X015076Y008159D03*
X016076Y008159D03*
D14*
X021159Y008159D01*
X022100Y009100D01*
X024100Y009100D01*
X024041Y006159D02*
X024100Y006100D01*
X024041Y006159D02*
X016576Y006159D01*
X013600Y006183D02*
X013576Y006159D01*
X013576Y004576D01*
X011100Y002100D01*
X010576Y005076D02*
X007600Y002100D01*
X010576Y005076D02*
X010576Y006159D01*
X009576Y006159D02*
X002659Y006159D01*
X002600Y006100D01*
X005600Y009100D02*
X006541Y008159D01*
X010076Y008159D01*
X013076Y008159D02*
X013076Y007624D01*
X013600Y007100D01*
X013600Y006183D01*
X005600Y009100D02*
X002600Y009100D01*
M02*
