G75*
%MOIN*%
%OFA0B0*%
%FSLAX24Y24*%
%IPPOS*%
%LPD*%
%AMOC8*
5,1,8,0,0,1.08239X$1,22.5*
%
%ADD10C,0.0060*%
%ADD11C,0.0080*%
D10*
X006630Y003630D02*
X007057Y003630D01*
X006844Y003630D02*
X006844Y004271D01*
X006630Y004057D01*
X007275Y004164D02*
X007381Y004271D01*
X007595Y004271D01*
X007702Y004164D01*
X007702Y004057D01*
X007275Y003630D01*
X007702Y003630D01*
X007919Y003844D02*
X008133Y003630D01*
X008346Y003844D01*
X008346Y004271D01*
X007919Y004271D02*
X007919Y003844D01*
X010130Y003737D02*
X010237Y003630D01*
X010450Y003630D01*
X010557Y003737D01*
X010557Y003950D01*
X010344Y003950D01*
X010557Y004164D02*
X010450Y004271D01*
X010237Y004271D01*
X010130Y004164D01*
X010130Y003737D01*
X010775Y003630D02*
X010775Y004271D01*
X011202Y003630D01*
X011202Y004271D01*
X011419Y004271D02*
X011739Y004271D01*
X011846Y004164D01*
X011846Y003737D01*
X011739Y003630D01*
X011419Y003630D01*
X011419Y004271D01*
X015630Y003771D02*
X015844Y003771D01*
X015737Y003771D02*
X015737Y003130D01*
X015630Y003130D02*
X015844Y003130D01*
X016060Y003130D02*
X016060Y003557D01*
X016380Y003557D01*
X016487Y003450D01*
X016487Y003130D01*
X016704Y003130D02*
X017025Y003130D01*
X017131Y003237D01*
X017131Y003450D01*
X017025Y003557D01*
X016704Y003557D01*
X016704Y002916D01*
X017349Y003237D02*
X017349Y003557D01*
X017776Y003557D02*
X017776Y003130D01*
X017456Y003130D01*
X017349Y003237D01*
X017993Y003557D02*
X018207Y003557D01*
X018100Y003664D02*
X018100Y003237D01*
X018207Y003130D01*
X018423Y003130D02*
X018743Y003130D01*
X018850Y003237D01*
X018743Y003344D01*
X018530Y003344D01*
X018423Y003450D01*
X018530Y003557D01*
X018850Y003557D01*
X019211Y001271D02*
X019211Y000630D01*
X019424Y000630D02*
X018997Y000630D01*
X018997Y001057D02*
X019211Y001271D01*
X018135Y001164D02*
X018135Y001057D01*
X017708Y000630D01*
X018135Y000630D01*
X018135Y001164D02*
X018028Y001271D01*
X017815Y001271D01*
X017708Y001164D01*
X016846Y001164D02*
X016846Y001057D01*
X016739Y000950D01*
X016633Y000950D01*
X016739Y000950D02*
X016846Y000844D01*
X016846Y000737D01*
X016739Y000630D01*
X016526Y000630D01*
X016419Y000737D01*
X016419Y001164D02*
X016526Y001271D01*
X016739Y001271D01*
X016846Y001164D01*
X015557Y000950D02*
X015130Y000950D01*
X015450Y001271D01*
X015450Y000630D01*
X025130Y004737D02*
X025237Y004630D01*
X025450Y004630D01*
X025557Y004737D01*
X025557Y004844D01*
X025450Y004950D01*
X025344Y004950D01*
X025450Y004950D02*
X025557Y005057D01*
X025557Y005164D01*
X025450Y005271D01*
X025237Y005271D01*
X025130Y005164D01*
X025450Y010130D02*
X025450Y010771D01*
X025130Y010450D01*
X025557Y010450D01*
X001057Y009164D02*
X001057Y009057D01*
X000630Y008630D01*
X001057Y008630D01*
X001057Y009164D02*
X000950Y009271D01*
X000737Y009271D01*
X000630Y009164D01*
X000844Y006271D02*
X000844Y005630D01*
X001057Y005630D02*
X000630Y005630D01*
X000630Y006057D02*
X000844Y006271D01*
D11*
X009100Y008100D02*
X009100Y009439D01*
X017053Y009439D01*
X017053Y008100D01*
X017057Y008104D02*
X016545Y008104D01*
X015620Y008104D02*
X015541Y008104D01*
X014616Y008104D02*
X014537Y008104D01*
X013612Y008104D02*
X013533Y008104D01*
X012608Y008104D02*
X012529Y008104D01*
X011624Y008104D02*
X011545Y008104D01*
X010620Y008104D02*
X010541Y008104D01*
X009616Y008104D02*
X009104Y008104D01*
X009100Y009439D02*
X009100Y010069D01*
X017053Y010069D01*
X017053Y009439D01*
X016850Y002600D02*
X016350Y002600D01*
X016100Y002350D01*
X015850Y002600D01*
X015350Y002600D01*
X015100Y002350D01*
X015100Y001850D01*
X015350Y001600D01*
X015850Y001600D01*
X016100Y001850D01*
X016350Y001600D01*
X016850Y001600D01*
X017100Y001850D01*
X017350Y001600D01*
X017850Y001600D01*
X018100Y001850D01*
X018350Y001600D01*
X018850Y001600D01*
X019100Y001850D01*
X019100Y002350D01*
X018850Y002600D01*
X018350Y002600D01*
X018100Y002350D01*
X017850Y002600D01*
X017350Y002600D01*
X017100Y002350D01*
X016850Y002600D01*
M02*
