%
M48
M72
T01C0.0400
T02C0.0433
T03C0.1180
T04C0.1300
T05C0.1500
%
T01
X15600Y2100
X16600Y2100
X17600Y2100
X18600Y2100
T02
X16576Y6159
X15576Y6159
X14576Y6159
X13576Y6159
X12576Y6159
X11576Y6159
X10576Y6159
X9576Y6159
X10076Y8159
X11076Y8159
X12076Y8159
X13076Y8159
X14076Y8159
X15076Y8159
X16076Y8159
T03
X18100Y10450
X8100Y10450
T04
X1600Y1600
X1600Y12600
X24600Y12600
X24600Y1600
T05
X24100Y6100
X24100Y9100
X11100Y2100
X7600Y2100
X2600Y6100
X2600Y9100
M30
