%
M48
M72
T01C0.0236
T02C0.0276
T03C0.0315
T04C0.0354
T05C0.0400
T06C0.0440
T07C0.0472
T08C0.1300
%
T01
X3800Y5000
X5800Y2500
X7600Y3800
X8100Y5800
X9300Y6900
X9800Y6900
X10300Y6900
X10800Y6900
X10900Y6000
X9800Y7600
X9800Y8100
X9800Y8600
X9300Y8600
X9300Y8100
X9300Y7600
X10700Y3000
X11300Y3000
X12000Y3000
X12000Y2400
X12000Y1800
X12700Y1800
X12700Y2400
X12700Y3000
X13400Y3000
X13400Y2400
X13400Y1800
X17400Y4900
X17400Y5400
X17400Y5900
X18800Y5900
X18800Y5400
X18800Y4900
X19100Y6400
X19100Y6900
X19100Y7400
X20600Y6900
X20600Y6400
X21600Y5700
X22300Y5700
X22300Y6300
X22200Y7100
X22200Y7700
X21600Y7700
X24200Y7700
X24200Y7100
X24200Y5700
X23400Y5100
X22800Y5100
X22200Y5100
X21600Y5100
X14200Y7900
X7900Y1200
X3500Y18700
X5000Y20800
X3800Y21700
X4000Y22800
X800Y20900
X7100Y20900
X7900Y21500
X8500Y21300
X7500Y19800
X10800Y22700
X8500Y23500
T02
X7200Y16800
X2700Y13300
X2700Y12500
X3300Y11200
X3200Y10300
X2500Y10300
X1800Y10300
X1000Y10200
X800Y11800
X4500Y9100
X4200Y7900
X4100Y7100
X12500Y16400
X14100Y16100
X14100Y15100
X20300Y15000
X20300Y14000
T03
X18200Y16300
X15700Y15400
X13300Y13700
X10300Y10000
X11100Y9900
X8000Y13800
X8100Y14800
X7200Y15300
X5600Y13400
X7000Y12800
X4800Y16600
X9200Y18200
X5900Y1800
T04
X10100Y13500
X18700Y18600
X22200Y17100
T05
X17700Y19000
X16700Y19000
X15700Y19000
X13900Y19000
X12900Y19000
X11200Y19000
X10200Y19000
X6600Y20000
X5600Y20000
X3380Y17190
X3380Y15410
X820Y15410
X820Y17190
X1200Y19200
X2200Y19200
X5300Y9200
X5300Y8200
X6300Y8200
X6300Y9200
X7300Y9200
X7300Y8200
X2800Y8400
X2800Y7400
X2800Y6400
X2800Y5400
X2800Y4400
X1800Y4400
X1800Y5400
X1800Y6400
X1800Y7400
X1800Y8400
X15700Y22000
X16700Y22000
X17700Y22000
X13900Y22500
X12900Y22500
T06
X10100Y11300
T07
X10600Y8100
X10600Y2100
X23300Y6100
X23300Y7478
X23300Y10500
X23300Y11878
X23300Y13800
X23300Y15178
T08
X1600Y2000
X23100Y2000
X23100Y22100
M30
