G75*
%MOIN*%
%OFA0B0*%
%FSLAX24Y24*%
%IPPOS*%
%LPD*%
%AMOC8*
5,1,8,0,0,1.08239X$1,22.5*
%
%ADD10C,0.0030*%
%ADD11C,0.0080*%
%ADD12C,0.0050*%
%ADD13R,0.0300X0.0180*%
D10*
X000588Y018115D02*
X000588Y018362D01*
X000465Y018362D02*
X000588Y018238D01*
X000709Y018177D02*
X000709Y018300D01*
X000771Y018362D01*
X000895Y018362D01*
X000956Y018300D01*
X000956Y018177D01*
X000895Y018115D01*
X000771Y018115D01*
X000709Y018177D01*
X000465Y018362D02*
X000403Y018362D01*
X001078Y018362D02*
X001263Y018362D01*
X001325Y018300D01*
X001263Y018238D01*
X001139Y018238D01*
X001078Y018177D01*
X001139Y018115D01*
X001325Y018115D01*
X001446Y018115D02*
X001446Y018300D01*
X001508Y018362D01*
X001693Y018362D01*
X001693Y018115D01*
X001814Y018238D02*
X002061Y018238D01*
X002061Y018177D02*
X002061Y018300D01*
X002000Y018362D01*
X001876Y018362D01*
X001814Y018300D01*
X001814Y018238D01*
X001876Y018115D02*
X002000Y018115D01*
X002061Y018177D01*
X002183Y018177D02*
X002244Y018115D01*
X002368Y018115D01*
X002430Y018177D01*
X002368Y018300D02*
X002244Y018300D01*
X002183Y018238D01*
X002183Y018177D01*
X002368Y018300D02*
X002430Y018362D01*
X002430Y018424D01*
X002368Y018485D01*
X002244Y018485D01*
X002183Y018424D01*
X002919Y018362D02*
X002919Y018177D01*
X002981Y018115D01*
X003043Y018177D01*
X003104Y018115D01*
X003166Y018177D01*
X003166Y018362D01*
X003288Y018300D02*
X003288Y018177D01*
X003349Y018115D01*
X003473Y018115D01*
X003535Y018177D01*
X003535Y018300D01*
X003473Y018362D01*
X003349Y018362D01*
X003288Y018300D01*
X003656Y018362D02*
X003841Y018362D01*
X003903Y018300D01*
X003903Y018177D01*
X003841Y018115D01*
X003656Y018115D01*
X003656Y018485D01*
X004024Y018300D02*
X004024Y018115D01*
X004024Y018300D02*
X004086Y018362D01*
X004271Y018362D01*
X004271Y018115D01*
X004393Y018115D02*
X004517Y018115D01*
X004455Y018115D02*
X004455Y018362D01*
X004517Y018362D01*
X004455Y018485D02*
X004455Y018547D01*
X004638Y018485D02*
X004638Y018115D01*
X004762Y018238D01*
X004885Y018115D01*
X004885Y018485D01*
D11*
X004372Y002416D02*
X003428Y002416D01*
X003428Y003006D01*
X003428Y003794D02*
X003428Y004227D01*
X003585Y004384D01*
X004215Y004384D01*
X004372Y004227D01*
X004372Y003794D01*
X004372Y003006D02*
X004372Y002416D01*
X013773Y013528D02*
X013616Y013685D01*
X013616Y014315D01*
X013773Y014472D01*
X014206Y014472D01*
X014994Y014472D02*
X015584Y014472D01*
X015584Y013528D01*
X014994Y013528D01*
X014206Y013528D02*
X013773Y013528D01*
X017294Y015729D02*
X019106Y015729D01*
X019106Y015906D01*
X018594Y015906D02*
X018594Y016694D01*
X019106Y016694D02*
X019106Y016871D01*
X017294Y016871D01*
X017294Y016694D01*
X017294Y015906D02*
X017294Y015729D01*
X014306Y017229D02*
X014306Y017406D01*
X014306Y017229D02*
X012494Y017229D01*
X012494Y017406D01*
X013006Y017406D02*
X013006Y018194D01*
X012494Y018194D02*
X012494Y018371D01*
X014306Y018371D01*
X014306Y018194D01*
X007684Y014715D02*
X007684Y014085D01*
X007527Y013928D01*
X007094Y013928D01*
X006306Y013928D02*
X005716Y013928D01*
X005716Y014872D01*
X006306Y014872D01*
X007094Y014872D02*
X007527Y014872D01*
X007684Y014715D01*
D12*
X006850Y014800D02*
X006850Y014000D01*
X014450Y014400D02*
X014450Y013600D01*
X019900Y015900D02*
X021500Y015900D01*
X021500Y016800D01*
X021500Y018000D02*
X021500Y018900D01*
X019900Y018900D01*
X019900Y018100D01*
X019900Y016800D02*
X019900Y015900D01*
X004300Y003550D02*
X003500Y003550D01*
D13*
X005600Y018200D03*
X006500Y018200D03*
M02*
