G75*
%MOIN*%
%OFA0B0*%
%FSLAX24Y24*%
%IPPOS*%
%LPD*%
%AMOC8*
5,1,8,0,0,1.08239X$1,22.5*
%
%ADD10C,0.0030*%
%ADD11C,0.0080*%
%ADD12R,0.0340X0.0300*%
%ADD13C,0.0050*%
%ADD14C,0.0120*%
%ADD15C,0.0060*%
%ADD16C,0.0100*%
%ADD17C,0.0220*%
%ADD18R,0.0180X0.0300*%
D10*
X000615Y005215D02*
X000985Y005215D01*
X000985Y005462D01*
X000923Y005645D02*
X000676Y005645D01*
X000738Y005583D02*
X000738Y005707D01*
X000800Y005829D02*
X000738Y005891D01*
X000738Y006014D01*
X000800Y006076D01*
X000985Y006076D01*
X000923Y006197D02*
X000800Y006197D01*
X000738Y006259D01*
X000738Y006382D01*
X000800Y006444D01*
X000862Y006444D01*
X000862Y006197D01*
X000923Y006197D02*
X000985Y006259D01*
X000985Y006382D01*
X000985Y006565D02*
X000738Y006565D01*
X000862Y006565D02*
X000738Y006689D01*
X000738Y006751D01*
X000738Y006872D02*
X000738Y007058D01*
X000800Y007119D01*
X000985Y007119D01*
X000923Y007241D02*
X000800Y007241D01*
X000738Y007302D01*
X000738Y007426D01*
X000800Y007488D01*
X000862Y007488D01*
X000862Y007241D01*
X000923Y007241D02*
X000985Y007302D01*
X000985Y007426D01*
X000923Y007671D02*
X000676Y007671D01*
X000738Y007732D02*
X000738Y007609D01*
X000923Y007671D02*
X000985Y007732D01*
X000985Y006872D02*
X000738Y006872D01*
X000615Y005829D02*
X000985Y005829D01*
X000985Y005707D02*
X000923Y005645D01*
X000615Y005462D02*
X000615Y005215D01*
X000800Y005215D02*
X000800Y005338D01*
X008015Y008215D02*
X008015Y008400D01*
X008076Y008462D01*
X008200Y008462D01*
X008262Y008400D01*
X008262Y008215D01*
X008262Y008400D01*
X008200Y008462D01*
X008076Y008462D01*
X008015Y008400D01*
X008015Y008215D01*
X008385Y008215D01*
X008015Y008215D01*
X008015Y008583D02*
X008015Y008768D01*
X008076Y008830D01*
X008323Y008830D01*
X008385Y008768D01*
X008385Y008583D01*
X008015Y008583D01*
X008015Y008768D01*
X008076Y008830D01*
X008323Y008830D01*
X008385Y008768D01*
X008385Y008583D01*
X008015Y008583D01*
X008015Y008952D02*
X008015Y009075D01*
X008015Y008952D01*
X008015Y009013D02*
X008385Y009013D01*
X008015Y009013D01*
X008385Y008952D02*
X008385Y009075D01*
X008385Y008952D01*
X011646Y006403D02*
X011695Y006403D01*
X011792Y006403D02*
X011985Y006403D01*
X011985Y006451D02*
X011985Y006354D01*
X011937Y006253D02*
X011888Y006205D01*
X011888Y006108D01*
X011840Y006060D01*
X011792Y006108D01*
X011792Y006253D01*
X011792Y006354D02*
X011792Y006403D01*
X011792Y006551D02*
X011792Y006696D01*
X011840Y006744D01*
X011985Y006744D01*
X011937Y006845D02*
X011985Y006894D01*
X011985Y007039D01*
X012033Y007039D02*
X011792Y007039D01*
X011792Y006894D01*
X011840Y006845D01*
X011937Y006845D01*
X012082Y006942D02*
X012082Y006991D01*
X012033Y007039D01*
X011985Y006551D02*
X011792Y006551D01*
X011937Y006253D02*
X011985Y006205D01*
X011985Y006060D01*
X011985Y005959D02*
X011840Y005959D01*
X011792Y005910D01*
X011792Y005765D01*
X011985Y005765D01*
X011888Y005664D02*
X011888Y005470D01*
X011840Y005470D02*
X011792Y005519D01*
X011792Y005616D01*
X011840Y005664D01*
X011888Y005664D01*
X011985Y005616D02*
X011985Y005519D01*
X011937Y005470D01*
X011840Y005470D01*
X011888Y005369D02*
X011937Y005369D01*
X011985Y005321D01*
X011985Y005224D01*
X011937Y005176D01*
X011840Y005224D02*
X011840Y005321D01*
X011888Y005369D01*
X011743Y005369D02*
X011695Y005321D01*
X011695Y005224D01*
X011743Y005176D01*
X011792Y005176D01*
X011840Y005224D01*
X011792Y004781D02*
X011792Y004685D01*
X011743Y004733D02*
X011937Y004733D01*
X011985Y004781D01*
X011985Y004584D02*
X011840Y004584D01*
X011792Y004535D01*
X011792Y004390D01*
X011985Y004390D01*
X011888Y004289D02*
X011888Y004095D01*
X011840Y004095D02*
X011792Y004144D01*
X011792Y004241D01*
X011840Y004289D01*
X011888Y004289D01*
X011985Y004241D02*
X011985Y004144D01*
X011937Y004095D01*
X011840Y004095D01*
X011792Y003995D02*
X011792Y003947D01*
X011888Y003850D01*
X011792Y003850D02*
X011985Y003850D01*
X011792Y003749D02*
X011792Y003701D01*
X011888Y003604D01*
X011792Y003604D02*
X011985Y003604D01*
X011985Y003503D02*
X011792Y003503D01*
X011985Y003503D02*
X011985Y003358D01*
X011937Y003310D01*
X011792Y003310D01*
X011743Y003208D02*
X011695Y003160D01*
X011695Y003063D01*
X011743Y003015D01*
X011937Y003015D01*
X011985Y003063D01*
X011985Y003160D01*
X011937Y003208D01*
X011924Y011415D02*
X011985Y011477D01*
X011985Y011785D01*
X011924Y011785D02*
X012047Y011785D01*
X012168Y011662D02*
X012168Y011477D01*
X012230Y011415D01*
X012415Y011415D01*
X012415Y011662D01*
X012537Y011662D02*
X012537Y011415D01*
X012784Y011415D02*
X012784Y011600D01*
X012722Y011662D01*
X012537Y011662D01*
X012905Y011600D02*
X012967Y011662D01*
X013090Y011662D01*
X013152Y011600D01*
X013152Y011538D01*
X012905Y011538D01*
X012905Y011477D02*
X012905Y011600D01*
X012905Y011477D02*
X012967Y011415D01*
X013090Y011415D01*
X013642Y011415D02*
X013889Y011662D01*
X013889Y011724D01*
X013827Y011785D01*
X013703Y011785D01*
X013642Y011724D01*
X013686Y012015D02*
X013686Y012262D01*
X013871Y012262D01*
X013933Y012200D01*
X013933Y012015D01*
X014072Y011785D02*
X014010Y011724D01*
X014010Y011477D01*
X014257Y011724D01*
X014257Y011477D01*
X014195Y011415D01*
X014072Y011415D01*
X014010Y011477D01*
X013889Y011415D02*
X013642Y011415D01*
X014072Y011785D02*
X014195Y011785D01*
X014257Y011724D01*
X014378Y011662D02*
X014502Y011785D01*
X014502Y011415D01*
X014625Y011415D02*
X014378Y011415D01*
X014747Y011600D02*
X014994Y011600D01*
X014932Y011415D02*
X014932Y011785D01*
X014747Y011600D01*
X014670Y012015D02*
X014670Y012385D01*
X014670Y012200D02*
X014423Y012200D01*
X014423Y012015D02*
X014423Y012385D01*
X014791Y012200D02*
X014791Y012077D01*
X014853Y012015D01*
X014976Y012015D01*
X015038Y012077D01*
X015038Y012200D01*
X014976Y012262D01*
X014853Y012262D01*
X014791Y012200D01*
X015160Y012262D02*
X015160Y012015D01*
X015406Y012015D02*
X015406Y012200D01*
X015345Y012262D01*
X015160Y012262D01*
X015528Y012200D02*
X015590Y012262D01*
X015775Y012262D01*
X015896Y012200D02*
X015896Y012077D01*
X015958Y012015D01*
X016143Y012015D01*
X016265Y012015D02*
X016265Y012385D01*
X016326Y012262D02*
X016265Y012200D01*
X016326Y012262D02*
X016450Y012262D01*
X016511Y012200D01*
X016511Y012015D01*
X016633Y012077D02*
X016633Y012200D01*
X016695Y012262D01*
X016818Y012262D01*
X016880Y012200D01*
X016880Y012138D01*
X016633Y012138D01*
X016633Y012077D02*
X016695Y012015D01*
X016818Y012015D01*
X017001Y012015D02*
X017125Y012015D01*
X017063Y012015D02*
X017063Y012262D01*
X017001Y012262D01*
X017063Y012385D02*
X017063Y012447D01*
X017308Y012262D02*
X017247Y012200D01*
X017247Y012077D01*
X017308Y012015D01*
X017494Y012015D01*
X017494Y012385D01*
X017494Y012262D02*
X017308Y012262D01*
X016143Y012262D02*
X015958Y012262D01*
X015896Y012200D01*
X015775Y012077D02*
X015713Y012138D01*
X015590Y012138D01*
X015528Y012200D01*
X015528Y012015D02*
X015713Y012015D01*
X015775Y012077D01*
X013565Y012138D02*
X013380Y012138D01*
X013318Y012077D01*
X013380Y012015D01*
X013565Y012015D01*
X013565Y012200D01*
X013503Y012262D01*
X013380Y012262D01*
X013196Y012262D02*
X013072Y012262D01*
X013134Y012324D02*
X013134Y012077D01*
X013196Y012015D01*
X012951Y012077D02*
X012889Y012138D01*
X012766Y012138D01*
X012704Y012200D01*
X012766Y012262D01*
X012951Y012262D01*
X012951Y012077D02*
X012889Y012015D01*
X012704Y012015D01*
X012582Y012015D02*
X012459Y012015D01*
X012520Y012015D02*
X012520Y012262D01*
X012459Y012262D01*
X012337Y012262D02*
X012275Y012262D01*
X012152Y012138D01*
X012152Y012015D02*
X012152Y012262D01*
X012030Y012385D02*
X011783Y012385D01*
X011907Y012385D02*
X011907Y012015D01*
X011800Y011477D02*
X011862Y011415D01*
X011924Y011415D01*
X012520Y012385D02*
X012520Y012447D01*
X015177Y017215D02*
X015300Y017215D01*
X015362Y017277D01*
X015362Y017400D01*
X015238Y017400D01*
X015115Y017277D02*
X015177Y017215D01*
X015115Y017277D02*
X015115Y017524D01*
X015177Y017585D01*
X015300Y017585D01*
X015362Y017524D01*
X015483Y017585D02*
X015730Y017215D01*
X015730Y017585D01*
X015852Y017585D02*
X016037Y017585D01*
X016099Y017524D01*
X016099Y017277D01*
X016037Y017215D01*
X015852Y017215D01*
X015852Y017585D01*
X015483Y017585D02*
X015483Y017215D01*
X014699Y017377D02*
X014699Y017624D01*
X014637Y017685D01*
X014452Y017685D01*
X014452Y017315D01*
X014637Y017315D01*
X014699Y017377D01*
X014330Y017315D02*
X014330Y017685D01*
X014083Y017685D02*
X014083Y017315D01*
X013962Y017377D02*
X013962Y017500D01*
X013838Y017500D01*
X013715Y017377D02*
X013777Y017315D01*
X013900Y017315D01*
X013962Y017377D01*
X013962Y017624D02*
X013900Y017685D01*
X013777Y017685D01*
X013715Y017624D01*
X013715Y017377D01*
X013367Y017438D02*
X013367Y017685D01*
X013367Y017438D02*
X013243Y017315D01*
X013120Y017438D01*
X013120Y017685D01*
X012999Y017624D02*
X012937Y017685D01*
X012813Y017685D01*
X012752Y017624D01*
X012999Y017624D02*
X012999Y017562D01*
X012752Y017315D01*
X012999Y017315D01*
X012630Y017315D02*
X012383Y017315D01*
X012507Y017315D02*
X012507Y017685D01*
X012383Y017562D01*
X012262Y017500D02*
X012015Y017500D01*
X012138Y017377D02*
X012138Y017624D01*
X011694Y017624D02*
X011694Y017377D01*
X011632Y017315D01*
X011447Y017315D01*
X011447Y017685D01*
X011632Y017685D01*
X011694Y017624D01*
X011325Y017685D02*
X011325Y017315D01*
X011078Y017685D01*
X011078Y017315D01*
X010957Y017377D02*
X010957Y017500D01*
X010833Y017500D01*
X010710Y017377D02*
X010772Y017315D01*
X010895Y017315D01*
X010957Y017377D01*
X010957Y017624D02*
X010895Y017685D01*
X010772Y017685D01*
X010710Y017624D01*
X010710Y017377D01*
X010394Y017438D02*
X010394Y017685D01*
X010394Y017438D02*
X010270Y017315D01*
X010147Y017438D01*
X010147Y017685D01*
X010025Y017685D02*
X009778Y017685D01*
X009778Y017500D01*
X009902Y017562D01*
X009964Y017562D01*
X010025Y017500D01*
X010025Y017377D01*
X009964Y017315D01*
X009840Y017315D01*
X009778Y017377D01*
X011915Y018115D02*
X011915Y018300D01*
X011976Y018362D01*
X012100Y018362D01*
X012162Y018300D01*
X012162Y018115D01*
X012285Y018115D02*
X011915Y018115D01*
X012162Y018238D02*
X012285Y018362D01*
X012223Y018483D02*
X012100Y018483D01*
X012038Y018545D01*
X012038Y018668D01*
X012100Y018730D01*
X012162Y018730D01*
X012162Y018483D01*
X012223Y018483D02*
X012285Y018545D01*
X012285Y018668D01*
X012285Y018852D02*
X012285Y018975D01*
X012285Y018913D02*
X011915Y018913D01*
X011915Y018852D01*
X012038Y019159D02*
X012038Y019282D01*
X012100Y019344D01*
X012285Y019344D01*
X012285Y019159D01*
X012223Y019097D01*
X012162Y019159D01*
X012162Y019344D01*
X012223Y019465D02*
X012285Y019527D01*
X012285Y019712D01*
X012347Y019712D02*
X012408Y019651D01*
X012408Y019589D01*
X012347Y019712D02*
X012038Y019712D01*
X012038Y019465D02*
X012223Y019465D01*
X014083Y017685D02*
X014330Y017315D01*
X016415Y017215D02*
X016662Y017215D01*
X016415Y017215D01*
X016538Y017215D02*
X016538Y017585D01*
X016415Y017462D01*
X016538Y017585D01*
X016538Y017215D01*
X016783Y017215D02*
X016907Y017338D01*
X017030Y017215D01*
X017030Y017585D01*
X017030Y017215D01*
X016907Y017338D01*
X016783Y017215D01*
X016783Y017585D01*
X016783Y017215D01*
X017315Y017400D02*
X017562Y017400D01*
X017683Y017277D02*
X017745Y017215D01*
X017868Y017215D01*
X017930Y017277D01*
X017930Y017338D01*
X017868Y017400D01*
X017807Y017400D01*
X017868Y017400D02*
X017930Y017462D01*
X017930Y017524D01*
X017868Y017585D01*
X017745Y017585D01*
X017683Y017524D01*
X017438Y017524D02*
X017438Y017277D01*
X018052Y017277D02*
X018052Y017215D01*
X018113Y017215D01*
X018113Y017277D01*
X018052Y017277D01*
X018236Y017277D02*
X018298Y017215D01*
X018421Y017215D01*
X018483Y017277D01*
X018483Y017338D01*
X018421Y017400D01*
X018359Y017400D01*
X018421Y017400D02*
X018483Y017462D01*
X018483Y017524D01*
X018421Y017585D01*
X018298Y017585D01*
X018236Y017524D01*
X018923Y020915D02*
X018985Y020977D01*
X018985Y021038D01*
X018923Y021100D01*
X018615Y021100D01*
X018615Y021038D02*
X018615Y021162D01*
X018738Y021283D02*
X018615Y021407D01*
X018985Y021407D01*
X018985Y021530D02*
X018985Y021283D01*
X018985Y021652D02*
X018923Y021652D01*
X018676Y021899D01*
X018615Y021899D01*
X018615Y021652D01*
X018676Y022020D02*
X018615Y022082D01*
X018615Y022205D01*
X018676Y022267D01*
X018923Y022020D01*
X018985Y022082D01*
X018985Y022205D01*
X018923Y022267D01*
X018676Y022267D01*
X018676Y022388D02*
X018738Y022388D01*
X018800Y022450D01*
X018800Y022573D01*
X018862Y022635D01*
X018923Y022635D01*
X018985Y022573D01*
X018985Y022450D01*
X018923Y022388D01*
X018862Y022388D01*
X018800Y022450D01*
X018800Y022573D02*
X018738Y022635D01*
X018676Y022635D01*
X018615Y022573D01*
X018615Y022450D01*
X018676Y022388D01*
X018676Y022020D02*
X018923Y022020D01*
X017800Y023215D02*
X017615Y023215D01*
X017615Y023585D01*
X017800Y023585D01*
X017862Y023524D01*
X017862Y023462D01*
X017800Y023400D01*
X017615Y023400D01*
X017800Y023400D02*
X017862Y023338D01*
X017862Y023277D01*
X017800Y023215D01*
X017199Y023277D02*
X017199Y023524D01*
X017137Y023585D01*
X016952Y023585D01*
X016952Y023215D01*
X017137Y023215D01*
X017199Y023277D01*
X016830Y023215D02*
X016830Y023585D01*
X016583Y023585D02*
X016830Y023215D01*
X016583Y023215D02*
X016583Y023585D01*
X016462Y023524D02*
X016400Y023585D01*
X016277Y023585D01*
X016215Y023524D01*
X016215Y023277D01*
X016277Y023215D01*
X016400Y023215D01*
X016462Y023277D01*
X016462Y023400D01*
X016338Y023400D01*
X015862Y023400D02*
X015615Y023400D01*
X015615Y023462D02*
X015738Y023585D01*
X015862Y023462D01*
X015862Y023215D01*
X015615Y023215D02*
X015615Y023462D01*
X022815Y016685D02*
X022815Y016315D01*
X023000Y016315D01*
X023062Y016377D01*
X023062Y016438D01*
X023000Y016500D01*
X022815Y016500D01*
X023000Y016500D02*
X023062Y016562D01*
X023062Y016624D01*
X023000Y016685D01*
X022815Y016685D01*
X023183Y016500D02*
X023183Y016377D01*
X023245Y016315D01*
X023368Y016315D01*
X023430Y016377D01*
X023430Y016500D01*
X023368Y016562D01*
X023245Y016562D01*
X023183Y016500D01*
X023552Y016562D02*
X023675Y016562D01*
X023613Y016624D02*
X023613Y016377D01*
X023675Y016315D01*
X023859Y016377D02*
X023859Y016624D01*
X023797Y016562D02*
X023921Y016562D01*
X024043Y016500D02*
X024043Y016377D01*
X024104Y016315D01*
X024228Y016315D01*
X024290Y016377D01*
X024290Y016500D01*
X024228Y016562D01*
X024104Y016562D01*
X024043Y016500D01*
X023859Y016377D02*
X023921Y016315D01*
X024411Y016315D02*
X024411Y016562D01*
X024473Y016562D01*
X024534Y016500D01*
X024596Y016562D01*
X024658Y016500D01*
X024658Y016315D01*
X024534Y016315D02*
X024534Y016500D01*
X024452Y017092D02*
X024452Y017462D01*
X024637Y017462D01*
X024699Y017400D01*
X024699Y017277D01*
X024637Y017215D01*
X024452Y017215D01*
X024330Y017277D02*
X024330Y017400D01*
X024268Y017462D01*
X024145Y017462D01*
X024083Y017400D01*
X024083Y017277D01*
X024145Y017215D01*
X024268Y017215D01*
X024330Y017277D01*
X023962Y017585D02*
X023715Y017585D01*
X023838Y017585D02*
X023838Y017215D01*
X021587Y011962D02*
X021402Y011962D01*
X021402Y011715D01*
X021280Y011715D02*
X021157Y011715D01*
X021218Y011715D02*
X021218Y012085D01*
X021157Y012085D02*
X021280Y012085D01*
X021587Y011962D02*
X021649Y011900D01*
X021649Y011715D01*
X020667Y011838D02*
X020667Y012085D01*
X020667Y011838D02*
X020543Y011715D01*
X020420Y011838D01*
X020420Y012085D01*
X020299Y012024D02*
X020237Y012085D01*
X020113Y012085D01*
X020052Y012024D01*
X020299Y012024D02*
X020299Y011962D01*
X020052Y011715D01*
X020299Y011715D01*
X019930Y011715D02*
X019683Y011715D01*
X019807Y011715D02*
X019807Y012085D01*
X019683Y011962D01*
X019562Y011900D02*
X019315Y011900D01*
X019438Y011777D02*
X019438Y012024D01*
X020777Y010685D02*
X020715Y010624D01*
X020715Y010377D01*
X020777Y010315D01*
X020900Y010315D01*
X020962Y010377D01*
X020962Y010500D01*
X020838Y010500D01*
X020962Y010624D02*
X020900Y010685D01*
X020777Y010685D01*
X021083Y010685D02*
X021083Y010315D01*
X021330Y010315D02*
X021083Y010685D01*
X021330Y010685D02*
X021330Y010315D01*
X021452Y010315D02*
X021637Y010315D01*
X021699Y010377D01*
X021699Y010624D01*
X021637Y010685D01*
X021452Y010685D01*
X021452Y010315D01*
X022515Y008885D02*
X022638Y008762D01*
X022762Y008885D01*
X022762Y008515D01*
X022883Y008577D02*
X022883Y008824D01*
X022945Y008885D01*
X023068Y008885D01*
X023130Y008824D01*
X023130Y008577D01*
X023068Y008515D01*
X022945Y008515D01*
X022883Y008577D01*
X023252Y008885D02*
X023499Y008885D01*
X023375Y008885D02*
X023375Y008515D01*
X023620Y008577D02*
X023620Y008824D01*
X023682Y008885D01*
X023805Y008885D01*
X023867Y008824D01*
X023867Y008577D01*
X023805Y008515D01*
X023682Y008515D01*
X023620Y008577D01*
X023988Y008638D02*
X024173Y008638D01*
X024235Y008700D01*
X024235Y008824D01*
X024173Y008885D01*
X023988Y008885D01*
X023988Y008515D01*
X024112Y008638D02*
X024235Y008515D01*
X022515Y008515D02*
X022515Y008885D01*
X022515Y004685D02*
X022638Y004562D01*
X022762Y004685D01*
X022762Y004315D01*
X022883Y004377D02*
X022945Y004315D01*
X023068Y004315D01*
X023130Y004377D01*
X023130Y004624D01*
X023068Y004685D01*
X022945Y004685D01*
X022883Y004624D01*
X022883Y004377D01*
X023252Y004685D02*
X023499Y004685D01*
X023375Y004685D02*
X023375Y004315D01*
X023620Y004377D02*
X023682Y004315D01*
X023805Y004315D01*
X023867Y004377D01*
X023867Y004624D01*
X023805Y004685D01*
X023682Y004685D01*
X023620Y004624D01*
X023620Y004377D01*
X023988Y004438D02*
X024173Y004438D01*
X024235Y004500D01*
X024235Y004624D01*
X024173Y004685D01*
X023988Y004685D01*
X023988Y004315D01*
X024112Y004438D02*
X024235Y004315D01*
X022515Y004315D02*
X022515Y004685D01*
X007094Y017815D02*
X007094Y018062D01*
X006970Y018185D01*
X006847Y018062D01*
X006847Y017815D01*
X006725Y017877D02*
X006725Y018124D01*
X006664Y018185D01*
X006478Y018185D01*
X006478Y017815D01*
X006664Y017815D01*
X006725Y017877D01*
X006847Y018000D02*
X007094Y018000D01*
X006494Y018315D02*
X006247Y018315D01*
X006247Y018685D01*
X006125Y018624D02*
X006064Y018685D01*
X005940Y018685D01*
X005878Y018624D01*
X005878Y018377D01*
X005940Y018315D01*
X006064Y018315D01*
X006125Y018377D01*
X006172Y018185D02*
X006110Y018124D01*
X006110Y018062D01*
X006172Y018000D01*
X006295Y018000D01*
X006357Y017938D01*
X006357Y017877D01*
X006295Y017815D01*
X006172Y017815D01*
X006110Y017877D01*
X006172Y018185D02*
X006295Y018185D01*
X006357Y018124D01*
X005757Y018377D02*
X005695Y018315D01*
X005572Y018315D01*
X005510Y018377D01*
X005572Y018500D02*
X005510Y018562D01*
X005510Y018624D01*
X005572Y018685D01*
X005695Y018685D01*
X005757Y018624D01*
X005695Y018500D02*
X005757Y018438D01*
X005757Y018377D01*
X005695Y018500D02*
X005572Y018500D01*
X004194Y018185D02*
X003947Y017815D01*
X003825Y017815D02*
X003702Y017938D01*
X003764Y017938D02*
X003578Y017938D01*
X003578Y017815D02*
X003578Y018185D01*
X003764Y018185D01*
X003825Y018124D01*
X003825Y018000D01*
X003764Y017938D01*
X003947Y018185D02*
X004194Y017815D01*
X003794Y018315D02*
X003547Y018685D01*
X003425Y018685D02*
X003178Y018685D01*
X003302Y018685D02*
X003302Y018315D01*
X003547Y018315D02*
X003794Y018685D01*
X001719Y014847D02*
X001719Y014785D01*
X001719Y014662D02*
X001719Y014415D01*
X001658Y014415D02*
X001781Y014415D01*
X001903Y014477D02*
X001965Y014415D01*
X002150Y014415D01*
X002150Y014353D02*
X002150Y014662D01*
X001965Y014662D01*
X001903Y014600D01*
X001903Y014477D01*
X002027Y014292D02*
X002088Y014292D01*
X002150Y014353D01*
X002271Y014477D02*
X002271Y014600D01*
X002333Y014662D01*
X002518Y014662D01*
X002518Y014353D01*
X002457Y014292D01*
X002395Y014292D01*
X002333Y014415D02*
X002518Y014415D01*
X002640Y014477D02*
X002640Y014600D01*
X002701Y014662D01*
X002825Y014662D01*
X002887Y014600D01*
X002887Y014538D01*
X002640Y014538D01*
X002640Y014477D02*
X002701Y014415D01*
X002825Y014415D01*
X003008Y014415D02*
X003008Y014662D01*
X003008Y014538D02*
X003132Y014662D01*
X003193Y014662D01*
X002333Y014415D02*
X002271Y014477D01*
X001719Y014662D02*
X001658Y014662D01*
X001536Y014662D02*
X001474Y014662D01*
X001351Y014538D01*
X001351Y014415D02*
X001351Y014662D01*
X001229Y014785D02*
X000982Y014785D01*
X001106Y014785D02*
X001106Y014415D01*
D11*
X003028Y001673D02*
X003185Y001516D01*
X003815Y001516D01*
X003972Y001673D01*
X003972Y002106D01*
X003972Y002894D02*
X003972Y003484D01*
X003028Y003484D01*
X003028Y002894D01*
X003028Y002106D02*
X003028Y001673D01*
X008328Y001606D02*
X008328Y001016D01*
X009272Y001016D01*
X009272Y001606D01*
X009272Y002394D02*
X009272Y002827D01*
X009115Y002984D01*
X008485Y002984D01*
X008328Y002827D01*
X008328Y002394D01*
X009714Y002836D02*
X009714Y007364D01*
X011486Y007364D01*
X011486Y002836D01*
X009714Y002836D01*
X014310Y002129D02*
X014310Y004568D01*
X016890Y004568D01*
X016890Y002129D01*
X017710Y002129D02*
X017710Y004568D01*
X020290Y004568D01*
X020290Y002129D01*
X021961Y005411D02*
X024402Y005411D01*
X024402Y008167D01*
X024717Y008167D01*
X024717Y005411D01*
X024402Y005411D01*
X021961Y005411D02*
X021961Y008167D01*
X024402Y008167D01*
X024402Y009811D02*
X024402Y012567D01*
X024717Y012567D01*
X024717Y009811D01*
X024402Y009811D01*
X021961Y009811D01*
X021961Y012567D01*
X024402Y012567D01*
X024402Y013111D02*
X024402Y015867D01*
X024717Y015867D01*
X024717Y013111D01*
X024402Y013111D01*
X021961Y013111D01*
X021961Y015867D01*
X024402Y015867D01*
X019020Y014500D02*
X019022Y014571D01*
X019028Y014642D01*
X019038Y014713D01*
X019052Y014782D01*
X019069Y014851D01*
X019091Y014919D01*
X019116Y014986D01*
X019145Y015051D01*
X019177Y015114D01*
X019213Y015176D01*
X019252Y015235D01*
X019295Y015292D01*
X019340Y015347D01*
X019389Y015399D01*
X019440Y015448D01*
X019494Y015494D01*
X019551Y015538D01*
X019609Y015578D01*
X019670Y015614D01*
X019733Y015648D01*
X019798Y015677D01*
X019864Y015703D01*
X019932Y015726D01*
X020000Y015744D01*
X020070Y015759D01*
X020140Y015770D01*
X020211Y015777D01*
X020282Y015780D01*
X020353Y015779D01*
X020424Y015774D01*
X020495Y015765D01*
X020565Y015752D01*
X020634Y015736D01*
X020702Y015715D01*
X020769Y015691D01*
X020835Y015663D01*
X020898Y015631D01*
X020960Y015596D01*
X021020Y015558D01*
X021078Y015516D01*
X021133Y015472D01*
X021186Y015424D01*
X021236Y015373D01*
X021283Y015320D01*
X021327Y015264D01*
X021368Y015206D01*
X021406Y015145D01*
X021440Y015083D01*
X021470Y015018D01*
X021497Y014953D01*
X021521Y014885D01*
X021540Y014817D01*
X021556Y014748D01*
X021568Y014677D01*
X021576Y014607D01*
X021580Y014536D01*
X021580Y014464D01*
X021576Y014393D01*
X021568Y014323D01*
X021556Y014252D01*
X021540Y014183D01*
X021521Y014115D01*
X021497Y014047D01*
X021470Y013982D01*
X021440Y013917D01*
X021406Y013855D01*
X021368Y013794D01*
X021327Y013736D01*
X021283Y013680D01*
X021236Y013627D01*
X021186Y013576D01*
X021133Y013528D01*
X021078Y013484D01*
X021020Y013442D01*
X020960Y013404D01*
X020898Y013369D01*
X020835Y013337D01*
X020769Y013309D01*
X020702Y013285D01*
X020634Y013264D01*
X020565Y013248D01*
X020495Y013235D01*
X020424Y013226D01*
X020353Y013221D01*
X020282Y013220D01*
X020211Y013223D01*
X020140Y013230D01*
X020070Y013241D01*
X020000Y013256D01*
X019932Y013274D01*
X019864Y013297D01*
X019798Y013323D01*
X019733Y013352D01*
X019670Y013386D01*
X019609Y013422D01*
X019551Y013462D01*
X019494Y013506D01*
X019440Y013552D01*
X019389Y013601D01*
X019340Y013653D01*
X019295Y013708D01*
X019252Y013765D01*
X019213Y013824D01*
X019177Y013886D01*
X019145Y013949D01*
X019116Y014014D01*
X019091Y014081D01*
X019069Y014149D01*
X019052Y014218D01*
X019038Y014287D01*
X019028Y014358D01*
X019022Y014429D01*
X019020Y014500D01*
X019800Y014250D02*
X019800Y013750D01*
X018190Y014650D02*
X015610Y014650D01*
X015610Y015950D01*
X018190Y015950D01*
X018190Y014650D01*
X012820Y015600D02*
X012822Y015671D01*
X012828Y015742D01*
X012838Y015813D01*
X012852Y015882D01*
X012869Y015951D01*
X012891Y016019D01*
X012916Y016086D01*
X012945Y016151D01*
X012977Y016214D01*
X013013Y016276D01*
X013052Y016335D01*
X013095Y016392D01*
X013140Y016447D01*
X013189Y016499D01*
X013240Y016548D01*
X013294Y016594D01*
X013351Y016638D01*
X013409Y016678D01*
X013470Y016714D01*
X013533Y016748D01*
X013598Y016777D01*
X013664Y016803D01*
X013732Y016826D01*
X013800Y016844D01*
X013870Y016859D01*
X013940Y016870D01*
X014011Y016877D01*
X014082Y016880D01*
X014153Y016879D01*
X014224Y016874D01*
X014295Y016865D01*
X014365Y016852D01*
X014434Y016836D01*
X014502Y016815D01*
X014569Y016791D01*
X014635Y016763D01*
X014698Y016731D01*
X014760Y016696D01*
X014820Y016658D01*
X014878Y016616D01*
X014933Y016572D01*
X014986Y016524D01*
X015036Y016473D01*
X015083Y016420D01*
X015127Y016364D01*
X015168Y016306D01*
X015206Y016245D01*
X015240Y016183D01*
X015270Y016118D01*
X015297Y016053D01*
X015321Y015985D01*
X015340Y015917D01*
X015356Y015848D01*
X015368Y015777D01*
X015376Y015707D01*
X015380Y015636D01*
X015380Y015564D01*
X015376Y015493D01*
X015368Y015423D01*
X015356Y015352D01*
X015340Y015283D01*
X015321Y015215D01*
X015297Y015147D01*
X015270Y015082D01*
X015240Y015017D01*
X015206Y014955D01*
X015168Y014894D01*
X015127Y014836D01*
X015083Y014780D01*
X015036Y014727D01*
X014986Y014676D01*
X014933Y014628D01*
X014878Y014584D01*
X014820Y014542D01*
X014760Y014504D01*
X014698Y014469D01*
X014635Y014437D01*
X014569Y014409D01*
X014502Y014385D01*
X014434Y014364D01*
X014365Y014348D01*
X014295Y014335D01*
X014224Y014326D01*
X014153Y014321D01*
X014082Y014320D01*
X014011Y014323D01*
X013940Y014330D01*
X013870Y014341D01*
X013800Y014356D01*
X013732Y014374D01*
X013664Y014397D01*
X013598Y014423D01*
X013533Y014452D01*
X013470Y014486D01*
X013409Y014522D01*
X013351Y014562D01*
X013294Y014606D01*
X013240Y014652D01*
X013189Y014701D01*
X013140Y014753D01*
X013095Y014808D01*
X013052Y014865D01*
X013013Y014924D01*
X012977Y014986D01*
X012945Y015049D01*
X012916Y015114D01*
X012891Y015181D01*
X012869Y015249D01*
X012852Y015318D01*
X012838Y015387D01*
X012828Y015458D01*
X012822Y015529D01*
X012820Y015600D01*
X013600Y015350D02*
X013600Y014850D01*
X010350Y011800D02*
X009850Y011800D01*
X009850Y010800D02*
X010350Y010800D01*
X008790Y012168D02*
X008790Y015632D01*
X008632Y015790D01*
X005168Y015790D01*
X005010Y015632D01*
X005010Y012168D01*
X005168Y012010D01*
X008632Y012010D01*
X008790Y012168D01*
X007550Y009700D02*
X007050Y009700D01*
X006800Y009450D01*
X006800Y007950D01*
X007050Y007700D01*
X007550Y007700D01*
X007800Y007950D01*
X007800Y009450D01*
X007550Y009700D01*
X006800Y009450D02*
X006550Y009700D01*
X006050Y009700D01*
X005800Y009450D01*
X005800Y007950D01*
X006050Y007700D01*
X006550Y007700D01*
X006800Y007950D01*
X005800Y007950D02*
X005550Y007700D01*
X005050Y007700D01*
X004800Y007950D01*
X004800Y009450D01*
X005050Y009700D01*
X005550Y009700D01*
X005800Y009450D01*
X005550Y007568D02*
X005050Y007568D01*
X002950Y015100D02*
X001250Y015100D01*
X000900Y015900D02*
X000900Y016705D01*
X001250Y017500D02*
X002950Y017500D01*
X003300Y016693D02*
X003300Y015900D01*
X001400Y016300D02*
X001402Y016352D01*
X001408Y016404D01*
X001418Y016456D01*
X001431Y016506D01*
X001448Y016556D01*
X001469Y016604D01*
X001494Y016650D01*
X001522Y016694D01*
X001553Y016736D01*
X001587Y016776D01*
X001624Y016813D01*
X001664Y016847D01*
X001706Y016878D01*
X001750Y016906D01*
X001796Y016931D01*
X001844Y016952D01*
X001894Y016969D01*
X001944Y016982D01*
X001996Y016992D01*
X002048Y016998D01*
X002100Y017000D01*
X002152Y016998D01*
X002204Y016992D01*
X002256Y016982D01*
X002306Y016969D01*
X002356Y016952D01*
X002404Y016931D01*
X002450Y016906D01*
X002494Y016878D01*
X002536Y016847D01*
X002576Y016813D01*
X002613Y016776D01*
X002647Y016736D01*
X002678Y016694D01*
X002706Y016650D01*
X002731Y016604D01*
X002752Y016556D01*
X002769Y016506D01*
X002782Y016456D01*
X002792Y016404D01*
X002798Y016352D01*
X002800Y016300D01*
X002798Y016248D01*
X002792Y016196D01*
X002782Y016144D01*
X002769Y016094D01*
X002752Y016044D01*
X002731Y015996D01*
X002706Y015950D01*
X002678Y015906D01*
X002647Y015864D01*
X002613Y015824D01*
X002576Y015787D01*
X002536Y015753D01*
X002494Y015722D01*
X002450Y015694D01*
X002404Y015669D01*
X002356Y015648D01*
X002306Y015631D01*
X002256Y015618D01*
X002204Y015608D01*
X002152Y015602D01*
X002100Y015600D01*
X002048Y015602D01*
X001996Y015608D01*
X001944Y015618D01*
X001894Y015631D01*
X001844Y015648D01*
X001796Y015669D01*
X001750Y015694D01*
X001706Y015722D01*
X001664Y015753D01*
X001624Y015787D01*
X001587Y015824D01*
X001553Y015864D01*
X001522Y015906D01*
X001494Y015950D01*
X001469Y015996D01*
X001448Y016044D01*
X001431Y016094D01*
X001418Y016144D01*
X001408Y016196D01*
X001402Y016248D01*
X001400Y016300D01*
X005100Y019750D02*
X005350Y019500D01*
X005850Y019500D01*
X006100Y019750D01*
X006350Y019500D01*
X006850Y019500D01*
X007100Y019750D01*
X007100Y020250D01*
X006850Y020500D01*
X006350Y020500D01*
X006100Y020250D01*
X005850Y020500D01*
X005350Y020500D01*
X005100Y020250D01*
X005100Y019750D01*
X004360Y020431D02*
X004360Y020769D01*
X003906Y020919D02*
X003694Y020919D01*
X003240Y020769D02*
X003240Y020431D01*
X005653Y023410D02*
X005655Y023425D01*
X005661Y023438D01*
X005670Y023450D01*
X005681Y023459D01*
X005695Y023465D01*
X005710Y023467D01*
X005725Y023465D01*
X005738Y023459D01*
X005750Y023450D01*
X005759Y023439D01*
X005765Y023425D01*
X005767Y023410D01*
X005765Y023395D01*
X005759Y023382D01*
X005750Y023370D01*
X005739Y023361D01*
X005725Y023355D01*
X005710Y023353D01*
X005695Y023355D01*
X005682Y023361D01*
X005670Y023370D01*
X005661Y023381D01*
X005655Y023395D01*
X005653Y023410D01*
X012400Y022750D02*
X012400Y022250D01*
X012650Y022000D01*
X013150Y022000D01*
X013400Y022250D01*
X013650Y022000D01*
X014150Y022000D01*
X014400Y022250D01*
X014400Y022750D01*
X014150Y023000D01*
X013650Y023000D01*
X013400Y022750D01*
X013150Y023000D01*
X012650Y023000D01*
X012400Y022750D01*
X014310Y009971D02*
X014310Y007532D01*
X016890Y007532D01*
X016890Y009971D01*
X017710Y009971D02*
X017710Y007532D01*
X020290Y007532D01*
X020290Y009971D01*
D12*
X019000Y007342D03*
X019000Y004758D03*
X015600Y004758D03*
X015600Y007342D03*
D13*
X009200Y002150D02*
X008400Y002150D01*
X003900Y002350D02*
X003100Y002350D01*
X003400Y003800D02*
X001200Y003800D01*
X001200Y009000D01*
X003400Y009000D01*
X003400Y003800D01*
X009700Y017800D02*
X011700Y017800D01*
X011700Y020000D01*
X011200Y020000D01*
X011200Y019500D01*
X010200Y019500D01*
X010200Y020000D01*
X011200Y020000D01*
X010200Y020000D02*
X009700Y020000D01*
X009700Y017800D01*
X012400Y017800D02*
X014400Y017800D01*
X014400Y020000D01*
X013900Y020000D01*
X013900Y019500D01*
X012900Y019500D01*
X012900Y020000D01*
X013900Y020000D01*
X012900Y020000D02*
X012400Y020000D01*
X012400Y017800D01*
X015200Y017800D02*
X018200Y017800D01*
X018200Y020000D01*
X017700Y020000D01*
X017700Y019500D01*
X015700Y019500D01*
X015700Y020000D01*
X017700Y020000D01*
X018200Y020800D02*
X015200Y020800D01*
X015200Y023000D01*
X015700Y023000D01*
X015700Y022500D01*
X017700Y022500D01*
X017700Y023000D01*
X018200Y023000D01*
X018200Y020800D01*
X017700Y023000D02*
X015700Y023000D01*
X015700Y020000D02*
X015200Y020000D01*
X015200Y017800D01*
X002700Y018000D02*
X000700Y018000D01*
X000700Y020200D01*
X001200Y020200D01*
X001200Y019700D01*
X002200Y019700D01*
X002200Y020200D01*
X002700Y020200D01*
X002700Y018000D01*
X002200Y020200D02*
X001200Y020200D01*
D14*
X000500Y008700D02*
X000600Y008200D01*
X000600Y008600D01*
X000900Y008400D01*
X000700Y008300D01*
X000700Y008500D01*
X000800Y008400D01*
X001000Y008400D02*
X000500Y008700D01*
X000500Y008100D01*
X001000Y008400D01*
D15*
X008340Y018740D02*
X008340Y019860D01*
X008860Y019860D01*
X008860Y018740D01*
X008340Y018740D01*
X006810Y021770D02*
X005390Y021770D01*
X005390Y023630D02*
X006810Y023630D01*
D16*
X008364Y012325D02*
X008366Y012345D01*
X008371Y012365D01*
X008381Y012383D01*
X008393Y012400D01*
X008408Y012414D01*
X008426Y012424D01*
X008445Y012432D01*
X008465Y012436D01*
X008485Y012436D01*
X008505Y012432D01*
X008524Y012424D01*
X008542Y012414D01*
X008557Y012400D01*
X008569Y012383D01*
X008579Y012365D01*
X008584Y012345D01*
X008586Y012325D01*
X008584Y012305D01*
X008579Y012285D01*
X008569Y012267D01*
X008557Y012250D01*
X008542Y012236D01*
X008524Y012226D01*
X008505Y012218D01*
X008485Y012214D01*
X008465Y012214D01*
X008445Y012218D01*
X008426Y012226D01*
X008408Y012236D01*
X008393Y012250D01*
X008381Y012267D01*
X008371Y012285D01*
X008366Y012305D01*
X008364Y012325D01*
D17*
X006500Y010512D02*
X006500Y010488D01*
X003612Y013000D02*
X003588Y013000D01*
X006300Y017088D02*
X006300Y017112D01*
X010188Y014800D02*
X010212Y014800D01*
X009700Y020688D02*
X009700Y020712D01*
X009700Y022688D02*
X009700Y022712D01*
D18*
X004800Y018300D03*
X004800Y017500D03*
M02*
