G75*
%MOIN*%
%OFA0B0*%
%FSLAX24Y24*%
%IPPOS*%
%LPD*%
%AMOC8*
5,1,8,0,0,1.08239X$1,22.5*
%
%ADD10R,0.0800X0.0800*%
%ADD11C,0.0800*%
%ADD12R,0.0630X0.0709*%
%ADD13C,0.0740*%
%ADD14OC8,0.0740*%
%ADD15R,0.0551X0.0630*%
%ADD16R,0.0709X0.0630*%
%ADD17R,0.0630X0.0551*%
%ADD18R,0.0500X0.0579*%
%ADD19R,0.0740X0.0740*%
%ADD20R,0.1400X0.0800*%
%ADD21C,0.0650*%
%ADD22R,0.0650X0.0650*%
%ADD23R,0.0394X0.0433*%
%ADD24C,0.0740*%
%ADD25C,0.0160*%
%ADD26R,0.0396X0.0396*%
%ADD27R,0.0531X0.0531*%
%ADD28R,0.0475X0.0475*%
%ADD29C,0.0240*%
%ADD30C,0.0120*%
%ADD31R,0.0436X0.0436*%
%ADD32C,0.0320*%
D10*
X023300Y006100D03*
X023300Y010500D03*
X023300Y013800D03*
D11*
X023300Y015178D03*
X023300Y011878D03*
X023300Y007478D03*
D12*
X017751Y017900D03*
X016649Y017900D03*
X014051Y020400D03*
X014051Y021300D03*
X012949Y021300D03*
X012949Y020400D03*
X001951Y013600D03*
X001951Y012600D03*
X000849Y012600D03*
X000849Y013600D03*
X005449Y007100D03*
X006551Y007100D03*
X006151Y004400D03*
X005049Y004400D03*
X005049Y003400D03*
X006151Y003400D03*
D13*
X010600Y002100D03*
X010600Y008100D03*
X003380Y015410D03*
X003380Y017190D03*
X001200Y019200D03*
X000820Y017190D03*
X000820Y015410D03*
X005600Y020000D03*
X006600Y020000D03*
X010200Y019000D03*
X012900Y019000D03*
X015700Y019000D03*
X016700Y019000D03*
X016700Y022000D03*
X015700Y022000D03*
X013900Y022500D03*
X012900Y022500D03*
D14*
X007300Y009200D03*
X007300Y008200D03*
X006300Y008200D03*
X006300Y009200D03*
X005300Y009200D03*
X005300Y008200D03*
X002800Y008400D03*
X002800Y007400D03*
X002800Y006400D03*
X002800Y005400D03*
X002800Y004400D03*
X001800Y004400D03*
X001800Y005400D03*
X001800Y006400D03*
X001800Y007400D03*
X001800Y008400D03*
D15*
X006149Y014400D03*
X007251Y014400D03*
X014049Y014000D03*
X015151Y014000D03*
D16*
X008000Y018049D03*
X008000Y019151D03*
D17*
X003900Y003951D03*
X003900Y002849D03*
D18*
X017354Y016300D03*
X019046Y016300D03*
X014246Y017800D03*
X012554Y017800D03*
D19*
X013900Y019000D03*
X011200Y019000D03*
X017700Y019000D03*
X017700Y022000D03*
X002200Y019200D03*
D20*
X020700Y018400D03*
X020700Y016400D03*
D21*
X020300Y014000D03*
X014100Y015100D03*
D22*
X014100Y016100D03*
X020300Y015000D03*
D23*
X006500Y017865D03*
X006500Y018535D03*
X005600Y018535D03*
X005600Y017865D03*
D24*
X009730Y011300D02*
X010470Y011300D01*
D25*
X000580Y001507D02*
X000580Y000580D01*
X009500Y000580D01*
X009500Y002489D01*
X008491Y001480D01*
X006691Y001480D01*
X006191Y000980D01*
X005309Y000980D01*
X005180Y001109D01*
X005180Y001109D01*
X004980Y001309D01*
X004980Y002191D01*
X005442Y002653D01*
X005442Y002764D01*
X005536Y002858D01*
X006064Y002858D01*
X006158Y002764D01*
X006158Y002236D01*
X006120Y002197D01*
X006204Y002197D01*
X006297Y002104D01*
X006297Y002020D01*
X006309Y002020D01*
X006409Y002120D01*
X008209Y002120D01*
X009080Y002991D01*
X009080Y003709D01*
X008609Y004180D01*
X008480Y004309D01*
X008480Y009091D01*
X008609Y009220D01*
X008609Y009220D01*
X008780Y009391D01*
X008780Y009391D01*
X008909Y009520D01*
X009809Y009520D01*
X009944Y009655D01*
X009903Y009696D01*
X009903Y010304D01*
X009996Y010397D01*
X010604Y010397D01*
X010697Y010304D01*
X010697Y009809D01*
X010703Y009814D01*
X010703Y010204D01*
X010796Y010297D01*
X011404Y010297D01*
X011497Y010204D01*
X011497Y009596D01*
X011404Y009503D01*
X011014Y009503D01*
X010291Y008780D01*
X009120Y008780D01*
X009120Y004591D01*
X009720Y003991D01*
X009720Y003700D01*
X016700Y003700D01*
X016700Y008300D01*
X024490Y008300D01*
X024490Y023716D01*
X008858Y023716D01*
X008858Y023236D01*
X008764Y023142D01*
X008453Y023142D01*
X007891Y022580D01*
X007740Y022580D01*
X007740Y021858D01*
X007947Y021858D01*
X007980Y021891D01*
X008109Y022020D01*
X009491Y022020D01*
X010691Y020820D01*
X011909Y020820D01*
X012474Y021385D01*
X012474Y021721D01*
X012568Y021814D01*
X013330Y021814D01*
X013424Y021721D01*
X013424Y020879D01*
X013394Y020850D01*
X013424Y020821D01*
X013424Y019979D01*
X013330Y019886D01*
X012568Y019886D01*
X012474Y019979D01*
X012474Y020180D01*
X010440Y020180D01*
X010440Y019474D01*
X010500Y019449D01*
X010649Y019300D01*
X010730Y019105D01*
X010730Y018895D01*
X010649Y018700D01*
X010500Y018551D01*
X010305Y018470D01*
X010095Y018470D01*
X009900Y018551D01*
X009751Y018700D01*
X009670Y018895D01*
X009670Y019105D01*
X009751Y019300D01*
X009900Y019449D01*
X009960Y019474D01*
X009960Y020101D01*
X009601Y020460D01*
X007852Y020460D01*
X007764Y020497D01*
X007364Y020897D01*
X007297Y020964D01*
X007260Y021052D01*
X007260Y022580D01*
X004358Y022580D01*
X004358Y022536D01*
X004264Y022442D01*
X003736Y022442D01*
X003642Y022536D01*
X003642Y023064D01*
X003736Y023158D01*
X004264Y023158D01*
X004358Y023064D01*
X004358Y023020D01*
X007404Y023020D01*
X007452Y023040D01*
X007548Y023040D01*
X007596Y023020D01*
X007709Y023020D01*
X008142Y023453D01*
X008142Y023716D01*
X000580Y023716D01*
X000580Y017664D01*
X000715Y017720D01*
X000925Y017720D01*
X001120Y017639D01*
X001269Y017490D01*
X001350Y017295D01*
X001350Y017085D01*
X001269Y016890D01*
X001120Y016741D01*
X000925Y016660D01*
X000715Y016660D01*
X000580Y016716D01*
X000580Y014114D01*
X001230Y014114D01*
X001324Y014021D01*
X001324Y013179D01*
X001244Y013100D01*
X001324Y013021D01*
X001324Y012179D01*
X001230Y012086D01*
X001176Y012086D01*
X001178Y012084D01*
X001178Y011516D01*
X001084Y011422D01*
X000580Y011422D01*
X000580Y002493D01*
X000696Y002694D01*
X000906Y002904D01*
X001164Y003053D01*
X001451Y003130D01*
X001749Y003130D01*
X002036Y003053D01*
X002294Y002904D01*
X002504Y002694D01*
X002653Y002436D01*
X002730Y002149D01*
X002730Y001851D01*
X002653Y001564D01*
X002504Y001306D01*
X002294Y001096D01*
X002036Y000947D01*
X001749Y000870D01*
X001451Y000870D01*
X001164Y000947D01*
X000906Y001096D01*
X000696Y001306D01*
X000580Y001507D01*
X000580Y001451D02*
X000612Y001451D01*
X000580Y001293D02*
X000709Y001293D01*
X000580Y001134D02*
X000868Y001134D01*
X001114Y000976D02*
X000580Y000976D01*
X000580Y000817D02*
X009500Y000817D01*
X009500Y000659D02*
X000580Y000659D01*
X002086Y000976D02*
X009500Y000976D01*
X009500Y001134D02*
X006345Y001134D01*
X006504Y001293D02*
X009500Y001293D01*
X009500Y001451D02*
X006662Y001451D01*
X006374Y002085D02*
X006297Y002085D01*
X006158Y002244D02*
X008332Y002244D01*
X008491Y002402D02*
X006158Y002402D01*
X006158Y002561D02*
X008649Y002561D01*
X008808Y002719D02*
X006158Y002719D01*
X006532Y002886D02*
X005770Y002886D01*
X005676Y002979D01*
X005676Y003821D01*
X005756Y003900D01*
X005676Y003979D01*
X005676Y004821D01*
X005770Y004914D01*
X006532Y004914D01*
X006626Y004821D01*
X006626Y003979D01*
X006547Y003900D01*
X006626Y003821D01*
X006626Y002979D01*
X006532Y002886D01*
X006626Y003036D02*
X009080Y003036D01*
X009080Y003195D02*
X006626Y003195D01*
X006626Y003353D02*
X009080Y003353D01*
X009080Y003512D02*
X006626Y003512D01*
X006626Y003670D02*
X009080Y003670D01*
X008960Y003829D02*
X006618Y003829D01*
X006626Y003987D02*
X008802Y003987D01*
X008643Y004146D02*
X006626Y004146D01*
X006626Y004304D02*
X008485Y004304D01*
X008480Y004463D02*
X006626Y004463D01*
X006626Y004621D02*
X008480Y004621D01*
X008480Y004780D02*
X006626Y004780D01*
X005676Y004780D02*
X005524Y004780D01*
X005524Y004821D02*
X005430Y004914D01*
X004668Y004914D01*
X004574Y004821D01*
X004574Y004620D01*
X004491Y004620D01*
X004158Y004953D01*
X004158Y005264D01*
X004064Y005358D01*
X003536Y005358D01*
X003442Y005264D01*
X003442Y004736D01*
X003536Y004642D01*
X003847Y004642D01*
X004089Y004400D01*
X004076Y004387D01*
X003519Y004387D01*
X003425Y004293D01*
X003425Y003609D01*
X003519Y003516D01*
X004281Y003516D01*
X004375Y003609D01*
X004375Y004064D01*
X004491Y004180D01*
X004574Y004180D01*
X004574Y003979D01*
X004668Y003886D01*
X005430Y003886D01*
X005524Y003979D01*
X005524Y004821D01*
X005524Y004621D02*
X005676Y004621D01*
X005676Y004463D02*
X005524Y004463D01*
X005524Y004304D02*
X005676Y004304D01*
X005676Y004146D02*
X005524Y004146D01*
X005524Y003987D02*
X005676Y003987D01*
X005684Y003829D02*
X004375Y003829D01*
X004375Y003987D02*
X004574Y003987D01*
X004574Y004146D02*
X004457Y004146D01*
X004026Y004463D02*
X002330Y004463D01*
X002330Y004620D02*
X002330Y004180D01*
X002020Y003870D01*
X001580Y003870D01*
X001270Y004180D01*
X001270Y004620D01*
X001550Y004900D01*
X001270Y005180D01*
X001270Y005619D01*
X000780Y006109D01*
X000780Y009822D01*
X000716Y009822D01*
X000622Y009916D01*
X000622Y010484D01*
X000716Y010578D01*
X001284Y010578D01*
X001378Y010484D01*
X001378Y009916D01*
X001284Y009822D01*
X001220Y009822D01*
X001220Y009231D01*
X001580Y009591D01*
X001580Y009922D01*
X001516Y009922D01*
X001422Y010016D01*
X001422Y010584D01*
X001516Y010678D01*
X002084Y010678D01*
X002150Y010612D01*
X002216Y010678D01*
X002784Y010678D01*
X002850Y010612D01*
X002916Y010678D01*
X003484Y010678D01*
X003578Y010584D01*
X003578Y010016D01*
X003484Y009922D01*
X003420Y009922D01*
X003420Y009491D01*
X003580Y009331D01*
X003580Y010609D01*
X003367Y010822D01*
X003016Y010822D01*
X002922Y010916D01*
X002922Y011484D01*
X003016Y011578D01*
X003584Y011578D01*
X003678Y011484D01*
X003678Y011133D01*
X003880Y010931D01*
X003880Y011509D01*
X003109Y012280D01*
X003078Y012280D01*
X003078Y012216D01*
X002984Y012122D01*
X002416Y012122D01*
X002392Y012146D01*
X002332Y012086D01*
X001570Y012086D01*
X001476Y012179D01*
X001476Y013021D01*
X001556Y013100D01*
X001476Y013179D01*
X001476Y014021D01*
X001570Y014114D01*
X002332Y014114D01*
X002426Y014021D01*
X002426Y013678D01*
X002984Y013678D01*
X003078Y013584D01*
X003078Y013233D01*
X004720Y011591D01*
X004720Y009478D01*
X004784Y009478D01*
X004806Y009456D01*
X005020Y009670D01*
X005020Y010956D01*
X005063Y011059D01*
X006163Y012159D01*
X006241Y012237D01*
X006344Y012280D01*
X009720Y012280D01*
X009720Y013122D01*
X009674Y013168D01*
X009674Y013832D01*
X009768Y013926D01*
X010432Y013926D01*
X010526Y013832D01*
X010526Y013820D01*
X011624Y013820D01*
X011741Y013937D01*
X011844Y013980D01*
X012903Y013980D01*
X012903Y014004D01*
X012996Y014097D01*
X013301Y014097D01*
X013441Y014237D01*
X013544Y014280D01*
X013613Y014280D01*
X013613Y014381D01*
X013707Y014475D01*
X014391Y014475D01*
X014484Y014381D01*
X014484Y013619D01*
X014391Y013525D01*
X013707Y013525D01*
X013697Y013535D01*
X013697Y013396D01*
X013604Y013303D01*
X012996Y013303D01*
X012903Y013396D01*
X012903Y013420D01*
X012016Y013420D01*
X012011Y013415D01*
X011971Y013319D01*
X011881Y013229D01*
X011764Y013180D01*
X021920Y013180D01*
X021920Y013022D02*
X010280Y013022D01*
X010280Y013074D02*
X010432Y013074D01*
X010526Y013168D01*
X010526Y013180D01*
X011764Y013180D01*
X011979Y013339D02*
X012960Y013339D01*
X013640Y013339D02*
X021920Y013339D01*
X021920Y013497D02*
X013697Y013497D01*
X013335Y014131D02*
X007687Y014131D01*
X007687Y014160D02*
X007748Y014160D01*
X007836Y014197D01*
X008042Y014403D01*
X008404Y014403D01*
X008497Y014496D01*
X008497Y015104D01*
X008404Y015197D01*
X007796Y015197D01*
X007703Y015104D01*
X007703Y014742D01*
X007687Y014726D01*
X007687Y014781D01*
X007593Y014875D01*
X006909Y014875D01*
X006816Y014781D01*
X006816Y014019D01*
X006909Y013925D01*
X007593Y013925D01*
X007687Y014019D01*
X007687Y014160D01*
X007641Y013973D02*
X011826Y013973D01*
X010280Y013074D02*
X010280Y011944D01*
X010237Y011841D01*
X010226Y011830D01*
X010575Y011830D01*
X010770Y011749D01*
X010919Y011600D01*
X011000Y011405D01*
X011000Y011195D01*
X010919Y011000D01*
X010770Y010851D01*
X010575Y010770D01*
X009625Y010770D01*
X009430Y010851D01*
X009281Y011000D01*
X009200Y011195D01*
X009200Y011405D01*
X009281Y011600D01*
X009400Y011720D01*
X006516Y011720D01*
X005580Y010784D01*
X005580Y009670D01*
X005800Y009450D01*
X006080Y009730D01*
X006520Y009730D01*
X006830Y009420D01*
X006830Y008980D01*
X006550Y008700D01*
X006800Y008450D01*
X007080Y008730D01*
X007520Y008730D01*
X007830Y008420D01*
X007830Y007980D01*
X007520Y007670D01*
X007432Y007670D01*
X007026Y007264D01*
X007026Y006679D01*
X006932Y006586D01*
X006170Y006586D01*
X006076Y006679D01*
X006076Y007521D01*
X006170Y007614D01*
X006754Y007614D01*
X006945Y007805D01*
X006800Y007950D01*
X006520Y007670D01*
X006080Y007670D01*
X005800Y007950D01*
X005520Y007670D01*
X005241Y007670D01*
X005297Y007614D01*
X005830Y007614D01*
X005924Y007521D01*
X005924Y006679D01*
X005830Y006586D01*
X005068Y006586D01*
X004974Y006679D01*
X004974Y007315D01*
X004609Y007680D01*
X004578Y007711D01*
X004578Y007616D01*
X004484Y007522D01*
X004020Y007522D01*
X004020Y007491D01*
X004033Y007478D01*
X004384Y007478D01*
X004478Y007384D01*
X004478Y006816D01*
X004384Y006722D01*
X003816Y006722D01*
X003722Y006816D01*
X003722Y007011D01*
X003330Y006619D01*
X003330Y006180D01*
X003050Y005900D01*
X003330Y005620D01*
X003330Y005180D01*
X003020Y004870D01*
X002580Y004870D01*
X002300Y005150D01*
X002050Y004900D01*
X002330Y004620D01*
X002329Y004621D02*
X003868Y004621D01*
X004173Y004938D02*
X008480Y004938D01*
X008480Y005097D02*
X004158Y005097D01*
X004158Y005255D02*
X008480Y005255D01*
X008480Y005414D02*
X003330Y005414D01*
X003330Y005572D02*
X008480Y005572D01*
X008480Y005731D02*
X003219Y005731D01*
X003061Y005889D02*
X008480Y005889D01*
X008480Y006048D02*
X003197Y006048D01*
X003330Y006206D02*
X008480Y006206D01*
X008480Y006365D02*
X003330Y006365D01*
X003330Y006523D02*
X008480Y006523D01*
X008480Y006682D02*
X007026Y006682D01*
X007026Y006840D02*
X008480Y006840D01*
X008480Y006999D02*
X007026Y006999D01*
X007026Y007157D02*
X008480Y007157D01*
X008480Y007316D02*
X007078Y007316D01*
X007236Y007474D02*
X008480Y007474D01*
X008480Y007633D02*
X007395Y007633D01*
X007641Y007791D02*
X008480Y007791D01*
X008480Y007950D02*
X007799Y007950D01*
X007830Y008108D02*
X008480Y008108D01*
X008480Y008267D02*
X007830Y008267D01*
X007825Y008425D02*
X008480Y008425D01*
X008480Y008584D02*
X007666Y008584D01*
X006934Y008584D02*
X006666Y008584D01*
X006592Y008742D02*
X008480Y008742D01*
X008480Y008901D02*
X006750Y008901D01*
X006830Y009059D02*
X008480Y009059D01*
X008606Y009218D02*
X006830Y009218D01*
X006830Y009376D02*
X008765Y009376D01*
X009120Y008742D02*
X024490Y008742D01*
X024490Y008584D02*
X009120Y008584D01*
X009120Y008425D02*
X024490Y008425D01*
X024490Y008000D02*
X024490Y006900D01*
X021300Y006900D01*
X021300Y008000D01*
X024490Y008000D01*
X024490Y007950D02*
X021300Y007950D01*
X021300Y007791D02*
X024490Y007791D01*
X024490Y007633D02*
X021300Y007633D01*
X021300Y007474D02*
X024490Y007474D01*
X024490Y007316D02*
X021300Y007316D01*
X021300Y007157D02*
X024490Y007157D01*
X024490Y006999D02*
X021300Y006999D01*
X021000Y006999D02*
X017000Y006999D01*
X017000Y007157D02*
X021000Y007157D01*
X021000Y007316D02*
X017000Y007316D01*
X017000Y007474D02*
X021000Y007474D01*
X021000Y007633D02*
X017000Y007633D01*
X017000Y007791D02*
X021000Y007791D01*
X021000Y007950D02*
X017000Y007950D01*
X017000Y008000D02*
X021000Y008000D01*
X021000Y002900D01*
X018700Y000600D01*
X009800Y000600D01*
X009800Y003400D01*
X017000Y003400D01*
X017000Y008000D01*
X016700Y007950D02*
X014558Y007950D01*
X014558Y008108D02*
X016700Y008108D01*
X016700Y008267D02*
X009120Y008267D01*
X009120Y008108D02*
X013842Y008108D01*
X013842Y008164D02*
X013842Y007881D01*
X012201Y006240D01*
X011258Y006240D01*
X011258Y006264D01*
X011164Y006358D01*
X010636Y006358D01*
X010542Y006264D01*
X010542Y005736D01*
X010636Y005642D01*
X011164Y005642D01*
X011258Y005736D01*
X011258Y005760D01*
X012348Y005760D01*
X012436Y005797D01*
X014181Y007542D01*
X014464Y007542D01*
X014558Y007636D01*
X014558Y008164D01*
X014464Y008258D01*
X013936Y008258D01*
X013842Y008164D01*
X013842Y007950D02*
X009120Y007950D01*
X009120Y007791D02*
X013752Y007791D01*
X013593Y007633D02*
X009120Y007633D01*
X009120Y007474D02*
X013435Y007474D01*
X013276Y007316D02*
X009120Y007316D01*
X009120Y007157D02*
X013118Y007157D01*
X012959Y006999D02*
X009120Y006999D01*
X009120Y006840D02*
X012801Y006840D01*
X012642Y006682D02*
X009120Y006682D01*
X009120Y006523D02*
X012484Y006523D01*
X012325Y006365D02*
X009120Y006365D01*
X009120Y006206D02*
X010542Y006206D01*
X010542Y006048D02*
X009120Y006048D01*
X009120Y005889D02*
X010542Y005889D01*
X010547Y005731D02*
X009120Y005731D01*
X009120Y005572D02*
X016700Y005572D01*
X016700Y005414D02*
X009120Y005414D01*
X009120Y005255D02*
X016700Y005255D01*
X016700Y005097D02*
X009120Y005097D01*
X009120Y004938D02*
X016700Y004938D01*
X016700Y004780D02*
X009120Y004780D01*
X009120Y004621D02*
X016700Y004621D01*
X016700Y004463D02*
X009249Y004463D01*
X009407Y004304D02*
X016700Y004304D01*
X016700Y004146D02*
X009566Y004146D01*
X009720Y003987D02*
X016700Y003987D01*
X016700Y003829D02*
X009720Y003829D01*
X009800Y003353D02*
X021000Y003353D01*
X021000Y003195D02*
X009800Y003195D01*
X009800Y003036D02*
X021000Y003036D01*
X020978Y002878D02*
X009800Y002878D01*
X009800Y002719D02*
X020819Y002719D01*
X020661Y002561D02*
X009800Y002561D01*
X009800Y002402D02*
X020502Y002402D01*
X020344Y002244D02*
X009800Y002244D01*
X009800Y002085D02*
X020185Y002085D01*
X020027Y001927D02*
X009800Y001927D01*
X009800Y001768D02*
X019868Y001768D01*
X019710Y001610D02*
X009800Y001610D01*
X009800Y001451D02*
X019551Y001451D01*
X019393Y001293D02*
X009800Y001293D01*
X009800Y001134D02*
X019234Y001134D01*
X019076Y000976D02*
X009800Y000976D01*
X009800Y000817D02*
X018917Y000817D01*
X018759Y000659D02*
X009800Y000659D01*
X009500Y001610D02*
X008621Y001610D01*
X008779Y001768D02*
X009500Y001768D01*
X009500Y001927D02*
X008938Y001927D01*
X009096Y002085D02*
X009500Y002085D01*
X009500Y002244D02*
X009255Y002244D01*
X009413Y002402D02*
X009500Y002402D01*
X008966Y002878D02*
X002321Y002878D01*
X002479Y002719D02*
X005442Y002719D01*
X005349Y002561D02*
X002581Y002561D01*
X002662Y002402D02*
X005191Y002402D01*
X005032Y002244D02*
X002705Y002244D01*
X002730Y002085D02*
X004980Y002085D01*
X004980Y001927D02*
X002730Y001927D01*
X002708Y001768D02*
X004980Y001768D01*
X004980Y001610D02*
X002665Y001610D01*
X002588Y001451D02*
X004980Y001451D01*
X004996Y001293D02*
X002491Y001293D01*
X002332Y001134D02*
X005155Y001134D01*
X005676Y003036D02*
X002066Y003036D01*
X001134Y003036D02*
X000580Y003036D01*
X000580Y002878D02*
X000879Y002878D01*
X000721Y002719D02*
X000580Y002719D01*
X000580Y002561D02*
X000619Y002561D01*
X000580Y003195D02*
X005676Y003195D01*
X005676Y003353D02*
X000580Y003353D01*
X000580Y003512D02*
X005676Y003512D01*
X005676Y003670D02*
X004375Y003670D01*
X003425Y003670D02*
X000580Y003670D01*
X000580Y003829D02*
X003425Y003829D01*
X003425Y003987D02*
X002137Y003987D01*
X002295Y004146D02*
X003425Y004146D01*
X003436Y004304D02*
X002330Y004304D01*
X002170Y004780D02*
X003442Y004780D01*
X003442Y004938D02*
X003088Y004938D01*
X003246Y005097D02*
X003442Y005097D01*
X003442Y005255D02*
X003330Y005255D01*
X002512Y004938D02*
X002088Y004938D01*
X002246Y005097D02*
X002354Y005097D01*
X001512Y004938D02*
X000580Y004938D01*
X000580Y004780D02*
X001430Y004780D01*
X001271Y004621D02*
X000580Y004621D01*
X000580Y004463D02*
X001270Y004463D01*
X001270Y004304D02*
X000580Y004304D01*
X000580Y004146D02*
X001305Y004146D01*
X001463Y003987D02*
X000580Y003987D01*
X000580Y005097D02*
X001354Y005097D01*
X001270Y005255D02*
X000580Y005255D01*
X000580Y005414D02*
X001270Y005414D01*
X001270Y005572D02*
X000580Y005572D01*
X000580Y005731D02*
X001158Y005731D01*
X001000Y005889D02*
X000580Y005889D01*
X000580Y006048D02*
X000841Y006048D01*
X000780Y006206D02*
X000580Y006206D01*
X000580Y006365D02*
X000780Y006365D01*
X000780Y006523D02*
X000580Y006523D01*
X000580Y006682D02*
X000780Y006682D01*
X000780Y006840D02*
X000580Y006840D01*
X000580Y006999D02*
X000780Y006999D01*
X000780Y007157D02*
X000580Y007157D01*
X000580Y007316D02*
X000780Y007316D01*
X000780Y007474D02*
X000580Y007474D01*
X000580Y007633D02*
X000780Y007633D01*
X000780Y007791D02*
X000580Y007791D01*
X000580Y007950D02*
X000780Y007950D01*
X000780Y008108D02*
X000580Y008108D01*
X000580Y008267D02*
X000780Y008267D01*
X000780Y008425D02*
X000580Y008425D01*
X000580Y008584D02*
X000780Y008584D01*
X000780Y008742D02*
X000580Y008742D01*
X000580Y008901D02*
X000780Y008901D01*
X000780Y009059D02*
X000580Y009059D01*
X000580Y009218D02*
X000780Y009218D01*
X000780Y009376D02*
X000580Y009376D01*
X000580Y009535D02*
X000780Y009535D01*
X000780Y009693D02*
X000580Y009693D01*
X000580Y009852D02*
X000687Y009852D01*
X000622Y010010D02*
X000580Y010010D01*
X000580Y010169D02*
X000622Y010169D01*
X000622Y010327D02*
X000580Y010327D01*
X000580Y010486D02*
X000624Y010486D01*
X000580Y010644D02*
X001482Y010644D01*
X001422Y010486D02*
X001376Y010486D01*
X001378Y010327D02*
X001422Y010327D01*
X001422Y010169D02*
X001378Y010169D01*
X001378Y010010D02*
X001428Y010010D01*
X001313Y009852D02*
X001580Y009852D01*
X001580Y009693D02*
X001220Y009693D01*
X001220Y009535D02*
X001523Y009535D01*
X001365Y009376D02*
X001220Y009376D01*
X002118Y010644D02*
X002182Y010644D01*
X002818Y010644D02*
X002882Y010644D01*
X002922Y010961D02*
X000580Y010961D01*
X000580Y010803D02*
X003386Y010803D01*
X003518Y010644D02*
X003545Y010644D01*
X003578Y010486D02*
X003580Y010486D01*
X003578Y010327D02*
X003580Y010327D01*
X003578Y010169D02*
X003580Y010169D01*
X003572Y010010D02*
X003580Y010010D01*
X003580Y009852D02*
X003420Y009852D01*
X003420Y009693D02*
X003580Y009693D01*
X003580Y009535D02*
X003420Y009535D01*
X003535Y009376D02*
X003580Y009376D01*
X004720Y009535D02*
X004885Y009535D01*
X005020Y009693D02*
X004720Y009693D01*
X004720Y009852D02*
X005020Y009852D01*
X005020Y010010D02*
X004720Y010010D01*
X004720Y010169D02*
X005020Y010169D01*
X005020Y010327D02*
X004720Y010327D01*
X004720Y010486D02*
X005020Y010486D01*
X005020Y010644D02*
X004720Y010644D01*
X004720Y010803D02*
X005020Y010803D01*
X005022Y010961D02*
X004720Y010961D01*
X004720Y011120D02*
X005124Y011120D01*
X005282Y011278D02*
X004720Y011278D01*
X004720Y011437D02*
X005441Y011437D01*
X005599Y011595D02*
X004716Y011595D01*
X004558Y011754D02*
X005758Y011754D01*
X005916Y011912D02*
X004399Y011912D01*
X004241Y012071D02*
X006075Y012071D01*
X006233Y012229D02*
X004082Y012229D01*
X003924Y012388D02*
X009720Y012388D01*
X009720Y012546D02*
X003765Y012546D01*
X003607Y012705D02*
X009720Y012705D01*
X009720Y012863D02*
X003448Y012863D01*
X003290Y013022D02*
X009720Y013022D01*
X009674Y013180D02*
X003131Y013180D01*
X003078Y013339D02*
X009674Y013339D01*
X009674Y013497D02*
X003078Y013497D01*
X003006Y013656D02*
X009674Y013656D01*
X009674Y013814D02*
X002426Y013814D01*
X002426Y013973D02*
X006862Y013973D01*
X006816Y014131D02*
X000580Y014131D01*
X000580Y014290D02*
X006816Y014290D01*
X006816Y014448D02*
X000580Y014448D01*
X000580Y014607D02*
X006816Y014607D01*
X006816Y014765D02*
X000580Y014765D01*
X000580Y014924D02*
X007703Y014924D01*
X007703Y015082D02*
X000580Y015082D01*
X000580Y015241D02*
X015303Y015241D01*
X015303Y015096D02*
X015396Y015003D01*
X016004Y015003D01*
X016097Y015096D01*
X016097Y015458D01*
X016303Y015664D01*
X016340Y015752D01*
X016340Y016801D01*
X016599Y017060D01*
X017648Y017060D01*
X017736Y017097D01*
X017803Y017164D01*
X017955Y017315D01*
X017984Y017386D01*
X018132Y017386D01*
X018226Y017479D01*
X018226Y018321D01*
X018132Y018414D01*
X017980Y018414D01*
X017980Y018470D01*
X018136Y018470D01*
X018230Y018564D01*
X018230Y019436D01*
X018136Y019530D01*
X017264Y019530D01*
X017170Y019436D01*
X017170Y019250D01*
X017149Y019300D01*
X017000Y019449D01*
X016805Y019530D01*
X016595Y019530D01*
X016400Y019449D01*
X016251Y019300D01*
X016170Y019105D01*
X016170Y018895D01*
X016251Y018700D01*
X016369Y018582D01*
X016369Y018414D01*
X016268Y018414D01*
X016174Y018321D01*
X016174Y018140D01*
X015352Y018140D01*
X015264Y018103D01*
X014656Y017496D01*
X014656Y018156D01*
X014563Y018249D01*
X014526Y018249D01*
X014526Y018709D01*
X014484Y018812D01*
X014430Y018866D01*
X014430Y019436D01*
X014336Y019530D01*
X013464Y019530D01*
X013370Y019436D01*
X013370Y019250D01*
X013349Y019300D01*
X013200Y019449D01*
X013005Y019530D01*
X012795Y019530D01*
X012600Y019449D01*
X012451Y019300D01*
X012370Y019105D01*
X012370Y018895D01*
X012378Y018874D01*
X012316Y018812D01*
X012274Y018709D01*
X012274Y018249D01*
X012237Y018249D01*
X012144Y018156D01*
X012144Y017444D01*
X012237Y017351D01*
X012870Y017351D01*
X012964Y017444D01*
X012964Y018156D01*
X012870Y018249D01*
X012834Y018249D01*
X012834Y018470D01*
X013005Y018470D01*
X013200Y018551D01*
X013349Y018700D01*
X013370Y018750D01*
X013370Y018564D01*
X013464Y018470D01*
X013966Y018470D01*
X013966Y018249D01*
X013930Y018249D01*
X013836Y018156D01*
X013836Y017444D01*
X013930Y017351D01*
X014511Y017351D01*
X014401Y017240D01*
X013052Y017240D01*
X012964Y017203D01*
X012897Y017136D01*
X012538Y016778D01*
X012216Y016778D01*
X012122Y016684D01*
X012122Y016116D01*
X012216Y016022D01*
X012784Y016022D01*
X012878Y016116D01*
X012878Y016438D01*
X013199Y016760D01*
X014548Y016760D01*
X014636Y016797D01*
X015499Y017660D01*
X016174Y017660D01*
X016174Y017479D01*
X016257Y017396D01*
X015964Y017103D01*
X015897Y017036D01*
X015860Y016948D01*
X015860Y015899D01*
X015758Y015797D01*
X015396Y015797D01*
X015303Y015704D01*
X015303Y015096D01*
X015317Y015082D02*
X008497Y015082D01*
X008497Y014924D02*
X019815Y014924D01*
X019815Y015082D02*
X016083Y015082D01*
X016097Y015241D02*
X019815Y015241D01*
X019815Y015391D02*
X019815Y014609D01*
X019909Y014515D01*
X020691Y014515D01*
X020785Y014609D01*
X020785Y015089D01*
X020937Y015241D01*
X020980Y015344D01*
X020980Y015840D01*
X021466Y015840D01*
X021560Y015934D01*
X021560Y016866D01*
X021466Y016960D01*
X019934Y016960D01*
X019840Y016866D01*
X019840Y015934D01*
X019934Y015840D01*
X020420Y015840D01*
X020420Y015516D01*
X020389Y015485D01*
X019909Y015485D01*
X019815Y015391D01*
X019823Y015399D02*
X016097Y015399D01*
X016197Y015558D02*
X020420Y015558D01*
X020420Y015716D02*
X016325Y015716D01*
X016340Y015875D02*
X018706Y015875D01*
X018730Y015851D02*
X019363Y015851D01*
X019456Y015944D01*
X019456Y016656D01*
X019380Y016732D01*
X019380Y017084D01*
X020136Y017840D01*
X021466Y017840D01*
X021560Y017934D01*
X021560Y018866D01*
X021466Y018960D01*
X019934Y018960D01*
X019840Y018866D01*
X019840Y018336D01*
X018941Y017437D01*
X018863Y017359D01*
X018820Y017256D01*
X018820Y016749D01*
X018730Y016749D01*
X018636Y016656D01*
X018636Y016580D01*
X018597Y016580D01*
X018597Y016604D01*
X018504Y016697D01*
X017896Y016697D01*
X017803Y016604D01*
X017803Y015996D01*
X017896Y015903D01*
X018504Y015903D01*
X018597Y015996D01*
X018597Y016020D01*
X018636Y016020D01*
X018636Y015944D01*
X018730Y015851D01*
X019387Y015875D02*
X019899Y015875D01*
X019840Y016033D02*
X019456Y016033D01*
X019456Y016192D02*
X019840Y016192D01*
X019840Y016350D02*
X019456Y016350D01*
X019456Y016509D02*
X019840Y016509D01*
X019840Y016667D02*
X019445Y016667D01*
X019380Y016826D02*
X019840Y016826D01*
X019380Y016984D02*
X021774Y016984D01*
X021774Y016826D02*
X021560Y016826D01*
X021560Y016667D02*
X021920Y016667D01*
X021920Y016674D02*
X021920Y012922D01*
X021963Y012819D01*
X022755Y012027D01*
X022740Y011989D01*
X022740Y011767D01*
X022825Y011561D01*
X022983Y011403D01*
X023189Y011318D01*
X023411Y011318D01*
X023617Y011403D01*
X023775Y011561D01*
X023860Y011767D01*
X023860Y011989D01*
X023775Y012195D01*
X023617Y012353D01*
X023411Y012438D01*
X023189Y012438D01*
X023151Y012423D01*
X022480Y013094D01*
X022480Y016674D01*
X022532Y016674D01*
X022626Y016768D01*
X022626Y017432D01*
X022532Y017526D01*
X021868Y017526D01*
X021774Y017432D01*
X021774Y016768D01*
X021868Y016674D01*
X021920Y016674D01*
X021920Y016509D02*
X021560Y016509D01*
X021560Y016350D02*
X021920Y016350D01*
X021920Y016192D02*
X021560Y016192D01*
X021560Y016033D02*
X021920Y016033D01*
X021920Y015875D02*
X021501Y015875D01*
X021920Y015716D02*
X020980Y015716D01*
X020980Y015558D02*
X021920Y015558D01*
X021920Y015399D02*
X020980Y015399D01*
X020937Y015241D02*
X021920Y015241D01*
X021920Y015082D02*
X020785Y015082D01*
X020785Y014924D02*
X021920Y014924D01*
X021920Y014765D02*
X020785Y014765D01*
X020783Y014607D02*
X021920Y014607D01*
X021920Y014448D02*
X014418Y014448D01*
X014484Y014290D02*
X021920Y014290D01*
X021920Y014131D02*
X014484Y014131D01*
X014484Y013973D02*
X021920Y013973D01*
X021920Y013814D02*
X014484Y013814D01*
X014484Y013656D02*
X021920Y013656D01*
X022480Y013656D02*
X022740Y013656D01*
X022740Y013814D02*
X022480Y013814D01*
X022480Y013973D02*
X022740Y013973D01*
X022740Y014131D02*
X022480Y014131D01*
X022480Y014290D02*
X022763Y014290D01*
X022740Y014266D02*
X022740Y013334D01*
X022834Y013240D01*
X023766Y013240D01*
X023860Y013334D01*
X023860Y014266D01*
X023766Y014360D01*
X022834Y014360D01*
X022740Y014266D01*
X022480Y014448D02*
X024490Y014448D01*
X024490Y014290D02*
X023837Y014290D01*
X023860Y014131D02*
X024490Y014131D01*
X024490Y013973D02*
X023860Y013973D01*
X023860Y013814D02*
X024490Y013814D01*
X024490Y013656D02*
X023860Y013656D01*
X023860Y013497D02*
X024490Y013497D01*
X024490Y013339D02*
X023860Y013339D01*
X024490Y013180D02*
X022480Y013180D01*
X022480Y013339D02*
X022740Y013339D01*
X022740Y013497D02*
X022480Y013497D01*
X022552Y013022D02*
X024490Y013022D01*
X024490Y012863D02*
X022711Y012863D01*
X022869Y012705D02*
X024490Y012705D01*
X024490Y012546D02*
X023028Y012546D01*
X023533Y012388D02*
X024490Y012388D01*
X024490Y012229D02*
X023741Y012229D01*
X023826Y012071D02*
X024490Y012071D01*
X024490Y011912D02*
X023860Y011912D01*
X023855Y011754D02*
X024490Y011754D01*
X024490Y011595D02*
X023789Y011595D01*
X023651Y011437D02*
X024490Y011437D01*
X024490Y011278D02*
X011000Y011278D01*
X010987Y011437D02*
X022949Y011437D01*
X022811Y011595D02*
X010921Y011595D01*
X010760Y011754D02*
X022745Y011754D01*
X022740Y011912D02*
X010267Y011912D01*
X010280Y012071D02*
X022711Y012071D01*
X022553Y012229D02*
X010280Y012229D01*
X010280Y012388D02*
X022394Y012388D01*
X022236Y012546D02*
X010280Y012546D01*
X010280Y012705D02*
X022077Y012705D01*
X021945Y012863D02*
X010280Y012863D01*
X009279Y011595D02*
X006391Y011595D01*
X006232Y011437D02*
X009213Y011437D01*
X009200Y011278D02*
X006074Y011278D01*
X005915Y011120D02*
X009231Y011120D01*
X009319Y010961D02*
X005757Y010961D01*
X005598Y010803D02*
X009546Y010803D01*
X009926Y010327D02*
X005580Y010327D01*
X005580Y010169D02*
X009903Y010169D01*
X009903Y010010D02*
X005580Y010010D01*
X005580Y009852D02*
X009903Y009852D01*
X009906Y009693D02*
X006557Y009693D01*
X006715Y009535D02*
X009823Y009535D01*
X010412Y008901D02*
X024490Y008901D01*
X024490Y009059D02*
X010570Y009059D01*
X010729Y009218D02*
X024490Y009218D01*
X024490Y009376D02*
X010887Y009376D01*
X010703Y009852D02*
X010697Y009852D01*
X010697Y010010D02*
X010703Y010010D01*
X010697Y010169D02*
X010703Y010169D01*
X010674Y010327D02*
X024490Y010327D01*
X024490Y010169D02*
X011497Y010169D01*
X011497Y010010D02*
X024490Y010010D01*
X024490Y009852D02*
X011497Y009852D01*
X011497Y009693D02*
X024490Y009693D01*
X024490Y009535D02*
X011436Y009535D01*
X010654Y010803D02*
X024490Y010803D01*
X024490Y010961D02*
X010881Y010961D01*
X010969Y011120D02*
X024490Y011120D01*
X024490Y010644D02*
X005580Y010644D01*
X005580Y010486D02*
X024490Y010486D01*
X021000Y006840D02*
X017000Y006840D01*
X017000Y006682D02*
X021000Y006682D01*
X021000Y006523D02*
X017000Y006523D01*
X017000Y006365D02*
X021000Y006365D01*
X021000Y006206D02*
X017000Y006206D01*
X017000Y006048D02*
X021000Y006048D01*
X021000Y005889D02*
X017000Y005889D01*
X017000Y005731D02*
X021000Y005731D01*
X021000Y005572D02*
X017000Y005572D01*
X017000Y005414D02*
X021000Y005414D01*
X021000Y005255D02*
X017000Y005255D01*
X017000Y005097D02*
X021000Y005097D01*
X021000Y004938D02*
X017000Y004938D01*
X017000Y004780D02*
X021000Y004780D01*
X021000Y004621D02*
X017000Y004621D01*
X017000Y004463D02*
X021000Y004463D01*
X021000Y004304D02*
X017000Y004304D01*
X017000Y004146D02*
X021000Y004146D01*
X021000Y003987D02*
X017000Y003987D01*
X017000Y003829D02*
X021000Y003829D01*
X021000Y003670D02*
X017000Y003670D01*
X017000Y003512D02*
X021000Y003512D01*
X021300Y004700D02*
X021300Y006600D01*
X024490Y006600D01*
X024490Y004990D01*
X024200Y004700D01*
X021300Y004700D01*
X021300Y004780D02*
X024280Y004780D01*
X024438Y004938D02*
X021300Y004938D01*
X021300Y005097D02*
X024490Y005097D01*
X024490Y005255D02*
X021300Y005255D01*
X021300Y005414D02*
X024490Y005414D01*
X024490Y005572D02*
X021300Y005572D01*
X021300Y005731D02*
X024490Y005731D01*
X024490Y005889D02*
X021300Y005889D01*
X021300Y006048D02*
X024490Y006048D01*
X024490Y006206D02*
X021300Y006206D01*
X021300Y006365D02*
X024490Y006365D01*
X024490Y006523D02*
X021300Y006523D01*
X016700Y006523D02*
X013162Y006523D01*
X013004Y006365D02*
X016700Y006365D01*
X016700Y006206D02*
X012845Y006206D01*
X012687Y006048D02*
X016700Y006048D01*
X016700Y005889D02*
X012528Y005889D01*
X012300Y006000D02*
X014200Y007900D01*
X014558Y007791D02*
X016700Y007791D01*
X016700Y007633D02*
X014555Y007633D01*
X014113Y007474D02*
X016700Y007474D01*
X016700Y007316D02*
X013955Y007316D01*
X013796Y007157D02*
X016700Y007157D01*
X016700Y006999D02*
X013638Y006999D01*
X013479Y006840D02*
X016700Y006840D01*
X016700Y006682D02*
X013321Y006682D01*
X012300Y006000D02*
X010900Y006000D01*
X011253Y005731D02*
X016700Y005731D01*
X013613Y014290D02*
X007929Y014290D01*
X007700Y014400D02*
X008100Y014800D01*
X008497Y014765D02*
X019815Y014765D01*
X019817Y014607D02*
X008497Y014607D01*
X008449Y014448D02*
X013680Y014448D01*
X013709Y015615D02*
X014491Y015615D01*
X014585Y015709D01*
X014585Y016491D01*
X014491Y016585D01*
X013709Y016585D01*
X013615Y016491D01*
X013615Y015709D01*
X013709Y015615D01*
X013615Y015716D02*
X000580Y015716D01*
X000580Y015558D02*
X015303Y015558D01*
X015315Y015716D02*
X014585Y015716D01*
X014585Y015875D02*
X015835Y015875D01*
X015860Y016033D02*
X014585Y016033D01*
X014585Y016192D02*
X015860Y016192D01*
X015860Y016350D02*
X014585Y016350D01*
X014568Y016509D02*
X015860Y016509D01*
X015860Y016667D02*
X013106Y016667D01*
X012948Y016509D02*
X013632Y016509D01*
X013615Y016350D02*
X012878Y016350D01*
X012878Y016192D02*
X013615Y016192D01*
X013615Y016033D02*
X012795Y016033D01*
X012500Y016400D02*
X013100Y017000D01*
X014500Y017000D01*
X015400Y017900D01*
X016649Y017900D01*
X016174Y017618D02*
X015457Y017618D01*
X015299Y017460D02*
X016194Y017460D01*
X016162Y017301D02*
X015140Y017301D01*
X014982Y017143D02*
X016003Y017143D01*
X015875Y016984D02*
X014823Y016984D01*
X014665Y016826D02*
X015860Y016826D01*
X016100Y016900D02*
X016100Y015800D01*
X015700Y015400D01*
X015303Y015399D02*
X000580Y015399D01*
X000580Y015875D02*
X013615Y015875D01*
X012586Y016826D02*
X007578Y016826D01*
X007578Y016984D02*
X012745Y016984D01*
X012897Y017136D02*
X012897Y017136D01*
X012903Y017143D02*
X007519Y017143D01*
X007484Y017178D02*
X007440Y017178D01*
X007836Y017574D01*
X008421Y017574D01*
X008514Y017668D01*
X008514Y018430D01*
X008421Y018524D01*
X007579Y018524D01*
X007486Y018430D01*
X007486Y017846D01*
X006980Y017340D01*
X006980Y017178D01*
X006916Y017178D01*
X006822Y017084D01*
X006822Y016516D01*
X006916Y016422D01*
X007484Y016422D01*
X007578Y016516D01*
X007578Y017084D01*
X007484Y017178D01*
X007563Y017301D02*
X014462Y017301D01*
X014656Y017618D02*
X014779Y017618D01*
X014656Y017777D02*
X014937Y017777D01*
X015096Y017935D02*
X014656Y017935D01*
X014656Y018094D02*
X015254Y018094D01*
X014526Y018252D02*
X016174Y018252D01*
X016264Y018411D02*
X014526Y018411D01*
X014526Y018569D02*
X016369Y018569D01*
X016239Y018728D02*
X014519Y018728D01*
X014430Y018886D02*
X016174Y018886D01*
X016170Y019045D02*
X014430Y019045D01*
X014430Y019203D02*
X016210Y019203D01*
X016312Y019362D02*
X014430Y019362D01*
X014346Y019520D02*
X016571Y019520D01*
X016829Y019520D02*
X017254Y019520D01*
X017170Y019362D02*
X017088Y019362D01*
X018146Y019520D02*
X024490Y019520D01*
X024490Y019362D02*
X018230Y019362D01*
X018230Y019203D02*
X024490Y019203D01*
X024490Y019045D02*
X018230Y019045D01*
X018230Y018886D02*
X019860Y018886D01*
X019840Y018728D02*
X018230Y018728D01*
X018230Y018569D02*
X019840Y018569D01*
X019840Y018411D02*
X018136Y018411D01*
X018226Y018252D02*
X019756Y018252D01*
X019598Y018094D02*
X018226Y018094D01*
X018226Y017935D02*
X019439Y017935D01*
X019281Y017777D02*
X018226Y017777D01*
X018226Y017618D02*
X019122Y017618D01*
X018964Y017460D02*
X018206Y017460D01*
X017940Y017301D02*
X018839Y017301D01*
X018820Y017143D02*
X017782Y017143D01*
X017600Y017300D02*
X016500Y017300D01*
X016100Y016900D01*
X016365Y016826D02*
X018820Y016826D01*
X018820Y016984D02*
X016523Y016984D01*
X016340Y016667D02*
X017866Y016667D01*
X017803Y016509D02*
X016340Y016509D01*
X016340Y016350D02*
X017803Y016350D01*
X017803Y016192D02*
X016340Y016192D01*
X016340Y016033D02*
X017803Y016033D01*
X018534Y016667D02*
X018648Y016667D01*
X019439Y017143D02*
X021774Y017143D01*
X021774Y017301D02*
X019597Y017301D01*
X019756Y017460D02*
X021802Y017460D01*
X021560Y017935D02*
X024490Y017935D01*
X024490Y017777D02*
X020073Y017777D01*
X019914Y017618D02*
X024490Y017618D01*
X024490Y017460D02*
X022598Y017460D01*
X022626Y017301D02*
X024490Y017301D01*
X024490Y017143D02*
X022626Y017143D01*
X022626Y016984D02*
X024490Y016984D01*
X024490Y016826D02*
X022626Y016826D01*
X022480Y016667D02*
X024490Y016667D01*
X024490Y016509D02*
X022480Y016509D01*
X022480Y016350D02*
X024490Y016350D01*
X024490Y016192D02*
X022480Y016192D01*
X022480Y016033D02*
X024490Y016033D01*
X024490Y015875D02*
X022480Y015875D01*
X022480Y015716D02*
X023136Y015716D01*
X023189Y015738D02*
X022983Y015653D01*
X022825Y015495D01*
X022740Y015289D01*
X022740Y015067D01*
X022825Y014861D01*
X022983Y014703D01*
X023189Y014618D01*
X023411Y014618D01*
X023617Y014703D01*
X023775Y014861D01*
X023860Y015067D01*
X023860Y015289D01*
X023775Y015495D01*
X023617Y015653D01*
X023411Y015738D01*
X023189Y015738D01*
X023464Y015716D02*
X024490Y015716D01*
X024490Y015558D02*
X023712Y015558D01*
X023815Y015399D02*
X024490Y015399D01*
X024490Y015241D02*
X023860Y015241D01*
X023860Y015082D02*
X024490Y015082D01*
X024490Y014924D02*
X023801Y014924D01*
X023679Y014765D02*
X024490Y014765D01*
X024490Y014607D02*
X022480Y014607D01*
X022480Y014765D02*
X022921Y014765D01*
X022799Y014924D02*
X022480Y014924D01*
X022480Y015082D02*
X022740Y015082D01*
X022740Y015241D02*
X022480Y015241D01*
X022480Y015399D02*
X022785Y015399D01*
X022888Y015558D02*
X022480Y015558D01*
X021560Y018094D02*
X024490Y018094D01*
X024490Y018252D02*
X021560Y018252D01*
X021560Y018411D02*
X024490Y018411D01*
X024490Y018569D02*
X021560Y018569D01*
X021560Y018728D02*
X024490Y018728D01*
X024490Y018886D02*
X021540Y018886D01*
X022664Y021047D02*
X022951Y020970D01*
X023249Y020970D01*
X023536Y021047D01*
X023794Y021196D01*
X024004Y021406D01*
X024153Y021664D01*
X024230Y021951D01*
X024230Y022249D01*
X024153Y022536D01*
X024004Y022794D01*
X023794Y023004D01*
X023536Y023153D01*
X023249Y023230D01*
X022951Y023230D01*
X022664Y023153D01*
X022406Y023004D01*
X022196Y022794D01*
X022047Y022536D01*
X021970Y022249D01*
X021970Y021951D01*
X022047Y021664D01*
X022196Y021406D01*
X022406Y021196D01*
X022664Y021047D01*
X022563Y021105D02*
X017316Y021105D01*
X017291Y021080D02*
X017681Y021470D01*
X018136Y021470D01*
X018230Y021564D01*
X018230Y022436D01*
X018136Y022530D01*
X017264Y022530D01*
X017170Y022436D01*
X017170Y022250D01*
X017149Y022300D01*
X017000Y022449D01*
X016805Y022530D01*
X016595Y022530D01*
X016400Y022449D01*
X016251Y022300D01*
X016200Y022178D01*
X016149Y022300D01*
X016000Y022449D01*
X015805Y022530D01*
X015595Y022530D01*
X015400Y022449D01*
X015251Y022300D01*
X015170Y022105D01*
X015170Y021895D01*
X015251Y021700D01*
X015270Y021681D01*
X015109Y021520D01*
X014526Y021520D01*
X014526Y021721D01*
X014432Y021814D01*
X013670Y021814D01*
X013576Y021721D01*
X013576Y020879D01*
X013606Y020850D01*
X013576Y020821D01*
X013576Y019979D01*
X013670Y019886D01*
X014432Y019886D01*
X014526Y019979D01*
X014526Y020180D01*
X014991Y020180D01*
X015891Y021080D01*
X017291Y021080D01*
X017475Y021264D02*
X022338Y021264D01*
X022187Y021422D02*
X017633Y021422D01*
X018230Y021581D02*
X022095Y021581D01*
X022027Y021739D02*
X018230Y021739D01*
X018230Y021898D02*
X021984Y021898D01*
X021970Y022056D02*
X018230Y022056D01*
X018230Y022215D02*
X021970Y022215D01*
X022003Y022373D02*
X018230Y022373D01*
X017170Y022373D02*
X017076Y022373D01*
X016324Y022373D02*
X016076Y022373D01*
X016185Y022215D02*
X016215Y022215D01*
X015324Y022373D02*
X014421Y022373D01*
X014430Y022395D02*
X014349Y022200D01*
X014200Y022051D01*
X014005Y021970D01*
X013795Y021970D01*
X013600Y022051D01*
X013451Y022200D01*
X013370Y022395D01*
X013370Y022605D01*
X013451Y022800D01*
X013600Y022949D01*
X013795Y023030D01*
X014005Y023030D01*
X014200Y022949D01*
X014349Y022800D01*
X014430Y022605D01*
X014430Y022395D01*
X014430Y022532D02*
X022046Y022532D01*
X022136Y022690D02*
X014395Y022690D01*
X014301Y022849D02*
X022250Y022849D01*
X022411Y023007D02*
X014061Y023007D01*
X013739Y023007D02*
X008318Y023007D01*
X008160Y022849D02*
X013499Y022849D01*
X013405Y022690D02*
X008001Y022690D01*
X007740Y022532D02*
X013370Y022532D01*
X013379Y022373D02*
X007740Y022373D01*
X007740Y022215D02*
X013445Y022215D01*
X013594Y022056D02*
X007740Y022056D01*
X007740Y021898D02*
X007986Y021898D01*
X007260Y021898D02*
X004158Y021898D01*
X004158Y021964D02*
X004064Y022058D01*
X003536Y022058D01*
X003442Y021964D01*
X003442Y021653D01*
X003280Y021491D01*
X003280Y019058D01*
X003236Y019058D01*
X003142Y018964D01*
X003142Y018436D01*
X003236Y018342D01*
X003764Y018342D01*
X003858Y018436D01*
X003858Y018964D01*
X003764Y019058D01*
X003720Y019058D01*
X003720Y021309D01*
X003753Y021342D01*
X004064Y021342D01*
X004158Y021436D01*
X004158Y021964D01*
X004066Y022056D02*
X007260Y022056D01*
X007260Y022215D02*
X000580Y022215D01*
X000580Y022373D02*
X007260Y022373D01*
X007260Y022532D02*
X004354Y022532D01*
X003646Y022532D02*
X000580Y022532D01*
X000580Y022690D02*
X003642Y022690D01*
X003642Y022849D02*
X000580Y022849D01*
X000580Y023007D02*
X003642Y023007D01*
X003534Y022056D02*
X000580Y022056D01*
X000580Y021898D02*
X003442Y021898D01*
X003442Y021739D02*
X000580Y021739D01*
X000580Y021581D02*
X003369Y021581D01*
X003280Y021422D02*
X000580Y021422D01*
X000580Y021264D02*
X003280Y021264D01*
X003280Y021105D02*
X000580Y021105D01*
X000580Y020947D02*
X003280Y020947D01*
X003280Y020788D02*
X000580Y020788D01*
X000580Y020630D02*
X003280Y020630D01*
X003280Y020471D02*
X000580Y020471D01*
X000580Y020313D02*
X003280Y020313D01*
X003280Y020154D02*
X000580Y020154D01*
X000580Y019996D02*
X003280Y019996D01*
X003280Y019837D02*
X000580Y019837D01*
X000580Y019679D02*
X000970Y019679D01*
X000900Y019649D02*
X000751Y019500D01*
X000670Y019305D01*
X000670Y019095D01*
X000751Y018900D01*
X000900Y018751D01*
X001095Y018670D01*
X001305Y018670D01*
X001500Y018751D01*
X001649Y018900D01*
X001730Y019095D01*
X001730Y019305D01*
X001649Y019500D01*
X001500Y019649D01*
X001305Y019730D01*
X001095Y019730D01*
X000900Y019649D01*
X000770Y019520D02*
X000580Y019520D01*
X000580Y019362D02*
X000693Y019362D01*
X000670Y019203D02*
X000580Y019203D01*
X000580Y019045D02*
X000691Y019045D01*
X000764Y018886D02*
X000580Y018886D01*
X000580Y018728D02*
X000956Y018728D01*
X000580Y018569D02*
X003142Y018569D01*
X003142Y018728D02*
X001444Y018728D01*
X001636Y018886D02*
X003142Y018886D01*
X003222Y019045D02*
X001709Y019045D01*
X001730Y019203D02*
X003280Y019203D01*
X003280Y019362D02*
X001707Y019362D01*
X001630Y019520D02*
X003280Y019520D01*
X003280Y019679D02*
X001430Y019679D01*
X000580Y018411D02*
X003167Y018411D01*
X003833Y018411D02*
X005243Y018411D01*
X005243Y018569D02*
X003858Y018569D01*
X003858Y018728D02*
X005243Y018728D01*
X005243Y018817D02*
X005243Y018252D01*
X000580Y018252D01*
X000580Y018094D02*
X005243Y018094D01*
X005243Y018148D02*
X005243Y017583D01*
X005337Y017489D01*
X005380Y017489D01*
X005380Y017091D01*
X005309Y017020D01*
X004909Y017020D01*
X004886Y016997D01*
X004496Y016997D01*
X004403Y016904D01*
X004403Y016296D01*
X004496Y016203D01*
X005104Y016203D01*
X005197Y016296D01*
X005197Y016580D01*
X005491Y016580D01*
X005620Y016709D01*
X005820Y016909D01*
X005820Y017489D01*
X005863Y017489D01*
X005957Y017583D01*
X005957Y017645D01*
X006143Y017645D01*
X006143Y017583D01*
X006237Y017489D01*
X006763Y017489D01*
X006857Y017583D01*
X006857Y018148D01*
X006805Y018200D01*
X006857Y018252D01*
X007486Y018252D01*
X007486Y018094D02*
X006857Y018094D01*
X006857Y018252D02*
X006857Y018817D01*
X006763Y018911D01*
X006720Y018911D01*
X006720Y019476D01*
X006900Y019551D01*
X007049Y019700D01*
X007130Y019895D01*
X007130Y020105D01*
X007049Y020300D01*
X006900Y020449D01*
X006705Y020530D01*
X006495Y020530D01*
X006300Y020449D01*
X006151Y020300D01*
X006100Y020178D01*
X006049Y020300D01*
X005900Y020449D01*
X005705Y020530D01*
X005495Y020530D01*
X005300Y020449D01*
X005151Y020300D01*
X005070Y020105D01*
X005070Y019895D01*
X005151Y019700D01*
X005300Y019551D01*
X005380Y019517D01*
X005380Y018911D01*
X005337Y018911D01*
X005243Y018817D01*
X005312Y018886D02*
X003858Y018886D01*
X003778Y019045D02*
X005380Y019045D01*
X005380Y019203D02*
X003720Y019203D01*
X003720Y019362D02*
X005380Y019362D01*
X005374Y019520D02*
X003720Y019520D01*
X003720Y019679D02*
X005172Y019679D01*
X005094Y019837D02*
X003720Y019837D01*
X003720Y019996D02*
X005070Y019996D01*
X005090Y020154D02*
X003720Y020154D01*
X003720Y020313D02*
X005163Y020313D01*
X005352Y020471D02*
X003720Y020471D01*
X003720Y020630D02*
X007631Y020630D01*
X007473Y020788D02*
X003720Y020788D01*
X003720Y020947D02*
X007314Y020947D01*
X007260Y021105D02*
X003720Y021105D01*
X003720Y021264D02*
X007260Y021264D01*
X007260Y021422D02*
X004145Y021422D01*
X004158Y021581D02*
X007260Y021581D01*
X007260Y021739D02*
X004158Y021739D01*
X005848Y020471D02*
X006352Y020471D01*
X006163Y020313D02*
X006037Y020313D01*
X006848Y020471D02*
X007826Y020471D01*
X007900Y020700D02*
X007500Y021100D01*
X007500Y022800D01*
X007854Y023166D02*
X000580Y023166D01*
X000580Y023324D02*
X008013Y023324D01*
X008142Y023483D02*
X000580Y023483D01*
X000580Y023641D02*
X008142Y023641D01*
X008858Y023641D02*
X024490Y023641D01*
X024490Y023483D02*
X008858Y023483D01*
X008858Y023324D02*
X024490Y023324D01*
X024490Y023166D02*
X023489Y023166D01*
X023789Y023007D02*
X024490Y023007D01*
X024490Y022849D02*
X023950Y022849D01*
X024064Y022690D02*
X024490Y022690D01*
X024490Y022532D02*
X024154Y022532D01*
X024197Y022373D02*
X024490Y022373D01*
X024490Y022215D02*
X024230Y022215D01*
X024230Y022056D02*
X024490Y022056D01*
X024490Y021898D02*
X024216Y021898D01*
X024173Y021739D02*
X024490Y021739D01*
X024490Y021581D02*
X024105Y021581D01*
X024013Y021422D02*
X024490Y021422D01*
X024490Y021264D02*
X023862Y021264D01*
X023637Y021105D02*
X024490Y021105D01*
X024490Y020947D02*
X015758Y020947D01*
X015599Y020788D02*
X024490Y020788D01*
X024490Y020630D02*
X015441Y020630D01*
X015282Y020471D02*
X024490Y020471D01*
X024490Y020313D02*
X015124Y020313D01*
X014526Y020154D02*
X024490Y020154D01*
X024490Y019996D02*
X014526Y019996D01*
X013576Y019996D02*
X013424Y019996D01*
X013424Y020154D02*
X013576Y020154D01*
X013576Y020313D02*
X013424Y020313D01*
X013424Y020471D02*
X013576Y020471D01*
X013576Y020630D02*
X013424Y020630D01*
X013424Y020788D02*
X013576Y020788D01*
X013576Y020947D02*
X013424Y020947D01*
X013424Y021105D02*
X013576Y021105D01*
X013576Y021264D02*
X013424Y021264D01*
X013424Y021422D02*
X013576Y021422D01*
X013576Y021581D02*
X013424Y021581D01*
X013405Y021739D02*
X013595Y021739D01*
X014206Y022056D02*
X015170Y022056D01*
X015170Y021898D02*
X009614Y021898D01*
X009772Y021739D02*
X012492Y021739D01*
X012474Y021581D02*
X009931Y021581D01*
X010089Y021422D02*
X012474Y021422D01*
X012352Y021264D02*
X010248Y021264D01*
X010406Y021105D02*
X012194Y021105D01*
X012035Y020947D02*
X010565Y020947D01*
X010200Y020200D02*
X009700Y020700D01*
X007900Y020700D01*
X007764Y020158D02*
X007236Y020158D01*
X007142Y020064D01*
X007142Y019536D01*
X007236Y019442D01*
X007383Y019442D01*
X007387Y019394D01*
X007410Y019374D01*
X007420Y019344D01*
X007477Y019316D01*
X007486Y019308D01*
X007486Y018770D01*
X007579Y018676D01*
X008421Y018676D01*
X008514Y018770D01*
X008514Y019532D01*
X008421Y019626D01*
X007858Y019626D01*
X007858Y020064D01*
X007764Y020158D01*
X007768Y020154D02*
X009907Y020154D01*
X009960Y019996D02*
X007858Y019996D01*
X007858Y019837D02*
X009960Y019837D01*
X009960Y019679D02*
X007858Y019679D01*
X007414Y019362D02*
X006720Y019362D01*
X006720Y019203D02*
X007486Y019203D01*
X007486Y019045D02*
X006720Y019045D01*
X006788Y018886D02*
X007486Y018886D01*
X007528Y018728D02*
X006857Y018728D01*
X006857Y018569D02*
X009881Y018569D01*
X009739Y018728D02*
X008472Y018728D01*
X008514Y018886D02*
X009674Y018886D01*
X009670Y019045D02*
X008514Y019045D01*
X008514Y019203D02*
X009710Y019203D01*
X009812Y019362D02*
X008514Y019362D01*
X008514Y019520D02*
X009960Y019520D01*
X010440Y019520D02*
X012771Y019520D01*
X013029Y019520D02*
X013454Y019520D01*
X013370Y019362D02*
X013288Y019362D01*
X013361Y018728D02*
X013370Y018728D01*
X013370Y018569D02*
X013219Y018569D01*
X012834Y018411D02*
X013966Y018411D01*
X013966Y018252D02*
X012834Y018252D01*
X012964Y018094D02*
X013836Y018094D01*
X013836Y017935D02*
X012964Y017935D01*
X012964Y017777D02*
X013836Y017777D01*
X013836Y017618D02*
X012964Y017618D01*
X012964Y017460D02*
X013836Y017460D01*
X012374Y018886D02*
X010726Y018886D01*
X010730Y019045D02*
X012370Y019045D01*
X012410Y019203D02*
X010690Y019203D01*
X010588Y019362D02*
X012512Y019362D01*
X012281Y018728D02*
X010661Y018728D01*
X010519Y018569D02*
X012274Y018569D01*
X012274Y018411D02*
X008514Y018411D01*
X008514Y018252D02*
X012274Y018252D01*
X012144Y018094D02*
X008514Y018094D01*
X008514Y017935D02*
X012144Y017935D01*
X012144Y017777D02*
X008514Y017777D01*
X008465Y017618D02*
X012144Y017618D01*
X012144Y017460D02*
X007722Y017460D01*
X007417Y017777D02*
X006857Y017777D01*
X006857Y017935D02*
X007486Y017935D01*
X007258Y017618D02*
X006857Y017618D01*
X007100Y017460D02*
X005820Y017460D01*
X005820Y017301D02*
X006980Y017301D01*
X006881Y017143D02*
X005820Y017143D01*
X005820Y016984D02*
X006822Y016984D01*
X006822Y016826D02*
X005737Y016826D01*
X005620Y016709D02*
X005620Y016709D01*
X005578Y016667D02*
X006822Y016667D01*
X006830Y016509D02*
X005197Y016509D01*
X005197Y016350D02*
X012122Y016350D01*
X012122Y016192D02*
X000580Y016192D01*
X000580Y016350D02*
X004403Y016350D01*
X004403Y016509D02*
X000580Y016509D01*
X000580Y016667D02*
X000698Y016667D01*
X000942Y016667D02*
X003258Y016667D01*
X003275Y016660D02*
X003080Y016741D01*
X002931Y016890D01*
X002850Y017085D01*
X002850Y017295D01*
X002931Y017490D01*
X003080Y017639D01*
X003275Y017720D01*
X003485Y017720D01*
X003680Y017639D01*
X003829Y017490D01*
X003910Y017295D01*
X003910Y017085D01*
X003829Y016890D01*
X003680Y016741D01*
X003485Y016660D01*
X003275Y016660D01*
X003502Y016667D02*
X004403Y016667D01*
X004403Y016826D02*
X003765Y016826D01*
X003868Y016984D02*
X004483Y016984D01*
X003910Y017143D02*
X005380Y017143D01*
X005380Y017301D02*
X003908Y017301D01*
X003842Y017460D02*
X005380Y017460D01*
X005243Y017618D02*
X003702Y017618D01*
X003058Y017618D02*
X001142Y017618D01*
X001282Y017460D02*
X002918Y017460D01*
X002852Y017301D02*
X001348Y017301D01*
X001350Y017143D02*
X002850Y017143D01*
X002892Y016984D02*
X001308Y016984D01*
X001205Y016826D02*
X002995Y016826D01*
X005243Y017777D02*
X000580Y017777D01*
X000580Y017935D02*
X005243Y017935D01*
X005243Y018148D02*
X005295Y018200D01*
X005243Y018252D01*
X005957Y017618D02*
X006143Y017618D01*
X006857Y018411D02*
X007486Y018411D01*
X007157Y019520D02*
X006826Y019520D01*
X007028Y019679D02*
X007142Y019679D01*
X007142Y019837D02*
X007106Y019837D01*
X007130Y019996D02*
X007142Y019996D01*
X007110Y020154D02*
X007232Y020154D01*
X007037Y020313D02*
X009748Y020313D01*
X010200Y020200D02*
X010200Y019000D01*
X010440Y019679D02*
X024490Y019679D01*
X024490Y019837D02*
X010440Y019837D01*
X010440Y019996D02*
X012474Y019996D01*
X012474Y020154D02*
X010440Y020154D01*
X008788Y023166D02*
X022711Y023166D01*
X017751Y017900D02*
X017751Y017451D01*
X017600Y017300D01*
X015169Y021581D02*
X014526Y021581D01*
X014508Y021739D02*
X015234Y021739D01*
X015215Y022215D02*
X014355Y022215D01*
X012122Y016667D02*
X007578Y016667D01*
X007570Y016509D02*
X012122Y016509D01*
X012205Y016033D02*
X000580Y016033D01*
X001324Y013973D02*
X001476Y013973D01*
X001476Y013814D02*
X001324Y013814D01*
X001324Y013656D02*
X001476Y013656D01*
X001476Y013497D02*
X001324Y013497D01*
X001324Y013339D02*
X001476Y013339D01*
X001476Y013180D02*
X001324Y013180D01*
X001323Y013022D02*
X001477Y013022D01*
X001476Y012863D02*
X001324Y012863D01*
X001324Y012705D02*
X001476Y012705D01*
X001476Y012546D02*
X001324Y012546D01*
X001324Y012388D02*
X001476Y012388D01*
X001476Y012229D02*
X001324Y012229D01*
X001178Y012071D02*
X003318Y012071D01*
X003160Y012229D02*
X003078Y012229D01*
X003477Y011912D02*
X001178Y011912D01*
X001178Y011754D02*
X003635Y011754D01*
X003794Y011595D02*
X001178Y011595D01*
X001098Y011437D02*
X002922Y011437D01*
X002922Y011278D02*
X000580Y011278D01*
X000580Y011120D02*
X002922Y011120D01*
X003692Y011120D02*
X003880Y011120D01*
X003880Y011278D02*
X003678Y011278D01*
X003678Y011437D02*
X003880Y011437D01*
X003850Y010961D02*
X003880Y010961D01*
X005580Y009693D02*
X006043Y009693D01*
X005885Y009535D02*
X005715Y009535D01*
X005799Y007950D02*
X005801Y007950D01*
X005959Y007791D02*
X005641Y007791D01*
X005279Y007633D02*
X006773Y007633D01*
X006641Y007791D02*
X006931Y007791D01*
X006801Y007950D02*
X006799Y007950D01*
X006076Y007474D02*
X005924Y007474D01*
X005924Y007316D02*
X006076Y007316D01*
X006076Y007157D02*
X005924Y007157D01*
X005924Y006999D02*
X006076Y006999D01*
X006076Y006840D02*
X005924Y006840D01*
X005924Y006682D02*
X006076Y006682D01*
X004974Y006682D02*
X003393Y006682D01*
X003551Y006840D02*
X003722Y006840D01*
X003710Y006999D02*
X003722Y006999D01*
X004478Y006999D02*
X004974Y006999D01*
X004974Y007157D02*
X004478Y007157D01*
X004478Y007316D02*
X004973Y007316D01*
X004815Y007474D02*
X004388Y007474D01*
X004578Y007633D02*
X004656Y007633D01*
X004478Y006840D02*
X004974Y006840D01*
X004574Y004780D02*
X004332Y004780D01*
X004490Y004621D02*
X004574Y004621D01*
X007251Y014400D02*
X007700Y014400D01*
X007687Y014765D02*
X007703Y014765D01*
D26*
X003500Y018700D03*
X005000Y020800D03*
X003800Y021700D03*
X004000Y022800D03*
X000800Y020900D03*
X007100Y020900D03*
X007900Y021500D03*
X008500Y021300D03*
X007500Y019800D03*
X010800Y022700D03*
X008500Y023500D03*
X009300Y008600D03*
X009300Y008100D03*
X009300Y007600D03*
X009800Y007600D03*
X009800Y008100D03*
X009800Y008600D03*
X009800Y006900D03*
X009300Y006900D03*
X010300Y006900D03*
X010800Y006900D03*
X010900Y006000D03*
X008100Y005800D03*
X007600Y003800D03*
X005800Y002500D03*
X007900Y001200D03*
X010700Y003000D03*
X011300Y003000D03*
X012000Y003000D03*
X012000Y002400D03*
X012000Y001800D03*
X012700Y001800D03*
X012700Y002400D03*
X012700Y003000D03*
X013400Y003000D03*
X013400Y002400D03*
X013400Y001800D03*
X017400Y004900D03*
X017400Y005400D03*
X017400Y005900D03*
X018800Y005900D03*
X018800Y005400D03*
X018800Y004900D03*
X019100Y006400D03*
X019100Y006900D03*
X019100Y007400D03*
X020600Y006900D03*
X020600Y006400D03*
X021600Y005700D03*
X022300Y005700D03*
X022300Y006300D03*
X022200Y007100D03*
X022200Y007700D03*
X021600Y007700D03*
X024200Y007700D03*
X024200Y007100D03*
X024200Y005700D03*
X023400Y005100D03*
X022800Y005100D03*
X022200Y005100D03*
X021600Y005100D03*
X014200Y007900D03*
X003800Y005000D03*
D27*
X010100Y013500D03*
X018700Y018600D03*
X022200Y017100D03*
D28*
X018200Y016300D03*
X015700Y015400D03*
X013300Y013700D03*
X010300Y010000D03*
X011100Y009900D03*
X008000Y013800D03*
X008100Y014800D03*
X007200Y015300D03*
X005600Y013400D03*
X007000Y012800D03*
X004800Y016600D03*
X009200Y018200D03*
X005900Y001800D03*
D29*
X005300Y009200D02*
X005300Y010900D01*
X006400Y012000D01*
X010000Y012000D01*
X010000Y013400D01*
X010100Y013500D01*
X011700Y013500D02*
X011900Y013700D01*
X013300Y013700D01*
X013600Y014000D01*
X014049Y014000D01*
X014246Y017800D02*
X014246Y018654D01*
X013900Y019000D01*
X012900Y019000D02*
X012554Y018654D01*
X012554Y017800D01*
X016649Y017900D02*
X016649Y018949D01*
X016700Y019000D01*
X017700Y019000D02*
X017700Y017951D01*
X017751Y017900D01*
X019100Y017200D02*
X019100Y016354D01*
X019046Y016300D01*
X018200Y016300D01*
X019100Y017200D02*
X020300Y018400D01*
X020700Y018400D01*
X022200Y017100D02*
X022200Y012978D01*
X023300Y011878D01*
X020300Y015000D02*
X020700Y015400D01*
X020700Y016400D01*
D30*
X017200Y021300D02*
X015800Y021300D01*
X014900Y020400D01*
X014051Y020400D01*
X014051Y021300D02*
X015200Y021300D01*
X015700Y021800D01*
X015700Y022000D01*
X017200Y021300D02*
X017600Y021700D01*
X017600Y021900D01*
X017700Y022000D01*
X012949Y021300D02*
X012700Y021300D01*
X012000Y020600D01*
X010600Y020600D01*
X009400Y021800D01*
X008200Y021800D01*
X007900Y021500D01*
X008500Y021300D02*
X009600Y021300D01*
X010500Y020400D01*
X012949Y020400D01*
X008500Y023500D02*
X007800Y022800D01*
X007500Y022800D01*
X004000Y022800D01*
X003800Y021700D02*
X003500Y021400D01*
X003500Y018700D01*
X005000Y016800D02*
X004800Y016600D01*
X005000Y016800D02*
X005400Y016800D01*
X005600Y017000D01*
X005600Y017865D01*
X006500Y017865D01*
X006500Y018535D02*
X006500Y019900D01*
X006600Y020000D01*
X007500Y019800D02*
X007600Y019500D01*
X008000Y019151D01*
X008000Y018049D02*
X007200Y017249D01*
X007200Y016800D01*
X005600Y018535D02*
X005600Y020000D01*
X001951Y013600D02*
X002251Y013300D01*
X002700Y013300D01*
X004500Y011500D01*
X004500Y009100D01*
X004700Y008600D02*
X005300Y009200D01*
X004700Y008600D02*
X004700Y007900D01*
X005449Y007151D01*
X005449Y007100D01*
X006551Y007100D02*
X007300Y007849D01*
X007300Y008200D01*
X008700Y009000D02*
X009000Y009300D01*
X009900Y009300D01*
X010300Y009700D01*
X010300Y010000D01*
X011100Y009900D02*
X010200Y009000D01*
X009000Y009000D01*
X008900Y008900D01*
X008900Y004500D01*
X009500Y003900D01*
X009500Y002800D01*
X008400Y001700D01*
X006600Y001700D01*
X006100Y001200D01*
X005400Y001200D01*
X005200Y001400D01*
X005200Y002100D01*
X005600Y002500D01*
X005800Y002500D01*
X005900Y001800D02*
X006400Y001800D01*
X006500Y001900D01*
X008300Y001900D01*
X009300Y002900D01*
X009300Y003800D01*
X008700Y004400D01*
X008700Y009000D01*
X004200Y008200D02*
X004200Y007900D01*
X004200Y008200D02*
X004100Y008300D01*
X004100Y011600D01*
X003200Y012500D01*
X002700Y012500D01*
X002051Y012500D01*
X001951Y012600D01*
X000849Y012600D02*
X000849Y013600D01*
X000849Y012600D02*
X000849Y011849D01*
X000800Y011800D01*
X001800Y010300D02*
X001800Y009500D01*
X001200Y008900D01*
X001200Y007000D01*
X001800Y006400D01*
X001000Y006200D02*
X001800Y005400D01*
X001000Y006200D02*
X001000Y010200D01*
X002500Y010300D02*
X002500Y009800D01*
X003400Y008900D01*
X003400Y008000D01*
X002800Y007400D01*
X003600Y007200D02*
X002800Y006400D01*
X003600Y007200D02*
X003600Y009000D01*
X003200Y009400D01*
X003200Y010300D01*
X003800Y010700D02*
X003300Y011200D01*
X003800Y010700D02*
X003800Y007400D01*
X004100Y007100D01*
X003800Y005000D02*
X004400Y004400D01*
X003951Y003951D01*
X003900Y003951D01*
X004400Y004400D02*
X005049Y004400D01*
X006151Y004400D02*
X006151Y003400D01*
D31*
X004100Y007100D03*
X004200Y007900D03*
X004500Y009100D03*
X003200Y010300D03*
X002500Y010300D03*
X001800Y010300D03*
X001000Y010200D03*
X000800Y011800D03*
X002700Y012500D03*
X002700Y013300D03*
X003300Y011200D03*
X007200Y016800D03*
X012500Y016400D03*
D32*
X011700Y013500D02*
X010100Y013500D01*
M02*
