G75*
%MOIN*%
%OFA0B0*%
%FSLAX24Y24*%
%IPPOS*%
%LPD*%
%AMOC8*
5,1,8,0,0,1.08239X$1,22.5*
%
%ADD10R,0.0880X0.0880*%
%ADD11C,0.0880*%
%ADD12R,0.0710X0.1261*%
%ADD13R,0.1980X0.2330*%
%ADD14R,0.0946X0.0316*%
%ADD15C,0.1380*%
%ADD16C,0.0820*%
%ADD17OC8,0.0820*%
%ADD18R,0.0710X0.0631*%
%ADD19R,0.0631X0.0474*%
%ADD20R,0.0710X0.0789*%
%ADD21R,0.0820X0.0820*%
%ADD22R,0.0316X0.0946*%
%ADD23C,0.0730*%
%ADD24R,0.0730X0.0730*%
%ADD25R,0.0560X0.0960*%
%ADD26R,0.1497X0.0946*%
%ADD27R,0.0671X0.0277*%
%ADD28R,0.0277X0.0671*%
%ADD29R,0.0474X0.0513*%
%ADD30R,0.0513X0.0474*%
%ADD31R,0.0950X0.0320*%
%ADD32C,0.0580*%
%ADD33R,0.0297X0.0552*%
%ADD34C,0.0820*%
%ADD35R,0.0476X0.0476*%
%ADD36R,0.0611X0.0611*%
%ADD37R,0.0555X0.0555*%
%ADD38R,0.0516X0.0516*%
D10*
X023300Y006100D03*
X023300Y010500D03*
X023300Y013800D03*
D11*
X023300Y015178D03*
X023300Y011878D03*
X023300Y007478D03*
D12*
X019898Y006909D03*
X019898Y005191D03*
X018102Y005191D03*
X016498Y005191D03*
X016498Y006909D03*
X018102Y006909D03*
X014702Y006909D03*
X014702Y005191D03*
D13*
X015600Y002475D03*
X019000Y002475D03*
X019000Y009625D03*
X015600Y009625D03*
D14*
X009024Y006050D03*
X009024Y005550D03*
X009024Y005050D03*
X009024Y004550D03*
X006976Y004550D03*
X006976Y005050D03*
X006976Y005550D03*
X006976Y006050D03*
X006924Y003050D03*
X006924Y002550D03*
X006924Y002050D03*
X006924Y001550D03*
X004876Y001550D03*
X004876Y002050D03*
X004876Y002550D03*
X004876Y003050D03*
D15*
X001600Y002000D03*
X023100Y002000D03*
X023100Y022100D03*
D16*
X016700Y022000D03*
X015700Y022000D03*
X013900Y022500D03*
X012900Y022500D03*
X012900Y019000D03*
X010200Y019000D03*
X006600Y020000D03*
X005600Y020000D03*
X003380Y017190D03*
X003380Y015410D03*
X000820Y015410D03*
X000820Y017190D03*
X001200Y019200D03*
X010600Y008100D03*
X010600Y002100D03*
X015700Y019000D03*
X016700Y019000D03*
D17*
X007300Y009200D03*
X007300Y008200D03*
X006300Y008200D03*
X006300Y009200D03*
X005300Y009200D03*
X005300Y008200D03*
X002800Y008400D03*
X002800Y007400D03*
X002800Y006400D03*
X002800Y005400D03*
X002800Y004400D03*
X001800Y004400D03*
X001800Y005400D03*
X001800Y006400D03*
X001800Y007400D03*
X001800Y008400D03*
D18*
X003500Y003051D03*
X003500Y001949D03*
X008800Y001449D03*
X008800Y002551D03*
D19*
X008167Y018926D03*
X008167Y019674D03*
X009033Y019300D03*
D20*
X009549Y021700D03*
X010651Y021700D03*
X012049Y021300D03*
X013151Y021300D03*
X002651Y021000D03*
X002651Y022000D03*
X002651Y022900D03*
X001549Y022900D03*
X001549Y022000D03*
X001549Y021000D03*
X004349Y004300D03*
X005451Y004300D03*
D21*
X011200Y019000D03*
X013900Y019000D03*
X017700Y019000D03*
X017700Y022000D03*
X002200Y019200D03*
D22*
X019450Y019124D03*
X019950Y019124D03*
X020450Y019124D03*
X020950Y019124D03*
X020950Y017076D03*
X020450Y017076D03*
X019950Y017076D03*
X019450Y017076D03*
D23*
X020300Y014000D03*
X014100Y015100D03*
D24*
X014100Y016100D03*
X020300Y015000D03*
D25*
X017810Y014080D03*
X016900Y014080D03*
X015990Y014080D03*
D26*
X016900Y016520D03*
D27*
X009183Y015475D03*
X009183Y015160D03*
X009183Y014845D03*
X009183Y014530D03*
X009183Y014215D03*
X009183Y013900D03*
X009183Y013585D03*
X009183Y013270D03*
X009183Y012955D03*
X009183Y012640D03*
X009183Y012325D03*
X004617Y012325D03*
X004617Y012640D03*
X004617Y012955D03*
X004617Y013270D03*
X004617Y013585D03*
X004617Y013900D03*
X004617Y014215D03*
X004617Y014530D03*
X004617Y014845D03*
X004617Y015160D03*
X004617Y015475D03*
D28*
X005325Y016183D03*
X005640Y016183D03*
X005955Y016183D03*
X006270Y016183D03*
X006585Y016183D03*
X006900Y016183D03*
X007215Y016183D03*
X007530Y016183D03*
X007845Y016183D03*
X008160Y016183D03*
X008475Y016183D03*
X008475Y011617D03*
X008160Y011617D03*
X007845Y011617D03*
X007530Y011617D03*
X007215Y011617D03*
X006900Y011617D03*
X006585Y011617D03*
X006270Y011617D03*
X005955Y011617D03*
X005640Y011617D03*
X005325Y011617D03*
D29*
X003600Y012665D03*
X003600Y013335D03*
X010200Y014465D03*
X010200Y015135D03*
D30*
X006635Y017100D03*
X005965Y017100D03*
X005135Y017500D03*
X004465Y017500D03*
X004465Y018300D03*
X005135Y018300D03*
X009365Y020700D03*
X010035Y020700D03*
X010035Y022700D03*
X009365Y022700D03*
X006835Y010500D03*
X006165Y010500D03*
D31*
X007130Y021950D03*
X007130Y022450D03*
X007130Y022950D03*
X007130Y023450D03*
X005070Y023450D03*
X005070Y022950D03*
X005070Y022450D03*
X005070Y021950D03*
D32*
X004600Y019600D03*
X004300Y019000D03*
X008100Y020700D03*
X011100Y023300D03*
D33*
X004174Y021112D03*
X003426Y021112D03*
X003426Y020088D03*
X003800Y020088D03*
X004174Y020088D03*
D34*
X009730Y011300D02*
X010470Y011300D01*
D35*
X009800Y008600D03*
X009800Y008100D03*
X009800Y007600D03*
X009300Y007600D03*
X009300Y008100D03*
X009300Y008600D03*
X009300Y006900D03*
X009800Y006900D03*
X010300Y006900D03*
X010800Y006900D03*
X010900Y006000D03*
X008100Y005800D03*
X007600Y003800D03*
X005800Y002500D03*
X007900Y001200D03*
X010700Y003000D03*
X011300Y003000D03*
X012000Y003000D03*
X012000Y002400D03*
X012000Y001800D03*
X012700Y001800D03*
X012700Y002400D03*
X012700Y003000D03*
X013400Y003000D03*
X013400Y002400D03*
X013400Y001800D03*
X017400Y004900D03*
X017400Y005400D03*
X017400Y005900D03*
X018800Y005900D03*
X018800Y005400D03*
X018800Y004900D03*
X019100Y006400D03*
X019100Y006900D03*
X019100Y007400D03*
X020600Y006900D03*
X020600Y006400D03*
X021600Y005700D03*
X022300Y005700D03*
X022300Y006300D03*
X022200Y007100D03*
X022200Y007700D03*
X021600Y007700D03*
X024200Y007700D03*
X024200Y007100D03*
X024200Y005700D03*
X023400Y005100D03*
X022800Y005100D03*
X022200Y005100D03*
X021600Y005100D03*
X014200Y007900D03*
X003800Y005000D03*
X003500Y018700D03*
X005000Y020800D03*
X003800Y021700D03*
X004000Y022800D03*
X000800Y020900D03*
X007100Y020900D03*
X007900Y021500D03*
X008500Y021300D03*
X007500Y019800D03*
X010800Y022700D03*
X008500Y023500D03*
D36*
X010100Y013500D03*
X018700Y018600D03*
X022200Y017100D03*
D37*
X018200Y016300D03*
X015700Y015400D03*
X013300Y013700D03*
X010300Y010000D03*
X011100Y009900D03*
X008000Y013800D03*
X008100Y014800D03*
X007200Y015300D03*
X005600Y013400D03*
X007000Y012800D03*
X004800Y016600D03*
X009200Y018200D03*
X005900Y001800D03*
D38*
X004100Y007100D03*
X004200Y007900D03*
X004500Y009100D03*
X003200Y010300D03*
X002500Y010300D03*
X001800Y010300D03*
X001000Y010200D03*
X000800Y011800D03*
X002700Y012500D03*
X002700Y013300D03*
X003300Y011200D03*
X007200Y016800D03*
X012500Y016400D03*
M02*
