G75*
%MOIN*%
%OFA0B0*%
%FSLAX24Y24*%
%IPPOS*%
%LPD*%
%AMOC8*
5,1,8,0,0,1.08239X$1,22.5*
%
%ADD10R,0.0551X0.0630*%
%ADD11R,0.0394X0.0551*%
%ADD12R,0.0551X0.0394*%
%ADD13R,0.0709X0.0630*%
%ADD14R,0.0630X0.0709*%
%ADD15R,0.0480X0.0880*%
%ADD16R,0.1417X0.0866*%
%ADD17R,0.0217X0.0472*%
%ADD18R,0.0236X0.0866*%
D10*
X002829Y004400D03*
X003931Y004400D03*
D11*
X011606Y016967D03*
X011980Y017833D03*
X012354Y016967D03*
D12*
X009513Y021000D03*
X008647Y020626D03*
X008647Y021374D03*
D13*
X007180Y020849D03*
X007180Y021951D03*
X006780Y017651D03*
X006780Y016549D03*
X007580Y016549D03*
X007580Y017651D03*
X011580Y016051D03*
X011580Y014949D03*
X005580Y007251D03*
X005580Y006149D03*
X000980Y007549D03*
X000980Y008651D03*
X010680Y002551D03*
X010680Y001449D03*
D14*
X009231Y003900D03*
X009231Y004800D03*
X008129Y004800D03*
X008129Y003900D03*
X006731Y004200D03*
X006731Y005200D03*
X005629Y005200D03*
X005629Y004200D03*
X009029Y017500D03*
X010131Y017500D03*
D15*
X003090Y015720D03*
X002180Y015720D03*
X001270Y015720D03*
D16*
X002180Y013280D03*
D17*
X012406Y014888D03*
X012406Y015912D03*
X012780Y015912D03*
X013154Y015912D03*
X013154Y014888D03*
D18*
X011930Y010569D03*
X011430Y010569D03*
X010930Y010569D03*
X010430Y010569D03*
X009930Y010569D03*
X009430Y010569D03*
X008930Y010569D03*
X008430Y010569D03*
X007930Y010569D03*
X007430Y010569D03*
X007430Y006631D03*
X007930Y006631D03*
X008430Y006631D03*
X008930Y006631D03*
X009430Y006631D03*
X009930Y006631D03*
X010430Y006631D03*
X010930Y006631D03*
X011430Y006631D03*
X011930Y006631D03*
M02*
