G75*
%MOIN*%
%OFA0B0*%
%FSLAX24Y24*%
%IPPOS*%
%LPD*%
%AMOC8*
5,1,8,0,0,1.08239X$1,22.5*
%
%ADD10R,0.0650X0.0650*%
%ADD11C,0.0650*%
%ADD12R,0.0551X0.0630*%
%ADD13R,0.0630X0.0551*%
%ADD14OC8,0.0740*%
%ADD15R,0.0740X0.0740*%
%ADD16C,0.0740*%
%ADD17R,0.0800X0.0800*%
%ADD18C,0.0800*%
%ADD19C,0.0709*%
%ADD20C,0.0700*%
%ADD21C,0.1227*%
%ADD22C,0.0400*%
%ADD23C,0.0160*%
%ADD24R,0.0396X0.0396*%
%ADD25R,0.0768X0.0768*%
%ADD26R,0.0475X0.0475*%
%ADD27C,0.0240*%
%ADD28C,0.0120*%
D10*
X005180Y011600D03*
X004580Y020800D03*
D11*
X004580Y019800D03*
X004180Y011600D03*
D12*
X010929Y015300D03*
X012031Y015300D03*
D13*
X010780Y018149D03*
X010780Y019251D03*
D14*
X003180Y009600D03*
X003180Y008600D03*
X003180Y007600D03*
X002180Y007600D03*
X002180Y008600D03*
X002180Y009600D03*
D15*
X001680Y021100D03*
X009280Y001900D03*
D16*
X008280Y001900D03*
X007280Y001900D03*
X006280Y001900D03*
X005280Y001900D03*
X004280Y001900D03*
X010680Y004100D03*
X011680Y004100D03*
X012680Y004100D03*
X009180Y023100D03*
X008180Y023100D03*
X007180Y023100D03*
X001680Y020100D03*
X001680Y019100D03*
X001680Y018100D03*
D17*
X012180Y019600D03*
D18*
X012180Y020978D03*
D19*
X008164Y013147D03*
X007180Y013147D03*
X006196Y013147D03*
D20*
X005999Y018856D03*
X006786Y018856D03*
X007574Y018856D03*
X008361Y018856D03*
D21*
X009365Y016100D03*
X004995Y016100D03*
D22*
X010780Y019251D02*
X011831Y019251D01*
X012180Y019600D01*
D23*
X000660Y008709D02*
X000660Y002093D01*
X000776Y002294D01*
X000986Y002504D01*
X001244Y002653D01*
X001531Y002730D01*
X001829Y002730D01*
X002116Y002653D01*
X002374Y002504D01*
X002584Y002294D01*
X002733Y002036D01*
X002810Y001749D01*
X002810Y001451D01*
X002733Y001164D01*
X002584Y000906D01*
X002374Y000696D01*
X002208Y000600D01*
X012152Y000600D01*
X011986Y000696D01*
X011776Y000906D01*
X011627Y001164D01*
X011550Y001451D01*
X011550Y001749D01*
X011627Y002036D01*
X011776Y002294D01*
X011986Y002504D01*
X012244Y002653D01*
X012531Y002730D01*
X012829Y002730D01*
X013116Y002653D01*
X013374Y002504D01*
X013570Y002308D01*
X013570Y022892D01*
X013374Y022696D01*
X013116Y022547D01*
X012829Y022470D01*
X012531Y022470D01*
X012244Y022547D01*
X011986Y022696D01*
X011776Y022906D01*
X011627Y023164D01*
X011550Y023451D01*
X011550Y023749D01*
X011627Y024036D01*
X011776Y024294D01*
X011986Y024504D01*
X012152Y024600D01*
X002208Y024600D01*
X002374Y024504D01*
X002584Y024294D01*
X002733Y024036D01*
X002810Y023749D01*
X002810Y023451D01*
X002733Y023164D01*
X002584Y022906D01*
X002374Y022696D01*
X002116Y022547D01*
X001829Y022470D01*
X001531Y022470D01*
X001244Y022547D01*
X000986Y022696D01*
X000776Y022906D01*
X000660Y023107D01*
X000660Y019691D01*
X000689Y019720D01*
X001150Y020181D01*
X001150Y020205D01*
X001231Y020400D01*
X001380Y020549D01*
X001575Y020630D01*
X001785Y020630D01*
X001980Y020549D01*
X002129Y020400D01*
X002210Y020205D01*
X002210Y019995D01*
X002129Y019800D01*
X001980Y019651D01*
X001858Y019600D01*
X001980Y019549D01*
X002129Y019400D01*
X002210Y019205D01*
X002210Y018995D01*
X002129Y018800D01*
X001980Y018651D01*
X001858Y018600D01*
X001980Y018549D01*
X002129Y018400D01*
X002210Y018205D01*
X002210Y017995D01*
X002129Y017800D01*
X001980Y017651D01*
X001785Y017570D01*
X001575Y017570D01*
X001380Y017651D01*
X001361Y017670D01*
X001300Y017609D01*
X001300Y012291D01*
X002771Y010820D01*
X002771Y010820D01*
X002900Y010691D01*
X002900Y010070D01*
X002960Y010130D01*
X003400Y010130D01*
X003710Y009820D01*
X003710Y009380D01*
X003650Y009320D01*
X004189Y009320D01*
X004322Y009453D01*
X004322Y009764D01*
X004416Y009858D01*
X004944Y009858D01*
X005038Y009764D01*
X005038Y009236D01*
X004944Y009142D01*
X004633Y009142D01*
X004371Y008880D01*
X003650Y008880D01*
X003710Y008820D01*
X003710Y008380D01*
X003400Y008070D01*
X002961Y008070D01*
X002771Y007880D01*
X002650Y007880D01*
X002710Y007820D01*
X002710Y007380D01*
X002400Y007070D01*
X001960Y007070D01*
X001650Y007380D01*
X001650Y007820D01*
X001710Y007880D01*
X001489Y007880D01*
X001360Y008009D01*
X000660Y008709D01*
X000660Y008659D02*
X000710Y008659D01*
X000660Y008501D02*
X000868Y008501D01*
X001027Y008342D02*
X000660Y008342D01*
X000660Y008184D02*
X001185Y008184D01*
X001344Y008025D02*
X000660Y008025D01*
X000660Y007867D02*
X001697Y007867D01*
X001650Y007708D02*
X000660Y007708D01*
X000660Y007550D02*
X001650Y007550D01*
X001650Y007391D02*
X000660Y007391D01*
X000660Y007233D02*
X001798Y007233D01*
X001956Y007074D02*
X000660Y007074D01*
X000660Y006916D02*
X013570Y006916D01*
X013570Y007074D02*
X002404Y007074D01*
X002562Y007233D02*
X004283Y007233D01*
X004283Y007196D02*
X004376Y007103D01*
X004984Y007103D01*
X005077Y007196D01*
X005077Y007501D01*
X006339Y008763D01*
X006417Y008841D01*
X006460Y008944D01*
X006460Y010656D01*
X006417Y010759D01*
X005665Y011511D01*
X005665Y011991D01*
X005571Y012085D01*
X004789Y012085D01*
X004695Y011991D01*
X004695Y011209D01*
X004789Y011115D01*
X005269Y011115D01*
X005900Y010484D01*
X005900Y009116D01*
X004681Y007897D01*
X004376Y007897D01*
X004283Y007804D01*
X004283Y007196D01*
X004283Y007391D02*
X002710Y007391D01*
X002710Y007550D02*
X004283Y007550D01*
X004283Y007708D02*
X002710Y007708D01*
X002663Y007867D02*
X004345Y007867D01*
X004809Y008025D02*
X002916Y008025D01*
X003513Y008184D02*
X004968Y008184D01*
X005126Y008342D02*
X003672Y008342D01*
X003710Y008501D02*
X005285Y008501D01*
X005443Y008659D02*
X003710Y008659D01*
X003710Y008818D02*
X005602Y008818D01*
X005760Y008976D02*
X004467Y008976D01*
X004626Y009135D02*
X005900Y009135D01*
X005900Y009293D02*
X005038Y009293D01*
X005038Y009452D02*
X005900Y009452D01*
X005900Y009610D02*
X005038Y009610D01*
X005034Y009769D02*
X005900Y009769D01*
X005900Y009927D02*
X003603Y009927D01*
X003710Y009769D02*
X004326Y009769D01*
X004322Y009610D02*
X003710Y009610D01*
X003710Y009452D02*
X004320Y009452D01*
X003444Y010086D02*
X005900Y010086D01*
X005900Y010244D02*
X002900Y010244D01*
X002900Y010086D02*
X002916Y010086D01*
X002900Y010403D02*
X005900Y010403D01*
X005823Y010561D02*
X002900Y010561D01*
X002872Y010720D02*
X005665Y010720D01*
X005506Y010878D02*
X002713Y010878D01*
X002555Y011037D02*
X005348Y011037D01*
X005665Y011512D02*
X007783Y011512D01*
X007783Y011354D02*
X005822Y011354D01*
X005981Y011195D02*
X013570Y011195D01*
X013570Y011037D02*
X006139Y011037D01*
X006298Y010878D02*
X013570Y010878D01*
X013570Y010720D02*
X013062Y010720D01*
X013077Y010704D02*
X012984Y010797D01*
X012376Y010797D01*
X012283Y010704D01*
X012283Y010096D01*
X012376Y010003D01*
X012440Y010003D01*
X012440Y009399D01*
X012281Y009240D01*
X012277Y009240D01*
X012277Y009304D01*
X012184Y009397D01*
X011576Y009397D01*
X011483Y009304D01*
X011483Y008696D01*
X011576Y008603D01*
X012184Y008603D01*
X012277Y008696D01*
X012277Y008760D01*
X012428Y008760D01*
X012516Y008797D01*
X012816Y009097D01*
X012883Y009164D01*
X012920Y009252D01*
X012920Y010003D01*
X012984Y010003D01*
X013077Y010096D01*
X013077Y010704D01*
X013077Y010561D02*
X013570Y010561D01*
X013570Y010403D02*
X013077Y010403D01*
X013077Y010244D02*
X013570Y010244D01*
X013570Y010086D02*
X013067Y010086D01*
X012920Y009927D02*
X013570Y009927D01*
X013570Y009769D02*
X012920Y009769D01*
X012920Y009610D02*
X013570Y009610D01*
X013570Y009452D02*
X012920Y009452D01*
X012920Y009293D02*
X013570Y009293D01*
X013570Y009135D02*
X012854Y009135D01*
X012695Y008976D02*
X013570Y008976D01*
X013570Y008818D02*
X012537Y008818D01*
X012380Y009000D02*
X012680Y009300D01*
X012680Y010400D01*
X012440Y009927D02*
X006460Y009927D01*
X006460Y009769D02*
X012440Y009769D01*
X012440Y009610D02*
X006460Y009610D01*
X006460Y009452D02*
X012440Y009452D01*
X012334Y009293D02*
X012277Y009293D01*
X012380Y009000D02*
X011880Y009000D01*
X011483Y008976D02*
X006460Y008976D01*
X006460Y009135D02*
X011483Y009135D01*
X011483Y009293D02*
X006460Y009293D01*
X006393Y008818D02*
X011483Y008818D01*
X011520Y008659D02*
X006235Y008659D01*
X006076Y008501D02*
X013570Y008501D01*
X013570Y008659D02*
X012240Y008659D01*
X012293Y010086D02*
X006460Y010086D01*
X006460Y010244D02*
X012283Y010244D01*
X012283Y010403D02*
X006460Y010403D01*
X006460Y010561D02*
X012283Y010561D01*
X012298Y010720D02*
X006434Y010720D01*
X005665Y011671D02*
X007783Y011671D01*
X007783Y011829D02*
X005665Y011829D01*
X005665Y011988D02*
X007866Y011988D01*
X007876Y011997D02*
X007783Y011904D01*
X007783Y011296D01*
X007876Y011203D01*
X008484Y011203D01*
X008577Y011296D01*
X008577Y011360D01*
X008928Y011360D01*
X009016Y011397D01*
X010999Y013380D01*
X011076Y013303D01*
X011684Y013303D01*
X011777Y013396D01*
X011777Y014004D01*
X011684Y014097D01*
X011220Y014097D01*
X011220Y014825D01*
X011271Y014825D01*
X011364Y014919D01*
X011364Y015681D01*
X011271Y015775D01*
X010587Y015775D01*
X010493Y015681D01*
X010493Y014919D01*
X010587Y014825D01*
X010740Y014825D01*
X010740Y013799D01*
X008781Y011840D01*
X008577Y011840D01*
X008577Y011904D01*
X008484Y011997D01*
X007876Y011997D01*
X008180Y011600D02*
X008880Y011600D01*
X010980Y013700D01*
X011380Y013700D01*
X011733Y014048D02*
X011883Y014048D01*
X011883Y013896D02*
X011976Y013803D01*
X012040Y013803D01*
X012040Y013652D01*
X012077Y013564D01*
X012144Y013497D01*
X012583Y013058D01*
X012583Y012696D01*
X012676Y012603D01*
X013284Y012603D01*
X013377Y012696D01*
X013377Y013304D01*
X013284Y013397D01*
X012922Y013397D01*
X012520Y013799D01*
X012520Y013803D01*
X012584Y013803D01*
X012677Y013896D01*
X012677Y014504D01*
X012584Y014597D01*
X011976Y014597D01*
X011883Y014504D01*
X011883Y013896D01*
X011889Y013890D02*
X011777Y013890D01*
X011777Y013731D02*
X012040Y013731D01*
X012073Y013573D02*
X011777Y013573D01*
X011777Y013414D02*
X012227Y013414D01*
X012385Y013256D02*
X010875Y013256D01*
X010716Y013097D02*
X012544Y013097D01*
X012583Y012939D02*
X010558Y012939D01*
X010399Y012780D02*
X012583Y012780D01*
X012657Y012622D02*
X010241Y012622D01*
X010082Y012463D02*
X013570Y012463D01*
X013570Y012305D02*
X009924Y012305D01*
X009765Y012146D02*
X013570Y012146D01*
X013570Y011988D02*
X009607Y011988D01*
X009448Y011829D02*
X013570Y011829D01*
X013570Y011671D02*
X009290Y011671D01*
X009131Y011512D02*
X013570Y011512D01*
X013570Y011354D02*
X008577Y011354D01*
X008494Y011988D02*
X008928Y011988D01*
X009087Y012146D02*
X001445Y012146D01*
X001300Y012305D02*
X009245Y012305D01*
X009404Y012463D02*
X001300Y012463D01*
X001300Y012622D02*
X009562Y012622D01*
X009721Y012780D02*
X008524Y012780D01*
X008456Y012711D02*
X008600Y012856D01*
X008679Y013045D01*
X008679Y013250D01*
X008600Y013439D01*
X008456Y013583D01*
X008267Y013662D01*
X008062Y013662D01*
X007873Y013583D01*
X007728Y013439D01*
X007650Y013250D01*
X007650Y013045D01*
X007728Y012856D01*
X007873Y012711D01*
X008062Y012633D01*
X008267Y012633D01*
X008456Y012711D01*
X008635Y012939D02*
X009879Y012939D01*
X010038Y013097D02*
X008679Y013097D01*
X008676Y013256D02*
X010196Y013256D01*
X010355Y013414D02*
X008610Y013414D01*
X008466Y013573D02*
X010513Y013573D01*
X010672Y013731D02*
X001300Y013731D01*
X001300Y013573D02*
X005894Y013573D01*
X005904Y013583D02*
X005760Y013439D01*
X005681Y013250D01*
X005681Y013045D01*
X005760Y012856D01*
X005904Y012711D01*
X006093Y012633D01*
X006298Y012633D01*
X006487Y012711D01*
X006632Y012856D01*
X006710Y013045D01*
X006710Y013250D01*
X006632Y013439D01*
X006487Y013583D01*
X006298Y013662D01*
X006093Y013662D01*
X005904Y013583D01*
X005750Y013414D02*
X001300Y013414D01*
X001300Y013256D02*
X005684Y013256D01*
X005681Y013097D02*
X001300Y013097D01*
X001300Y012939D02*
X005725Y012939D01*
X005836Y012780D02*
X001300Y012780D01*
X001604Y011988D02*
X004695Y011988D01*
X004695Y011829D02*
X001762Y011829D01*
X001921Y011671D02*
X004695Y011671D01*
X004695Y011512D02*
X002079Y011512D01*
X002238Y011354D02*
X004695Y011354D01*
X004709Y011195D02*
X002396Y011195D01*
X001300Y013890D02*
X010740Y013890D01*
X010740Y014048D02*
X001300Y014048D01*
X001300Y014207D02*
X010740Y014207D01*
X010740Y014365D02*
X001300Y014365D01*
X001300Y014524D02*
X010740Y014524D01*
X010740Y014682D02*
X001300Y014682D01*
X001300Y014841D02*
X010571Y014841D01*
X010493Y014999D02*
X001300Y014999D01*
X001300Y015158D02*
X010493Y015158D01*
X010493Y015316D02*
X001300Y015316D01*
X001300Y015475D02*
X004527Y015475D01*
X004557Y015444D02*
X004339Y015662D01*
X004222Y015946D01*
X004222Y016254D01*
X004339Y016538D01*
X004557Y016756D01*
X004841Y016873D01*
X005149Y016873D01*
X005433Y016756D01*
X005651Y016538D01*
X005768Y016254D01*
X005768Y015946D01*
X005651Y015662D01*
X005433Y015444D01*
X005149Y015327D01*
X004841Y015327D01*
X004557Y015444D01*
X004368Y015633D02*
X001300Y015633D01*
X001300Y015792D02*
X004286Y015792D01*
X004222Y015950D02*
X001300Y015950D01*
X001300Y016109D02*
X004222Y016109D01*
X004227Y016267D02*
X001300Y016267D01*
X001300Y016426D02*
X004293Y016426D01*
X004385Y016584D02*
X001300Y016584D01*
X001300Y016743D02*
X004544Y016743D01*
X005446Y016743D02*
X008914Y016743D01*
X008927Y016756D02*
X008709Y016538D01*
X008592Y016254D01*
X008592Y015946D01*
X008709Y015662D01*
X008927Y015444D01*
X009211Y015327D01*
X009519Y015327D01*
X009803Y015444D01*
X010021Y015662D01*
X010138Y015946D01*
X010138Y016254D01*
X010021Y016538D01*
X009803Y016756D01*
X009519Y016873D01*
X009211Y016873D01*
X008927Y016756D01*
X008755Y016584D02*
X005605Y016584D01*
X005697Y016426D02*
X008663Y016426D01*
X008597Y016267D02*
X005763Y016267D01*
X005768Y016109D02*
X008592Y016109D01*
X008592Y015950D02*
X005768Y015950D01*
X005704Y015792D02*
X008656Y015792D01*
X008738Y015633D02*
X005622Y015633D01*
X005463Y015475D02*
X008897Y015475D01*
X009833Y015475D02*
X010493Y015475D01*
X010493Y015633D02*
X009992Y015633D01*
X010074Y015792D02*
X013570Y015792D01*
X013570Y015950D02*
X010138Y015950D01*
X010138Y016109D02*
X013570Y016109D01*
X013570Y016267D02*
X010133Y016267D01*
X010067Y016426D02*
X013570Y016426D01*
X013570Y016584D02*
X009975Y016584D01*
X009816Y016743D02*
X013570Y016743D01*
X013570Y016901D02*
X001300Y016901D01*
X001300Y017060D02*
X013570Y017060D01*
X013570Y017218D02*
X001300Y017218D01*
X001300Y017377D02*
X005602Y017377D01*
X005583Y017396D02*
X005676Y017303D01*
X006284Y017303D01*
X006377Y017396D01*
X006377Y017460D01*
X007928Y017460D01*
X008016Y017497D01*
X008516Y017997D01*
X008583Y018064D01*
X008620Y018152D01*
X008620Y018411D01*
X008650Y018424D01*
X008793Y018567D01*
X008871Y018754D01*
X008871Y018957D01*
X008793Y019145D01*
X008650Y019288D01*
X008463Y019366D01*
X008260Y019366D01*
X008072Y019288D01*
X007967Y019183D01*
X007863Y019288D01*
X007675Y019366D01*
X007472Y019366D01*
X007285Y019288D01*
X007180Y019183D01*
X007075Y019288D01*
X006888Y019366D01*
X006685Y019366D01*
X006497Y019288D01*
X006354Y019145D01*
X006276Y018957D01*
X006276Y018754D01*
X006354Y018567D01*
X006497Y018424D01*
X006685Y018346D01*
X006888Y018346D01*
X007075Y018424D01*
X007180Y018528D01*
X007285Y018424D01*
X007472Y018346D01*
X007675Y018346D01*
X007863Y018424D01*
X007967Y018528D01*
X008072Y018424D01*
X008140Y018395D01*
X008140Y018299D01*
X007781Y017940D01*
X006377Y017940D01*
X006377Y018004D01*
X006284Y018097D01*
X005676Y018097D01*
X005583Y018004D01*
X005583Y017396D01*
X005583Y017535D02*
X001300Y017535D01*
X001965Y018645D02*
X006322Y018645D01*
X006276Y018803D02*
X002131Y018803D01*
X002196Y018962D02*
X006278Y018962D01*
X006344Y019120D02*
X002210Y019120D01*
X002180Y019279D02*
X006488Y019279D01*
X006435Y018486D02*
X002044Y018486D01*
X002159Y018328D02*
X008140Y018328D01*
X008010Y018486D02*
X007925Y018486D01*
X008010Y018169D02*
X002210Y018169D01*
X002210Y018011D02*
X005589Y018011D01*
X005583Y017852D02*
X002151Y017852D01*
X002023Y017694D02*
X005583Y017694D01*
X005980Y017700D02*
X007880Y017700D01*
X008380Y018200D01*
X008380Y018837D01*
X008361Y018856D01*
X008712Y018486D02*
X013570Y018486D01*
X013570Y018328D02*
X008620Y018328D01*
X008620Y018169D02*
X013570Y018169D01*
X013570Y018011D02*
X008530Y018011D01*
X008371Y017852D02*
X013570Y017852D01*
X013570Y017694D02*
X008213Y017694D01*
X008054Y017535D02*
X013570Y017535D01*
X013570Y017377D02*
X006358Y017377D01*
X006371Y018011D02*
X007851Y018011D01*
X007222Y018486D02*
X007138Y018486D01*
X007085Y019279D02*
X007275Y019279D01*
X007872Y019279D02*
X008062Y019279D01*
X008660Y019279D02*
X010305Y019279D01*
X010305Y019437D02*
X002093Y019437D01*
X001869Y019596D02*
X010308Y019596D01*
X010305Y019593D02*
X010305Y018909D01*
X010399Y018816D01*
X011161Y018816D01*
X011237Y018891D01*
X011903Y018891D01*
X012035Y018946D01*
X012129Y019040D01*
X012646Y019040D01*
X012740Y019134D01*
X012740Y020066D01*
X012646Y020160D01*
X011714Y020160D01*
X011620Y020066D01*
X011620Y019611D01*
X011237Y019611D01*
X011161Y019687D01*
X010399Y019687D01*
X010305Y019593D01*
X010305Y019120D02*
X008804Y019120D01*
X008869Y018962D02*
X010305Y018962D01*
X008871Y018803D02*
X013570Y018803D01*
X013570Y018645D02*
X008826Y018645D01*
X010929Y015300D02*
X010980Y015249D01*
X010980Y013700D01*
X011220Y014207D02*
X011883Y014207D01*
X011883Y014365D02*
X011220Y014365D01*
X011220Y014524D02*
X011902Y014524D01*
X012280Y014200D02*
X012280Y013700D01*
X012980Y013000D01*
X012905Y013414D02*
X013570Y013414D01*
X013570Y013256D02*
X013377Y013256D01*
X013377Y013097D02*
X013570Y013097D01*
X013570Y012939D02*
X013377Y012939D01*
X013377Y012780D02*
X013570Y012780D01*
X013570Y012622D02*
X013303Y012622D01*
X013570Y013573D02*
X012747Y013573D01*
X012588Y013731D02*
X013570Y013731D01*
X013570Y013890D02*
X012671Y013890D01*
X012677Y014048D02*
X013570Y014048D01*
X013570Y014207D02*
X012677Y014207D01*
X012677Y014365D02*
X013570Y014365D01*
X013570Y014524D02*
X012658Y014524D01*
X013570Y014682D02*
X011220Y014682D01*
X011286Y014841D02*
X013570Y014841D01*
X013570Y014999D02*
X011364Y014999D01*
X011364Y015158D02*
X013570Y015158D01*
X013570Y015316D02*
X011364Y015316D01*
X011364Y015475D02*
X013570Y015475D01*
X013570Y015633D02*
X011364Y015633D01*
X012051Y018962D02*
X013570Y018962D01*
X013570Y019120D02*
X012726Y019120D01*
X012740Y019279D02*
X013570Y019279D01*
X013570Y019437D02*
X012740Y019437D01*
X012740Y019596D02*
X013570Y019596D01*
X013570Y019754D02*
X012740Y019754D01*
X012740Y019913D02*
X013570Y019913D01*
X013570Y020071D02*
X012735Y020071D01*
X012497Y020503D02*
X012655Y020661D01*
X012740Y020867D01*
X012740Y021089D01*
X012655Y021295D01*
X012497Y021453D01*
X012291Y021538D01*
X012069Y021538D01*
X011863Y021453D01*
X011705Y021295D01*
X011620Y021089D01*
X011620Y020867D01*
X011705Y020661D01*
X011863Y020503D01*
X012069Y020418D01*
X012291Y020418D01*
X012497Y020503D01*
X012541Y020547D02*
X013570Y020547D01*
X013570Y020705D02*
X012673Y020705D01*
X012739Y020864D02*
X013570Y020864D01*
X013570Y021022D02*
X012740Y021022D01*
X012702Y021181D02*
X013570Y021181D01*
X013570Y021339D02*
X012611Y021339D01*
X012389Y021498D02*
X013570Y021498D01*
X013570Y021656D02*
X000660Y021656D01*
X000660Y021498D02*
X011971Y021498D01*
X011749Y021339D02*
X000660Y021339D01*
X000660Y021181D02*
X004095Y021181D01*
X004095Y021191D02*
X004095Y020409D01*
X004189Y020315D01*
X004971Y020315D01*
X005065Y020409D01*
X005065Y021191D01*
X004971Y021285D01*
X004189Y021285D01*
X004095Y021191D01*
X004095Y021022D02*
X000660Y021022D01*
X000660Y020864D02*
X004095Y020864D01*
X004095Y020705D02*
X000660Y020705D01*
X000660Y020547D02*
X001377Y020547D01*
X001226Y020388D02*
X000660Y020388D01*
X000660Y020230D02*
X001160Y020230D01*
X001040Y020071D02*
X000660Y020071D01*
X000660Y019913D02*
X000881Y019913D01*
X000723Y019754D02*
X000660Y019754D01*
X000660Y021815D02*
X013570Y021815D01*
X013570Y021973D02*
X000660Y021973D01*
X000660Y022132D02*
X013570Y022132D01*
X013570Y022290D02*
X000660Y022290D01*
X000660Y022449D02*
X013570Y022449D01*
X013570Y022607D02*
X013220Y022607D01*
X013444Y022766D02*
X013570Y022766D01*
X012140Y022607D02*
X008375Y022607D01*
X008285Y022570D02*
X008480Y022651D01*
X008629Y022800D01*
X008710Y022995D01*
X008710Y023205D01*
X008629Y023400D01*
X008480Y023549D01*
X008285Y023630D01*
X008075Y023630D01*
X007880Y023549D01*
X007731Y023400D01*
X007680Y023278D01*
X007629Y023400D01*
X007480Y023549D01*
X007285Y023630D01*
X007075Y023630D01*
X006880Y023549D01*
X006731Y023400D01*
X006650Y023205D01*
X006650Y022995D01*
X006731Y022800D01*
X006880Y022651D01*
X007075Y022570D01*
X007285Y022570D01*
X007480Y022651D01*
X007629Y022800D01*
X007680Y022922D01*
X007731Y022800D01*
X007880Y022651D01*
X008075Y022570D01*
X008285Y022570D01*
X007985Y022607D02*
X007375Y022607D01*
X007595Y022766D02*
X007765Y022766D01*
X007730Y023400D02*
X007630Y023400D01*
X007459Y023558D02*
X007901Y023558D01*
X008459Y023558D02*
X011550Y023558D01*
X011550Y023717D02*
X002810Y023717D01*
X002810Y023558D02*
X006901Y023558D01*
X006730Y023400D02*
X002796Y023400D01*
X002754Y023241D02*
X006665Y023241D01*
X006650Y023083D02*
X002686Y023083D01*
X002595Y022924D02*
X006679Y022924D01*
X006765Y022766D02*
X002444Y022766D01*
X002220Y022607D02*
X006985Y022607D01*
X008595Y022766D02*
X011916Y022766D01*
X011765Y022924D02*
X008681Y022924D01*
X008710Y023083D02*
X011674Y023083D01*
X011606Y023241D02*
X008695Y023241D01*
X008630Y023400D02*
X011564Y023400D01*
X011584Y023875D02*
X002776Y023875D01*
X002734Y024034D02*
X011626Y024034D01*
X011717Y024192D02*
X002643Y024192D01*
X002528Y024351D02*
X011832Y024351D01*
X011995Y024509D02*
X002365Y024509D01*
X001140Y022607D02*
X000660Y022607D01*
X000660Y022766D02*
X000916Y022766D01*
X000765Y022924D02*
X000660Y022924D01*
X000660Y023083D02*
X000674Y023083D01*
X001983Y020547D02*
X004095Y020547D01*
X004116Y020388D02*
X002134Y020388D01*
X002200Y020230D02*
X013570Y020230D01*
X013570Y020388D02*
X005044Y020388D01*
X005065Y020547D02*
X011819Y020547D01*
X011687Y020705D02*
X005065Y020705D01*
X005065Y020864D02*
X011621Y020864D01*
X011620Y021022D02*
X005065Y021022D01*
X005065Y021181D02*
X011658Y021181D01*
X011625Y020071D02*
X002210Y020071D01*
X002176Y019913D02*
X011620Y019913D01*
X011620Y019754D02*
X002084Y019754D01*
X006498Y013573D02*
X007862Y013573D01*
X007718Y013414D02*
X006642Y013414D01*
X006708Y013256D02*
X007652Y013256D01*
X007650Y013097D02*
X006710Y013097D01*
X006666Y012939D02*
X007694Y012939D01*
X007804Y012780D02*
X006556Y012780D01*
X005918Y008342D02*
X013570Y008342D01*
X013570Y008184D02*
X005759Y008184D01*
X005601Y008025D02*
X013570Y008025D01*
X013570Y007867D02*
X005442Y007867D01*
X005284Y007708D02*
X013570Y007708D01*
X013570Y007550D02*
X005125Y007550D01*
X005077Y007391D02*
X013570Y007391D01*
X013570Y007233D02*
X005077Y007233D01*
X006916Y003658D02*
X006822Y003564D01*
X006822Y003520D01*
X005589Y003520D01*
X005460Y003391D01*
X005060Y002991D01*
X005060Y002383D01*
X004980Y002349D01*
X004831Y002200D01*
X004780Y002078D01*
X004729Y002200D01*
X004580Y002349D01*
X004385Y002430D01*
X004175Y002430D01*
X003980Y002349D01*
X003831Y002200D01*
X003750Y002005D01*
X003750Y001795D01*
X003831Y001600D01*
X003980Y001451D01*
X004175Y001370D01*
X004385Y001370D01*
X004580Y001451D01*
X004729Y001600D01*
X004780Y001722D01*
X004831Y001600D01*
X004980Y001451D01*
X005175Y001370D01*
X005385Y001370D01*
X005580Y001451D01*
X005729Y001600D01*
X005780Y001722D01*
X005831Y001600D01*
X005980Y001451D01*
X006175Y001370D01*
X006385Y001370D01*
X006580Y001451D01*
X006729Y001600D01*
X006780Y001722D01*
X006831Y001600D01*
X006980Y001451D01*
X007175Y001370D01*
X007385Y001370D01*
X007580Y001451D01*
X007729Y001600D01*
X007810Y001795D01*
X007810Y002005D01*
X007729Y002200D01*
X007580Y002349D01*
X007385Y002430D01*
X007175Y002430D01*
X006980Y002349D01*
X006831Y002200D01*
X006780Y002078D01*
X006729Y002200D01*
X006580Y002349D01*
X006385Y002430D01*
X006175Y002430D01*
X005980Y002349D01*
X005831Y002200D01*
X005780Y002078D01*
X005729Y002200D01*
X005580Y002349D01*
X005500Y002383D01*
X005500Y002809D01*
X005771Y003080D01*
X006822Y003080D01*
X006822Y003036D01*
X006916Y002942D01*
X007444Y002942D01*
X007538Y003036D01*
X007538Y003564D01*
X007444Y003658D01*
X006916Y003658D01*
X006845Y003587D02*
X000660Y003587D01*
X000660Y003429D02*
X005497Y003429D01*
X005339Y003270D02*
X000660Y003270D01*
X000660Y003112D02*
X005180Y003112D01*
X005060Y002953D02*
X000660Y002953D01*
X000660Y002795D02*
X005060Y002795D01*
X005060Y002636D02*
X002146Y002636D01*
X002401Y002478D02*
X005060Y002478D01*
X004949Y002319D02*
X004611Y002319D01*
X004746Y002161D02*
X004814Y002161D01*
X004795Y001685D02*
X004765Y001685D01*
X004656Y001527D02*
X004904Y001527D01*
X005500Y002478D02*
X011959Y002478D01*
X011801Y002319D02*
X009810Y002319D01*
X009810Y002336D02*
X009716Y002430D01*
X008844Y002430D01*
X008750Y002336D01*
X008750Y001464D01*
X008844Y001370D01*
X009716Y001370D01*
X009810Y001464D01*
X009810Y002336D01*
X009810Y002161D02*
X011699Y002161D01*
X011618Y002002D02*
X009810Y002002D01*
X009810Y001844D02*
X011575Y001844D01*
X011550Y001685D02*
X009810Y001685D01*
X009810Y001527D02*
X011550Y001527D01*
X011572Y001368D02*
X002788Y001368D01*
X002810Y001527D02*
X003904Y001527D01*
X003795Y001685D02*
X002810Y001685D01*
X002785Y001844D02*
X003750Y001844D01*
X003750Y002002D02*
X002742Y002002D01*
X002661Y002161D02*
X003814Y002161D01*
X003949Y002319D02*
X002559Y002319D01*
X002745Y001210D02*
X011615Y001210D01*
X011692Y001051D02*
X002668Y001051D01*
X002571Y000893D02*
X011789Y000893D01*
X011948Y000734D02*
X002412Y000734D01*
X001214Y002636D02*
X000660Y002636D01*
X000660Y002478D02*
X000959Y002478D01*
X000801Y002319D02*
X000660Y002319D01*
X000660Y002161D02*
X000699Y002161D01*
X000660Y003746D02*
X010285Y003746D01*
X010231Y003800D02*
X010150Y003995D01*
X010150Y004205D01*
X010231Y004400D01*
X010380Y004549D01*
X010575Y004630D01*
X010785Y004630D01*
X010980Y004549D01*
X011129Y004400D01*
X011180Y004278D01*
X011231Y004400D01*
X011380Y004549D01*
X011575Y004630D01*
X011785Y004630D01*
X011980Y004549D01*
X012129Y004400D01*
X012210Y004205D01*
X012210Y003995D01*
X012129Y003800D01*
X011980Y003651D01*
X011785Y003570D01*
X011575Y003570D01*
X011380Y003651D01*
X011231Y003800D01*
X011180Y003922D01*
X011129Y003800D01*
X010980Y003651D01*
X010785Y003570D01*
X010575Y003570D01*
X010380Y003651D01*
X010231Y003800D01*
X010188Y003904D02*
X000660Y003904D01*
X000660Y004063D02*
X010150Y004063D01*
X010156Y004221D02*
X000660Y004221D01*
X000660Y004380D02*
X010222Y004380D01*
X010368Y004538D02*
X000660Y004538D01*
X000660Y004697D02*
X013570Y004697D01*
X013570Y004855D02*
X000660Y004855D01*
X000660Y005014D02*
X013570Y005014D01*
X013570Y005172D02*
X000660Y005172D01*
X000660Y005331D02*
X013570Y005331D01*
X013570Y005489D02*
X000660Y005489D01*
X000660Y005648D02*
X013570Y005648D01*
X013570Y005806D02*
X000660Y005806D01*
X000660Y005965D02*
X013570Y005965D01*
X013570Y006123D02*
X000660Y006123D01*
X000660Y006282D02*
X013570Y006282D01*
X013570Y006440D02*
X000660Y006440D01*
X000660Y006599D02*
X013570Y006599D01*
X013570Y006757D02*
X000660Y006757D01*
X005500Y002795D02*
X013570Y002795D01*
X013570Y002953D02*
X007455Y002953D01*
X007538Y003112D02*
X013570Y003112D01*
X013570Y003270D02*
X007538Y003270D01*
X007538Y003429D02*
X013570Y003429D01*
X013570Y003587D02*
X011826Y003587D01*
X011534Y003587D02*
X010826Y003587D01*
X010534Y003587D02*
X007515Y003587D01*
X006905Y002953D02*
X005644Y002953D01*
X005500Y002636D02*
X012214Y002636D01*
X012075Y003746D02*
X013570Y003746D01*
X013570Y003904D02*
X012172Y003904D01*
X012210Y004063D02*
X013570Y004063D01*
X013570Y004221D02*
X012204Y004221D01*
X012138Y004380D02*
X013570Y004380D01*
X013570Y004538D02*
X011992Y004538D01*
X011368Y004538D02*
X010992Y004538D01*
X011138Y004380D02*
X011222Y004380D01*
X011188Y003904D02*
X011172Y003904D01*
X011075Y003746D02*
X011285Y003746D01*
X013146Y002636D02*
X013570Y002636D01*
X013570Y002478D02*
X013401Y002478D01*
X013559Y002319D02*
X013570Y002319D01*
X008750Y002319D02*
X007611Y002319D01*
X007746Y002161D02*
X008750Y002161D01*
X008750Y002002D02*
X007810Y002002D01*
X007810Y001844D02*
X008750Y001844D01*
X008750Y001685D02*
X007765Y001685D01*
X007656Y001527D02*
X008750Y001527D01*
X006949Y002319D02*
X006611Y002319D01*
X006746Y002161D02*
X006814Y002161D01*
X006795Y001685D02*
X006765Y001685D01*
X006656Y001527D02*
X006904Y001527D01*
X005949Y002319D02*
X005611Y002319D01*
X005746Y002161D02*
X005814Y002161D01*
X005795Y001685D02*
X005765Y001685D01*
X005656Y001527D02*
X005904Y001527D01*
D24*
X007180Y003300D03*
X006580Y007200D03*
X004680Y009500D03*
X001880Y004600D03*
X012680Y005600D03*
D25*
X013080Y017000D03*
X001980Y016800D03*
D26*
X005980Y017700D03*
X008880Y019800D03*
X012280Y014200D03*
X012980Y013000D03*
X012680Y010400D03*
X011880Y009000D03*
X011380Y013700D03*
X008180Y011600D03*
X004680Y007500D03*
D27*
X006180Y009000D01*
X006180Y010600D01*
X005180Y011600D01*
D28*
X004680Y009500D02*
X004280Y009100D01*
X002680Y009100D01*
X002680Y010600D01*
X001080Y012200D01*
X001080Y017700D01*
X001480Y018100D01*
X001680Y018100D01*
X000780Y019500D02*
X000780Y008900D01*
X001580Y008100D01*
X002680Y008100D01*
X003180Y008600D01*
X002680Y009100D02*
X002180Y008600D01*
X005680Y003300D02*
X005280Y002900D01*
X005280Y001900D01*
X005680Y003300D02*
X007180Y003300D01*
X000780Y019500D02*
X001380Y020100D01*
X001680Y020100D01*
M02*
