G75*
%MOIN*%
%OFA0B0*%
%FSLAX24Y24*%
%IPPOS*%
%LPD*%
%AMOC8*
5,1,8,0,0,1.08239X$1,22.5*
%
%ADD10C,0.0030*%
%ADD11C,0.0080*%
%ADD12C,0.0050*%
%ADD13C,0.0060*%
D10*
X002995Y001810D02*
X003365Y001810D01*
X003365Y002057D01*
X003303Y002178D02*
X003365Y002240D01*
X003365Y002364D01*
X003303Y002425D01*
X003365Y002547D02*
X003365Y002732D01*
X003303Y002794D01*
X003056Y002794D01*
X002995Y002732D01*
X002995Y002547D01*
X003365Y002547D01*
X003056Y002425D02*
X002995Y002364D01*
X002995Y002240D01*
X003056Y002178D01*
X003303Y002178D01*
X004057Y003015D02*
X003995Y003077D01*
X004057Y003015D02*
X004180Y003015D01*
X004242Y003077D01*
X004242Y003200D01*
X004180Y003262D01*
X004118Y003262D01*
X003995Y003200D01*
X003995Y003385D01*
X004242Y003385D01*
X004363Y003385D02*
X004363Y003138D01*
X004487Y003015D01*
X004610Y003138D01*
X004610Y003385D01*
X004995Y003385D02*
X004995Y003015D01*
X005180Y003015D01*
X005242Y003077D01*
X005242Y003324D01*
X005180Y003385D01*
X004995Y003385D01*
X005363Y003324D02*
X005363Y003077D01*
X005425Y003015D01*
X005548Y003015D01*
X005610Y003077D01*
X005610Y003324D01*
X005548Y003385D01*
X005425Y003385D01*
X005363Y003324D01*
X005995Y003385D02*
X005995Y003015D01*
X006180Y003015D01*
X006242Y003077D01*
X006242Y003324D01*
X006180Y003385D01*
X005995Y003385D01*
X006363Y003385D02*
X006487Y003385D01*
X006425Y003385D02*
X006425Y003015D01*
X006363Y003015D02*
X006487Y003015D01*
X006995Y003015D02*
X007118Y003015D01*
X007057Y003015D02*
X007057Y003385D01*
X007118Y003385D02*
X006995Y003385D01*
X007241Y003385D02*
X007241Y003015D01*
X007487Y003015D02*
X007487Y003385D01*
X007609Y003385D02*
X007856Y003385D01*
X007732Y003385D02*
X007732Y003015D01*
X007487Y003015D02*
X007241Y003385D01*
X008095Y003324D02*
X008095Y003077D01*
X008157Y003015D01*
X008280Y003015D01*
X008342Y003077D01*
X008342Y003200D01*
X008218Y003200D01*
X008095Y003324D02*
X008157Y003385D01*
X008280Y003385D01*
X008342Y003324D01*
X008463Y003385D02*
X008710Y003015D01*
X008710Y003385D01*
X008832Y003385D02*
X009017Y003385D01*
X009079Y003324D01*
X009079Y003077D01*
X009017Y003015D01*
X008832Y003015D01*
X008832Y003385D01*
X008463Y003385D02*
X008463Y003015D01*
X010395Y004872D02*
X010456Y004810D01*
X010518Y004810D01*
X010580Y004872D01*
X010580Y004995D01*
X010642Y005057D01*
X010703Y005057D01*
X010765Y004995D01*
X010765Y004872D01*
X010703Y004810D01*
X010765Y005178D02*
X010642Y005302D01*
X010765Y005425D01*
X010395Y005425D01*
X010518Y005547D02*
X010395Y005670D01*
X010765Y005670D01*
X010765Y005547D02*
X010765Y005794D01*
X010765Y005178D02*
X010395Y005178D01*
X010456Y005057D02*
X010395Y004995D01*
X010395Y004872D01*
X011495Y004872D02*
X011556Y004810D01*
X011618Y004810D01*
X011680Y004872D01*
X011680Y004995D01*
X011742Y005057D01*
X011803Y005057D01*
X011865Y004995D01*
X011865Y004872D01*
X011803Y004810D01*
X011865Y005178D02*
X011742Y005302D01*
X011865Y005425D01*
X011495Y005425D01*
X011556Y005547D02*
X011495Y005608D01*
X011495Y005732D01*
X011556Y005794D01*
X011618Y005794D01*
X011865Y005547D01*
X011865Y005794D01*
X011865Y005178D02*
X011495Y005178D01*
X011556Y005057D02*
X011495Y004995D01*
X011495Y004872D01*
X012290Y004877D02*
X012352Y004815D01*
X012475Y004815D01*
X012537Y004877D01*
X012537Y005000D01*
X012413Y005000D01*
X012290Y004877D02*
X012290Y005124D01*
X012352Y005185D01*
X012475Y005185D01*
X012537Y005124D01*
X012658Y005185D02*
X012658Y004815D01*
X012905Y004815D02*
X012658Y005185D01*
X012905Y005185D02*
X012905Y004815D01*
X013027Y004815D02*
X013027Y005185D01*
X013212Y005185D01*
X013274Y005124D01*
X013274Y004877D01*
X013212Y004815D01*
X013027Y004815D01*
X010480Y019115D02*
X010480Y019362D01*
X010480Y019483D02*
X010418Y019607D01*
X010418Y019668D01*
X010480Y019730D01*
X010603Y019730D01*
X010665Y019668D01*
X010665Y019545D01*
X010603Y019483D01*
X010480Y019483D02*
X010295Y019483D01*
X010295Y019730D01*
X010295Y019852D02*
X010542Y019852D01*
X010665Y019975D01*
X010542Y020099D01*
X010295Y020099D01*
X010256Y020615D02*
X010503Y020615D01*
X010565Y020677D01*
X010565Y020800D01*
X010503Y020862D01*
X010380Y020862D01*
X010380Y020738D01*
X010256Y020615D02*
X010195Y020677D01*
X010195Y020800D01*
X010256Y020862D01*
X010195Y020983D02*
X010565Y021230D01*
X010195Y021230D01*
X010195Y021352D02*
X010195Y021537D01*
X010256Y021599D01*
X010503Y021599D01*
X010565Y021537D01*
X010565Y021352D01*
X010195Y021352D01*
X010195Y020983D02*
X010565Y020983D01*
X010795Y022215D02*
X010918Y022215D01*
X010857Y022215D02*
X010857Y022585D01*
X010918Y022585D02*
X010795Y022585D01*
X011041Y022585D02*
X011041Y022215D01*
X011041Y022338D02*
X011226Y022338D01*
X011287Y022400D01*
X011287Y022524D01*
X011226Y022585D01*
X011041Y022585D01*
X011164Y022338D02*
X011287Y022215D01*
X009817Y023715D02*
X009879Y023777D01*
X009879Y024024D01*
X009817Y024085D01*
X009632Y024085D01*
X009632Y023715D01*
X009817Y023715D01*
X009510Y023715D02*
X009510Y024085D01*
X009263Y024085D02*
X009510Y023715D01*
X009263Y023715D02*
X009263Y024085D01*
X009142Y024024D02*
X009080Y024085D01*
X008957Y024085D01*
X008895Y024024D01*
X008895Y023777D01*
X008957Y023715D01*
X009080Y023715D01*
X009142Y023777D01*
X009142Y023900D01*
X009018Y023900D01*
X008510Y023838D02*
X008510Y024085D01*
X008510Y023838D02*
X008387Y023715D01*
X008263Y023838D01*
X008263Y024085D01*
X008142Y024085D02*
X007895Y024085D01*
X007895Y023900D01*
X008018Y023962D01*
X008080Y023962D01*
X008142Y023900D01*
X008142Y023777D01*
X008080Y023715D01*
X007957Y023715D01*
X007895Y023777D01*
X007930Y024415D02*
X007806Y024415D01*
X007744Y024477D01*
X007744Y024600D01*
X007806Y024662D01*
X007930Y024662D01*
X007991Y024600D01*
X007991Y024538D01*
X007744Y024538D01*
X007623Y024600D02*
X007623Y024415D01*
X007623Y024600D02*
X007561Y024662D01*
X007438Y024662D01*
X007376Y024600D01*
X007255Y024662D02*
X007070Y024662D01*
X007008Y024600D01*
X007008Y024477D01*
X007070Y024415D01*
X007255Y024415D01*
X007376Y024415D02*
X007376Y024785D01*
X007394Y024085D02*
X007271Y024085D01*
X007209Y024024D01*
X007209Y023777D01*
X007271Y023715D01*
X007394Y023715D01*
X007456Y023777D01*
X007456Y023900D01*
X007332Y023900D01*
X007456Y024024D02*
X007394Y024085D01*
X007087Y024085D02*
X006963Y024085D01*
X007025Y024085D02*
X007025Y023715D01*
X006963Y023715D02*
X007087Y023715D01*
X006842Y023777D02*
X006780Y023715D01*
X006657Y023715D01*
X006595Y023777D01*
X006657Y023900D02*
X006595Y023962D01*
X006595Y024024D01*
X006657Y024085D01*
X006780Y024085D01*
X006842Y024024D01*
X006780Y023900D02*
X006842Y023838D01*
X006842Y023777D01*
X006780Y023900D02*
X006657Y023900D01*
X006640Y024415D02*
X006825Y024415D01*
X006886Y024477D01*
X006825Y024538D01*
X006701Y024538D01*
X006640Y024600D01*
X006701Y024662D01*
X006886Y024662D01*
X006518Y024600D02*
X006518Y024415D01*
X006518Y024600D02*
X006456Y024662D01*
X006271Y024662D01*
X006271Y024415D01*
X006150Y024477D02*
X006150Y024600D01*
X006088Y024662D01*
X005965Y024662D01*
X005903Y024600D01*
X005903Y024477D01*
X005965Y024415D01*
X006088Y024415D01*
X006150Y024477D01*
X005820Y024000D02*
X005573Y024000D01*
X005758Y024185D01*
X005758Y023815D01*
X005452Y023815D02*
X005205Y023815D01*
X005328Y023815D02*
X005328Y024185D01*
X005205Y024062D01*
X005083Y024124D02*
X005083Y023877D01*
X005022Y023815D01*
X004898Y023815D01*
X004837Y023877D01*
X005083Y024124D01*
X005022Y024185D01*
X004898Y024185D01*
X004837Y024124D01*
X004837Y023877D01*
X004715Y023815D02*
X004468Y023815D01*
X004715Y024062D01*
X004715Y024124D01*
X004653Y024185D01*
X004530Y024185D01*
X004468Y024124D01*
X004491Y024415D02*
X004430Y024477D01*
X004491Y024538D01*
X004677Y024538D01*
X004677Y024600D02*
X004677Y024415D01*
X004491Y024415D01*
X004308Y024415D02*
X004246Y024477D01*
X004246Y024724D01*
X004184Y024662D02*
X004308Y024662D01*
X004491Y024662D02*
X004615Y024662D01*
X004677Y024600D01*
X004798Y024662D02*
X004983Y024662D01*
X005045Y024600D01*
X005045Y024415D01*
X004798Y024415D02*
X004798Y024662D01*
X004063Y024662D02*
X003878Y024662D01*
X003816Y024600D01*
X003878Y024538D01*
X004001Y024538D01*
X004063Y024477D01*
X004001Y024415D01*
X003816Y024415D01*
X003694Y024415D02*
X003570Y024415D01*
X003632Y024415D02*
X003632Y024662D01*
X003570Y024662D01*
X003448Y024662D02*
X003387Y024662D01*
X003263Y024538D01*
X003263Y024415D02*
X003263Y024662D01*
X003142Y024785D02*
X002895Y024785D01*
X003018Y024785D02*
X003018Y024415D01*
X002995Y024185D02*
X003242Y023815D01*
X003242Y024185D01*
X003425Y024062D02*
X003363Y024000D01*
X003363Y023877D01*
X003425Y023815D01*
X003548Y023815D01*
X003610Y023877D01*
X003610Y024000D01*
X003548Y024062D01*
X003425Y024062D01*
X003732Y024062D02*
X003855Y023815D01*
X003979Y024062D01*
X003632Y024785D02*
X003632Y024847D01*
X002995Y024185D02*
X002995Y023815D01*
X003056Y021699D02*
X002995Y021637D01*
X002995Y021452D01*
X003365Y021452D01*
X003365Y021637D01*
X003303Y021699D01*
X003056Y021699D01*
X002995Y021330D02*
X003365Y021330D01*
X002995Y021083D01*
X003365Y021083D01*
X003303Y020962D02*
X003180Y020962D01*
X003180Y020838D01*
X003303Y020715D02*
X003056Y020715D01*
X002995Y020777D01*
X002995Y020900D01*
X003056Y020962D01*
X003303Y020962D02*
X003365Y020900D01*
X003365Y020777D01*
X003303Y020715D01*
X003303Y020430D02*
X003056Y020430D01*
X002995Y020368D01*
X002995Y020183D01*
X003365Y020183D01*
X003365Y020368D01*
X003303Y020430D01*
X003303Y020062D02*
X003242Y020062D01*
X003180Y020000D01*
X003180Y019877D01*
X003118Y019815D01*
X003056Y019815D01*
X002995Y019877D01*
X002995Y020000D01*
X003056Y020062D01*
X003303Y020062D02*
X003365Y020000D01*
X003365Y019877D01*
X003303Y019815D01*
X003303Y019599D02*
X003242Y019599D01*
X003180Y019537D01*
X003180Y019475D01*
X003180Y019537D02*
X003118Y019599D01*
X003056Y019599D01*
X002995Y019537D01*
X002995Y019413D01*
X003056Y019352D01*
X002995Y019230D02*
X003242Y019230D01*
X003365Y019107D01*
X003242Y018983D01*
X002995Y018983D01*
X003056Y018862D02*
X003118Y018862D01*
X003180Y018800D01*
X003242Y018862D01*
X003303Y018862D01*
X003365Y018800D01*
X003365Y018677D01*
X003303Y018615D01*
X003180Y018738D02*
X003180Y018800D01*
X003056Y018862D02*
X002995Y018800D01*
X002995Y018677D01*
X003056Y018615D01*
X003365Y018299D02*
X003365Y018052D01*
X002995Y018052D01*
X003056Y017930D02*
X002995Y017868D01*
X002995Y017745D01*
X003056Y017683D01*
X003303Y017683D01*
X003365Y017745D01*
X003365Y017868D01*
X003303Y017930D01*
X003303Y017562D02*
X003242Y017562D01*
X003180Y017500D01*
X003180Y017377D01*
X003118Y017315D01*
X003056Y017315D01*
X002995Y017377D01*
X002995Y017500D01*
X003056Y017562D01*
X003303Y017562D02*
X003365Y017500D01*
X003365Y017377D01*
X003303Y017315D01*
X003303Y019352D02*
X003365Y019413D01*
X003365Y019537D01*
X003303Y019599D01*
X005535Y024415D02*
X005535Y024785D01*
X005535Y024600D02*
X005781Y024600D01*
X005781Y024785D02*
X005781Y024415D01*
X008113Y024415D02*
X008236Y024415D01*
X008175Y024415D02*
X008175Y024662D01*
X008113Y024662D01*
X008175Y024785D02*
X008175Y024847D01*
X008420Y024662D02*
X008605Y024662D01*
X008605Y024785D02*
X008605Y024415D01*
X008420Y024415D01*
X008358Y024477D01*
X008358Y024600D01*
X008420Y024662D01*
X010356Y019238D02*
X010603Y019238D01*
X003012Y006785D02*
X003074Y006724D01*
X003074Y006600D01*
X003012Y006538D01*
X002827Y006538D01*
X002705Y006538D02*
X002705Y006477D01*
X002644Y006415D01*
X002520Y006415D01*
X002458Y006477D01*
X002336Y006415D02*
X002213Y006415D01*
X002275Y006415D02*
X002275Y006785D01*
X002336Y006785D02*
X002213Y006785D01*
X002458Y006724D02*
X002458Y006662D01*
X002520Y006600D01*
X002644Y006600D01*
X002705Y006538D01*
X002827Y006415D02*
X002827Y006785D01*
X003012Y006785D01*
X002705Y006724D02*
X002644Y006785D01*
X002520Y006785D01*
X002458Y006724D01*
D11*
X002396Y004872D02*
X002396Y003928D01*
X002986Y003928D01*
X002986Y004872D02*
X002396Y004872D01*
X001930Y007100D02*
X003430Y007100D01*
X003680Y007350D01*
X003680Y007850D01*
X003430Y008100D01*
X001930Y008100D01*
X001680Y007850D01*
X001680Y007350D01*
X001930Y007100D01*
X001930Y008100D02*
X001680Y008350D01*
X001680Y008850D01*
X001930Y009100D01*
X003430Y009100D01*
X003680Y008850D01*
X003680Y008350D01*
X003430Y008100D01*
X003430Y009100D02*
X003680Y009350D01*
X003680Y009850D01*
X003430Y010100D01*
X001930Y010100D01*
X001680Y009850D01*
X001680Y009350D01*
X001930Y009100D01*
X001548Y009350D02*
X001548Y009850D01*
X000890Y013850D02*
X003470Y013850D01*
X003470Y015150D01*
X000890Y015150D01*
X000890Y013850D01*
X003980Y012150D02*
X004380Y012150D01*
X003696Y011600D02*
X003698Y011662D01*
X003704Y011725D01*
X003714Y011786D01*
X003728Y011847D01*
X003745Y011907D01*
X003766Y011966D01*
X003792Y012023D01*
X003820Y012078D01*
X003852Y012132D01*
X003888Y012183D01*
X003926Y012233D01*
X003968Y012279D01*
X004012Y012323D01*
X004060Y012364D01*
X004109Y012402D01*
X004161Y012436D01*
X004215Y012467D01*
X004271Y012495D01*
X004329Y012519D01*
X004388Y012540D01*
X004448Y012556D01*
X004509Y012569D01*
X004571Y012578D01*
X004633Y012583D01*
X004696Y012584D01*
X004758Y012581D01*
X004820Y012574D01*
X004882Y012563D01*
X004942Y012548D01*
X005002Y012530D01*
X005060Y012508D01*
X005117Y012482D01*
X005172Y012452D01*
X005225Y012419D01*
X005276Y012383D01*
X005324Y012344D01*
X005370Y012301D01*
X005413Y012256D01*
X005453Y012208D01*
X005490Y012158D01*
X005524Y012105D01*
X005555Y012051D01*
X005581Y011995D01*
X005605Y011937D01*
X005624Y011877D01*
X005640Y011817D01*
X005652Y011755D01*
X005660Y011694D01*
X005664Y011631D01*
X005664Y011569D01*
X005660Y011506D01*
X005652Y011445D01*
X005640Y011383D01*
X005624Y011323D01*
X005605Y011263D01*
X005581Y011205D01*
X005555Y011149D01*
X005524Y011095D01*
X005490Y011042D01*
X005453Y010992D01*
X005413Y010944D01*
X005370Y010899D01*
X005324Y010856D01*
X005276Y010817D01*
X005225Y010781D01*
X005172Y010748D01*
X005117Y010718D01*
X005060Y010692D01*
X005002Y010670D01*
X004942Y010652D01*
X004882Y010637D01*
X004820Y010626D01*
X004758Y010619D01*
X004696Y010616D01*
X004633Y010617D01*
X004571Y010622D01*
X004509Y010631D01*
X004448Y010644D01*
X004388Y010660D01*
X004329Y010681D01*
X004271Y010705D01*
X004215Y010733D01*
X004161Y010764D01*
X004109Y010798D01*
X004060Y010836D01*
X004012Y010877D01*
X003968Y010921D01*
X003926Y010967D01*
X003888Y011017D01*
X003852Y011068D01*
X003820Y011122D01*
X003792Y011177D01*
X003766Y011234D01*
X003745Y011293D01*
X003728Y011353D01*
X003714Y011414D01*
X003704Y011475D01*
X003698Y011538D01*
X003696Y011600D01*
X007180Y009850D02*
X007180Y007350D01*
X012180Y007350D01*
X012180Y009850D01*
X007180Y009850D01*
X004207Y004872D02*
X004364Y004715D01*
X004364Y004085D01*
X004207Y003928D01*
X003774Y003928D01*
X003774Y004872D02*
X004207Y004872D01*
X010180Y004350D02*
X010180Y003850D01*
X010430Y003600D01*
X010930Y003600D01*
X011180Y003850D01*
X011430Y003600D01*
X011930Y003600D01*
X012180Y003850D01*
X012430Y003600D01*
X012930Y003600D01*
X013180Y003850D01*
X013180Y004350D01*
X012930Y004600D01*
X012430Y004600D01*
X012180Y004350D01*
X011930Y004600D01*
X011430Y004600D01*
X011180Y004350D01*
X010930Y004600D01*
X010430Y004600D01*
X010180Y004350D01*
X012674Y015081D02*
X012886Y015081D01*
X013340Y015231D02*
X013340Y015569D01*
X012220Y015569D02*
X012220Y015231D01*
X013282Y018911D02*
X010841Y018911D01*
X010841Y021667D01*
X013282Y021667D01*
X013282Y018911D01*
X013597Y018911D01*
X013597Y021667D01*
X013282Y021667D01*
X009680Y022850D02*
X009680Y023350D01*
X009430Y023600D01*
X008930Y023600D01*
X008680Y023350D01*
X008430Y023600D01*
X007930Y023600D01*
X007680Y023350D01*
X007430Y023600D01*
X006930Y023600D01*
X006680Y023350D01*
X006680Y022850D01*
X006930Y022600D01*
X007430Y022600D01*
X007680Y022850D01*
X007930Y022600D01*
X008430Y022600D01*
X008680Y022850D01*
X008930Y022600D01*
X009430Y022600D01*
X009680Y022850D01*
X003596Y020300D02*
X003598Y020362D01*
X003604Y020425D01*
X003614Y020486D01*
X003628Y020547D01*
X003645Y020607D01*
X003666Y020666D01*
X003692Y020723D01*
X003720Y020778D01*
X003752Y020832D01*
X003788Y020883D01*
X003826Y020933D01*
X003868Y020979D01*
X003912Y021023D01*
X003960Y021064D01*
X004009Y021102D01*
X004061Y021136D01*
X004115Y021167D01*
X004171Y021195D01*
X004229Y021219D01*
X004288Y021240D01*
X004348Y021256D01*
X004409Y021269D01*
X004471Y021278D01*
X004533Y021283D01*
X004596Y021284D01*
X004658Y021281D01*
X004720Y021274D01*
X004782Y021263D01*
X004842Y021248D01*
X004902Y021230D01*
X004960Y021208D01*
X005017Y021182D01*
X005072Y021152D01*
X005125Y021119D01*
X005176Y021083D01*
X005224Y021044D01*
X005270Y021001D01*
X005313Y020956D01*
X005353Y020908D01*
X005390Y020858D01*
X005424Y020805D01*
X005455Y020751D01*
X005481Y020695D01*
X005505Y020637D01*
X005524Y020577D01*
X005540Y020517D01*
X005552Y020455D01*
X005560Y020394D01*
X005564Y020331D01*
X005564Y020269D01*
X005560Y020206D01*
X005552Y020145D01*
X005540Y020083D01*
X005524Y020023D01*
X005505Y019963D01*
X005481Y019905D01*
X005455Y019849D01*
X005424Y019795D01*
X005390Y019742D01*
X005353Y019692D01*
X005313Y019644D01*
X005270Y019599D01*
X005224Y019556D01*
X005176Y019517D01*
X005125Y019481D01*
X005072Y019448D01*
X005017Y019418D01*
X004960Y019392D01*
X004902Y019370D01*
X004842Y019352D01*
X004782Y019337D01*
X004720Y019326D01*
X004658Y019319D01*
X004596Y019316D01*
X004533Y019317D01*
X004471Y019322D01*
X004409Y019331D01*
X004348Y019344D01*
X004288Y019360D01*
X004229Y019381D01*
X004171Y019405D01*
X004115Y019433D01*
X004061Y019464D01*
X004009Y019498D01*
X003960Y019536D01*
X003912Y019577D01*
X003868Y019621D01*
X003826Y019667D01*
X003788Y019717D01*
X003752Y019768D01*
X003720Y019822D01*
X003692Y019877D01*
X003666Y019934D01*
X003645Y019993D01*
X003628Y020053D01*
X003614Y020114D01*
X003604Y020175D01*
X003598Y020238D01*
X003596Y020300D01*
X004030Y020000D02*
X004030Y019600D01*
D12*
X002880Y017600D02*
X002880Y021600D01*
X000680Y021600D01*
X000680Y021100D01*
X001180Y021100D01*
X001180Y018100D01*
X000680Y018100D01*
X000680Y021100D01*
X000680Y018100D02*
X000680Y017600D01*
X002880Y017600D01*
X007430Y007850D02*
X007432Y007881D01*
X007438Y007912D01*
X007448Y007942D01*
X007461Y007970D01*
X007478Y007997D01*
X007498Y008021D01*
X007521Y008043D01*
X007546Y008061D01*
X007574Y008076D01*
X007603Y008088D01*
X007633Y008096D01*
X007664Y008100D01*
X007696Y008100D01*
X007727Y008096D01*
X007757Y008088D01*
X007786Y008076D01*
X007814Y008061D01*
X007839Y008043D01*
X007862Y008021D01*
X007882Y007997D01*
X007899Y007970D01*
X007912Y007942D01*
X007922Y007912D01*
X007928Y007881D01*
X007930Y007850D01*
X007928Y007819D01*
X007922Y007788D01*
X007912Y007758D01*
X007899Y007730D01*
X007882Y007703D01*
X007862Y007679D01*
X007839Y007657D01*
X007814Y007639D01*
X007786Y007624D01*
X007757Y007612D01*
X007727Y007604D01*
X007696Y007600D01*
X007664Y007600D01*
X007633Y007604D01*
X007603Y007612D01*
X007574Y007624D01*
X007546Y007639D01*
X007521Y007657D01*
X007498Y007679D01*
X007478Y007703D01*
X007461Y007730D01*
X007448Y007758D01*
X007438Y007788D01*
X007432Y007819D01*
X007430Y007850D01*
X009280Y002900D02*
X009280Y002400D01*
X004280Y002400D01*
X004280Y002900D01*
X009280Y002900D01*
X009780Y002900D01*
X009780Y000700D01*
X003780Y000700D01*
X003780Y002900D01*
X004280Y002900D01*
X003530Y004000D02*
X003530Y004800D01*
D13*
X011420Y017140D02*
X011420Y017660D01*
X012540Y017660D01*
X012540Y017140D01*
X011420Y017140D01*
X009340Y020440D02*
X009340Y021560D01*
X008820Y021560D01*
X008820Y020440D01*
X009340Y020440D01*
M02*
