%
M48
M72
T01C0.0236
T02C0.0276
T03C0.0315
T04C0.0400
T05C0.0433
T06C0.0472
T07C0.0512
T08C0.0827
T09C0.1300
%
T01
X1880Y4600
X4680Y9500
X6580Y7200
X7180Y3300
X12680Y5600
T02
X5180Y11600
X4180Y11600
X4580Y19800
X4580Y20800
T03
X5980Y17700
X8880Y19800
X12280Y14200
X12980Y13000
X12680Y10400
X11880Y9000
X11380Y13700
X8180Y11600
X4680Y7500
T04
X3180Y7600
X3180Y8600
X3180Y9600
X2180Y9600
X2180Y8600
X2180Y7600
X4280Y1900
X5280Y1900
X6280Y1900
X7280Y1900
X8280Y1900
X9280Y1900
X10680Y4100
X11680Y4100
X12680Y4100
X9180Y23100
X8180Y23100
X7180Y23100
X1680Y21100
X1680Y20100
X1680Y19100
X1680Y18100
T05
X5999Y18856
X6786Y18856
X7574Y18856
X8361Y18856
X8164Y13147
X7180Y13147
X6196Y13147
T06
X12180Y19600
X12180Y20978
T07
X13080Y17000
X1980Y16800
T08
X4995Y16100
X9365Y16100
T09
X1680Y1600
X12680Y1600
X12680Y23600
X1680Y23600
M30
