G75*
%MOIN*%
%OFA0B0*%
%FSLAX24Y24*%
%IPPOS*%
%LPD*%
%AMOC8*
5,1,8,0,0,1.08239X$1,22.5*
%
%ADD10R,0.0551X0.0630*%
%ADD11R,0.0710X0.0630*%
%ADD12R,0.0551X0.0394*%
%ADD13R,0.0709X0.0630*%
%ADD14R,0.0630X0.0709*%
%ADD15R,0.0500X0.0250*%
%ADD16R,0.0900X0.0960*%
%ADD17R,0.0098X0.0315*%
D10*
X001549Y024300D03*
X002651Y024300D03*
D11*
X022000Y021860D03*
X022000Y020740D03*
D12*
X014533Y020726D03*
X014533Y020074D03*
X014533Y019326D03*
X014533Y018674D03*
X014533Y017926D03*
X014533Y017274D03*
X014533Y016526D03*
X014533Y015874D03*
X014533Y015126D03*
X014533Y014474D03*
X014533Y013726D03*
X014533Y013074D03*
X014533Y012326D03*
X014533Y011674D03*
X014533Y010926D03*
X014533Y010174D03*
X014533Y009426D03*
X014533Y008674D03*
X014533Y007926D03*
X014533Y007174D03*
X014533Y006426D03*
X014533Y005674D03*
X014533Y004926D03*
X014533Y004174D03*
X014533Y003426D03*
X014533Y002674D03*
X014533Y001926D03*
X013667Y002300D03*
X013667Y003800D03*
X013667Y005300D03*
X013667Y006800D03*
X013667Y008300D03*
X013667Y009800D03*
X013667Y011300D03*
X013667Y012700D03*
X013667Y014100D03*
X013667Y015500D03*
X013667Y016900D03*
X013667Y018300D03*
X013667Y019700D03*
X013667Y021100D03*
X014533Y021474D03*
X014533Y022126D03*
X014533Y022874D03*
X014533Y023526D03*
X014533Y024274D03*
X013667Y023900D03*
X013667Y022500D03*
X008733Y023000D03*
X007867Y022626D03*
X007867Y021974D03*
X007867Y021226D03*
X007867Y020574D03*
X007867Y019826D03*
X007867Y019174D03*
X007867Y018426D03*
X007867Y017774D03*
X007867Y017026D03*
X007867Y016374D03*
X007867Y015626D03*
X007867Y014974D03*
X007867Y014226D03*
X008733Y014600D03*
X008733Y016000D03*
X008733Y017400D03*
X008733Y018800D03*
X008733Y020200D03*
X008733Y021600D03*
X007867Y023374D03*
X007867Y024026D03*
X007867Y024774D03*
X008733Y024400D03*
X007867Y012774D03*
X007867Y012026D03*
X007867Y011374D03*
X007867Y010626D03*
X007867Y009974D03*
X007867Y009226D03*
X007867Y008574D03*
X007867Y007826D03*
X007867Y007174D03*
X007867Y006426D03*
X007867Y005774D03*
X007867Y005026D03*
X007867Y004374D03*
X007867Y003626D03*
X007867Y002974D03*
X007867Y002226D03*
X008733Y002600D03*
X008733Y004000D03*
X008733Y005400D03*
X008733Y006800D03*
X008733Y008200D03*
X008733Y009600D03*
X008733Y011000D03*
X008733Y012400D03*
D13*
X022000Y022849D03*
X022000Y023951D03*
D14*
X000949Y005900D03*
X002051Y005900D03*
D15*
X007000Y026538D03*
X007000Y026862D03*
D16*
X007000Y026700D03*
D17*
X004460Y012650D03*
X004200Y012650D03*
X003940Y012650D03*
X003680Y012650D03*
X003420Y012650D03*
X003160Y012650D03*
X002900Y012652D03*
X002640Y012650D03*
X002380Y012650D03*
X002120Y012650D03*
X001860Y012650D03*
X001600Y012650D03*
X001340Y012650D03*
X001080Y012650D03*
X001080Y010350D03*
X001340Y010350D03*
X001600Y010350D03*
X001860Y010350D03*
X002120Y010350D03*
X002380Y010350D03*
X002640Y010350D03*
X002900Y010348D03*
X003160Y010350D03*
X003420Y010350D03*
X003680Y010350D03*
X003940Y010350D03*
X004200Y010350D03*
X004460Y010350D03*
X018340Y010450D03*
X018600Y010450D03*
X018860Y010450D03*
X019120Y010450D03*
X019380Y010450D03*
X019640Y010450D03*
X019900Y010448D03*
X020160Y010450D03*
X020420Y010450D03*
X020680Y010450D03*
X020940Y010450D03*
X021200Y010450D03*
X021460Y010450D03*
X021720Y010450D03*
X021720Y012750D03*
X021460Y012750D03*
X021200Y012750D03*
X020940Y012750D03*
X020680Y012750D03*
X020420Y012750D03*
X020160Y012750D03*
X019900Y012752D03*
X019640Y012750D03*
X019380Y012750D03*
X019120Y012750D03*
X018860Y012750D03*
X018600Y012750D03*
X018340Y012750D03*
M02*
