%
M48
M72
T01C0.0236
T02C0.0354
T03C0.0400
T04C0.0472
T05C0.0551
T06C0.1300
%
T01
X3200Y5400
X3300Y6200
X4000Y6300
X1000Y7400
X1600Y11000
X1600Y11600
X2800Y11100
X3400Y11300
X4100Y11300
X1800Y14100
X18600Y11900
X20700Y11900
X20700Y11200
X21700Y16000
T02
X22000Y19700
X1000Y23600
T03
X2100Y22700
X2100Y21700
X2100Y20700
X2100Y19700
X2100Y18700
X2100Y17700
X10700Y17400
X10700Y18400
X10700Y19400
X10700Y20400
X10700Y21400
X10700Y22400
X10700Y23400
X10700Y24400
X10700Y25400
X10700Y26400
X11700Y26400
X11700Y25400
X11700Y24400
X11700Y23400
X11700Y22400
X11700Y21400
X11700Y20400
X11700Y19400
X11700Y18400
X11700Y17400
X11700Y16400
X11700Y15400
X11700Y14400
X11700Y13400
X11700Y12400
X11700Y11400
X11700Y10400
X11700Y9400
X11700Y8400
X11700Y7400
X11700Y6400
X11700Y5400
X11700Y4400
X11700Y3400
X11700Y2400
X10700Y2400
X10700Y3400
X10700Y4400
X10700Y5400
X10700Y6400
X10700Y7400
X10700Y8400
X10700Y9400
X10700Y10400
X10700Y11400
X10700Y12400
X10700Y13400
X10700Y14400
X10700Y15400
X10700Y16400
T04
X15122Y26500
X16500Y26500
X18922Y26500
X20300Y26500
X5500Y26500
X4122Y26500
T05
X5500Y24000
X6500Y22600
X6500Y21200
X6500Y19800
X6500Y18400
X6700Y17000
X6500Y15600
X6500Y13900
X6500Y12100
X6500Y10700
X6500Y9300
X6500Y7900
X6500Y6500
X6500Y5100
X6500Y3700
X6500Y2100
X16100Y2600
X16100Y4200
X16100Y5700
X16100Y7200
X16100Y8700
X16100Y10200
X16100Y11700
X16100Y13100
X16100Y14500
X16100Y15900
X16100Y17300
X16100Y18700
X16100Y20100
X16400Y21500
X17800Y22900
X19000Y24300
T06
X1900Y1800
X21200Y1900
X1500Y26700
M30
