G75*
%MOIN*%
%OFA0B0*%
%FSLAX24Y24*%
%IPPOS*%
%LPD*%
%AMOC8*
5,1,8,0,0,1.08239X$1,22.5*
%
%ADD10C,0.0000*%
%ADD11R,0.0551X0.0630*%
%ADD12R,0.0740X0.0740*%
%ADD13C,0.0740*%
%ADD14OC8,0.0600*%
%ADD15R,0.0800X0.0800*%
%ADD16C,0.0800*%
%ADD17R,0.0710X0.0630*%
%ADD18R,0.0551X0.0394*%
%ADD19R,0.0709X0.0630*%
%ADD20R,0.0630X0.0709*%
%ADD21R,0.0500X0.0250*%
%ADD22R,0.0250X0.0500*%
%ADD23R,0.0098X0.0315*%
%ADD24C,0.0500*%
%ADD25R,0.0827X0.0827*%
%ADD26C,0.0120*%
%ADD27C,0.0240*%
%ADD28R,0.0396X0.0396*%
%ADD29R,0.0531X0.0531*%
D10*
X000100Y000100D02*
X000100Y028396D01*
X022970Y028396D01*
X022970Y000100D01*
X000100Y000100D01*
X001250Y001800D02*
X001252Y001850D01*
X001258Y001900D01*
X001268Y001950D01*
X001281Y001998D01*
X001298Y002046D01*
X001319Y002092D01*
X001343Y002136D01*
X001371Y002178D01*
X001402Y002218D01*
X001436Y002255D01*
X001473Y002290D01*
X001512Y002321D01*
X001553Y002350D01*
X001597Y002375D01*
X001643Y002397D01*
X001690Y002415D01*
X001738Y002429D01*
X001787Y002440D01*
X001837Y002447D01*
X001887Y002450D01*
X001938Y002449D01*
X001988Y002444D01*
X002038Y002435D01*
X002086Y002423D01*
X002134Y002406D01*
X002180Y002386D01*
X002225Y002363D01*
X002268Y002336D01*
X002308Y002306D01*
X002346Y002273D01*
X002381Y002237D01*
X002414Y002198D01*
X002443Y002157D01*
X002469Y002114D01*
X002492Y002069D01*
X002511Y002022D01*
X002526Y001974D01*
X002538Y001925D01*
X002546Y001875D01*
X002550Y001825D01*
X002550Y001775D01*
X002546Y001725D01*
X002538Y001675D01*
X002526Y001626D01*
X002511Y001578D01*
X002492Y001531D01*
X002469Y001486D01*
X002443Y001443D01*
X002414Y001402D01*
X002381Y001363D01*
X002346Y001327D01*
X002308Y001294D01*
X002268Y001264D01*
X002225Y001237D01*
X002180Y001214D01*
X002134Y001194D01*
X002086Y001177D01*
X002038Y001165D01*
X001988Y001156D01*
X001938Y001151D01*
X001887Y001150D01*
X001837Y001153D01*
X001787Y001160D01*
X001738Y001171D01*
X001690Y001185D01*
X001643Y001203D01*
X001597Y001225D01*
X001553Y001250D01*
X001512Y001279D01*
X001473Y001310D01*
X001436Y001345D01*
X001402Y001382D01*
X001371Y001422D01*
X001343Y001464D01*
X001319Y001508D01*
X001298Y001554D01*
X001281Y001602D01*
X001268Y001650D01*
X001258Y001700D01*
X001252Y001750D01*
X001250Y001800D01*
X020550Y001900D02*
X020552Y001950D01*
X020558Y002000D01*
X020568Y002050D01*
X020581Y002098D01*
X020598Y002146D01*
X020619Y002192D01*
X020643Y002236D01*
X020671Y002278D01*
X020702Y002318D01*
X020736Y002355D01*
X020773Y002390D01*
X020812Y002421D01*
X020853Y002450D01*
X020897Y002475D01*
X020943Y002497D01*
X020990Y002515D01*
X021038Y002529D01*
X021087Y002540D01*
X021137Y002547D01*
X021187Y002550D01*
X021238Y002549D01*
X021288Y002544D01*
X021338Y002535D01*
X021386Y002523D01*
X021434Y002506D01*
X021480Y002486D01*
X021525Y002463D01*
X021568Y002436D01*
X021608Y002406D01*
X021646Y002373D01*
X021681Y002337D01*
X021714Y002298D01*
X021743Y002257D01*
X021769Y002214D01*
X021792Y002169D01*
X021811Y002122D01*
X021826Y002074D01*
X021838Y002025D01*
X021846Y001975D01*
X021850Y001925D01*
X021850Y001875D01*
X021846Y001825D01*
X021838Y001775D01*
X021826Y001726D01*
X021811Y001678D01*
X021792Y001631D01*
X021769Y001586D01*
X021743Y001543D01*
X021714Y001502D01*
X021681Y001463D01*
X021646Y001427D01*
X021608Y001394D01*
X021568Y001364D01*
X021525Y001337D01*
X021480Y001314D01*
X021434Y001294D01*
X021386Y001277D01*
X021338Y001265D01*
X021288Y001256D01*
X021238Y001251D01*
X021187Y001250D01*
X021137Y001253D01*
X021087Y001260D01*
X021038Y001271D01*
X020990Y001285D01*
X020943Y001303D01*
X020897Y001325D01*
X020853Y001350D01*
X020812Y001379D01*
X020773Y001410D01*
X020736Y001445D01*
X020702Y001482D01*
X020671Y001522D01*
X020643Y001564D01*
X020619Y001608D01*
X020598Y001654D01*
X020581Y001702D01*
X020568Y001750D01*
X020558Y001800D01*
X020552Y001850D01*
X020550Y001900D01*
X000850Y026700D02*
X000852Y026750D01*
X000858Y026800D01*
X000868Y026850D01*
X000881Y026898D01*
X000898Y026946D01*
X000919Y026992D01*
X000943Y027036D01*
X000971Y027078D01*
X001002Y027118D01*
X001036Y027155D01*
X001073Y027190D01*
X001112Y027221D01*
X001153Y027250D01*
X001197Y027275D01*
X001243Y027297D01*
X001290Y027315D01*
X001338Y027329D01*
X001387Y027340D01*
X001437Y027347D01*
X001487Y027350D01*
X001538Y027349D01*
X001588Y027344D01*
X001638Y027335D01*
X001686Y027323D01*
X001734Y027306D01*
X001780Y027286D01*
X001825Y027263D01*
X001868Y027236D01*
X001908Y027206D01*
X001946Y027173D01*
X001981Y027137D01*
X002014Y027098D01*
X002043Y027057D01*
X002069Y027014D01*
X002092Y026969D01*
X002111Y026922D01*
X002126Y026874D01*
X002138Y026825D01*
X002146Y026775D01*
X002150Y026725D01*
X002150Y026675D01*
X002146Y026625D01*
X002138Y026575D01*
X002126Y026526D01*
X002111Y026478D01*
X002092Y026431D01*
X002069Y026386D01*
X002043Y026343D01*
X002014Y026302D01*
X001981Y026263D01*
X001946Y026227D01*
X001908Y026194D01*
X001868Y026164D01*
X001825Y026137D01*
X001780Y026114D01*
X001734Y026094D01*
X001686Y026077D01*
X001638Y026065D01*
X001588Y026056D01*
X001538Y026051D01*
X001487Y026050D01*
X001437Y026053D01*
X001387Y026060D01*
X001338Y026071D01*
X001290Y026085D01*
X001243Y026103D01*
X001197Y026125D01*
X001153Y026150D01*
X001112Y026179D01*
X001073Y026210D01*
X001036Y026245D01*
X001002Y026282D01*
X000971Y026322D01*
X000943Y026364D01*
X000919Y026408D01*
X000898Y026454D01*
X000881Y026502D01*
X000868Y026550D01*
X000858Y026600D01*
X000852Y026650D01*
X000850Y026700D01*
D11*
X001549Y024300D03*
X002651Y024300D03*
D12*
X002100Y017700D03*
D13*
X002100Y018700D03*
X002100Y019700D03*
X002100Y020700D03*
X002100Y021700D03*
X002100Y022700D03*
D14*
X010700Y022400D03*
X010700Y021400D03*
X010700Y020400D03*
X010700Y019400D03*
X010700Y018400D03*
X010700Y017400D03*
X010700Y016400D03*
X010700Y015400D03*
X010700Y014400D03*
X010700Y013400D03*
X010700Y012400D03*
X010700Y011400D03*
X010700Y010400D03*
X010700Y009400D03*
X010700Y008400D03*
X010700Y007400D03*
X010700Y006400D03*
X010700Y005400D03*
X010700Y004400D03*
X010700Y003400D03*
X010700Y002400D03*
X011700Y002400D03*
X011700Y003400D03*
X011700Y004400D03*
X011700Y005400D03*
X011700Y006400D03*
X011700Y007400D03*
X011700Y008400D03*
X011700Y009400D03*
X011700Y010400D03*
X011700Y011400D03*
X011700Y012400D03*
X011700Y013400D03*
X011700Y014400D03*
X011700Y015400D03*
X011700Y016400D03*
X011700Y017400D03*
X011700Y018400D03*
X011700Y019400D03*
X011700Y020400D03*
X011700Y021400D03*
X011700Y022400D03*
X011700Y023400D03*
X011700Y024400D03*
X011700Y025400D03*
X011700Y026400D03*
X010700Y026400D03*
X010700Y025400D03*
X010700Y024400D03*
X010700Y023400D03*
D15*
X005500Y026500D03*
X016500Y026500D03*
X020300Y026500D03*
D16*
X018922Y026500D03*
X015122Y026500D03*
X004122Y026500D03*
D17*
X022000Y021860D03*
X022000Y020740D03*
D18*
X014533Y020726D03*
X014533Y020074D03*
X014533Y019326D03*
X014533Y018674D03*
X014533Y017926D03*
X014533Y017274D03*
X014533Y016526D03*
X014533Y015874D03*
X014533Y015126D03*
X014533Y014474D03*
X014533Y013726D03*
X014533Y013074D03*
X014533Y012326D03*
X014533Y011674D03*
X014533Y010926D03*
X014533Y010174D03*
X014533Y009426D03*
X014533Y008674D03*
X014533Y007926D03*
X014533Y007174D03*
X014533Y006426D03*
X014533Y005674D03*
X014533Y004926D03*
X014533Y004174D03*
X014533Y003426D03*
X014533Y002674D03*
X014533Y001926D03*
X013667Y002300D03*
X013667Y003800D03*
X013667Y005300D03*
X013667Y006800D03*
X013667Y008300D03*
X013667Y009800D03*
X013667Y011300D03*
X013667Y012700D03*
X013667Y014100D03*
X013667Y015500D03*
X013667Y016900D03*
X013667Y018300D03*
X013667Y019700D03*
X013667Y021100D03*
X014533Y021474D03*
X014533Y022126D03*
X014533Y022874D03*
X014533Y023526D03*
X014533Y024274D03*
X013667Y023900D03*
X013667Y022500D03*
X008733Y023000D03*
X007867Y022626D03*
X007867Y021974D03*
X007867Y021226D03*
X007867Y020574D03*
X007867Y019826D03*
X007867Y019174D03*
X007867Y018426D03*
X007867Y017774D03*
X007867Y017026D03*
X007867Y016374D03*
X007867Y015626D03*
X007867Y014974D03*
X007867Y014226D03*
X008733Y014600D03*
X008733Y016000D03*
X008733Y017400D03*
X008733Y018800D03*
X008733Y020200D03*
X008733Y021600D03*
X007867Y023374D03*
X007867Y024026D03*
X007867Y024774D03*
X008733Y024400D03*
X007867Y012774D03*
X007867Y012026D03*
X007867Y011374D03*
X007867Y010626D03*
X007867Y009974D03*
X007867Y009226D03*
X007867Y008574D03*
X007867Y007826D03*
X007867Y007174D03*
X007867Y006426D03*
X007867Y005774D03*
X007867Y005026D03*
X007867Y004374D03*
X007867Y003626D03*
X007867Y002974D03*
X007867Y002226D03*
X008733Y002600D03*
X008733Y004000D03*
X008733Y005400D03*
X008733Y006800D03*
X008733Y008200D03*
X008733Y009600D03*
X008733Y011000D03*
X008733Y012400D03*
D19*
X022000Y022849D03*
X022000Y023951D03*
D20*
X002051Y005900D03*
X000949Y005900D03*
D21*
X007000Y026538D03*
X007000Y026862D03*
D22*
X020950Y015100D03*
X021300Y015100D03*
X021650Y015100D03*
X021650Y014000D03*
X021300Y014000D03*
X020950Y014000D03*
X001850Y009100D03*
X001500Y009100D03*
X001150Y009100D03*
X001150Y008100D03*
X001500Y008100D03*
X001850Y008100D03*
D23*
X001860Y010350D03*
X001600Y010350D03*
X001340Y010350D03*
X001080Y010350D03*
X002120Y010350D03*
X002380Y010350D03*
X002640Y010350D03*
X002900Y010348D03*
X003160Y010350D03*
X003420Y010350D03*
X003680Y010350D03*
X003940Y010350D03*
X004200Y010350D03*
X004460Y010350D03*
X004460Y012650D03*
X004200Y012650D03*
X003940Y012650D03*
X003680Y012650D03*
X003420Y012650D03*
X003160Y012650D03*
X002900Y012652D03*
X002640Y012650D03*
X002380Y012650D03*
X002120Y012650D03*
X001860Y012650D03*
X001600Y012650D03*
X001340Y012650D03*
X001080Y012650D03*
X018340Y012750D03*
X018600Y012750D03*
X018860Y012750D03*
X019120Y012750D03*
X019380Y012750D03*
X019640Y012750D03*
X019900Y012752D03*
X020160Y012750D03*
X020420Y012750D03*
X020680Y012750D03*
X020940Y012750D03*
X021200Y012750D03*
X021460Y012750D03*
X021720Y012750D03*
X021720Y010450D03*
X021460Y010450D03*
X021200Y010450D03*
X020940Y010450D03*
X020680Y010450D03*
X020420Y010450D03*
X020160Y010450D03*
X019900Y010448D03*
X019640Y010450D03*
X019380Y010450D03*
X019120Y010450D03*
X018860Y010450D03*
X018600Y010450D03*
X018340Y010450D03*
D24*
X016100Y010200D02*
X016074Y010174D01*
X014533Y010174D01*
X013667Y009800D02*
X013267Y009400D01*
X011700Y009400D01*
X011700Y008400D02*
X013567Y008400D01*
X013667Y008300D01*
X014533Y008674D02*
X015974Y008674D01*
X016100Y008700D01*
X016100Y007200D02*
X015974Y007174D01*
X014533Y007174D01*
X013667Y006800D02*
X013267Y006400D01*
X011700Y006400D01*
X011700Y005400D02*
X013567Y005400D01*
X013667Y005300D01*
X014533Y005674D02*
X015974Y005674D01*
X016100Y005700D01*
X016100Y004200D02*
X016074Y004174D01*
X014533Y004174D01*
X013667Y003800D02*
X013267Y003400D01*
X011700Y003400D01*
X011700Y002400D02*
X013567Y002400D01*
X013667Y002300D01*
X014533Y002674D02*
X015926Y002674D01*
X016100Y002600D01*
X010700Y002400D02*
X008933Y002400D01*
X008733Y002600D01*
X009400Y003400D02*
X008800Y004000D01*
X008733Y004000D01*
X009400Y003400D02*
X010700Y003400D01*
X010700Y005400D02*
X008733Y005400D01*
X007867Y005026D02*
X006574Y005026D01*
X006500Y005100D01*
X006574Y006426D02*
X006500Y006500D01*
X006574Y006426D02*
X007867Y006426D01*
X008733Y006800D02*
X008800Y006800D01*
X009200Y006400D01*
X010700Y006400D01*
X010700Y008400D02*
X009000Y008400D01*
X008800Y008200D01*
X008733Y008200D01*
X007867Y007826D02*
X006574Y007826D01*
X006500Y007900D01*
X006574Y009226D02*
X006500Y009300D01*
X006574Y009226D02*
X007867Y009226D01*
X008733Y009600D02*
X008800Y009600D01*
X009000Y009400D01*
X010700Y009400D01*
X010700Y011400D02*
X009100Y011400D01*
X008700Y011000D01*
X008733Y011000D01*
X007867Y010626D02*
X006574Y010626D01*
X006500Y010700D01*
X006574Y012026D02*
X006500Y012100D01*
X006574Y012026D02*
X007867Y012026D01*
X008733Y012400D02*
X010700Y012400D01*
X011700Y012400D02*
X013367Y012400D01*
X013667Y012700D01*
X014533Y013074D02*
X015974Y013074D01*
X016000Y013100D01*
X016100Y013100D01*
X016100Y011700D02*
X016074Y011674D01*
X014533Y011674D01*
X013667Y011300D02*
X013567Y011400D01*
X011700Y011400D01*
X013667Y014100D02*
X013367Y014400D01*
X011700Y014400D01*
X011700Y015400D02*
X013567Y015400D01*
X013667Y015500D01*
X014533Y015874D02*
X016074Y015874D01*
X016100Y015900D01*
X016074Y017274D02*
X016100Y017300D01*
X016074Y017274D02*
X014533Y017274D01*
X013667Y016900D02*
X013167Y017400D01*
X011700Y017400D01*
X011700Y018400D02*
X013567Y018400D01*
X013667Y018300D01*
X014533Y018674D02*
X016074Y018674D01*
X016100Y018700D01*
X016100Y020100D02*
X015600Y020100D01*
X015226Y020074D01*
X014533Y020074D01*
X013667Y019700D02*
X012967Y020400D01*
X011700Y020400D01*
X011700Y021400D02*
X013367Y021400D01*
X013667Y021100D01*
X014533Y021474D02*
X015726Y021474D01*
X016400Y021500D01*
X016526Y022874D02*
X017800Y022900D01*
X016526Y022874D02*
X014533Y022874D01*
X013667Y022500D02*
X012767Y023400D01*
X011700Y023400D01*
X011700Y024400D02*
X013167Y024400D01*
X013667Y023900D01*
X014533Y024274D02*
X017526Y024274D01*
X019000Y024300D01*
X016100Y014500D02*
X016074Y014474D01*
X014533Y014474D01*
X010700Y014400D02*
X009000Y014400D01*
X008800Y014600D01*
X008733Y014600D01*
X009400Y015400D02*
X008800Y016000D01*
X008733Y016000D01*
X009400Y015400D02*
X010700Y015400D01*
X010700Y017400D02*
X008733Y017400D01*
X009300Y018400D02*
X008900Y018800D01*
X008733Y018800D01*
X009300Y018400D02*
X010700Y018400D01*
X010700Y020400D02*
X008933Y020400D01*
X008733Y020200D01*
X007867Y019826D02*
X006526Y019826D01*
X006500Y019800D01*
X006526Y018426D02*
X006500Y018400D01*
X006526Y018426D02*
X007867Y018426D01*
X007867Y017026D02*
X006626Y017026D01*
X006700Y017000D01*
X006526Y015626D02*
X006500Y015600D01*
X006526Y015626D02*
X007867Y015626D01*
X007867Y014226D02*
X006826Y014226D01*
X006500Y013900D01*
X006500Y021200D02*
X006526Y021226D01*
X007867Y021226D01*
X008733Y021600D02*
X008933Y021400D01*
X010700Y021400D01*
X010700Y023400D02*
X009133Y023400D01*
X008733Y023000D01*
X007867Y022626D02*
X006526Y022626D01*
X006500Y022600D01*
X006074Y024026D02*
X005500Y024000D01*
X006074Y024026D02*
X007867Y024026D01*
X008733Y024400D02*
X010700Y024400D01*
X007867Y003626D02*
X006574Y003626D01*
X006500Y003700D01*
X006626Y002226D02*
X006500Y002100D01*
X006626Y002226D02*
X007867Y002226D01*
D25*
X006500Y002100D03*
X006500Y003700D03*
X006500Y005100D03*
X006500Y006500D03*
X006500Y007900D03*
X006500Y009300D03*
X006500Y010700D03*
X006500Y012100D03*
X006500Y013900D03*
X006500Y015600D03*
X006700Y017000D03*
X006500Y018400D03*
X006500Y019800D03*
X006500Y021200D03*
X006500Y022600D03*
X005500Y024000D03*
X016100Y020100D03*
X016100Y018700D03*
X016100Y017300D03*
X016100Y015900D03*
X016100Y014500D03*
X016100Y013100D03*
X016100Y011700D03*
X016100Y010200D03*
X016100Y008700D03*
X016100Y007200D03*
X016100Y005700D03*
X016100Y004200D03*
X016100Y002600D03*
X016400Y021500D03*
X017800Y022900D03*
X019000Y024300D03*
D26*
X019074Y023526D02*
X020420Y022180D01*
X020420Y012750D01*
X020160Y012750D02*
X020160Y021340D01*
X019300Y022200D01*
X014607Y022200D01*
X014533Y022126D01*
X014607Y020800D02*
X014533Y020726D01*
X014607Y020800D02*
X019200Y020800D01*
X019900Y020100D01*
X019900Y012752D01*
X019640Y012750D02*
X019640Y018760D01*
X019000Y019400D01*
X014607Y019400D01*
X014533Y019326D01*
X014607Y018000D02*
X014533Y017926D01*
X014607Y018000D02*
X018900Y018000D01*
X019380Y017520D01*
X019380Y012750D01*
X019120Y012750D02*
X019120Y016080D01*
X018600Y016600D01*
X014607Y016600D01*
X014533Y016526D01*
X014607Y015200D02*
X014533Y015126D01*
X014607Y015200D02*
X018500Y015200D01*
X018860Y014840D01*
X018860Y012750D01*
X018600Y012750D02*
X018600Y013400D01*
X018200Y013800D01*
X014607Y013800D01*
X014533Y013726D01*
X014607Y012400D02*
X014533Y012326D01*
X014607Y012400D02*
X017200Y012400D01*
X017600Y012000D01*
X017600Y010300D01*
X017800Y010100D01*
X018200Y010100D01*
X018340Y010240D01*
X018340Y010450D01*
X018600Y010450D02*
X018600Y010000D01*
X018400Y009800D01*
X017400Y009800D01*
X017200Y010000D01*
X017200Y010800D01*
X017000Y011000D01*
X014607Y011000D01*
X014533Y010926D01*
X014607Y009500D02*
X014533Y009426D01*
X014607Y009500D02*
X018600Y009500D01*
X018860Y009760D01*
X018860Y010450D01*
X019120Y010450D02*
X019120Y008120D01*
X018900Y007900D01*
X014559Y007900D01*
X014533Y007926D01*
X014533Y006426D02*
X014559Y006400D01*
X018300Y006400D01*
X019380Y007480D01*
X019380Y010450D01*
X019640Y010450D02*
X019640Y006240D01*
X018300Y004900D01*
X014559Y004900D01*
X014533Y004926D01*
X014533Y003426D02*
X014559Y003400D01*
X018000Y003400D01*
X019900Y005300D01*
X019900Y010448D01*
X020160Y010450D02*
X020160Y004460D01*
X017600Y001900D01*
X014559Y001900D01*
X014533Y001926D01*
X017400Y001300D02*
X020420Y004320D01*
X020420Y010450D01*
X020680Y010450D02*
X020680Y011180D01*
X020700Y011200D01*
X020700Y011900D02*
X020680Y011920D01*
X020680Y012750D01*
X020940Y012750D01*
X021200Y012750D02*
X021200Y013300D01*
X021300Y013400D01*
X021300Y014000D01*
X020950Y014000D02*
X020950Y015100D01*
X020900Y015150D01*
X020900Y016700D01*
X021100Y016900D01*
X022100Y016900D01*
X022400Y016600D01*
X022400Y013400D01*
X022100Y013100D01*
X021800Y013100D01*
X021720Y013020D01*
X021720Y012750D01*
X021720Y010450D01*
X021460Y010450D02*
X021460Y009760D01*
X021000Y009300D01*
X021000Y004100D01*
X017600Y000700D01*
X005000Y000700D01*
X003400Y002300D01*
X003400Y005200D01*
X003200Y005400D01*
X003700Y005800D02*
X003700Y002500D01*
X005200Y001000D01*
X017500Y001000D01*
X020700Y004200D01*
X020700Y009400D01*
X021200Y009900D01*
X021200Y010450D01*
X021460Y012750D02*
X021460Y013260D01*
X021600Y013400D01*
X022000Y013400D01*
X022100Y013500D01*
X022100Y016500D01*
X022000Y016600D01*
X021400Y016600D01*
X021300Y016500D01*
X021300Y015100D01*
X021650Y015100D02*
X021650Y015950D01*
X021700Y016000D01*
X021650Y015100D02*
X021650Y014000D01*
X018600Y011900D02*
X018340Y012160D01*
X018340Y012750D01*
X019074Y023526D02*
X014533Y023526D01*
X007867Y023374D02*
X005074Y023374D01*
X004700Y023000D01*
X004700Y017800D01*
X002900Y016000D01*
X002900Y012652D01*
X002640Y012650D02*
X002640Y016140D01*
X004400Y017900D01*
X004400Y024300D01*
X005000Y024800D01*
X006100Y024800D01*
X006626Y024774D01*
X007867Y024774D01*
X006200Y025800D02*
X006938Y026538D01*
X007000Y026538D01*
X007000Y026862D02*
X005862Y026862D01*
X005500Y026500D01*
X006200Y025800D02*
X002700Y025800D01*
X001500Y024600D01*
X001500Y024349D01*
X001549Y024300D01*
X002100Y022700D02*
X000800Y021400D01*
X000800Y013600D01*
X001080Y013320D01*
X001080Y012650D01*
X001080Y011480D01*
X000300Y010700D01*
X000300Y006800D01*
X000400Y006700D01*
X001000Y006700D01*
X000949Y006649D01*
X000949Y005900D01*
X001000Y006700D02*
X001700Y006700D01*
X001900Y006900D01*
X001900Y008050D01*
X001850Y008100D01*
X001850Y009100D01*
X001500Y009100D02*
X001500Y009800D01*
X001600Y009900D01*
X001600Y010350D01*
X001340Y010350D02*
X001340Y009940D01*
X001300Y009900D01*
X001000Y009900D01*
X000600Y009500D01*
X000600Y007000D01*
X001500Y007000D01*
X001500Y008100D01*
X001150Y008100D02*
X001150Y007550D01*
X001000Y007400D01*
X001150Y008100D02*
X001150Y009100D01*
X001080Y010350D02*
X001080Y010680D01*
X001400Y011000D01*
X001600Y011000D01*
X002120Y010980D01*
X002120Y010350D01*
X001860Y010350D01*
X002380Y010350D02*
X002380Y008920D01*
X004800Y006500D01*
X004800Y004100D01*
X006000Y002900D01*
X007793Y002900D01*
X007867Y002974D01*
X007867Y004374D02*
X007841Y004400D01*
X005700Y004400D01*
X005100Y005000D01*
X005100Y006600D01*
X002640Y009060D01*
X002640Y010350D01*
X002900Y010348D02*
X002900Y009200D01*
X005400Y006700D01*
X005400Y006100D01*
X005700Y005800D01*
X007841Y005800D01*
X007867Y005774D01*
X007867Y007174D02*
X007841Y007200D01*
X005300Y007200D01*
X003160Y009340D01*
X003160Y010350D01*
X003420Y010350D02*
X003420Y009480D01*
X004400Y008500D01*
X007793Y008500D01*
X007867Y008574D01*
X007867Y009974D02*
X005674Y009974D01*
X005100Y009400D01*
X004000Y009400D01*
X003680Y009720D01*
X003680Y010350D01*
X003940Y010350D02*
X003940Y009860D01*
X004100Y009700D01*
X004900Y009700D01*
X005400Y010200D01*
X005400Y011100D01*
X005674Y011374D01*
X007867Y011374D01*
X007867Y012774D02*
X005774Y012774D01*
X005100Y012100D01*
X005100Y010300D01*
X004800Y010000D01*
X004300Y010000D01*
X004200Y010100D01*
X004200Y010350D01*
X004460Y010350D02*
X004460Y010940D01*
X004100Y011300D01*
X003400Y011300D02*
X003400Y012000D01*
X003200Y012200D01*
X002500Y012200D01*
X002380Y012320D01*
X002380Y012650D01*
X002380Y016280D01*
X003400Y017300D01*
X003400Y018300D01*
X003000Y018700D01*
X002100Y018700D01*
X001400Y020000D02*
X002100Y020700D01*
X001400Y020000D02*
X001400Y013800D01*
X001600Y013600D01*
X001600Y012650D01*
X001600Y012300D01*
X002000Y011900D01*
X002700Y011900D01*
X002800Y011800D01*
X002800Y011100D01*
X001600Y011600D02*
X001340Y011860D01*
X001340Y012650D01*
X001340Y013460D01*
X001100Y013700D01*
X001100Y020700D01*
X002100Y021700D01*
X005000Y021400D02*
X005574Y021974D01*
X007867Y021974D01*
X007841Y020600D02*
X007867Y020574D01*
X007841Y020600D02*
X005700Y020600D01*
X005300Y020200D01*
X005300Y017600D01*
X003420Y015720D01*
X003420Y012650D01*
X003160Y012650D02*
X003160Y015860D01*
X005000Y017700D01*
X005000Y021400D01*
X005700Y019100D02*
X007793Y019100D01*
X007867Y019174D01*
X007867Y017774D02*
X007793Y017700D01*
X006200Y017700D01*
X003940Y015440D01*
X003940Y012650D01*
X003680Y012650D02*
X003680Y015580D01*
X005600Y017500D01*
X005600Y019000D01*
X005700Y019100D01*
X005300Y016400D02*
X007841Y016400D01*
X007867Y016374D01*
X007867Y014974D02*
X007793Y014900D01*
X005000Y014900D01*
X004460Y014360D01*
X004460Y012650D01*
X004200Y012650D02*
X004200Y015300D01*
X005300Y016400D01*
X002120Y013780D02*
X002120Y012650D01*
X002120Y013780D02*
X001800Y014100D01*
X002900Y006700D02*
X003600Y006700D01*
X004000Y006300D01*
X004000Y002700D01*
X005400Y001300D01*
X017400Y001300D01*
X003700Y005800D02*
X003300Y006200D01*
X002900Y006700D02*
X002100Y005900D01*
X002051Y005900D01*
D27*
X002100Y022700D02*
X002200Y022700D01*
X002700Y023200D01*
X003500Y023200D01*
X003800Y023500D01*
X003800Y024400D01*
X004800Y025400D01*
X008300Y025400D01*
X010200Y027300D01*
X013100Y027300D01*
X013500Y026900D01*
X013500Y025800D01*
X013900Y025400D01*
X020100Y025400D01*
X021100Y024400D01*
X021100Y024000D01*
X021149Y023951D01*
X022000Y023951D01*
X021100Y024000D02*
X021100Y016900D01*
X022000Y019700D02*
X022000Y020740D01*
X022000Y021860D02*
X022000Y022849D01*
X002700Y023200D02*
X002700Y024251D01*
X002651Y024300D01*
X001549Y024300D02*
X001549Y023849D01*
X001300Y023600D01*
X001000Y023600D01*
D28*
X001800Y014100D03*
X001600Y011600D03*
X001600Y011000D03*
X002800Y011100D03*
X003400Y011300D03*
X004100Y011300D03*
X001000Y007400D03*
X003200Y005400D03*
X003300Y006200D03*
X004000Y006300D03*
X018600Y011900D03*
X020700Y011900D03*
X020700Y011200D03*
X021700Y016000D03*
D29*
X022000Y019700D03*
X001000Y023600D03*
M02*
