G75*
%MOIN*%
%OFA0B0*%
%FSLAX24Y24*%
%IPPOS*%
%LPD*%
%AMOC8*
5,1,8,0,0,1.08239X$1,22.5*
%
%ADD10R,0.0631X0.0710*%
%ADD11R,0.0820X0.0820*%
%ADD12C,0.0820*%
%ADD13OC8,0.0680*%
%ADD14R,0.0880X0.0880*%
%ADD15C,0.0880*%
%ADD16R,0.0790X0.0710*%
%ADD17R,0.0631X0.0474*%
%ADD18R,0.0789X0.0710*%
%ADD19R,0.0710X0.0789*%
%ADD20R,0.0580X0.0330*%
%ADD21R,0.0330X0.0580*%
%ADD22C,0.1380*%
%ADD23R,0.0178X0.0395*%
%ADD24R,0.0907X0.0907*%
%ADD25R,0.0476X0.0476*%
%ADD26R,0.0611X0.0611*%
D10*
X001549Y024300D03*
X002651Y024300D03*
D11*
X002100Y017700D03*
D12*
X002100Y018700D03*
X002100Y019700D03*
X002100Y020700D03*
X002100Y021700D03*
X002100Y022700D03*
D13*
X010700Y022400D03*
X010700Y021400D03*
X010700Y020400D03*
X010700Y019400D03*
X010700Y018400D03*
X010700Y017400D03*
X010700Y016400D03*
X010700Y015400D03*
X010700Y014400D03*
X010700Y013400D03*
X010700Y012400D03*
X010700Y011400D03*
X010700Y010400D03*
X010700Y009400D03*
X010700Y008400D03*
X010700Y007400D03*
X010700Y006400D03*
X010700Y005400D03*
X010700Y004400D03*
X010700Y003400D03*
X010700Y002400D03*
X011700Y002400D03*
X011700Y003400D03*
X011700Y004400D03*
X011700Y005400D03*
X011700Y006400D03*
X011700Y007400D03*
X011700Y008400D03*
X011700Y009400D03*
X011700Y010400D03*
X011700Y011400D03*
X011700Y012400D03*
X011700Y013400D03*
X011700Y014400D03*
X011700Y015400D03*
X011700Y016400D03*
X011700Y017400D03*
X011700Y018400D03*
X011700Y019400D03*
X011700Y020400D03*
X011700Y021400D03*
X011700Y022400D03*
X011700Y023400D03*
X011700Y024400D03*
X011700Y025400D03*
X011700Y026400D03*
X010700Y026400D03*
X010700Y025400D03*
X010700Y024400D03*
X010700Y023400D03*
D14*
X005500Y026500D03*
X016500Y026500D03*
X020300Y026500D03*
D15*
X018922Y026500D03*
X015122Y026500D03*
X004122Y026500D03*
D16*
X022000Y021860D03*
X022000Y020740D03*
D17*
X014533Y020726D03*
X014533Y020074D03*
X014533Y019326D03*
X014533Y018674D03*
X014533Y017926D03*
X014533Y017274D03*
X014533Y016526D03*
X014533Y015874D03*
X014533Y015126D03*
X014533Y014474D03*
X014533Y013726D03*
X014533Y013074D03*
X014533Y012326D03*
X014533Y011674D03*
X014533Y010926D03*
X014533Y010174D03*
X014533Y009426D03*
X014533Y008674D03*
X014533Y007926D03*
X014533Y007174D03*
X014533Y006426D03*
X014533Y005674D03*
X014533Y004926D03*
X014533Y004174D03*
X014533Y003426D03*
X014533Y002674D03*
X014533Y001926D03*
X013667Y002300D03*
X013667Y003800D03*
X013667Y005300D03*
X013667Y006800D03*
X013667Y008300D03*
X013667Y009800D03*
X013667Y011300D03*
X013667Y012700D03*
X013667Y014100D03*
X013667Y015500D03*
X013667Y016900D03*
X013667Y018300D03*
X013667Y019700D03*
X013667Y021100D03*
X014533Y021474D03*
X014533Y022126D03*
X014533Y022874D03*
X014533Y023526D03*
X014533Y024274D03*
X013667Y023900D03*
X013667Y022500D03*
X008733Y023000D03*
X007867Y022626D03*
X007867Y021974D03*
X007867Y021226D03*
X007867Y020574D03*
X007867Y019826D03*
X007867Y019174D03*
X007867Y018426D03*
X007867Y017774D03*
X007867Y017026D03*
X007867Y016374D03*
X007867Y015626D03*
X007867Y014974D03*
X007867Y014226D03*
X008733Y014600D03*
X008733Y016000D03*
X008733Y017400D03*
X008733Y018800D03*
X008733Y020200D03*
X008733Y021600D03*
X007867Y023374D03*
X007867Y024026D03*
X007867Y024774D03*
X008733Y024400D03*
X007867Y012774D03*
X007867Y012026D03*
X007867Y011374D03*
X007867Y010626D03*
X007867Y009974D03*
X007867Y009226D03*
X007867Y008574D03*
X007867Y007826D03*
X007867Y007174D03*
X007867Y006426D03*
X007867Y005774D03*
X007867Y005026D03*
X007867Y004374D03*
X007867Y003626D03*
X007867Y002974D03*
X007867Y002226D03*
X008733Y002600D03*
X008733Y004000D03*
X008733Y005400D03*
X008733Y006800D03*
X008733Y008200D03*
X008733Y009600D03*
X008733Y011000D03*
X008733Y012400D03*
D18*
X022000Y022849D03*
X022000Y023951D03*
D19*
X002051Y005900D03*
X000949Y005900D03*
D20*
X007000Y026538D03*
X007000Y026862D03*
D21*
X020950Y015100D03*
X021300Y015100D03*
X021650Y015100D03*
X021650Y014000D03*
X021300Y014000D03*
X020950Y014000D03*
X001850Y009100D03*
X001500Y009100D03*
X001150Y009100D03*
X001150Y008100D03*
X001500Y008100D03*
X001850Y008100D03*
D22*
X001900Y001800D03*
X021200Y001900D03*
X001500Y026700D03*
D23*
X001600Y012650D03*
X001340Y012650D03*
X001080Y012650D03*
X001860Y012650D03*
X002120Y012650D03*
X002380Y012650D03*
X002640Y012650D03*
X002900Y012652D03*
X003160Y012650D03*
X003420Y012650D03*
X003680Y012650D03*
X003940Y012650D03*
X004200Y012650D03*
X004460Y012650D03*
X004460Y010350D03*
X004200Y010350D03*
X003940Y010350D03*
X003680Y010350D03*
X003420Y010350D03*
X003160Y010350D03*
X002900Y010348D03*
X002640Y010350D03*
X002380Y010350D03*
X002120Y010350D03*
X001860Y010350D03*
X001600Y010350D03*
X001340Y010350D03*
X001080Y010350D03*
X018340Y010450D03*
X018600Y010450D03*
X018860Y010450D03*
X019120Y010450D03*
X019380Y010450D03*
X019640Y010450D03*
X019900Y010448D03*
X020160Y010450D03*
X020420Y010450D03*
X020680Y010450D03*
X020940Y010450D03*
X021200Y010450D03*
X021460Y010450D03*
X021720Y010450D03*
X021720Y012750D03*
X021460Y012750D03*
X021200Y012750D03*
X020940Y012750D03*
X020680Y012750D03*
X020420Y012750D03*
X020160Y012750D03*
X019900Y012752D03*
X019640Y012750D03*
X019380Y012750D03*
X019120Y012750D03*
X018860Y012750D03*
X018600Y012750D03*
X018340Y012750D03*
D24*
X016100Y013100D03*
X016100Y011700D03*
X016100Y010200D03*
X016100Y008700D03*
X016100Y007200D03*
X016100Y005700D03*
X016100Y004200D03*
X016100Y002600D03*
X016100Y014500D03*
X016100Y015900D03*
X016100Y017300D03*
X016100Y018700D03*
X016100Y020100D03*
X016400Y021500D03*
X017800Y022900D03*
X019000Y024300D03*
X006700Y017000D03*
X006500Y015600D03*
X006500Y013900D03*
X006500Y012100D03*
X006500Y010700D03*
X006500Y009300D03*
X006500Y007900D03*
X006500Y006500D03*
X006500Y005100D03*
X006500Y003700D03*
X006500Y002100D03*
X006500Y018400D03*
X006500Y019800D03*
X006500Y021200D03*
X006500Y022600D03*
X005500Y024000D03*
D25*
X001800Y014100D03*
X001600Y011600D03*
X001600Y011000D03*
X002800Y011100D03*
X003400Y011300D03*
X004100Y011300D03*
X001000Y007400D03*
X003200Y005400D03*
X003300Y006200D03*
X004000Y006300D03*
X018600Y011900D03*
X020700Y011900D03*
X020700Y011200D03*
X021700Y016000D03*
D26*
X022000Y019700D03*
X001000Y023600D03*
M02*
