G75*
%MOIN*%
%OFA0B0*%
%FSLAX24Y24*%
%IPPOS*%
%LPD*%
%AMOC8*
5,1,8,0,0,1.08239X$1,22.5*
%
%ADD10R,0.0820X0.0820*%
%ADD11C,0.0820*%
%ADD12OC8,0.0680*%
%ADD13R,0.0880X0.0880*%
%ADD14C,0.0880*%
%ADD15R,0.1480X0.0880*%
%ADD16C,0.1380*%
%ADD17R,0.0907X0.0907*%
%ADD18R,0.0476X0.0476*%
%ADD19R,0.0611X0.0611*%
D10*
X002100Y017700D03*
D11*
X002100Y018700D03*
X002100Y019700D03*
X002100Y020700D03*
X002100Y021700D03*
X002100Y022700D03*
D12*
X010700Y022400D03*
X010700Y021400D03*
X010700Y020400D03*
X010700Y019400D03*
X010700Y018400D03*
X010700Y017400D03*
X010700Y016400D03*
X010700Y015400D03*
X010700Y014400D03*
X010700Y013400D03*
X010700Y012400D03*
X010700Y011400D03*
X010700Y010400D03*
X010700Y009400D03*
X010700Y008400D03*
X010700Y007400D03*
X010700Y006400D03*
X010700Y005400D03*
X010700Y004400D03*
X010700Y003400D03*
X010700Y002400D03*
X011700Y002400D03*
X011700Y003400D03*
X011700Y004400D03*
X011700Y005400D03*
X011700Y006400D03*
X011700Y007400D03*
X011700Y008400D03*
X011700Y009400D03*
X011700Y010400D03*
X011700Y011400D03*
X011700Y012400D03*
X011700Y013400D03*
X011700Y014400D03*
X011700Y015400D03*
X011700Y016400D03*
X011700Y017400D03*
X011700Y018400D03*
X011700Y019400D03*
X011700Y020400D03*
X011700Y021400D03*
X011700Y022400D03*
X011700Y023400D03*
X011700Y024400D03*
X011700Y025400D03*
X011700Y026400D03*
X010700Y026400D03*
X010700Y025400D03*
X010700Y024400D03*
X010700Y023400D03*
D13*
X005500Y026500D03*
X016500Y026500D03*
X020300Y026500D03*
D14*
X018922Y026500D03*
X015122Y026500D03*
X004122Y026500D03*
D15*
X004000Y020500D03*
X004000Y018500D03*
D16*
X001900Y001800D03*
X021200Y001900D03*
X001500Y026700D03*
D17*
X005500Y024000D03*
X006500Y022600D03*
X006500Y021200D03*
X006500Y019800D03*
X006500Y018400D03*
X006700Y017000D03*
X006500Y015600D03*
X006500Y013900D03*
X006500Y012100D03*
X006500Y010700D03*
X006500Y009300D03*
X006500Y007900D03*
X006500Y006500D03*
X006500Y005100D03*
X006500Y003700D03*
X006500Y002100D03*
X016100Y002600D03*
X016100Y004200D03*
X016100Y005700D03*
X016100Y007200D03*
X016100Y008700D03*
X016100Y010200D03*
X016100Y011700D03*
X016100Y013100D03*
X016100Y014500D03*
X016100Y015900D03*
X016100Y017300D03*
X016100Y018700D03*
X016100Y020100D03*
X016400Y021500D03*
X017800Y022900D03*
X019000Y024300D03*
D18*
X021700Y016000D03*
X020700Y011900D03*
X020700Y011200D03*
X018600Y011900D03*
X004100Y011300D03*
X003400Y011300D03*
X002800Y011100D03*
X001600Y011000D03*
X001600Y011600D03*
X001800Y014100D03*
X001000Y007400D03*
X003200Y005400D03*
X003300Y006200D03*
X004000Y006300D03*
D19*
X001000Y023600D03*
X022000Y019700D03*
M02*
