G75*
%MOIN*%
%OFA0B0*%
%FSLAX24Y24*%
%IPPOS*%
%LPD*%
%AMOC8*
5,1,8,0,0,1.08239X$1,22.5*
%
%ADD10R,0.0630X0.0709*%
%ADD11R,0.0394X0.0433*%
%ADD12R,0.0433X0.0394*%
%ADD13R,0.0709X0.0630*%
%ADD14R,0.0866X0.0551*%
%ADD15R,0.0551X0.0866*%
D10*
X005131Y015900D03*
X006233Y015900D03*
X006331Y027300D03*
X007433Y027300D03*
X009331Y030400D03*
X010433Y030400D03*
X017931Y007500D03*
X017931Y006700D03*
X019033Y006700D03*
X019033Y007500D03*
D11*
X033782Y022265D03*
X033782Y022935D03*
X036182Y024565D03*
X036182Y025235D03*
X029282Y024835D03*
X029282Y024165D03*
X028482Y024165D03*
X028482Y024835D03*
X014682Y034365D03*
X014682Y035035D03*
D12*
X008216Y035600D03*
X007547Y035600D03*
X005316Y037400D03*
X004647Y037400D03*
X007147Y032200D03*
X007816Y032200D03*
X003616Y030200D03*
X002947Y030200D03*
X005247Y023700D03*
X005916Y023700D03*
X025947Y033300D03*
X026616Y033300D03*
X033347Y025800D03*
X034016Y025800D03*
X035647Y028500D03*
X036316Y028500D03*
X036316Y029400D03*
X035647Y029400D03*
X035447Y021200D03*
X036116Y021200D03*
D13*
X033382Y029549D03*
X033382Y030651D03*
X015282Y022751D03*
X015282Y021649D03*
X013682Y019451D03*
X013682Y018349D03*
D14*
X006412Y025100D03*
X005152Y025100D03*
X011552Y028900D03*
X012812Y028900D03*
X010612Y034300D03*
X009352Y034300D03*
X028252Y026100D03*
X029512Y026100D03*
D15*
X029582Y023330D03*
X029582Y022070D03*
X027682Y022170D03*
X027682Y023430D03*
X028482Y031970D03*
X028482Y033230D03*
X005882Y034970D03*
X005882Y036230D03*
M02*
