G75*
%MOIN*%
%OFA0B0*%
%FSLAX24Y24*%
%IPPOS*%
%LPD*%
%AMOC8*
5,1,8,0,0,1.08239X$1,22.5*
%
%ADD10C,0.0000*%
%ADD11C,0.0120*%
%ADD12C,0.0010*%
%ADD13C,0.0220*%
%ADD14C,0.0040*%
%ADD15C,0.0030*%
D10*
X001282Y000100D02*
X001282Y040370D01*
X037574Y040370D01*
X037574Y000100D01*
X001282Y000100D01*
D11*
X001682Y021000D02*
X002482Y021000D01*
X002782Y021400D02*
X002982Y021200D01*
X002782Y021400D02*
X002982Y021600D01*
X002782Y021400D02*
X003382Y021400D01*
X002482Y021900D02*
X001682Y021900D01*
D12*
X005532Y024030D02*
X005557Y024005D01*
X005607Y024005D01*
X005632Y024030D01*
X005679Y024030D02*
X005704Y024005D01*
X005754Y024005D01*
X005779Y024030D01*
X005827Y024030D02*
X005852Y024005D01*
X005902Y024005D01*
X005927Y024030D01*
X005927Y024130D01*
X005902Y024155D01*
X005852Y024155D01*
X005827Y024130D01*
X005779Y024155D02*
X005779Y024080D01*
X005729Y024105D01*
X005704Y024105D01*
X005679Y024080D01*
X005679Y024030D01*
X005632Y024080D02*
X005582Y024105D01*
X005557Y024105D01*
X005532Y024080D01*
X005532Y024030D01*
X005632Y024080D02*
X005632Y024155D01*
X005532Y024155D01*
X005679Y024155D02*
X005779Y024155D01*
X006982Y027755D02*
X007082Y027755D01*
X007129Y027755D02*
X007229Y027755D01*
X007277Y027755D02*
X007327Y027805D01*
X007302Y027805D02*
X007377Y027805D01*
X007377Y027755D02*
X007377Y027905D01*
X007302Y027905D01*
X007277Y027880D01*
X007277Y027830D01*
X007302Y027805D01*
X007229Y027855D02*
X007179Y027905D01*
X007179Y027755D01*
X007082Y027855D02*
X007032Y027905D01*
X007032Y027755D01*
X009449Y029795D02*
X009449Y029945D01*
X009524Y029870D01*
X009424Y029870D01*
X009571Y029795D02*
X009671Y029795D01*
X009719Y029795D02*
X009769Y029845D01*
X009744Y029845D02*
X009819Y029845D01*
X009819Y029795D02*
X009819Y029945D01*
X009744Y029945D01*
X009719Y029920D01*
X009719Y029870D01*
X009744Y029845D01*
X009671Y029895D02*
X009621Y029945D01*
X009621Y029795D01*
X007802Y032505D02*
X007752Y032505D01*
X007727Y032530D01*
X007679Y032530D02*
X007679Y032505D01*
X007679Y032530D02*
X007579Y032630D01*
X007579Y032655D01*
X007679Y032655D01*
X007727Y032630D02*
X007752Y032655D01*
X007802Y032655D01*
X007827Y032630D01*
X007827Y032530D01*
X007802Y032505D01*
X007532Y032530D02*
X007432Y032630D01*
X007432Y032530D01*
X007457Y032505D01*
X007507Y032505D01*
X007532Y032530D01*
X007532Y032630D01*
X007507Y032655D01*
X007457Y032655D01*
X007432Y032630D01*
X007710Y035905D02*
X007760Y035905D01*
X007785Y035930D01*
X007685Y036030D01*
X007685Y035930D01*
X007710Y035905D01*
X007785Y035930D02*
X007785Y036030D01*
X007760Y036055D01*
X007710Y036055D01*
X007685Y036030D01*
X007832Y036030D02*
X007932Y035930D01*
X007907Y035905D01*
X007857Y035905D01*
X007832Y035930D01*
X007832Y036030D01*
X007857Y036055D01*
X007907Y036055D01*
X007932Y036030D01*
X007932Y035930D01*
X007979Y035905D02*
X008079Y035905D01*
X008029Y035905D02*
X008029Y036055D01*
X008079Y036005D01*
X008127Y036030D02*
X008152Y036055D01*
X008202Y036055D01*
X008227Y036030D01*
X008227Y035930D01*
X008202Y035905D01*
X008152Y035905D01*
X008127Y035930D01*
X005069Y036970D02*
X005044Y036945D01*
X004994Y036945D01*
X004969Y036970D01*
X004921Y036970D02*
X004921Y036995D01*
X004896Y037020D01*
X004846Y037020D01*
X004821Y036995D01*
X004821Y036970D01*
X004846Y036945D01*
X004896Y036945D01*
X004921Y036970D01*
X004896Y037020D02*
X004921Y037045D01*
X004921Y037070D01*
X004896Y037095D01*
X004846Y037095D01*
X004821Y037070D01*
X004821Y037045D01*
X004846Y037020D01*
X004774Y037045D02*
X004749Y037020D01*
X004674Y037020D01*
X004674Y036970D02*
X004674Y037070D01*
X004699Y037095D01*
X004749Y037095D01*
X004774Y037070D01*
X004774Y037045D01*
X004774Y036970D02*
X004749Y036945D01*
X004699Y036945D01*
X004674Y036970D01*
X004969Y037070D02*
X004994Y037095D01*
X005044Y037095D01*
X005069Y037070D01*
X005069Y036970D01*
X003344Y029895D02*
X003369Y029870D01*
X003369Y029770D01*
X003344Y029745D01*
X003294Y029745D01*
X003269Y029770D01*
X003221Y029770D02*
X003196Y029745D01*
X003146Y029745D01*
X003121Y029770D01*
X003121Y029870D01*
X003146Y029895D01*
X003196Y029895D01*
X003221Y029870D01*
X003221Y029845D01*
X003196Y029820D01*
X003121Y029820D01*
X003074Y029845D02*
X003049Y029820D01*
X002974Y029820D01*
X002974Y029770D02*
X002974Y029870D01*
X002999Y029895D01*
X003049Y029895D01*
X003074Y029870D01*
X003074Y029845D01*
X003074Y029770D02*
X003049Y029745D01*
X002999Y029745D01*
X002974Y029770D01*
X003269Y029870D02*
X003294Y029895D01*
X003344Y029895D01*
X014137Y018800D02*
X014137Y018700D01*
X014137Y018750D02*
X014287Y018750D01*
X014237Y018700D01*
X014287Y018652D02*
X014262Y018602D01*
X014212Y018552D01*
X014212Y018627D01*
X014187Y018652D01*
X014162Y018652D01*
X014137Y018627D01*
X014137Y018577D01*
X014162Y018552D01*
X014212Y018552D01*
X014212Y018505D02*
X014187Y018480D01*
X014187Y018405D01*
X014187Y018455D02*
X014137Y018505D01*
X014212Y018505D02*
X014262Y018505D01*
X014287Y018480D01*
X014287Y018405D01*
X014137Y018405D01*
X014677Y022263D02*
X014827Y022263D01*
X014827Y022338D01*
X014802Y022363D01*
X014752Y022363D01*
X014727Y022338D01*
X014727Y022263D01*
X014727Y022313D02*
X014677Y022363D01*
X014702Y022410D02*
X014677Y022435D01*
X014677Y022485D01*
X014702Y022510D01*
X014727Y022510D01*
X014752Y022485D01*
X014752Y022410D01*
X014702Y022410D01*
X014752Y022410D02*
X014802Y022460D01*
X014827Y022510D01*
X014752Y022558D02*
X014752Y022658D01*
X014827Y022633D02*
X014752Y022558D01*
X014677Y022633D02*
X014827Y022633D01*
X006177Y016505D02*
X006102Y016505D01*
X006077Y016480D01*
X006077Y016430D01*
X006102Y016405D01*
X006177Y016405D01*
X006177Y016355D02*
X006177Y016505D01*
X006127Y016405D02*
X006077Y016355D01*
X006029Y016380D02*
X006004Y016355D01*
X005954Y016355D01*
X005929Y016380D01*
X005929Y016430D01*
X005954Y016455D01*
X005979Y016455D01*
X006029Y016430D01*
X006029Y016505D01*
X005929Y016505D01*
X005882Y016505D02*
X005782Y016505D01*
X005782Y016480D01*
X005882Y016380D01*
X005882Y016355D01*
X018024Y007045D02*
X018074Y007020D01*
X018124Y006970D01*
X018049Y006970D01*
X018024Y006945D01*
X018024Y006920D01*
X018049Y006895D01*
X018099Y006895D01*
X018124Y006920D01*
X018124Y006970D01*
X018171Y006970D02*
X018196Y006945D01*
X018271Y006945D01*
X018221Y006945D02*
X018171Y006895D01*
X018171Y006970D02*
X018171Y007020D01*
X018196Y007045D01*
X018271Y007045D01*
X018271Y006895D01*
X018271Y006245D02*
X018196Y006245D01*
X018171Y006220D01*
X018171Y006170D01*
X018196Y006145D01*
X018271Y006145D01*
X018221Y006145D02*
X018171Y006095D01*
X018124Y006120D02*
X018099Y006095D01*
X018049Y006095D01*
X018024Y006120D01*
X018024Y006170D01*
X018049Y006195D01*
X018074Y006195D01*
X018124Y006170D01*
X018124Y006245D01*
X018024Y006245D01*
X018271Y006245D02*
X018271Y006095D01*
X033352Y022513D02*
X033327Y022538D01*
X033327Y022588D01*
X033352Y022613D01*
X033352Y022660D02*
X033327Y022685D01*
X033327Y022735D01*
X033352Y022760D01*
X033377Y022760D01*
X033402Y022735D01*
X033402Y022660D01*
X033352Y022660D01*
X033402Y022660D02*
X033452Y022710D01*
X033477Y022760D01*
X033452Y022808D02*
X033477Y022833D01*
X033477Y022883D01*
X033452Y022908D01*
X033427Y022908D01*
X033327Y022808D01*
X033327Y022908D01*
X033452Y022613D02*
X033477Y022588D01*
X033477Y022538D01*
X033452Y022513D01*
X033352Y022513D01*
X035474Y020895D02*
X035524Y020870D01*
X035574Y020820D01*
X035499Y020820D01*
X035474Y020795D01*
X035474Y020770D01*
X035499Y020745D01*
X035549Y020745D01*
X035574Y020770D01*
X035574Y020820D01*
X035621Y020795D02*
X035646Y020820D01*
X035721Y020820D01*
X035721Y020770D01*
X035696Y020745D01*
X035646Y020745D01*
X035621Y020770D01*
X035621Y020795D01*
X035671Y020870D02*
X035721Y020820D01*
X035769Y020770D02*
X035794Y020745D01*
X035844Y020745D01*
X035869Y020770D01*
X035869Y020870D01*
X035844Y020895D01*
X035794Y020895D01*
X035769Y020870D01*
X035671Y020870D02*
X035621Y020895D01*
X035752Y024813D02*
X035727Y024838D01*
X035727Y024888D01*
X035752Y024913D01*
X035752Y024960D02*
X035727Y024985D01*
X035727Y025035D01*
X035752Y025060D01*
X035852Y025060D01*
X035877Y025035D01*
X035877Y024985D01*
X035852Y024960D01*
X035827Y024960D01*
X035802Y024985D01*
X035802Y025060D01*
X035752Y025108D02*
X035852Y025108D01*
X035877Y025133D01*
X035877Y025183D01*
X035852Y025208D01*
X035752Y025108D01*
X035727Y025133D01*
X035727Y025183D01*
X035752Y025208D01*
X035852Y025208D01*
X035852Y024913D02*
X035877Y024888D01*
X035877Y024838D01*
X035852Y024813D01*
X035752Y024813D01*
X034027Y026130D02*
X034002Y026105D01*
X033952Y026105D01*
X033927Y026130D01*
X033879Y026130D02*
X033854Y026105D01*
X033804Y026105D01*
X033779Y026130D01*
X033779Y026155D01*
X033804Y026180D01*
X033879Y026180D01*
X033879Y026130D01*
X033879Y026180D02*
X033829Y026230D01*
X033779Y026255D01*
X033732Y026255D02*
X033732Y026180D01*
X033682Y026205D01*
X033657Y026205D01*
X033632Y026180D01*
X033632Y026130D01*
X033657Y026105D01*
X033707Y026105D01*
X033732Y026130D01*
X033732Y026255D02*
X033632Y026255D01*
X033927Y026230D02*
X033952Y026255D01*
X034002Y026255D01*
X034027Y026230D01*
X034027Y026130D01*
X035699Y028945D02*
X035674Y028970D01*
X035674Y029070D01*
X035699Y029095D01*
X035749Y029095D01*
X035774Y029070D01*
X035774Y029045D01*
X035749Y029020D01*
X035674Y029020D01*
X035699Y028945D02*
X035749Y028945D01*
X035774Y028970D01*
X035821Y029020D02*
X035921Y029020D01*
X035846Y029095D01*
X035846Y028945D01*
X035932Y028930D02*
X036032Y028830D01*
X036007Y028805D01*
X035957Y028805D01*
X035932Y028830D01*
X035932Y028930D01*
X035957Y028955D01*
X036007Y028955D01*
X036032Y028930D01*
X036032Y028830D01*
X036079Y028805D02*
X036179Y028805D01*
X036079Y028905D01*
X036079Y028930D01*
X036104Y028955D01*
X036154Y028955D01*
X036179Y028930D01*
X036227Y028930D02*
X036252Y028955D01*
X036302Y028955D01*
X036327Y028930D01*
X036327Y028830D01*
X036302Y028805D01*
X036252Y028805D01*
X036227Y028830D01*
X036069Y028970D02*
X036044Y028945D01*
X035994Y028945D01*
X035969Y028970D01*
X036069Y028970D02*
X036069Y029070D01*
X036044Y029095D01*
X035994Y029095D01*
X035969Y029070D01*
X033987Y029605D02*
X033987Y029680D01*
X033962Y029705D01*
X033912Y029705D01*
X033887Y029680D01*
X033887Y029605D01*
X033887Y029655D02*
X033837Y029705D01*
X033837Y029752D02*
X033937Y029852D01*
X033962Y029852D01*
X033987Y029827D01*
X033987Y029777D01*
X033962Y029752D01*
X033837Y029752D02*
X033837Y029852D01*
X033862Y029900D02*
X033837Y029925D01*
X033837Y029975D01*
X033862Y030000D01*
X033962Y030000D01*
X033987Y029975D01*
X033987Y029925D01*
X033962Y029900D01*
X033937Y029900D01*
X033912Y029925D01*
X033912Y030000D01*
X033837Y029605D02*
X033987Y029605D01*
X028977Y024758D02*
X028827Y024758D01*
X028827Y024708D02*
X028827Y024808D01*
X028927Y024708D02*
X028977Y024758D01*
X028977Y024635D02*
X028902Y024560D01*
X028902Y024660D01*
X028827Y024635D02*
X028977Y024635D01*
X028952Y024513D02*
X028977Y024488D01*
X028977Y024438D01*
X028952Y024413D01*
X028852Y024413D01*
X028827Y024438D01*
X028827Y024488D01*
X028852Y024513D01*
X028177Y024488D02*
X028177Y024438D01*
X028152Y024413D01*
X028052Y024413D01*
X028027Y024438D01*
X028027Y024488D01*
X028052Y024513D01*
X028027Y024560D02*
X028027Y024660D01*
X028027Y024610D02*
X028177Y024610D01*
X028127Y024560D01*
X028152Y024513D02*
X028177Y024488D01*
X028152Y024708D02*
X028127Y024708D01*
X028102Y024733D01*
X028102Y024808D01*
X028152Y024808D02*
X028177Y024783D01*
X028177Y024733D01*
X028152Y024708D01*
X028152Y024808D02*
X028052Y024808D01*
X028027Y024783D01*
X028027Y024733D01*
X028052Y024708D01*
X026344Y032845D02*
X026294Y032845D01*
X026269Y032870D01*
X026221Y032870D02*
X026196Y032845D01*
X026146Y032845D01*
X026121Y032870D01*
X026121Y032895D01*
X026146Y032920D01*
X026221Y032920D01*
X026221Y032870D01*
X026221Y032920D02*
X026171Y032970D01*
X026121Y032995D01*
X026074Y032920D02*
X025974Y032920D01*
X025999Y032845D02*
X025999Y032995D01*
X026074Y032920D01*
X026269Y032970D02*
X026294Y032995D01*
X026344Y032995D01*
X026369Y032970D01*
X026369Y032870D01*
X026344Y032845D01*
X015137Y034380D02*
X015112Y034355D01*
X015012Y034355D01*
X014987Y034380D01*
X014987Y034430D01*
X015012Y034455D01*
X015012Y034502D02*
X014987Y034527D01*
X014987Y034577D01*
X015012Y034602D01*
X015062Y034602D01*
X015087Y034577D01*
X015087Y034552D01*
X015062Y034502D01*
X015137Y034502D01*
X015137Y034602D01*
X015112Y034650D02*
X015137Y034675D01*
X015137Y034725D01*
X015112Y034750D01*
X015012Y034650D01*
X014987Y034675D01*
X014987Y034725D01*
X015012Y034750D01*
X015112Y034750D01*
X015112Y034650D02*
X015012Y034650D01*
X015112Y034455D02*
X015137Y034430D01*
X015137Y034380D01*
D13*
X014694Y034700D02*
X014670Y034700D01*
X007882Y035588D02*
X007882Y035612D01*
X004982Y037388D02*
X004982Y037412D01*
X007482Y032212D02*
X007482Y032188D01*
X003282Y030212D02*
X003282Y030188D01*
X005582Y023712D02*
X005582Y023688D01*
X026282Y033288D02*
X026282Y033312D01*
X033682Y025812D02*
X033682Y025788D01*
X036170Y024900D02*
X036194Y024900D01*
X033794Y022600D02*
X033770Y022600D01*
X035782Y021212D02*
X035782Y021188D01*
X029294Y024500D02*
X029270Y024500D01*
X028494Y024500D02*
X028470Y024500D01*
X035982Y028488D02*
X035982Y028512D01*
X035982Y029388D02*
X035982Y029412D01*
D14*
X030409Y023527D02*
X029916Y023527D01*
X030409Y023527D02*
X030409Y022306D01*
X029975Y021873D01*
X029188Y021873D02*
X028755Y022306D01*
X028755Y023527D01*
X029247Y023527D01*
X028509Y023194D02*
X028075Y023627D01*
X028509Y023194D02*
X028509Y021973D01*
X028016Y021973D01*
X027347Y021973D02*
X026855Y021973D01*
X026855Y023194D01*
X027288Y023627D01*
X028017Y023489D02*
X028065Y023463D01*
X028112Y023434D01*
X028157Y023401D01*
X028199Y023365D01*
X028238Y023326D01*
X028275Y023285D01*
X028308Y023241D01*
X028339Y023195D01*
X028365Y023146D01*
X028388Y023096D01*
X028408Y023044D01*
X028424Y022991D01*
X028436Y022937D01*
X028444Y022883D01*
X028448Y022828D01*
X028448Y022772D01*
X028444Y022717D01*
X028436Y022663D01*
X028424Y022609D01*
X028408Y022556D01*
X028388Y022504D01*
X028365Y022454D01*
X028339Y022405D01*
X028308Y022359D01*
X028275Y022315D01*
X028238Y022274D01*
X028199Y022235D01*
X028157Y022199D01*
X028112Y022166D01*
X028065Y022137D01*
X028017Y022111D01*
X027347Y022111D02*
X027299Y022137D01*
X027252Y022166D01*
X027207Y022199D01*
X027165Y022235D01*
X027126Y022274D01*
X027089Y022315D01*
X027056Y022359D01*
X027025Y022405D01*
X026999Y022454D01*
X026976Y022504D01*
X026956Y022556D01*
X026940Y022609D01*
X026928Y022663D01*
X026920Y022717D01*
X026916Y022772D01*
X026916Y022828D01*
X026920Y022883D01*
X026928Y022937D01*
X026940Y022991D01*
X026956Y023044D01*
X026976Y023096D01*
X026999Y023146D01*
X027025Y023195D01*
X027056Y023241D01*
X027089Y023285D01*
X027126Y023326D01*
X027165Y023365D01*
X027207Y023401D01*
X027252Y023434D01*
X027299Y023463D01*
X027347Y023489D01*
X028055Y025273D02*
X029275Y025273D01*
X029709Y025706D01*
X029709Y026494D02*
X029275Y026927D01*
X028055Y026927D01*
X028055Y026435D01*
X028055Y025765D02*
X028055Y025273D01*
X028193Y026435D02*
X028219Y026483D01*
X028248Y026530D01*
X028281Y026575D01*
X028317Y026617D01*
X028356Y026656D01*
X028397Y026693D01*
X028441Y026726D01*
X028487Y026757D01*
X028536Y026783D01*
X028586Y026806D01*
X028638Y026826D01*
X028691Y026842D01*
X028745Y026854D01*
X028799Y026862D01*
X028854Y026866D01*
X028910Y026866D01*
X028965Y026862D01*
X029019Y026854D01*
X029073Y026842D01*
X029126Y026826D01*
X029178Y026806D01*
X029228Y026783D01*
X029277Y026757D01*
X029323Y026726D01*
X029367Y026693D01*
X029408Y026656D01*
X029447Y026617D01*
X029483Y026575D01*
X029516Y026530D01*
X029545Y026483D01*
X029571Y026435D01*
X029571Y025765D02*
X029545Y025717D01*
X029516Y025670D01*
X029483Y025625D01*
X029447Y025583D01*
X029408Y025544D01*
X029367Y025507D01*
X029323Y025474D01*
X029277Y025443D01*
X029228Y025417D01*
X029178Y025394D01*
X029126Y025374D01*
X029073Y025358D01*
X029019Y025346D01*
X028965Y025338D01*
X028910Y025334D01*
X028854Y025334D01*
X028799Y025338D01*
X028745Y025346D01*
X028691Y025358D01*
X028638Y025374D01*
X028586Y025394D01*
X028536Y025417D01*
X028487Y025443D01*
X028441Y025474D01*
X028397Y025507D01*
X028356Y025544D01*
X028317Y025583D01*
X028281Y025625D01*
X028248Y025670D01*
X028219Y025717D01*
X028193Y025765D01*
X029917Y023389D02*
X029965Y023363D01*
X030012Y023334D01*
X030057Y023301D01*
X030099Y023265D01*
X030138Y023226D01*
X030175Y023185D01*
X030208Y023141D01*
X030239Y023095D01*
X030265Y023046D01*
X030288Y022996D01*
X030308Y022944D01*
X030324Y022891D01*
X030336Y022837D01*
X030344Y022783D01*
X030348Y022728D01*
X030348Y022672D01*
X030344Y022617D01*
X030336Y022563D01*
X030324Y022509D01*
X030308Y022456D01*
X030288Y022404D01*
X030265Y022354D01*
X030239Y022305D01*
X030208Y022259D01*
X030175Y022215D01*
X030138Y022174D01*
X030099Y022135D01*
X030057Y022099D01*
X030012Y022066D01*
X029965Y022037D01*
X029917Y022011D01*
X029247Y022011D02*
X029199Y022037D01*
X029152Y022066D01*
X029107Y022099D01*
X029065Y022135D01*
X029026Y022174D01*
X028989Y022215D01*
X028956Y022259D01*
X028925Y022305D01*
X028899Y022354D01*
X028876Y022404D01*
X028856Y022456D01*
X028840Y022509D01*
X028828Y022563D01*
X028820Y022617D01*
X028816Y022672D01*
X028816Y022728D01*
X028820Y022783D01*
X028828Y022837D01*
X028840Y022891D01*
X028856Y022944D01*
X028876Y022996D01*
X028899Y023046D01*
X028925Y023095D01*
X028956Y023141D01*
X028989Y023185D01*
X029026Y023226D01*
X029065Y023265D01*
X029107Y023301D01*
X029152Y023334D01*
X029199Y023363D01*
X029247Y023389D01*
X028875Y031773D02*
X029309Y032206D01*
X029309Y033427D01*
X028816Y033427D01*
X028147Y033427D02*
X027655Y033427D01*
X027655Y032206D01*
X028088Y031773D01*
X028817Y031911D02*
X028865Y031937D01*
X028912Y031966D01*
X028957Y031999D01*
X028999Y032035D01*
X029038Y032074D01*
X029075Y032115D01*
X029108Y032159D01*
X029139Y032205D01*
X029165Y032254D01*
X029188Y032304D01*
X029208Y032356D01*
X029224Y032409D01*
X029236Y032463D01*
X029244Y032517D01*
X029248Y032572D01*
X029248Y032628D01*
X029244Y032683D01*
X029236Y032737D01*
X029224Y032791D01*
X029208Y032844D01*
X029188Y032896D01*
X029165Y032946D01*
X029139Y032995D01*
X029108Y033041D01*
X029075Y033085D01*
X029038Y033126D01*
X028999Y033165D01*
X028957Y033201D01*
X028912Y033234D01*
X028865Y033263D01*
X028817Y033289D01*
X028147Y033289D02*
X028099Y033263D01*
X028052Y033234D01*
X028007Y033201D01*
X027965Y033165D01*
X027926Y033126D01*
X027889Y033085D01*
X027856Y033041D01*
X027825Y032995D01*
X027799Y032946D01*
X027776Y032896D01*
X027756Y032844D01*
X027740Y032791D01*
X027728Y032737D01*
X027720Y032683D01*
X027716Y032628D01*
X027716Y032572D01*
X027720Y032517D01*
X027728Y032463D01*
X027740Y032409D01*
X027756Y032356D01*
X027776Y032304D01*
X027799Y032254D01*
X027825Y032205D01*
X027856Y032159D01*
X027889Y032115D01*
X027926Y032074D01*
X027965Y032035D01*
X028007Y031999D01*
X028052Y031966D01*
X028099Y031937D01*
X028147Y031911D01*
X013009Y029294D02*
X012575Y029727D01*
X011355Y029727D01*
X011355Y029235D01*
X011355Y028565D02*
X011355Y028073D01*
X012575Y028073D01*
X013009Y028506D01*
X012871Y029235D02*
X012845Y029283D01*
X012816Y029330D01*
X012783Y029375D01*
X012747Y029417D01*
X012708Y029456D01*
X012667Y029493D01*
X012623Y029526D01*
X012577Y029557D01*
X012528Y029583D01*
X012478Y029606D01*
X012426Y029626D01*
X012373Y029642D01*
X012319Y029654D01*
X012265Y029662D01*
X012210Y029666D01*
X012154Y029666D01*
X012099Y029662D01*
X012045Y029654D01*
X011991Y029642D01*
X011938Y029626D01*
X011886Y029606D01*
X011836Y029583D01*
X011787Y029557D01*
X011741Y029526D01*
X011697Y029493D01*
X011656Y029456D01*
X011617Y029417D01*
X011581Y029375D01*
X011548Y029330D01*
X011519Y029283D01*
X011493Y029235D01*
X011493Y028565D02*
X011519Y028517D01*
X011548Y028470D01*
X011581Y028425D01*
X011617Y028383D01*
X011656Y028344D01*
X011697Y028307D01*
X011741Y028274D01*
X011787Y028243D01*
X011836Y028217D01*
X011886Y028194D01*
X011938Y028174D01*
X011991Y028158D01*
X012045Y028146D01*
X012099Y028138D01*
X012154Y028134D01*
X012210Y028134D01*
X012265Y028138D01*
X012319Y028146D01*
X012373Y028158D01*
X012426Y028174D01*
X012478Y028194D01*
X012528Y028217D01*
X012577Y028243D01*
X012623Y028274D01*
X012667Y028307D01*
X012708Y028344D01*
X012747Y028383D01*
X012783Y028425D01*
X012816Y028470D01*
X012845Y028517D01*
X012871Y028565D01*
X010375Y033473D02*
X009155Y033473D01*
X009155Y033965D01*
X009155Y034635D02*
X009155Y035127D01*
X010375Y035127D01*
X010809Y034694D01*
X010809Y033906D02*
X010375Y033473D01*
X010671Y034635D02*
X010645Y034683D01*
X010616Y034730D01*
X010583Y034775D01*
X010547Y034817D01*
X010508Y034856D01*
X010467Y034893D01*
X010423Y034926D01*
X010377Y034957D01*
X010328Y034983D01*
X010278Y035006D01*
X010226Y035026D01*
X010173Y035042D01*
X010119Y035054D01*
X010065Y035062D01*
X010010Y035066D01*
X009954Y035066D01*
X009899Y035062D01*
X009845Y035054D01*
X009791Y035042D01*
X009738Y035026D01*
X009686Y035006D01*
X009636Y034983D01*
X009587Y034957D01*
X009541Y034926D01*
X009497Y034893D01*
X009456Y034856D01*
X009417Y034817D01*
X009381Y034775D01*
X009348Y034730D01*
X009319Y034683D01*
X009293Y034635D01*
X009293Y033965D02*
X009319Y033917D01*
X009348Y033870D01*
X009381Y033825D01*
X009417Y033783D01*
X009456Y033744D01*
X009497Y033707D01*
X009541Y033674D01*
X009587Y033643D01*
X009636Y033617D01*
X009686Y033594D01*
X009738Y033574D01*
X009791Y033558D01*
X009845Y033546D01*
X009899Y033538D01*
X009954Y033534D01*
X010010Y033534D01*
X010065Y033538D01*
X010119Y033546D01*
X010173Y033558D01*
X010226Y033574D01*
X010278Y033594D01*
X010328Y033617D01*
X010377Y033643D01*
X010423Y033674D01*
X010467Y033707D01*
X010508Y033744D01*
X010547Y033783D01*
X010583Y033825D01*
X010616Y033870D01*
X010645Y033917D01*
X010671Y033965D01*
X006709Y034773D02*
X006709Y035994D01*
X006275Y036427D01*
X005488Y036427D02*
X005055Y035994D01*
X005055Y034773D01*
X005547Y034773D01*
X006216Y034773D02*
X006709Y034773D01*
X005547Y034911D02*
X005499Y034937D01*
X005452Y034966D01*
X005407Y034999D01*
X005365Y035035D01*
X005326Y035074D01*
X005289Y035115D01*
X005256Y035159D01*
X005225Y035205D01*
X005199Y035254D01*
X005176Y035304D01*
X005156Y035356D01*
X005140Y035409D01*
X005128Y035463D01*
X005120Y035517D01*
X005116Y035572D01*
X005116Y035628D01*
X005120Y035683D01*
X005128Y035737D01*
X005140Y035791D01*
X005156Y035844D01*
X005176Y035896D01*
X005199Y035946D01*
X005225Y035995D01*
X005256Y036041D01*
X005289Y036085D01*
X005326Y036126D01*
X005365Y036165D01*
X005407Y036201D01*
X005452Y036234D01*
X005499Y036263D01*
X005547Y036289D01*
X006217Y036289D02*
X006265Y036263D01*
X006312Y036234D01*
X006357Y036201D01*
X006399Y036165D01*
X006438Y036126D01*
X006475Y036085D01*
X006508Y036041D01*
X006539Y035995D01*
X006565Y035946D01*
X006588Y035896D01*
X006608Y035844D01*
X006624Y035791D01*
X006636Y035737D01*
X006644Y035683D01*
X006648Y035628D01*
X006648Y035572D01*
X006644Y035517D01*
X006636Y035463D01*
X006624Y035409D01*
X006608Y035356D01*
X006588Y035304D01*
X006565Y035254D01*
X006539Y035205D01*
X006508Y035159D01*
X006475Y035115D01*
X006438Y035074D01*
X006399Y035035D01*
X006357Y034999D01*
X006312Y034966D01*
X006265Y034937D01*
X006217Y034911D01*
X006175Y025927D02*
X004955Y025927D01*
X004955Y025435D01*
X004955Y024765D02*
X004955Y024273D01*
X006175Y024273D01*
X006609Y024706D01*
X006609Y025494D02*
X006175Y025927D01*
X006471Y024765D02*
X006445Y024717D01*
X006416Y024670D01*
X006383Y024625D01*
X006347Y024583D01*
X006308Y024544D01*
X006267Y024507D01*
X006223Y024474D01*
X006177Y024443D01*
X006128Y024417D01*
X006078Y024394D01*
X006026Y024374D01*
X005973Y024358D01*
X005919Y024346D01*
X005865Y024338D01*
X005810Y024334D01*
X005754Y024334D01*
X005699Y024338D01*
X005645Y024346D01*
X005591Y024358D01*
X005538Y024374D01*
X005486Y024394D01*
X005436Y024417D01*
X005387Y024443D01*
X005341Y024474D01*
X005297Y024507D01*
X005256Y024544D01*
X005217Y024583D01*
X005181Y024625D01*
X005148Y024670D01*
X005119Y024717D01*
X005093Y024765D01*
X005093Y025435D02*
X005119Y025483D01*
X005148Y025530D01*
X005181Y025575D01*
X005217Y025617D01*
X005256Y025656D01*
X005297Y025693D01*
X005341Y025726D01*
X005387Y025757D01*
X005436Y025783D01*
X005486Y025806D01*
X005538Y025826D01*
X005591Y025842D01*
X005645Y025854D01*
X005699Y025862D01*
X005754Y025866D01*
X005810Y025866D01*
X005865Y025862D01*
X005919Y025854D01*
X005973Y025842D01*
X006026Y025826D01*
X006078Y025806D01*
X006128Y025783D01*
X006177Y025757D01*
X006223Y025726D01*
X006267Y025693D01*
X006308Y025656D01*
X006347Y025617D01*
X006383Y025575D01*
X006416Y025530D01*
X006445Y025483D01*
X006471Y025435D01*
D15*
X006332Y024180D02*
X006394Y024118D01*
X006394Y023871D01*
X006332Y023809D01*
X006208Y023809D01*
X006147Y023871D01*
X006025Y023809D02*
X005778Y023809D01*
X005902Y023809D02*
X005902Y024180D01*
X006025Y024056D01*
X006147Y024118D02*
X006208Y024180D01*
X006332Y024180D01*
X005657Y024118D02*
X005657Y023871D01*
X005410Y024118D01*
X005410Y023871D01*
X005472Y023809D01*
X005595Y023809D01*
X005657Y023871D01*
X005657Y024118D02*
X005595Y024180D01*
X005472Y024180D01*
X005410Y024118D01*
X005289Y024118D02*
X005227Y024180D01*
X005103Y024180D01*
X005042Y024118D01*
X005042Y024056D01*
X005289Y023809D01*
X005042Y023809D01*
X011442Y027609D02*
X011689Y027609D01*
X011442Y027856D01*
X011442Y027918D01*
X011503Y027980D01*
X011627Y027980D01*
X011689Y027918D01*
X011810Y027918D02*
X011810Y027856D01*
X011872Y027795D01*
X011995Y027795D01*
X012057Y027856D01*
X012057Y027918D01*
X011995Y027980D01*
X011872Y027980D01*
X011810Y027918D01*
X011872Y027795D02*
X011810Y027733D01*
X011810Y027671D01*
X011872Y027609D01*
X011995Y027609D01*
X012057Y027671D01*
X012057Y027733D01*
X011995Y027795D01*
X012178Y027918D02*
X012240Y027980D01*
X012364Y027980D01*
X012425Y027918D01*
X012425Y027671D01*
X012364Y027609D01*
X012240Y027609D01*
X012178Y027671D01*
X010164Y033009D02*
X010040Y033009D01*
X009978Y033071D01*
X009857Y033071D02*
X009795Y033009D01*
X009672Y033009D01*
X009610Y033071D01*
X009610Y033195D01*
X009672Y033256D01*
X009733Y033256D01*
X009857Y033195D01*
X009857Y033380D01*
X009610Y033380D01*
X009489Y033195D02*
X009242Y033195D01*
X009303Y033380D02*
X009489Y033195D01*
X009303Y033380D02*
X009303Y033009D01*
X009978Y033318D02*
X010040Y033380D01*
X010164Y033380D01*
X010225Y033318D01*
X010225Y033071D01*
X010164Y033009D01*
X007173Y034830D02*
X007111Y034769D01*
X006864Y034769D01*
X006802Y034830D01*
X006802Y034954D01*
X006864Y035015D01*
X006864Y035137D02*
X006802Y035199D01*
X006802Y035322D01*
X006864Y035384D01*
X006987Y035384D01*
X007049Y035322D01*
X007049Y035260D01*
X006987Y035137D01*
X007173Y035137D01*
X007173Y035384D01*
X007111Y035505D02*
X007173Y035567D01*
X007173Y035690D01*
X007111Y035752D01*
X007049Y035752D01*
X006987Y035690D01*
X006926Y035752D01*
X006864Y035752D01*
X006802Y035690D01*
X006802Y035567D01*
X006864Y035505D01*
X006987Y035629D02*
X006987Y035690D01*
X007111Y035015D02*
X007173Y034954D01*
X007173Y034830D01*
X027191Y033278D02*
X027191Y033155D01*
X027253Y033093D01*
X027376Y033093D01*
X027376Y033278D01*
X027315Y033340D01*
X027253Y033340D01*
X027191Y033278D01*
X027376Y033093D02*
X027500Y033217D01*
X027562Y033340D01*
X027376Y032972D02*
X027376Y032725D01*
X027562Y032910D01*
X027191Y032910D01*
X027253Y032603D02*
X027191Y032542D01*
X027191Y032418D01*
X027253Y032357D01*
X027500Y032357D01*
X027562Y032418D01*
X027562Y032542D01*
X027500Y032603D01*
X028203Y025180D02*
X028327Y025180D01*
X028389Y025118D01*
X028389Y025056D01*
X028327Y024995D01*
X028142Y024995D01*
X028142Y025118D02*
X028142Y024871D01*
X028203Y024809D01*
X028327Y024809D01*
X028389Y024871D01*
X028510Y024871D02*
X028572Y024809D01*
X028695Y024809D01*
X028757Y024871D01*
X028878Y024871D02*
X028940Y024809D01*
X029064Y024809D01*
X029125Y024871D01*
X029125Y025118D01*
X029064Y025180D01*
X028940Y025180D01*
X028878Y025118D01*
X028757Y025118D02*
X028695Y025180D01*
X028572Y025180D01*
X028510Y025118D01*
X028510Y025056D01*
X028572Y024995D01*
X028510Y024933D01*
X028510Y024871D01*
X028572Y024995D02*
X028633Y024995D01*
X028203Y025180D02*
X028142Y025118D01*
X028353Y023440D02*
X028291Y023378D01*
X028291Y023255D01*
X028353Y023193D01*
X028415Y023193D01*
X028476Y023255D01*
X028476Y023378D01*
X028415Y023440D01*
X028353Y023440D01*
X028476Y023378D02*
X028538Y023440D01*
X028600Y023440D01*
X028662Y023378D01*
X028662Y023255D01*
X028600Y023193D01*
X028538Y023193D01*
X028476Y023255D01*
X028291Y023072D02*
X028291Y022825D01*
X028291Y022948D02*
X028662Y022948D01*
X028538Y022825D01*
X028602Y022705D02*
X028849Y022952D01*
X028911Y022952D01*
X028973Y022890D01*
X028973Y022767D01*
X028911Y022705D01*
X028911Y022584D02*
X028849Y022584D01*
X028787Y022522D01*
X028726Y022584D01*
X028664Y022584D01*
X028602Y022522D01*
X028602Y022399D01*
X028664Y022337D01*
X028664Y022215D02*
X028602Y022154D01*
X028602Y022030D01*
X028664Y021969D01*
X028911Y021969D01*
X028973Y022030D01*
X028973Y022154D01*
X028911Y022215D01*
X028911Y022337D02*
X028973Y022399D01*
X028973Y022522D01*
X028911Y022584D01*
X028787Y022522D02*
X028787Y022460D01*
X028662Y022518D02*
X028600Y022457D01*
X028353Y022457D01*
X028291Y022518D01*
X028291Y022642D01*
X028353Y022703D01*
X028600Y022703D02*
X028662Y022642D01*
X028662Y022518D01*
X028602Y022705D02*
X028602Y022952D01*
M02*
