%
M48
M72
T01C0.0236
T02C0.0276
T03C0.0320
T04C0.0394
T05C0.0400
%
T01
X2282Y900
X2982Y5400
X2282Y7800
X4082Y7800
X4482Y9700
X4482Y11000
X5182Y11400
X5882Y11300
X6882Y9700
X7782Y8900
X9582Y8500
X10382Y7600
X10982Y6900
X10982Y5900
X11982Y5700
X12682Y8600
X13382Y9200
X13382Y9800
X14632Y8950
X15282Y9100
X16182Y8700
X16682Y8300
X16682Y9400
X17282Y9700
X18782Y8600
X19982Y8400
X20682Y8200
X20382Y9100
X21382Y9300
X21682Y9900
X23182Y9400
X23382Y8500
X21982Y6800
X21982Y5300
X20582Y6600
X20282Y11300
X19782Y11300
X19282Y11300
X19282Y11800
X19782Y11800
X20282Y11800
X20282Y12300
X20282Y12800
X19782Y12800
X19782Y12300
X19282Y12300
X19282Y12800
X18782Y12800
X18782Y12300
X18782Y11800
X18782Y11300
X19782Y14500
X18782Y15100
X17182Y14400
X14782Y11900
X14182Y11600
X13782Y12300
X14282Y12700
X13482Y13100
X13982Y16500
X15682Y17000
X15782Y18400
X16782Y19900
X16582Y21000
X15382Y20800
X13482Y21400
X12482Y21800
X11182Y22700
X12582Y23400
X12532Y24450
X11382Y24600
X11682Y26600
X12082Y27000
X10382Y27100
X9282Y26300
X8282Y28000
X8382Y28600
X9582Y29400
X10282Y29700
X10882Y29600
X9082Y31500
X8282Y31000
X8482Y32400
X7882Y34200
X8882Y35100
X7882Y36600
X6082Y37400
X4782Y36700
X4582Y35000
X2082Y31500
X3082Y29600
X4282Y30100
X4482Y27900
X4982Y26700
X5382Y23100
X7982Y22400
X10082Y21000
X10082Y20300
X9082Y20000
X10082Y19200
X9982Y18200
X10182Y17400
X9082Y18200
X8782Y16800
X7082Y15300
X6982Y13900
X6082Y13800
X5282Y13400
X7282Y12800
X8082Y12600
X8882Y13000
X7882Y11000
X10582Y10100
X6082Y16900
X5082Y18800
X6482Y19300
X7182Y19500
X7382Y20100
X7282Y18700
X4282Y15600
X2482Y14000
X11582Y19400
X18882Y29200
X19082Y33000
X20182Y33700
X21582Y33600
X22682Y35400
X22982Y36700
X24682Y35100
X25782Y34000
X26682Y34100
X27882Y34400
X27382Y31900
X27582Y31100
X28182Y29400
X26782Y29100
X25482Y31500
X22682Y28300
X23982Y27100
X25282Y25300
X25282Y24800
X25782Y26000
X26382Y25700
X27082Y24900
X27782Y25100
X29882Y25100
X30782Y25700
X30382Y26300
X30882Y26900
X31482Y27900
X32082Y26400
X33382Y26600
X34282Y26700
X35582Y26000
X36282Y27300
X34782Y28500
X35182Y30600
X34482Y30800
X32582Y31200
X30582Y31200
X30082Y29500
X29582Y27800
X31482Y25200
X32282Y24400
X31282Y23100
X31182Y21800
X31982Y21600
X30682Y20500
X29982Y20100
X28282Y20900
X28082Y20000
X27182Y20000
X27182Y20600
X26182Y20400
X25582Y21800
X26982Y22100
X23882Y22300
X24082Y20900
X22582Y20900
X23682Y19100
X24282Y18100
X26382Y18200
X28082Y16500
X28482Y15900
X28782Y15500
X29282Y15700
X26482Y13200
X25682Y10900
X24082Y11600
X23082Y11900
X22282Y12200
X21982Y13900
X21182Y14900
X22982Y14100
X21482Y17500
X23882Y24900
X29882Y24200
X33882Y23600
X34482Y23200
X36182Y23800
X34782Y21100
X35582Y20200
X33282Y16900
X28282Y5500
X11082Y2400
X12682Y30100
X13982Y31200
X15582Y34000
X15782Y35400
X17582Y36400
X18682Y36700
X25182Y36500
X25182Y38600
X11782Y36400
X10582Y35000
T02
X14382Y24200
X14382Y23200
X17682Y22800
X17682Y21800
X14882Y14700
X28782Y9300
X29782Y9300
X29782Y6500
X28782Y6500
X28782Y3600
X29782Y3600
T03
X25932Y15000
X24032Y15000
X12882Y17950
X12882Y19850
T04
X34882Y13400
X34882Y12400
X34882Y11400
X34882Y5500
X34882Y4500
X34882Y3500
T05
X24282Y3100
X24282Y4100
X24282Y5100
X24282Y6100
X14482Y6200
X14482Y5200
X14482Y4200
X14482Y3200
X14482Y2200
X14482Y1200
X11882Y12200
X11882Y13200
X11882Y14200
X11882Y15200
X18902Y18810
X18902Y20590
X21462Y20590
X21462Y18810
X34082Y19300
X35082Y19300
X36082Y19300
X35582Y32600
X34582Y32600
X33582Y32600
X30082Y38100
X29082Y38100
X28082Y38100
X24082Y38100
X23082Y38100
X14982Y38000
X13982Y38000
X12982Y38000
X3482Y36000
X3482Y35000
X3482Y34000
X3182Y28800
X3182Y27800
X3182Y26800
X3182Y24600
X3182Y23600
X3182Y22600
X3082Y19300
X3082Y18300
X3082Y17300
X3082Y16300
X2482Y12700
X2482Y11700
X2482Y10500
X2482Y9500
M30
