G75*
%MOIN*%
%OFA0B0*%
%FSLAX24Y24*%
%IPPOS*%
%LPD*%
%AMOC8*
5,1,8,0,0,1.08239X$1,22.5*
%
%ADD10C,0.0600*%
%ADD11C,0.0476*%
%ADD12C,0.0594*%
%ADD13C,0.0520*%
%ADD14C,0.0396*%
%ADD15C,0.0160*%
%ADD16C,0.0436*%
%ADD17C,0.0120*%
D10*
X002482Y009500D03*
X002482Y010500D03*
X002482Y011700D03*
X002482Y012700D03*
X003082Y016300D03*
X003082Y017300D03*
X003082Y018300D03*
X003082Y019300D03*
X003182Y022600D03*
X003182Y023600D03*
X003182Y024600D03*
X003182Y026800D03*
X003182Y027800D03*
X003182Y028800D03*
X003482Y034000D03*
X003482Y035000D03*
X003482Y036000D03*
X012982Y038000D03*
X013982Y038000D03*
X014982Y038000D03*
X023082Y038100D03*
X024082Y038100D03*
X028082Y038100D03*
X029082Y038100D03*
X030082Y038100D03*
X033582Y032600D03*
X034582Y032600D03*
X035582Y032600D03*
X036082Y019300D03*
X035082Y019300D03*
X034082Y019300D03*
X024282Y006100D03*
X024282Y005100D03*
X024282Y004100D03*
X024282Y003100D03*
X014482Y003200D03*
X014482Y002200D03*
X014482Y001200D03*
X014482Y004200D03*
X014482Y005200D03*
X014482Y006200D03*
X011882Y012200D03*
X011882Y013200D03*
X011882Y014200D03*
X011882Y015200D03*
X018902Y018810D03*
X018902Y020590D03*
X021462Y020590D03*
X021462Y018810D03*
D11*
X017682Y021800D03*
X017682Y022800D03*
X014382Y023200D03*
X014382Y024200D03*
X028782Y009300D03*
X029782Y009300D03*
X029782Y006500D03*
X028782Y006500D03*
X028782Y003600D03*
X029782Y003600D03*
D12*
X034882Y003500D03*
X034882Y004500D03*
X034882Y005500D03*
X034882Y011400D03*
X034882Y012400D03*
X034882Y013400D03*
D13*
X025932Y015000D03*
X024032Y015000D03*
X012882Y017950D03*
X012882Y019850D03*
D14*
X013482Y021400D03*
X012482Y021800D03*
X011182Y022700D03*
X012582Y023400D03*
X012532Y024450D03*
X011382Y024600D03*
X011682Y026600D03*
X012082Y027000D03*
X010382Y027100D03*
X009282Y026300D03*
X008282Y028000D03*
X008382Y028600D03*
X009582Y029400D03*
X010282Y029700D03*
X010882Y029600D03*
X009082Y031500D03*
X008282Y031000D03*
X008482Y032400D03*
X007882Y034200D03*
X008882Y035100D03*
X007882Y036600D03*
X006082Y037400D03*
X004782Y036700D03*
X004582Y035000D03*
X002082Y031500D03*
X003082Y029600D03*
X004282Y030100D03*
X004482Y027900D03*
X004982Y026700D03*
X005382Y023100D03*
X007982Y022400D03*
X010082Y021000D03*
X010082Y020300D03*
X009082Y020000D03*
X010082Y019200D03*
X009982Y018200D03*
X010182Y017400D03*
X009082Y018200D03*
X008782Y016800D03*
X007082Y015300D03*
X006982Y013900D03*
X006082Y013800D03*
X005282Y013400D03*
X005182Y011400D03*
X005882Y011300D03*
X004482Y011000D03*
X004482Y009700D03*
X004082Y007800D03*
X002282Y007800D03*
X002982Y005400D03*
X002282Y000900D03*
X007782Y008900D03*
X006882Y009700D03*
X007882Y011000D03*
X008082Y012600D03*
X007282Y012800D03*
X008882Y013000D03*
X010582Y010100D03*
X009582Y008500D03*
X010382Y007600D03*
X010982Y006900D03*
X010982Y005900D03*
X011982Y005700D03*
X012682Y008600D03*
X013382Y009200D03*
X013382Y009800D03*
X014632Y008950D03*
X015282Y009100D03*
X016182Y008700D03*
X016682Y008300D03*
X016682Y009400D03*
X017282Y009700D03*
X018782Y008600D03*
X019982Y008400D03*
X020682Y008200D03*
X020382Y009100D03*
X021382Y009300D03*
X021682Y009900D03*
X023182Y009400D03*
X023382Y008500D03*
X021982Y006800D03*
X021982Y005300D03*
X020582Y006600D03*
X020282Y011300D03*
X019782Y011300D03*
X019282Y011300D03*
X019282Y011800D03*
X019782Y011800D03*
X020282Y011800D03*
X020282Y012300D03*
X020282Y012800D03*
X019782Y012800D03*
X019782Y012300D03*
X019282Y012300D03*
X019282Y012800D03*
X018782Y012800D03*
X018782Y012300D03*
X018782Y011800D03*
X018782Y011300D03*
X019782Y014500D03*
X018782Y015100D03*
X017182Y014400D03*
X014782Y011900D03*
X014182Y011600D03*
X013782Y012300D03*
X014282Y012700D03*
X013482Y013100D03*
X013982Y016500D03*
X015682Y017000D03*
X015782Y018400D03*
X016782Y019900D03*
X016582Y021000D03*
X015382Y020800D03*
X011582Y019400D03*
X007382Y020100D03*
X007182Y019500D03*
X006482Y019300D03*
X007282Y018700D03*
X006082Y016900D03*
X005082Y018800D03*
X004282Y015600D03*
X002482Y014000D03*
X011082Y002400D03*
X021982Y013900D03*
X021182Y014900D03*
X022982Y014100D03*
X022282Y012200D03*
X023082Y011900D03*
X024082Y011600D03*
X025682Y010900D03*
X026482Y013200D03*
X028782Y015500D03*
X028482Y015900D03*
X028082Y016500D03*
X029282Y015700D03*
X026382Y018200D03*
X027182Y020000D03*
X027182Y020600D03*
X028082Y020000D03*
X028282Y020900D03*
X026982Y022100D03*
X025582Y021800D03*
X026182Y020400D03*
X024082Y020900D03*
X023882Y022300D03*
X022582Y020900D03*
X023682Y019100D03*
X024282Y018100D03*
X021482Y017500D03*
X023882Y024900D03*
X025282Y024800D03*
X025282Y025300D03*
X025782Y026000D03*
X026382Y025700D03*
X027082Y024900D03*
X027782Y025100D03*
X029882Y025100D03*
X030782Y025700D03*
X030382Y026300D03*
X030882Y026900D03*
X031482Y027900D03*
X032082Y026400D03*
X033382Y026600D03*
X034282Y026700D03*
X035582Y026000D03*
X036282Y027300D03*
X034782Y028500D03*
X035182Y030600D03*
X034482Y030800D03*
X032582Y031200D03*
X030582Y031200D03*
X030082Y029500D03*
X029582Y027800D03*
X028182Y029400D03*
X026782Y029100D03*
X027582Y031100D03*
X027382Y031900D03*
X025482Y031500D03*
X025782Y034000D03*
X026682Y034100D03*
X027882Y034400D03*
X025182Y036500D03*
X024682Y035100D03*
X022982Y036700D03*
X022682Y035400D03*
X021582Y033600D03*
X020182Y033700D03*
X019082Y033000D03*
X017582Y036400D03*
X018682Y036700D03*
X015782Y035400D03*
X015582Y034000D03*
X013982Y031200D03*
X012682Y030100D03*
X010582Y035000D03*
X011782Y036400D03*
X018882Y029200D03*
X022682Y028300D03*
X023982Y027100D03*
X029882Y024200D03*
X031282Y023100D03*
X032282Y024400D03*
X031482Y025200D03*
X033882Y023600D03*
X034482Y023200D03*
X036182Y023800D03*
X034782Y021100D03*
X035582Y020200D03*
X033282Y016900D03*
X030682Y020500D03*
X029982Y020100D03*
X031182Y021800D03*
X031982Y021600D03*
X028282Y005500D03*
X025182Y038600D03*
D15*
X001762Y020280D02*
X001762Y000580D01*
X037082Y000580D01*
X037082Y017100D01*
X033882Y017100D01*
X032682Y018300D01*
X032682Y025000D01*
X031282Y026400D01*
X031282Y027200D01*
X030282Y028200D01*
X024182Y028200D01*
X023282Y027300D01*
X023282Y023500D01*
X021282Y021500D01*
X018001Y021500D01*
X017930Y021429D01*
X017769Y021362D01*
X017595Y021362D01*
X017434Y021429D01*
X017363Y021500D01*
X016882Y021500D01*
X016282Y022100D01*
X012745Y022100D01*
X012819Y022026D01*
X012880Y021879D01*
X012880Y021721D01*
X012819Y021574D01*
X012707Y021462D01*
X012561Y021402D01*
X012403Y021402D01*
X012256Y021462D01*
X012144Y021574D01*
X012084Y021721D01*
X012084Y021879D01*
X012144Y022026D01*
X012256Y022138D01*
X012403Y022198D01*
X012561Y022198D01*
X012600Y022182D01*
X011582Y023200D01*
X007582Y023200D01*
X005582Y021200D01*
X005582Y021100D01*
X004982Y020500D01*
X001982Y020500D01*
X001762Y020280D01*
X001762Y020230D02*
X007004Y020230D01*
X006984Y020179D02*
X006984Y020021D01*
X007044Y019874D01*
X007045Y019874D01*
X006956Y019838D01*
X006844Y019726D01*
X006784Y019579D01*
X006784Y019421D01*
X006844Y019274D01*
X006956Y019162D01*
X007103Y019102D01*
X007261Y019102D01*
X007407Y019162D01*
X007519Y019274D01*
X007580Y019421D01*
X007580Y019579D01*
X007519Y019726D01*
X007607Y019762D01*
X007719Y019874D01*
X007780Y020021D01*
X007780Y020179D01*
X007719Y020326D01*
X007607Y020438D01*
X007461Y020498D01*
X007303Y020498D01*
X007156Y020438D01*
X007044Y020326D01*
X006984Y020179D01*
X006984Y020071D02*
X001762Y020071D01*
X001762Y019913D02*
X007028Y019913D01*
X006873Y019754D02*
X003238Y019754D01*
X003266Y019745D02*
X003194Y019768D01*
X003120Y019780D01*
X003102Y019780D01*
X003102Y019320D01*
X003562Y019320D01*
X003562Y019338D01*
X003550Y019412D01*
X003527Y019484D01*
X003492Y019552D01*
X003448Y019613D01*
X003394Y019666D01*
X003333Y019711D01*
X003266Y019745D01*
X003102Y019754D02*
X003062Y019754D01*
X003062Y019780D02*
X003044Y019780D01*
X002969Y019768D01*
X002897Y019745D01*
X002830Y019711D01*
X002769Y019666D01*
X002716Y019613D01*
X002671Y019552D01*
X002637Y019484D01*
X002614Y019412D01*
X002602Y019338D01*
X002602Y019320D01*
X003062Y019320D01*
X003062Y019780D01*
X002926Y019754D02*
X001762Y019754D01*
X001762Y019596D02*
X002703Y019596D01*
X002622Y019437D02*
X001762Y019437D01*
X001762Y019279D02*
X002602Y019279D01*
X002602Y019280D02*
X002602Y019262D01*
X002614Y019188D01*
X002637Y019116D01*
X002671Y019048D01*
X002716Y018987D01*
X002769Y018934D01*
X002830Y018889D01*
X002897Y018855D01*
X002969Y018832D01*
X003044Y018820D01*
X003062Y018820D01*
X003062Y019280D01*
X003102Y019280D01*
X003102Y019320D01*
X003062Y019320D01*
X003062Y019280D01*
X002602Y019280D01*
X002636Y019120D02*
X001762Y019120D01*
X001762Y018962D02*
X002741Y018962D01*
X002799Y018724D02*
X002658Y018583D01*
X002582Y018399D01*
X002582Y018201D01*
X002658Y018017D01*
X002799Y017876D01*
X002982Y017800D01*
X003181Y017800D01*
X003365Y017876D01*
X003506Y018017D01*
X003582Y018201D01*
X003582Y018399D01*
X003506Y018583D01*
X003365Y018724D01*
X003181Y018800D01*
X002982Y018800D01*
X002799Y018724D01*
X002719Y018645D02*
X001762Y018645D01*
X001762Y018803D02*
X004684Y018803D01*
X004684Y018879D02*
X004684Y018721D01*
X004744Y018574D01*
X004856Y018462D01*
X005003Y018402D01*
X005161Y018402D01*
X005255Y018441D01*
X003451Y016637D01*
X003365Y016724D01*
X003181Y016800D01*
X002982Y016800D01*
X002799Y016724D01*
X002658Y016583D01*
X002582Y016399D01*
X002582Y016201D01*
X002658Y016017D01*
X002799Y015876D01*
X002982Y015800D01*
X003181Y015800D01*
X003204Y015810D01*
X003634Y015380D01*
X003730Y015340D01*
X003979Y015340D01*
X004056Y015262D01*
X004203Y015202D01*
X004361Y015202D01*
X004507Y015262D01*
X004619Y015374D01*
X004680Y015521D01*
X004680Y015679D01*
X004619Y015826D01*
X004507Y015938D01*
X004361Y015998D01*
X004203Y015998D01*
X004056Y015938D01*
X003979Y015860D01*
X003889Y015860D01*
X003649Y016100D01*
X003702Y016153D01*
X005989Y018440D01*
X006979Y018440D01*
X007056Y018362D01*
X007203Y018302D01*
X007361Y018302D01*
X007507Y018362D01*
X007619Y018474D01*
X007680Y018621D01*
X007680Y018779D01*
X007619Y018926D01*
X007507Y019038D01*
X007361Y019098D01*
X007203Y019098D01*
X007056Y019038D01*
X006979Y018960D01*
X005933Y018960D01*
X005830Y018960D01*
X005734Y018920D01*
X005441Y018627D01*
X005480Y018721D01*
X005480Y018879D01*
X005419Y019026D01*
X005307Y019138D01*
X005161Y019198D01*
X005003Y019198D01*
X004856Y019138D01*
X004744Y019026D01*
X004684Y018879D01*
X004718Y018962D02*
X003422Y018962D01*
X003448Y018987D02*
X003492Y019048D01*
X003527Y019116D01*
X003550Y019188D01*
X003562Y019262D01*
X003562Y019280D01*
X003102Y019280D01*
X003102Y018820D01*
X003120Y018820D01*
X003194Y018832D01*
X003266Y018855D01*
X003333Y018889D01*
X003394Y018934D01*
X003448Y018987D01*
X003528Y019120D02*
X004839Y019120D01*
X004715Y018645D02*
X003444Y018645D01*
X003546Y018486D02*
X004833Y018486D01*
X005142Y018328D02*
X003582Y018328D01*
X003569Y018169D02*
X004983Y018169D01*
X004825Y018011D02*
X003499Y018011D01*
X003307Y017852D02*
X004666Y017852D01*
X004508Y017694D02*
X003395Y017694D01*
X003365Y017724D02*
X003506Y017583D01*
X003582Y017399D01*
X003582Y017201D01*
X003506Y017017D01*
X003365Y016876D01*
X003181Y016800D01*
X002982Y016800D01*
X002799Y016876D01*
X002658Y017017D01*
X002582Y017201D01*
X002582Y017399D01*
X002658Y017583D01*
X002799Y017724D01*
X002982Y017800D01*
X003181Y017800D01*
X003365Y017724D01*
X003526Y017535D02*
X004349Y017535D01*
X004191Y017377D02*
X003582Y017377D01*
X003582Y017218D02*
X004032Y017218D01*
X003874Y017060D02*
X003523Y017060D01*
X003390Y016901D02*
X003715Y016901D01*
X003557Y016743D02*
X003320Y016743D01*
X002844Y016743D02*
X001762Y016743D01*
X001762Y016901D02*
X002774Y016901D01*
X002640Y017060D02*
X001762Y017060D01*
X001762Y017218D02*
X002582Y017218D01*
X002582Y017377D02*
X001762Y017377D01*
X001762Y017535D02*
X002638Y017535D01*
X002768Y017694D02*
X001762Y017694D01*
X001762Y017852D02*
X002857Y017852D01*
X002664Y018011D02*
X001762Y018011D01*
X001762Y018169D02*
X002595Y018169D01*
X002582Y018328D02*
X001762Y018328D01*
X001762Y018486D02*
X002618Y018486D01*
X003062Y018962D02*
X003102Y018962D01*
X003102Y019120D02*
X003062Y019120D01*
X003062Y019279D02*
X003102Y019279D01*
X003102Y019437D02*
X003062Y019437D01*
X003062Y019596D02*
X003102Y019596D01*
X003460Y019596D02*
X006790Y019596D01*
X006784Y019437D02*
X003542Y019437D01*
X003562Y019279D02*
X006843Y019279D01*
X007059Y019120D02*
X005325Y019120D01*
X005446Y018962D02*
X006980Y018962D01*
X007305Y019120D02*
X011299Y019120D01*
X011244Y019174D02*
X011356Y019062D01*
X011503Y019002D01*
X011661Y019002D01*
X011807Y019062D01*
X011919Y019174D01*
X011980Y019321D01*
X011980Y019479D01*
X011919Y019626D01*
X011807Y019738D01*
X011661Y019798D01*
X011503Y019798D01*
X011356Y019738D01*
X011244Y019626D01*
X011184Y019479D01*
X011184Y019321D01*
X011244Y019174D01*
X011201Y019279D02*
X007521Y019279D01*
X007580Y019437D02*
X011184Y019437D01*
X011232Y019596D02*
X007573Y019596D01*
X007519Y019726D02*
X007519Y019726D01*
X007587Y019754D02*
X011396Y019754D01*
X011767Y019754D02*
X012424Y019754D01*
X012422Y019758D02*
X012492Y019589D01*
X012621Y019460D01*
X012790Y019390D01*
X012973Y019390D01*
X013142Y019460D01*
X013272Y019589D01*
X013342Y019758D01*
X013342Y019941D01*
X013272Y020111D01*
X013142Y020240D01*
X012973Y020310D01*
X012790Y020310D01*
X012621Y020240D01*
X012492Y020111D01*
X012422Y019941D01*
X012422Y019758D01*
X012422Y019913D02*
X007735Y019913D01*
X007780Y020071D02*
X012475Y020071D01*
X012611Y020230D02*
X007759Y020230D01*
X007657Y020388D02*
X018466Y020388D01*
X018457Y020406D02*
X018491Y020338D01*
X018536Y020277D01*
X018589Y020224D01*
X018650Y020179D01*
X018717Y020145D01*
X018789Y020122D01*
X018864Y020110D01*
X018882Y020110D01*
X018882Y020570D01*
X018922Y020570D01*
X018922Y020610D01*
X019382Y020610D01*
X019382Y020628D01*
X019370Y020702D01*
X019347Y020774D01*
X019312Y020842D01*
X019268Y020903D01*
X019214Y020956D01*
X019153Y021001D01*
X019086Y021035D01*
X019014Y021058D01*
X018940Y021070D01*
X018922Y021070D01*
X018922Y020610D01*
X018882Y020610D01*
X018882Y021070D01*
X018864Y021070D01*
X018789Y021058D01*
X018717Y021035D01*
X018650Y021001D01*
X018589Y020956D01*
X018536Y020903D01*
X018491Y020842D01*
X018457Y020774D01*
X018434Y020702D01*
X018422Y020628D01*
X018422Y020610D01*
X018882Y020610D01*
X018882Y020570D01*
X018422Y020570D01*
X018422Y020552D01*
X018434Y020478D01*
X018457Y020406D01*
X018423Y020547D02*
X015691Y020547D01*
X015719Y020574D02*
X015780Y020721D01*
X015780Y020879D01*
X015719Y021026D01*
X015607Y021138D01*
X015461Y021198D01*
X015303Y021198D01*
X015156Y021138D01*
X015044Y021026D01*
X014984Y020879D01*
X014984Y020721D01*
X015044Y020574D01*
X015156Y020462D01*
X015303Y020402D01*
X015461Y020402D01*
X015607Y020462D01*
X015719Y020574D01*
X015773Y020705D02*
X018434Y020705D01*
X018507Y020864D02*
X015780Y020864D01*
X015721Y021022D02*
X018692Y021022D01*
X018882Y021022D02*
X018922Y021022D01*
X018922Y020864D02*
X018882Y020864D01*
X018882Y020705D02*
X018922Y020705D01*
X018922Y020570D02*
X019382Y020570D01*
X019382Y020552D01*
X019370Y020478D01*
X019347Y020406D01*
X019312Y020338D01*
X019268Y020277D01*
X019214Y020224D01*
X019153Y020179D01*
X019086Y020145D01*
X019014Y020122D01*
X018940Y020110D01*
X018922Y020110D01*
X018922Y020570D01*
X018922Y020547D02*
X018882Y020547D01*
X018882Y020388D02*
X018922Y020388D01*
X018922Y020230D02*
X018882Y020230D01*
X018583Y020230D02*
X017015Y020230D01*
X017007Y020238D02*
X017119Y020126D01*
X017180Y019979D01*
X017180Y019821D01*
X017119Y019674D01*
X017007Y019562D01*
X016861Y019502D01*
X016703Y019502D01*
X016556Y019562D01*
X016444Y019674D01*
X016384Y019821D01*
X016384Y019979D01*
X016444Y020126D01*
X016556Y020238D01*
X016703Y020298D01*
X016861Y020298D01*
X017007Y020238D01*
X017142Y020071D02*
X025948Y020071D01*
X025956Y020062D02*
X026103Y020002D01*
X026261Y020002D01*
X026407Y020062D01*
X026519Y020174D01*
X026580Y020321D01*
X026580Y020479D01*
X026519Y020626D01*
X026407Y020738D01*
X026261Y020798D01*
X026103Y020798D01*
X025956Y020738D01*
X025844Y020626D01*
X025784Y020479D01*
X025784Y020321D01*
X025844Y020174D01*
X025956Y020062D01*
X025821Y020230D02*
X021780Y020230D01*
X021774Y020224D02*
X021828Y020277D01*
X021872Y020338D01*
X021907Y020406D01*
X021930Y020478D01*
X021942Y020552D01*
X021942Y020570D01*
X021482Y020570D01*
X021482Y020610D01*
X021942Y020610D01*
X021942Y020628D01*
X021930Y020702D01*
X021907Y020774D01*
X021872Y020842D01*
X021828Y020903D01*
X021774Y020956D01*
X021713Y021001D01*
X021646Y021035D01*
X021574Y021058D01*
X021500Y021070D01*
X021482Y021070D01*
X021482Y020610D01*
X021442Y020610D01*
X021442Y021070D01*
X021424Y021070D01*
X021349Y021058D01*
X021277Y021035D01*
X021210Y021001D01*
X021149Y020956D01*
X021096Y020903D01*
X021051Y020842D01*
X021017Y020774D01*
X020994Y020702D01*
X020982Y020628D01*
X020982Y020610D01*
X021442Y020610D01*
X021442Y020570D01*
X021482Y020570D01*
X021482Y020110D01*
X021500Y020110D01*
X021574Y020122D01*
X021646Y020145D01*
X021713Y020179D01*
X021774Y020224D01*
X021898Y020388D02*
X025784Y020388D01*
X025812Y020547D02*
X024269Y020547D01*
X024307Y020562D02*
X024419Y020674D01*
X024480Y020821D01*
X024480Y020979D01*
X024419Y021126D01*
X024307Y021238D01*
X024161Y021298D01*
X024003Y021298D01*
X023856Y021238D01*
X023744Y021126D01*
X023684Y020979D01*
X023684Y020821D01*
X023744Y020674D01*
X023856Y020562D01*
X024003Y020502D01*
X024161Y020502D01*
X024307Y020562D01*
X024432Y020705D02*
X025924Y020705D01*
X026440Y020705D02*
X026794Y020705D01*
X026784Y020679D02*
X026784Y020521D01*
X026844Y020374D01*
X026919Y020300D01*
X026844Y020226D01*
X026784Y020079D01*
X026784Y019921D01*
X026844Y019774D01*
X026956Y019662D01*
X027103Y019602D01*
X027261Y019602D01*
X027407Y019662D01*
X027519Y019774D01*
X027580Y019921D01*
X027580Y020079D01*
X027519Y020226D01*
X027445Y020300D01*
X027519Y020374D01*
X027580Y020521D01*
X027580Y020679D01*
X027519Y020826D01*
X027407Y020938D01*
X027261Y020998D01*
X027103Y020998D01*
X026956Y020938D01*
X026844Y020826D01*
X026784Y020679D01*
X026784Y020547D02*
X026552Y020547D01*
X026580Y020388D02*
X026839Y020388D01*
X026848Y020230D02*
X026542Y020230D01*
X026416Y020071D02*
X026784Y020071D01*
X026787Y019913D02*
X017180Y019913D01*
X017152Y019754D02*
X026865Y019754D01*
X027499Y019754D02*
X027765Y019754D01*
X027744Y019774D02*
X027856Y019662D01*
X028003Y019602D01*
X028161Y019602D01*
X028307Y019662D01*
X028419Y019774D01*
X028480Y019921D01*
X028480Y020079D01*
X028419Y020226D01*
X028307Y020338D01*
X028161Y020398D01*
X028003Y020398D01*
X027856Y020338D01*
X027744Y020226D01*
X027684Y020079D01*
X027684Y019921D01*
X027744Y019774D01*
X027687Y019913D02*
X027576Y019913D01*
X027580Y020071D02*
X027684Y020071D01*
X027748Y020230D02*
X027515Y020230D01*
X027525Y020388D02*
X027978Y020388D01*
X028185Y020388D02*
X029707Y020388D01*
X029756Y020438D02*
X029644Y020326D01*
X029584Y020179D01*
X029584Y020021D01*
X029644Y019874D01*
X029756Y019762D01*
X029903Y019702D01*
X030061Y019702D01*
X030207Y019762D01*
X030319Y019874D01*
X030380Y020021D01*
X030380Y020179D01*
X030319Y020326D01*
X030207Y020438D01*
X030061Y020498D01*
X029903Y020498D01*
X029756Y020438D01*
X029604Y020230D02*
X028415Y020230D01*
X028480Y020071D02*
X029584Y020071D01*
X029628Y019913D02*
X028476Y019913D01*
X028399Y019754D02*
X029777Y019754D01*
X030187Y019754D02*
X032682Y019754D01*
X032682Y019596D02*
X017040Y019596D01*
X016523Y019596D02*
X013274Y019596D01*
X013340Y019754D02*
X016411Y019754D01*
X016384Y019913D02*
X013342Y019913D01*
X013288Y020071D02*
X016422Y020071D01*
X016548Y020230D02*
X013153Y020230D01*
X013087Y019437D02*
X032682Y019437D01*
X032682Y019279D02*
X021637Y019279D01*
X021561Y019310D02*
X021362Y019310D01*
X021179Y019234D01*
X021038Y019093D01*
X020962Y018909D01*
X020962Y018711D01*
X021038Y018527D01*
X021179Y018386D01*
X021362Y018310D01*
X021561Y018310D01*
X021745Y018386D01*
X021886Y018527D01*
X021962Y018711D01*
X021962Y018909D01*
X021886Y019093D01*
X021745Y019234D01*
X021561Y019310D01*
X021286Y019279D02*
X019077Y019279D01*
X019001Y019310D02*
X018802Y019310D01*
X018619Y019234D01*
X018478Y019093D01*
X018402Y018909D01*
X018402Y018711D01*
X018478Y018527D01*
X018619Y018386D01*
X018802Y018310D01*
X019001Y018310D01*
X019185Y018386D01*
X019326Y018527D01*
X019402Y018711D01*
X019402Y018909D01*
X019326Y019093D01*
X019185Y019234D01*
X019001Y019310D01*
X018726Y019279D02*
X011962Y019279D01*
X011980Y019437D02*
X012677Y019437D01*
X012489Y019596D02*
X011932Y019596D01*
X011865Y019120D02*
X018505Y019120D01*
X018423Y018962D02*
X007583Y018962D01*
X007670Y018803D02*
X018402Y018803D01*
X018429Y018645D02*
X007680Y018645D01*
X007624Y018486D02*
X018519Y018486D01*
X018760Y018328D02*
X013155Y018328D01*
X013142Y018340D02*
X012973Y018410D01*
X012790Y018410D01*
X012621Y018340D01*
X012492Y018211D01*
X012422Y018041D01*
X012422Y017858D01*
X012492Y017689D01*
X012621Y017560D01*
X012790Y017490D01*
X012973Y017490D01*
X013142Y017560D01*
X013272Y017689D01*
X013342Y017858D01*
X013342Y018041D01*
X013272Y018211D01*
X013142Y018340D01*
X013289Y018169D02*
X025984Y018169D01*
X025984Y018121D02*
X026044Y017974D01*
X026156Y017862D01*
X026303Y017802D01*
X026461Y017802D01*
X026607Y017862D01*
X026719Y017974D01*
X026780Y018121D01*
X026780Y018279D01*
X026719Y018426D01*
X026607Y018538D01*
X026461Y018598D01*
X026303Y018598D01*
X026156Y018538D01*
X026044Y018426D01*
X025984Y018279D01*
X025984Y018121D01*
X026029Y018011D02*
X013342Y018011D01*
X013339Y017852D02*
X021291Y017852D01*
X021256Y017838D02*
X021144Y017726D01*
X021084Y017579D01*
X021084Y017421D01*
X021144Y017274D01*
X021256Y017162D01*
X021403Y017102D01*
X021561Y017102D01*
X021707Y017162D01*
X021819Y017274D01*
X021880Y017421D01*
X021880Y017579D01*
X021819Y017726D01*
X021707Y017838D01*
X021561Y017898D01*
X021403Y017898D01*
X021256Y017838D01*
X021131Y017694D02*
X013273Y017694D01*
X013082Y017535D02*
X021084Y017535D01*
X021102Y017377D02*
X015813Y017377D01*
X015761Y017398D02*
X015603Y017398D01*
X015456Y017338D01*
X015344Y017226D01*
X015284Y017079D01*
X015284Y016921D01*
X015344Y016774D01*
X015456Y016662D01*
X015603Y016602D01*
X015761Y016602D01*
X015907Y016662D01*
X016019Y016774D01*
X016080Y016921D01*
X016080Y017079D01*
X016019Y017226D01*
X015907Y017338D01*
X015761Y017398D01*
X015550Y017377D02*
X010580Y017377D01*
X010580Y017321D02*
X010519Y017174D01*
X010407Y017062D01*
X010261Y017002D01*
X010103Y017002D01*
X009956Y017062D01*
X009844Y017174D01*
X009784Y017321D01*
X009784Y017479D01*
X009844Y017626D01*
X009956Y017738D01*
X010103Y017798D01*
X010261Y017798D01*
X010407Y017738D01*
X010519Y017626D01*
X010580Y017479D01*
X010580Y017321D01*
X010537Y017218D02*
X015341Y017218D01*
X015284Y017060D02*
X010400Y017060D01*
X009963Y017060D02*
X009085Y017060D01*
X009119Y017026D02*
X009007Y017138D01*
X008861Y017198D01*
X008703Y017198D01*
X008556Y017138D01*
X008444Y017026D01*
X008384Y016879D01*
X008384Y016721D01*
X008444Y016574D01*
X008556Y016462D01*
X008703Y016402D01*
X008861Y016402D01*
X009007Y016462D01*
X009119Y016574D01*
X009180Y016721D01*
X009180Y016879D01*
X009119Y017026D01*
X009171Y016901D02*
X015292Y016901D01*
X015376Y016743D02*
X009180Y016743D01*
X009123Y016584D02*
X027686Y016584D01*
X027684Y016579D02*
X027684Y016421D01*
X027744Y016274D01*
X027856Y016162D01*
X028003Y016102D01*
X028134Y016102D01*
X028084Y015979D01*
X028084Y015821D01*
X028144Y015674D01*
X028256Y015562D01*
X028384Y015510D01*
X028384Y015421D01*
X028444Y015274D01*
X028556Y015162D01*
X028703Y015102D01*
X028861Y015102D01*
X029007Y015162D01*
X029119Y015274D01*
X029141Y015327D01*
X029203Y015302D01*
X029361Y015302D01*
X029507Y015362D01*
X029619Y015474D01*
X029680Y015621D01*
X029680Y015779D01*
X029619Y015926D01*
X029507Y016038D01*
X029361Y016098D01*
X029203Y016098D01*
X029056Y016038D01*
X028944Y015926D01*
X028922Y015873D01*
X028880Y015890D01*
X028880Y015979D01*
X028819Y016126D01*
X028707Y016238D01*
X028561Y016298D01*
X028429Y016298D01*
X028480Y016421D01*
X028480Y016579D01*
X028419Y016726D01*
X028307Y016838D01*
X028161Y016898D01*
X028003Y016898D01*
X027856Y016838D01*
X027744Y016726D01*
X027684Y016579D01*
X027684Y016426D02*
X008918Y016426D01*
X008645Y016426D02*
X003975Y016426D01*
X004133Y016584D02*
X008440Y016584D01*
X008384Y016743D02*
X004292Y016743D01*
X004450Y016901D02*
X008393Y016901D01*
X008478Y017060D02*
X004609Y017060D01*
X004767Y017218D02*
X009826Y017218D01*
X009784Y017377D02*
X004926Y017377D01*
X005084Y017535D02*
X009807Y017535D01*
X009912Y017694D02*
X005243Y017694D01*
X005401Y017852D02*
X012424Y017852D01*
X012422Y018011D02*
X005560Y018011D01*
X005718Y018169D02*
X012475Y018169D01*
X012609Y018328D02*
X007423Y018328D01*
X007141Y018328D02*
X005877Y018328D01*
X005459Y018645D02*
X005448Y018645D01*
X005480Y018803D02*
X005617Y018803D01*
X005028Y020547D02*
X015072Y020547D01*
X014990Y020705D02*
X010350Y020705D01*
X010307Y020662D02*
X010419Y020774D01*
X010480Y020921D01*
X010480Y021079D01*
X010419Y021226D01*
X010307Y021338D01*
X010161Y021398D01*
X010003Y021398D01*
X009856Y021338D01*
X009744Y021226D01*
X009684Y021079D01*
X009684Y020921D01*
X009744Y020774D01*
X009856Y020662D01*
X010003Y020602D01*
X010161Y020602D01*
X010307Y020662D01*
X010456Y020864D02*
X014984Y020864D01*
X015043Y021022D02*
X013610Y021022D01*
X013561Y021002D02*
X013707Y021062D01*
X013819Y021174D01*
X013880Y021321D01*
X013880Y021479D01*
X013819Y021626D01*
X013707Y021738D01*
X013561Y021798D01*
X013403Y021798D01*
X013256Y021738D01*
X013144Y021626D01*
X013084Y021479D01*
X013084Y021321D01*
X013144Y021174D01*
X013256Y021062D01*
X013403Y021002D01*
X013561Y021002D01*
X013354Y021022D02*
X010480Y021022D01*
X010438Y021181D02*
X013142Y021181D01*
X013084Y021339D02*
X010304Y021339D01*
X009860Y021339D02*
X005721Y021339D01*
X005582Y021181D02*
X009726Y021181D01*
X009684Y021022D02*
X005504Y021022D01*
X005345Y020864D02*
X009707Y020864D01*
X009814Y020705D02*
X005187Y020705D01*
X005879Y021498D02*
X012221Y021498D01*
X012110Y021656D02*
X006038Y021656D01*
X006196Y021815D02*
X012084Y021815D01*
X012122Y021973D02*
X006355Y021973D01*
X006513Y022132D02*
X012250Y022132D01*
X012492Y022290D02*
X006672Y022290D01*
X006830Y022449D02*
X010870Y022449D01*
X010844Y022474D02*
X010956Y022362D01*
X011103Y022302D01*
X011261Y022302D01*
X011407Y022362D01*
X011519Y022474D01*
X011580Y022621D01*
X011580Y022779D01*
X011519Y022926D01*
X011407Y023038D01*
X011261Y023098D01*
X011103Y023098D01*
X010956Y023038D01*
X010844Y022926D01*
X010784Y022779D01*
X010784Y022621D01*
X010844Y022474D01*
X010789Y022607D02*
X006989Y022607D01*
X007147Y022766D02*
X010784Y022766D01*
X010844Y022924D02*
X007306Y022924D01*
X007464Y023083D02*
X011065Y023083D01*
X011299Y023083D02*
X011699Y023083D01*
X011858Y022924D02*
X011520Y022924D01*
X011580Y022766D02*
X012016Y022766D01*
X012175Y022607D02*
X011574Y022607D01*
X011493Y022449D02*
X012333Y022449D01*
X012841Y021973D02*
X016409Y021973D01*
X016567Y021815D02*
X012880Y021815D01*
X012853Y021656D02*
X013175Y021656D01*
X013091Y021498D02*
X012742Y021498D01*
X013789Y021656D02*
X016726Y021656D01*
X017365Y021498D02*
X013872Y021498D01*
X013880Y021339D02*
X031680Y021339D01*
X031644Y021374D02*
X031756Y021262D01*
X031903Y021202D01*
X032061Y021202D01*
X032207Y021262D01*
X032319Y021374D01*
X032380Y021521D01*
X032380Y021679D01*
X032319Y021826D01*
X032207Y021938D01*
X032061Y021998D01*
X031903Y021998D01*
X031756Y021938D01*
X031644Y021826D01*
X031584Y021679D01*
X031584Y021521D01*
X031644Y021374D01*
X031593Y021498D02*
X017998Y021498D01*
X017780Y022392D02*
X017842Y022413D01*
X017901Y022443D01*
X017954Y022481D01*
X018000Y022528D01*
X018039Y022581D01*
X018069Y022640D01*
X018089Y022702D01*
X018100Y022767D01*
X018100Y022800D01*
X018100Y022833D01*
X018089Y022898D01*
X018069Y022960D01*
X018039Y023019D01*
X018000Y023072D01*
X017954Y023119D01*
X017901Y023157D01*
X017842Y023187D01*
X017780Y023208D01*
X017715Y023218D01*
X017682Y023218D01*
X017682Y022800D01*
X018100Y022800D01*
X017682Y022800D01*
X017682Y022800D01*
X017682Y022800D01*
X017682Y022382D01*
X017715Y022382D01*
X017780Y022392D01*
X017682Y022382D02*
X017682Y022800D01*
X017682Y022800D01*
X017682Y023218D01*
X017649Y023218D01*
X017584Y023208D01*
X017521Y023187D01*
X017463Y023157D01*
X017410Y023119D01*
X017363Y023072D01*
X017324Y023019D01*
X017295Y022960D01*
X017274Y022898D01*
X017264Y022833D01*
X017264Y022800D01*
X017264Y022767D01*
X017274Y022702D01*
X017295Y022640D01*
X017324Y022581D01*
X017363Y022528D01*
X017410Y022481D01*
X017463Y022443D01*
X017521Y022413D01*
X017584Y022392D01*
X017649Y022382D01*
X017682Y022382D01*
X017682Y022449D02*
X017682Y022449D01*
X017682Y022607D02*
X017682Y022607D01*
X017682Y022766D02*
X017682Y022766D01*
X017682Y022800D02*
X017264Y022800D01*
X017682Y022800D01*
X017682Y022800D01*
X017682Y022924D02*
X017682Y022924D01*
X017682Y023083D02*
X017682Y023083D01*
X017990Y023083D02*
X019364Y023083D01*
X019523Y023241D02*
X016241Y023241D01*
X016399Y023083D02*
X017373Y023083D01*
X017283Y022924D02*
X016558Y022924D01*
X016716Y022766D02*
X017264Y022766D01*
X017311Y022607D02*
X016875Y022607D01*
X017033Y022449D02*
X017455Y022449D01*
X017182Y022300D02*
X015682Y023800D01*
X014503Y023800D01*
X014542Y023813D01*
X014601Y023843D01*
X014654Y023881D01*
X014700Y023928D01*
X014739Y023981D01*
X014769Y024040D01*
X014789Y024102D01*
X014800Y024167D01*
X014800Y024200D01*
X014800Y024233D01*
X014789Y024298D01*
X014769Y024360D01*
X014739Y024419D01*
X014700Y024472D01*
X014654Y024519D01*
X014601Y024557D01*
X014542Y024587D01*
X014480Y024608D01*
X014415Y024618D01*
X014382Y024618D01*
X014382Y024200D01*
X014800Y024200D01*
X014382Y024200D01*
X014382Y024200D01*
X014382Y024200D01*
X014382Y024618D01*
X014349Y024618D01*
X014284Y024608D01*
X014221Y024587D01*
X014163Y024557D01*
X014110Y024519D01*
X014063Y024472D01*
X014024Y024419D01*
X013995Y024360D01*
X013974Y024298D01*
X013964Y024233D01*
X013964Y024200D01*
X013964Y024167D01*
X013974Y024102D01*
X013995Y024040D01*
X014024Y023981D01*
X014063Y023928D01*
X014110Y023881D01*
X014163Y023843D01*
X014221Y023813D01*
X014261Y023800D01*
X007382Y023800D01*
X005482Y021900D01*
X001762Y021900D01*
X001762Y039890D01*
X037082Y039890D01*
X037082Y017700D01*
X034282Y017700D01*
X033382Y018600D01*
X033382Y024800D01*
X031582Y026600D01*
X031582Y027400D01*
X030182Y028800D01*
X023582Y028800D01*
X020082Y025300D01*
X020082Y023800D01*
X018582Y022300D01*
X017182Y022300D01*
X017909Y022449D02*
X018730Y022449D01*
X018889Y022607D02*
X018052Y022607D01*
X018099Y022766D02*
X019047Y022766D01*
X019206Y022924D02*
X018081Y022924D01*
X019681Y023400D02*
X016082Y023400D01*
X015924Y023558D02*
X019840Y023558D01*
X019998Y023717D02*
X015765Y023717D01*
X014766Y024034D02*
X020082Y024034D01*
X020082Y024192D02*
X014800Y024192D01*
X014772Y024351D02*
X020082Y024351D01*
X020082Y024509D02*
X014664Y024509D01*
X014382Y024509D02*
X014382Y024509D01*
X014382Y024351D02*
X014382Y024351D01*
X014382Y024200D02*
X013964Y024200D01*
X014382Y024200D01*
X014382Y024200D01*
X013964Y024192D02*
X012837Y024192D01*
X012869Y024224D02*
X012930Y024371D01*
X012930Y024529D01*
X012869Y024676D01*
X012757Y024788D01*
X012611Y024848D01*
X012453Y024848D01*
X012306Y024788D01*
X012194Y024676D01*
X012134Y024529D01*
X012134Y024371D01*
X012194Y024224D01*
X012306Y024112D01*
X012453Y024052D01*
X012611Y024052D01*
X012757Y024112D01*
X012869Y024224D01*
X012921Y024351D02*
X013991Y024351D01*
X014100Y024509D02*
X012930Y024509D01*
X012873Y024668D02*
X020082Y024668D01*
X020082Y024826D02*
X012664Y024826D01*
X012399Y024826D02*
X011719Y024826D01*
X011607Y024938D01*
X011461Y024998D01*
X011303Y024998D01*
X011156Y024938D01*
X011044Y024826D01*
X010984Y024679D01*
X010984Y024521D01*
X011044Y024374D01*
X011156Y024262D01*
X011303Y024202D01*
X011461Y024202D01*
X011607Y024262D01*
X011719Y024374D01*
X011780Y024521D01*
X011780Y024679D01*
X011719Y024826D01*
X011780Y024668D02*
X012191Y024668D01*
X012134Y024509D02*
X011775Y024509D01*
X011695Y024351D02*
X012142Y024351D01*
X012227Y024192D02*
X003481Y024192D01*
X003465Y024176D02*
X003606Y024317D01*
X003682Y024501D01*
X003682Y024699D01*
X003606Y024883D01*
X003465Y025024D01*
X003281Y025100D01*
X003082Y025100D01*
X002899Y025024D01*
X002758Y024883D01*
X002682Y024699D01*
X002682Y024501D01*
X002758Y024317D01*
X002899Y024176D01*
X003082Y024100D01*
X003281Y024100D01*
X003465Y024176D01*
X003388Y024034D02*
X013998Y024034D01*
X014118Y023875D02*
X003575Y023875D01*
X003592Y023852D02*
X003548Y023913D01*
X003494Y023966D01*
X003433Y024011D01*
X003366Y024045D01*
X003294Y024068D01*
X003220Y024080D01*
X003202Y024080D01*
X003202Y023620D01*
X003662Y023620D01*
X003662Y023638D01*
X003650Y023712D01*
X003627Y023784D01*
X003592Y023852D01*
X003649Y023717D02*
X007298Y023717D01*
X007140Y023558D02*
X003661Y023558D01*
X003662Y023562D02*
X003662Y023580D01*
X003202Y023580D01*
X003202Y023620D01*
X003162Y023620D01*
X003162Y024080D01*
X003144Y024080D01*
X003069Y024068D01*
X002997Y024045D01*
X002930Y024011D01*
X002869Y023966D01*
X002816Y023913D01*
X002771Y023852D01*
X002737Y023784D01*
X002714Y023712D01*
X002702Y023638D01*
X002702Y023620D01*
X003162Y023620D01*
X003162Y023580D01*
X003202Y023580D01*
X003202Y023120D01*
X003220Y023120D01*
X003294Y023132D01*
X003366Y023155D01*
X003433Y023189D01*
X003494Y023234D01*
X003548Y023287D01*
X003592Y023348D01*
X003627Y023416D01*
X003650Y023488D01*
X003662Y023562D01*
X003618Y023400D02*
X006981Y023400D01*
X006823Y023241D02*
X003502Y023241D01*
X003465Y023024D02*
X003281Y023100D01*
X003082Y023100D01*
X002899Y023024D01*
X002758Y022883D01*
X002682Y022699D01*
X002682Y022501D01*
X002758Y022317D01*
X002899Y022176D01*
X003082Y022100D01*
X003281Y022100D01*
X003465Y022176D01*
X003606Y022317D01*
X003682Y022501D01*
X003682Y022699D01*
X003606Y022883D01*
X003465Y023024D01*
X003565Y022924D02*
X006506Y022924D01*
X006664Y023083D02*
X003323Y023083D01*
X003162Y023120D02*
X003162Y023580D01*
X002702Y023580D01*
X002702Y023562D01*
X002714Y023488D01*
X002737Y023416D01*
X002771Y023348D01*
X002816Y023287D01*
X002869Y023234D01*
X002930Y023189D01*
X002997Y023155D01*
X003069Y023132D01*
X003144Y023120D01*
X003162Y023120D01*
X003162Y023241D02*
X003202Y023241D01*
X003202Y023400D02*
X003162Y023400D01*
X003162Y023558D02*
X003202Y023558D01*
X003202Y023717D02*
X003162Y023717D01*
X003162Y023875D02*
X003202Y023875D01*
X003202Y024034D02*
X003162Y024034D01*
X002975Y024034D02*
X001762Y024034D01*
X001762Y024192D02*
X002883Y024192D01*
X002744Y024351D02*
X001762Y024351D01*
X001762Y024509D02*
X002682Y024509D01*
X002682Y024668D02*
X001762Y024668D01*
X001762Y024826D02*
X002734Y024826D01*
X002859Y024985D02*
X001762Y024985D01*
X001762Y025143D02*
X020082Y025143D01*
X020082Y024985D02*
X011494Y024985D01*
X011270Y024985D02*
X003504Y024985D01*
X003629Y024826D02*
X011045Y024826D01*
X010984Y024668D02*
X003682Y024668D01*
X003682Y024509D02*
X010988Y024509D01*
X011068Y024351D02*
X003620Y024351D01*
X002788Y023875D02*
X001762Y023875D01*
X001762Y023717D02*
X002715Y023717D01*
X002702Y023558D02*
X001762Y023558D01*
X001762Y023400D02*
X002745Y023400D01*
X002862Y023241D02*
X001762Y023241D01*
X001762Y023083D02*
X003040Y023083D01*
X002799Y022924D02*
X001762Y022924D01*
X001762Y022766D02*
X002709Y022766D01*
X002682Y022607D02*
X001762Y022607D01*
X001762Y022449D02*
X002703Y022449D01*
X002785Y022290D02*
X001762Y022290D01*
X001762Y022132D02*
X003006Y022132D01*
X003357Y022132D02*
X005713Y022132D01*
X005872Y022290D02*
X003579Y022290D01*
X003660Y022449D02*
X006030Y022449D01*
X006189Y022607D02*
X003682Y022607D01*
X003654Y022766D02*
X006347Y022766D01*
X005555Y021973D02*
X001762Y021973D01*
X001870Y020388D02*
X007107Y020388D01*
X010451Y017694D02*
X012490Y017694D01*
X012682Y017535D02*
X010557Y017535D01*
X011630Y015611D02*
X011569Y015566D01*
X011516Y015513D01*
X011471Y015452D01*
X011437Y015384D01*
X011414Y015312D01*
X011402Y015238D01*
X011402Y015220D01*
X011862Y015220D01*
X011862Y015680D01*
X011844Y015680D01*
X011769Y015668D01*
X011697Y015645D01*
X011630Y015611D01*
X011674Y015633D02*
X004680Y015633D01*
X004661Y015475D02*
X011488Y015475D01*
X011415Y015316D02*
X004561Y015316D01*
X004633Y015792D02*
X028096Y015792D01*
X028084Y015950D02*
X004477Y015950D01*
X004086Y015950D02*
X003799Y015950D01*
X003658Y016109D02*
X027987Y016109D01*
X027752Y016267D02*
X003816Y016267D01*
X003223Y015792D02*
X001762Y015792D01*
X001762Y015950D02*
X002725Y015950D01*
X002620Y016109D02*
X001762Y016109D01*
X001762Y016267D02*
X002582Y016267D01*
X002593Y016426D02*
X001762Y016426D01*
X001762Y016584D02*
X002659Y016584D01*
X003381Y015633D02*
X001762Y015633D01*
X001762Y015475D02*
X003540Y015475D01*
X004003Y015316D02*
X001762Y015316D01*
X001762Y015158D02*
X011402Y015158D01*
X011402Y015162D02*
X011414Y015088D01*
X011437Y015016D01*
X011471Y014948D01*
X011516Y014887D01*
X011569Y014834D01*
X011630Y014789D01*
X011697Y014755D01*
X011769Y014732D01*
X011844Y014720D01*
X011862Y014720D01*
X011862Y015180D01*
X011902Y015180D01*
X011902Y015220D01*
X012362Y015220D01*
X012362Y015238D01*
X012350Y015312D01*
X012327Y015384D01*
X012292Y015452D01*
X012248Y015513D01*
X012194Y015566D01*
X012133Y015611D01*
X012066Y015645D01*
X011994Y015668D01*
X011920Y015680D01*
X011902Y015680D01*
X011902Y015220D01*
X011862Y015220D01*
X011862Y015180D01*
X011402Y015180D01*
X011402Y015162D01*
X011445Y014999D02*
X001762Y014999D01*
X001762Y014841D02*
X011562Y014841D01*
X011599Y014624D02*
X011458Y014483D01*
X011382Y014299D01*
X011382Y014101D01*
X011458Y013917D01*
X011599Y013776D01*
X011782Y013700D01*
X011599Y013624D01*
X011458Y013483D01*
X011382Y013299D01*
X011382Y013101D01*
X011458Y012917D01*
X011599Y012776D01*
X011782Y012700D01*
X011599Y012624D01*
X011458Y012483D01*
X011382Y012299D01*
X011382Y012101D01*
X011458Y011917D01*
X011599Y011776D01*
X011782Y011700D01*
X011981Y011700D01*
X012165Y011776D01*
X012306Y011917D01*
X012382Y012101D01*
X012382Y012299D01*
X012306Y012483D01*
X012165Y012624D01*
X011981Y012700D01*
X011782Y012700D01*
X011981Y012700D01*
X012165Y012776D01*
X012306Y012917D01*
X012382Y013101D01*
X012382Y013299D01*
X012306Y013483D01*
X012165Y013624D01*
X011981Y013700D01*
X011782Y013700D01*
X011981Y013700D01*
X012165Y013776D01*
X012306Y013917D01*
X012382Y014101D01*
X012382Y014299D01*
X012306Y014483D01*
X012165Y014624D01*
X011981Y014700D01*
X011782Y014700D01*
X011599Y014624D01*
X011498Y014524D02*
X001762Y014524D01*
X001762Y014682D02*
X011739Y014682D01*
X011902Y014720D02*
X011920Y014720D01*
X011994Y014732D01*
X012066Y014755D01*
X012133Y014789D01*
X012194Y014834D01*
X012248Y014887D01*
X012292Y014948D01*
X012327Y015016D01*
X012350Y015088D01*
X012362Y015162D01*
X012362Y015180D01*
X011902Y015180D01*
X011902Y014720D01*
X011902Y014841D02*
X011862Y014841D01*
X011862Y014999D02*
X011902Y014999D01*
X011902Y015158D02*
X011862Y015158D01*
X011862Y015316D02*
X011902Y015316D01*
X011902Y015475D02*
X011862Y015475D01*
X011862Y015633D02*
X011902Y015633D01*
X012089Y015633D02*
X028186Y015633D01*
X028384Y015475D02*
X012276Y015475D01*
X012349Y015316D02*
X023697Y015316D01*
X023642Y015261D02*
X023572Y015091D01*
X023572Y014908D01*
X023642Y014739D01*
X023771Y014610D01*
X023940Y014540D01*
X024123Y014540D01*
X024292Y014610D01*
X024422Y014739D01*
X024492Y014908D01*
X024492Y015091D01*
X024422Y015261D01*
X024292Y015390D01*
X024123Y015460D01*
X023940Y015460D01*
X023771Y015390D01*
X023642Y015261D01*
X023599Y015158D02*
X012361Y015158D01*
X012318Y014999D02*
X014590Y014999D01*
X014645Y015054D02*
X014528Y014937D01*
X014464Y014783D01*
X014464Y014617D01*
X014528Y014463D01*
X014645Y014346D01*
X014799Y014282D01*
X014965Y014282D01*
X015118Y014346D01*
X015236Y014463D01*
X015300Y014617D01*
X015300Y014783D01*
X015236Y014937D01*
X015118Y015054D01*
X014965Y015118D01*
X014799Y015118D01*
X014645Y015054D01*
X014488Y014841D02*
X012201Y014841D01*
X012025Y014682D02*
X014464Y014682D01*
X014503Y014524D02*
X012265Y014524D01*
X012355Y014365D02*
X014626Y014365D01*
X015138Y014365D02*
X022684Y014365D01*
X022644Y014326D02*
X022584Y014179D01*
X022584Y014021D01*
X022644Y013874D01*
X022756Y013762D01*
X022903Y013702D01*
X023061Y013702D01*
X023207Y013762D01*
X023319Y013874D01*
X023380Y014021D01*
X023380Y014179D01*
X023319Y014326D01*
X023207Y014438D01*
X023061Y014498D01*
X022903Y014498D01*
X022756Y014438D01*
X022644Y014326D01*
X022595Y014207D02*
X012382Y014207D01*
X012360Y014048D02*
X022584Y014048D01*
X022638Y013890D02*
X012278Y013890D01*
X012056Y013731D02*
X022832Y013731D01*
X023131Y013731D02*
X034510Y013731D01*
X034461Y013681D02*
X034385Y013499D01*
X034385Y013301D01*
X034461Y013119D01*
X034600Y012979D01*
X034783Y012903D01*
X034981Y012903D01*
X035163Y012979D01*
X035303Y013119D01*
X035379Y013301D01*
X035379Y013499D01*
X035303Y013681D01*
X035163Y013821D01*
X034981Y013897D01*
X034783Y013897D01*
X034600Y013821D01*
X034461Y013681D01*
X034415Y013573D02*
X012216Y013573D01*
X012334Y013414D02*
X013233Y013414D01*
X013256Y013438D02*
X013144Y013326D01*
X013084Y013179D01*
X013084Y013021D01*
X013144Y012874D01*
X013256Y012762D01*
X013403Y012702D01*
X013561Y012702D01*
X013707Y012762D01*
X013819Y012874D01*
X013880Y013021D01*
X013880Y013179D01*
X013819Y013326D01*
X013707Y013438D01*
X013561Y013498D01*
X013403Y013498D01*
X013256Y013438D01*
X013115Y013256D02*
X012382Y013256D01*
X012380Y013097D02*
X013084Y013097D01*
X013118Y012939D02*
X012315Y012939D01*
X012169Y012780D02*
X013239Y012780D01*
X013444Y012526D02*
X013556Y012638D01*
X013703Y012698D01*
X013861Y012698D01*
X013884Y012689D01*
X013884Y012779D01*
X013944Y012926D01*
X014056Y013038D01*
X014203Y013098D01*
X014361Y013098D01*
X014507Y013038D01*
X014619Y012926D01*
X014680Y012779D01*
X014680Y012621D01*
X014619Y012474D01*
X014507Y012362D01*
X014361Y012302D01*
X014203Y012302D01*
X014180Y012311D01*
X014180Y012221D01*
X014119Y012074D01*
X014007Y011962D01*
X013861Y011902D01*
X013703Y011902D01*
X013556Y011962D01*
X013444Y012074D01*
X013384Y012221D01*
X013384Y012379D01*
X013444Y012526D01*
X013418Y012463D02*
X012314Y012463D01*
X012380Y012305D02*
X013384Y012305D01*
X013415Y012146D02*
X012382Y012146D01*
X012335Y011988D02*
X013531Y011988D01*
X013844Y011826D02*
X013784Y011679D01*
X013784Y011521D01*
X013844Y011374D01*
X013956Y011262D01*
X014103Y011202D01*
X014261Y011202D01*
X014407Y011262D01*
X014519Y011374D01*
X014580Y011521D01*
X014580Y011553D01*
X014703Y011502D01*
X014861Y011502D01*
X015007Y011562D01*
X015119Y011674D01*
X015180Y011821D01*
X015180Y011979D01*
X015119Y012126D01*
X015007Y012238D01*
X014861Y012298D01*
X014703Y012298D01*
X014556Y012238D01*
X014444Y012126D01*
X014384Y011979D01*
X014384Y011947D01*
X014261Y011998D01*
X014103Y011998D01*
X013956Y011938D01*
X013844Y011826D01*
X013848Y011829D02*
X012218Y011829D01*
X011546Y011829D02*
X002945Y011829D01*
X002950Y011812D02*
X002927Y011884D01*
X002892Y011952D01*
X002848Y012013D01*
X002794Y012066D01*
X002733Y012111D01*
X002666Y012145D01*
X002594Y012168D01*
X002520Y012180D01*
X002502Y012180D01*
X002502Y011720D01*
X002962Y011720D01*
X002962Y011738D01*
X002950Y011812D01*
X002962Y011680D02*
X002502Y011680D01*
X002502Y011720D01*
X002462Y011720D01*
X002462Y012180D01*
X002444Y012180D01*
X002369Y012168D01*
X002297Y012145D01*
X002230Y012111D01*
X002169Y012066D01*
X002116Y012013D01*
X002071Y011952D01*
X002037Y011884D01*
X002014Y011812D01*
X002002Y011738D01*
X002002Y011720D01*
X002462Y011720D01*
X002462Y011680D01*
X002502Y011680D01*
X002502Y011220D01*
X002520Y011220D01*
X002594Y011232D01*
X002666Y011255D01*
X002733Y011289D01*
X002794Y011334D01*
X002848Y011387D01*
X002892Y011448D01*
X002927Y011516D01*
X002950Y011588D01*
X002962Y011662D01*
X002962Y011680D01*
X002962Y011671D02*
X004889Y011671D01*
X004844Y011626D02*
X004784Y011479D01*
X004784Y011321D01*
X004844Y011174D01*
X004956Y011062D01*
X005103Y011002D01*
X005261Y011002D01*
X005407Y011062D01*
X005508Y011163D01*
X005544Y011074D01*
X005656Y010962D01*
X005803Y010902D01*
X005961Y010902D01*
X006107Y010962D01*
X006219Y011074D01*
X006280Y011221D01*
X006280Y011379D01*
X006219Y011526D01*
X006107Y011638D01*
X005961Y011698D01*
X005803Y011698D01*
X005656Y011638D01*
X005556Y011537D01*
X005519Y011626D01*
X005407Y011738D01*
X005261Y011798D01*
X005103Y011798D01*
X004956Y011738D01*
X004844Y011626D01*
X004797Y011512D02*
X002925Y011512D01*
X002814Y011354D02*
X004295Y011354D01*
X004256Y011338D02*
X004144Y011226D01*
X004084Y011079D01*
X004084Y010921D01*
X004144Y010774D01*
X004256Y010662D01*
X004403Y010602D01*
X004561Y010602D01*
X004707Y010662D01*
X004819Y010774D01*
X004880Y010921D01*
X004880Y011079D01*
X004819Y011226D01*
X004707Y011338D01*
X004561Y011398D01*
X004403Y011398D01*
X004256Y011338D01*
X004132Y011195D02*
X001762Y011195D01*
X001762Y011037D02*
X004084Y011037D01*
X004101Y010878D02*
X002811Y010878D01*
X002765Y010924D02*
X002581Y011000D01*
X002382Y011000D01*
X002199Y010924D01*
X002058Y010783D01*
X001982Y010599D01*
X001982Y010401D01*
X002058Y010217D01*
X002199Y010076D01*
X002382Y010000D01*
X002581Y010000D01*
X002765Y010076D01*
X002906Y010217D01*
X002982Y010401D01*
X002982Y010599D01*
X002906Y010783D01*
X002765Y010924D01*
X002932Y010720D02*
X004199Y010720D01*
X004764Y010720D02*
X025326Y010720D01*
X025344Y010674D02*
X025456Y010562D01*
X025603Y010502D01*
X025761Y010502D01*
X025907Y010562D01*
X026019Y010674D01*
X026080Y010821D01*
X026080Y010979D01*
X026019Y011126D01*
X025907Y011238D01*
X025761Y011298D01*
X025603Y011298D01*
X025456Y011238D01*
X025344Y011126D01*
X025284Y010979D01*
X025284Y010821D01*
X025344Y010674D01*
X025460Y010561D02*
X002982Y010561D01*
X002982Y010403D02*
X037082Y010403D01*
X037082Y010561D02*
X025904Y010561D01*
X026038Y010720D02*
X037082Y010720D01*
X037082Y010878D02*
X026080Y010878D01*
X026056Y011037D02*
X034543Y011037D01*
X034600Y010979D02*
X034783Y010903D01*
X034981Y010903D01*
X035163Y010979D01*
X035303Y011119D01*
X035379Y011301D01*
X035379Y011499D01*
X035303Y011681D01*
X035163Y011821D01*
X034981Y011897D01*
X034783Y011897D01*
X034600Y011821D01*
X034461Y011681D01*
X034385Y011499D01*
X034385Y011301D01*
X034461Y011119D01*
X034600Y010979D01*
X034429Y011195D02*
X025950Y011195D01*
X025414Y011195D02*
X006269Y011195D01*
X006280Y011354D02*
X013865Y011354D01*
X013787Y011512D02*
X006225Y011512D01*
X006028Y011671D02*
X013784Y011671D01*
X014032Y011988D02*
X014077Y011988D01*
X014149Y012146D02*
X014465Y012146D01*
X014387Y011988D02*
X014286Y011988D01*
X014367Y012305D02*
X034414Y012305D01*
X034417Y012288D02*
X034440Y012217D01*
X034474Y012150D01*
X034518Y012089D01*
X034571Y012036D01*
X034632Y011992D01*
X034699Y011958D01*
X034770Y011935D01*
X034844Y011923D01*
X034863Y011923D01*
X034863Y012382D01*
X034405Y012382D01*
X034405Y012362D01*
X034417Y012288D01*
X034405Y012418D02*
X034863Y012418D01*
X034863Y012382D01*
X034900Y012382D01*
X034900Y012418D01*
X035359Y012418D01*
X035359Y012438D01*
X035347Y012512D01*
X035324Y012583D01*
X035290Y012650D01*
X035245Y012711D01*
X035192Y012764D01*
X035132Y012808D01*
X035065Y012842D01*
X034993Y012865D01*
X034919Y012877D01*
X034900Y012877D01*
X034900Y012418D01*
X034863Y012418D01*
X034863Y012877D01*
X034844Y012877D01*
X034770Y012865D01*
X034699Y012842D01*
X034632Y012808D01*
X034571Y012764D01*
X034518Y012711D01*
X034474Y012650D01*
X034440Y012583D01*
X034417Y012512D01*
X034405Y012438D01*
X034405Y012418D01*
X034409Y012463D02*
X014608Y012463D01*
X014680Y012622D02*
X034459Y012622D01*
X034594Y012780D02*
X014679Y012780D01*
X014606Y012939D02*
X034698Y012939D01*
X034863Y012780D02*
X034900Y012780D01*
X034900Y012622D02*
X034863Y012622D01*
X034863Y012463D02*
X034900Y012463D01*
X034900Y012382D02*
X035359Y012382D01*
X035359Y012362D01*
X035347Y012288D01*
X035324Y012217D01*
X035290Y012150D01*
X035245Y012089D01*
X035192Y012036D01*
X035132Y011992D01*
X035065Y011958D01*
X034993Y011935D01*
X034919Y011923D01*
X034900Y011923D01*
X034900Y012382D01*
X034900Y012305D02*
X034863Y012305D01*
X034863Y012146D02*
X034900Y012146D01*
X034900Y011988D02*
X034863Y011988D01*
X034641Y011988D02*
X024186Y011988D01*
X024161Y011998D02*
X024003Y011998D01*
X023856Y011938D01*
X023744Y011826D01*
X023684Y011679D01*
X023684Y011521D01*
X023744Y011374D01*
X023856Y011262D01*
X024003Y011202D01*
X024161Y011202D01*
X024307Y011262D01*
X024419Y011374D01*
X024480Y011521D01*
X024480Y011679D01*
X024419Y011826D01*
X024307Y011938D01*
X024161Y011998D01*
X023977Y011988D02*
X023476Y011988D01*
X023480Y011979D02*
X023419Y012126D01*
X023307Y012238D01*
X023161Y012298D01*
X023003Y012298D01*
X022856Y012238D01*
X022744Y012126D01*
X022684Y011979D01*
X022684Y011821D01*
X022744Y011674D01*
X022856Y011562D01*
X023003Y011502D01*
X023161Y011502D01*
X023307Y011562D01*
X023419Y011674D01*
X023480Y011821D01*
X023480Y011979D01*
X023480Y011829D02*
X023748Y011829D01*
X023684Y011671D02*
X023415Y011671D01*
X023185Y011512D02*
X023687Y011512D01*
X023765Y011354D02*
X014498Y011354D01*
X014576Y011512D02*
X014678Y011512D01*
X014885Y011512D02*
X022978Y011512D01*
X022748Y011671D02*
X015115Y011671D01*
X015180Y011829D02*
X022684Y011829D01*
X022687Y011988D02*
X015176Y011988D01*
X015099Y012146D02*
X022765Y012146D01*
X023399Y012146D02*
X034477Y012146D01*
X034619Y011829D02*
X024416Y011829D01*
X024480Y011671D02*
X034456Y011671D01*
X034390Y011512D02*
X024476Y011512D01*
X024398Y011354D02*
X034385Y011354D01*
X035221Y011037D02*
X037082Y011037D01*
X037082Y011195D02*
X035335Y011195D01*
X035379Y011354D02*
X037082Y011354D01*
X037082Y011512D02*
X035373Y011512D01*
X035307Y011671D02*
X037082Y011671D01*
X037082Y011829D02*
X035144Y011829D01*
X035123Y011988D02*
X037082Y011988D01*
X037082Y012146D02*
X035287Y012146D01*
X035349Y012305D02*
X037082Y012305D01*
X037082Y012463D02*
X035355Y012463D01*
X035304Y012622D02*
X037082Y012622D01*
X037082Y012780D02*
X035170Y012780D01*
X035066Y012939D02*
X037082Y012939D01*
X037082Y013097D02*
X035281Y013097D01*
X035360Y013256D02*
X037082Y013256D01*
X037082Y013414D02*
X035379Y013414D01*
X035348Y013573D02*
X037082Y013573D01*
X037082Y013731D02*
X035253Y013731D01*
X034998Y013890D02*
X037082Y013890D01*
X037082Y014048D02*
X023380Y014048D01*
X023369Y014207D02*
X037082Y014207D01*
X037082Y014365D02*
X023280Y014365D01*
X023325Y013890D02*
X034765Y013890D01*
X034385Y013414D02*
X013731Y013414D01*
X013848Y013256D02*
X034404Y013256D01*
X034482Y013097D02*
X014364Y013097D01*
X014200Y013097D02*
X013880Y013097D01*
X013846Y012939D02*
X013957Y012939D01*
X013884Y012780D02*
X013725Y012780D01*
X013540Y012622D02*
X012167Y012622D01*
X011596Y012622D02*
X009008Y012622D01*
X008961Y012602D02*
X009107Y012662D01*
X009219Y012774D01*
X009280Y012921D01*
X009280Y013079D01*
X009219Y013226D01*
X009107Y013338D01*
X008961Y013398D01*
X008803Y013398D01*
X008656Y013338D01*
X008544Y013226D01*
X008484Y013079D01*
X008484Y012921D01*
X008544Y012774D01*
X008656Y012662D01*
X008803Y012602D01*
X008961Y012602D01*
X008755Y012622D02*
X008480Y012622D01*
X008480Y012679D02*
X008419Y012826D01*
X008307Y012938D01*
X008161Y012998D01*
X008003Y012998D01*
X007856Y012938D01*
X007744Y012826D01*
X007684Y012679D01*
X007684Y012521D01*
X007744Y012374D01*
X007856Y012262D01*
X008003Y012202D01*
X008161Y012202D01*
X008307Y012262D01*
X008419Y012374D01*
X008480Y012521D01*
X008480Y012679D01*
X008438Y012780D02*
X008542Y012780D01*
X008484Y012939D02*
X008305Y012939D01*
X008491Y013097D02*
X007548Y013097D01*
X007507Y013138D02*
X007619Y013026D01*
X007680Y012879D01*
X007680Y012721D01*
X007619Y012574D01*
X007507Y012462D01*
X007361Y012402D01*
X007203Y012402D01*
X007056Y012462D01*
X006944Y012574D01*
X006884Y012721D01*
X006884Y012879D01*
X006944Y013026D01*
X007056Y013138D01*
X007203Y013198D01*
X007361Y013198D01*
X007507Y013138D01*
X007655Y012939D02*
X007859Y012939D01*
X007725Y012780D02*
X007680Y012780D01*
X007684Y012622D02*
X007639Y012622D01*
X007708Y012463D02*
X007508Y012463D01*
X007814Y012305D02*
X002793Y012305D01*
X002765Y012276D02*
X002906Y012417D01*
X002982Y012601D01*
X002982Y012799D01*
X002906Y012983D01*
X002765Y013124D01*
X002581Y013200D01*
X002382Y013200D01*
X002199Y013124D01*
X002058Y012983D01*
X001982Y012799D01*
X001982Y012601D01*
X002058Y012417D01*
X002199Y012276D01*
X002382Y012200D01*
X002581Y012200D01*
X002765Y012276D01*
X002662Y012146D02*
X011382Y012146D01*
X011384Y012305D02*
X008349Y012305D01*
X008456Y012463D02*
X011449Y012463D01*
X011595Y012780D02*
X009222Y012780D01*
X009280Y012939D02*
X011449Y012939D01*
X011383Y013097D02*
X009272Y013097D01*
X009189Y013256D02*
X011382Y013256D01*
X011429Y013414D02*
X005680Y013414D01*
X005680Y013479D02*
X005619Y013626D01*
X005507Y013738D01*
X005361Y013798D01*
X005203Y013798D01*
X005056Y013738D01*
X004944Y013626D01*
X004884Y013479D01*
X004884Y013321D01*
X004944Y013174D01*
X005056Y013062D01*
X005203Y013002D01*
X005361Y013002D01*
X005507Y013062D01*
X005619Y013174D01*
X005680Y013321D01*
X005680Y013479D01*
X005641Y013573D02*
X006746Y013573D01*
X006756Y013562D02*
X006903Y013502D01*
X007061Y013502D01*
X007207Y013562D01*
X007319Y013674D01*
X007380Y013821D01*
X007380Y013979D01*
X007319Y014126D01*
X007207Y014238D01*
X007061Y014298D01*
X006903Y014298D01*
X006756Y014238D01*
X006644Y014126D01*
X006584Y013979D01*
X006584Y013821D01*
X006644Y013674D01*
X006756Y013562D01*
X006621Y013731D02*
X005514Y013731D01*
X005050Y013731D02*
X001762Y013731D01*
X001762Y013573D02*
X004922Y013573D01*
X004884Y013414D02*
X001762Y013414D01*
X001762Y013256D02*
X004911Y013256D01*
X005022Y013097D02*
X002792Y013097D01*
X002924Y012939D02*
X006908Y012939D01*
X006884Y012780D02*
X002982Y012780D01*
X002982Y012622D02*
X006925Y012622D01*
X007056Y012463D02*
X002925Y012463D01*
X002866Y011988D02*
X011429Y011988D01*
X011547Y013573D02*
X007217Y013573D01*
X007343Y013731D02*
X011707Y013731D01*
X011485Y013890D02*
X007380Y013890D01*
X007351Y014048D02*
X011403Y014048D01*
X011382Y014207D02*
X007238Y014207D01*
X006725Y014207D02*
X001762Y014207D01*
X001762Y014365D02*
X011409Y014365D01*
X014180Y012305D02*
X014196Y012305D01*
X013461Y010198D02*
X013303Y010198D01*
X013156Y010138D01*
X013044Y010026D01*
X012984Y009879D01*
X012984Y009721D01*
X013044Y009574D01*
X013119Y009500D01*
X013044Y009426D01*
X012984Y009279D01*
X012984Y009121D01*
X013044Y008974D01*
X013156Y008862D01*
X013303Y008802D01*
X013461Y008802D01*
X013607Y008862D01*
X013719Y008974D01*
X013780Y009121D01*
X013780Y009279D01*
X013719Y009426D01*
X013645Y009500D01*
X013719Y009574D01*
X013780Y009721D01*
X013780Y009879D01*
X013719Y010026D01*
X013607Y010138D01*
X013461Y010198D01*
X013659Y010086D02*
X037082Y010086D01*
X037082Y010244D02*
X002917Y010244D01*
X002774Y010086D02*
X013104Y010086D01*
X013003Y009927D02*
X002701Y009927D01*
X002733Y009911D02*
X002666Y009945D01*
X002594Y009968D01*
X002520Y009980D01*
X002502Y009980D01*
X002502Y009520D01*
X002962Y009520D01*
X002962Y009538D01*
X002950Y009612D01*
X002927Y009684D01*
X002892Y009752D01*
X002848Y009813D01*
X002794Y009866D01*
X002733Y009911D01*
X002880Y009769D02*
X012984Y009769D01*
X013030Y009610D02*
X002950Y009610D01*
X002962Y009480D02*
X002502Y009480D01*
X002502Y009520D01*
X002462Y009520D01*
X002462Y009980D01*
X002444Y009980D01*
X002369Y009968D01*
X002297Y009945D01*
X002230Y009911D01*
X002169Y009866D01*
X002116Y009813D01*
X002071Y009752D01*
X002037Y009684D01*
X002014Y009612D01*
X002002Y009538D01*
X002002Y009520D01*
X002462Y009520D01*
X002462Y009480D01*
X002502Y009480D01*
X002502Y009020D01*
X002520Y009020D01*
X002594Y009032D01*
X002666Y009055D01*
X002733Y009089D01*
X002794Y009134D01*
X002848Y009187D01*
X002892Y009248D01*
X002927Y009316D01*
X002950Y009388D01*
X002962Y009462D01*
X002962Y009480D01*
X002960Y009452D02*
X013070Y009452D01*
X012989Y009293D02*
X007873Y009293D01*
X007861Y009298D02*
X007703Y009298D01*
X007556Y009238D01*
X007444Y009126D01*
X007384Y008979D01*
X007384Y008821D01*
X007444Y008674D01*
X007556Y008562D01*
X007703Y008502D01*
X007861Y008502D01*
X008007Y008562D01*
X008119Y008674D01*
X008180Y008821D01*
X008180Y008979D01*
X008119Y009126D01*
X008007Y009238D01*
X007861Y009298D01*
X007690Y009293D02*
X002915Y009293D01*
X002795Y009135D02*
X007453Y009135D01*
X007384Y008976D02*
X001762Y008976D01*
X001762Y008818D02*
X007385Y008818D01*
X007460Y008659D02*
X001762Y008659D01*
X001762Y008501D02*
X009184Y008501D01*
X009184Y008579D02*
X009184Y008421D01*
X009244Y008274D01*
X009356Y008162D01*
X009503Y008102D01*
X009661Y008102D01*
X009807Y008162D01*
X009919Y008274D01*
X009980Y008421D01*
X009980Y008579D01*
X009919Y008726D01*
X009807Y008838D01*
X009661Y008898D01*
X009503Y008898D01*
X009356Y008838D01*
X009244Y008726D01*
X009184Y008579D01*
X009217Y008659D02*
X008104Y008659D01*
X008178Y008818D02*
X009336Y008818D01*
X009216Y008342D02*
X001762Y008342D01*
X001762Y008184D02*
X009335Y008184D01*
X009828Y008184D02*
X019640Y008184D01*
X019644Y008174D02*
X019756Y008062D01*
X019903Y008002D01*
X020061Y008002D01*
X020207Y008062D01*
X020284Y008139D01*
X020284Y008121D01*
X020344Y007974D01*
X020456Y007862D01*
X020603Y007802D01*
X020761Y007802D01*
X020907Y007862D01*
X021019Y007974D01*
X021080Y008121D01*
X021080Y008279D01*
X021019Y008426D01*
X020907Y008538D01*
X020761Y008598D01*
X020603Y008598D01*
X020456Y008538D01*
X020380Y008461D01*
X020380Y008479D01*
X020319Y008626D01*
X020207Y008738D01*
X020061Y008798D01*
X019903Y008798D01*
X019756Y008738D01*
X019644Y008626D01*
X019584Y008479D01*
X019584Y008321D01*
X019644Y008174D01*
X019584Y008342D02*
X019087Y008342D01*
X019119Y008374D02*
X019180Y008521D01*
X019180Y008679D01*
X019119Y008826D01*
X019007Y008938D01*
X018861Y008998D01*
X018703Y008998D01*
X018556Y008938D01*
X018444Y008826D01*
X018384Y008679D01*
X018384Y008521D01*
X018444Y008374D01*
X018556Y008262D01*
X018703Y008202D01*
X018861Y008202D01*
X019007Y008262D01*
X019119Y008374D01*
X019171Y008501D02*
X019592Y008501D01*
X019678Y008659D02*
X019180Y008659D01*
X019123Y008818D02*
X020101Y008818D01*
X020156Y008762D02*
X020303Y008702D01*
X020461Y008702D01*
X020607Y008762D01*
X020719Y008874D01*
X020780Y009021D01*
X020780Y009179D01*
X020719Y009326D01*
X020607Y009438D01*
X020461Y009498D01*
X020303Y009498D01*
X020156Y009438D01*
X020044Y009326D01*
X019984Y009179D01*
X019984Y009021D01*
X020044Y008874D01*
X020156Y008762D01*
X020286Y008659D02*
X037082Y008659D01*
X037082Y008501D02*
X020944Y008501D01*
X021054Y008342D02*
X037082Y008342D01*
X037082Y008184D02*
X021080Y008184D01*
X021040Y008025D02*
X037082Y008025D01*
X037082Y007867D02*
X020911Y007867D01*
X020452Y007867D02*
X010678Y007867D01*
X010719Y007826D02*
X010607Y007938D01*
X010461Y007998D01*
X010303Y007998D01*
X010156Y007938D01*
X010044Y007826D01*
X009984Y007679D01*
X009984Y007521D01*
X010044Y007374D01*
X010156Y007262D01*
X010303Y007202D01*
X010461Y007202D01*
X010607Y007262D01*
X010719Y007374D01*
X010780Y007521D01*
X010780Y007679D01*
X010719Y007826D01*
X010768Y007708D02*
X037082Y007708D01*
X037082Y007550D02*
X010780Y007550D01*
X010726Y007391D02*
X037082Y007391D01*
X037082Y007233D02*
X010535Y007233D01*
X010229Y007233D02*
X001762Y007233D01*
X001762Y007391D02*
X010037Y007391D01*
X009984Y007550D02*
X001762Y007550D01*
X001762Y007708D02*
X009996Y007708D01*
X010085Y007867D02*
X001762Y007867D01*
X001762Y008025D02*
X019847Y008025D01*
X020117Y008025D02*
X020323Y008025D01*
X020371Y008501D02*
X020419Y008501D01*
X020662Y008818D02*
X037082Y008818D01*
X037082Y008976D02*
X030077Y008976D01*
X030030Y008929D02*
X030153Y009052D01*
X030220Y009213D01*
X030220Y009387D01*
X030153Y009548D01*
X030030Y009671D01*
X029869Y009738D01*
X029695Y009738D01*
X029534Y009671D01*
X029411Y009548D01*
X029344Y009387D01*
X029344Y009213D01*
X029411Y009052D01*
X029534Y008929D01*
X029695Y008862D01*
X029869Y008862D01*
X030030Y008929D01*
X030187Y009135D02*
X037082Y009135D01*
X037082Y009293D02*
X030220Y009293D01*
X030193Y009452D02*
X037082Y009452D01*
X037082Y009610D02*
X030091Y009610D01*
X029473Y009610D02*
X029063Y009610D01*
X029054Y009619D02*
X029001Y009657D01*
X028942Y009687D01*
X028880Y009708D01*
X028815Y009718D01*
X028782Y009718D01*
X028782Y009300D01*
X029200Y009300D01*
X029200Y009333D01*
X029189Y009398D01*
X029169Y009460D01*
X029139Y009519D01*
X029100Y009572D01*
X029054Y009619D01*
X029172Y009452D02*
X029371Y009452D01*
X029344Y009293D02*
X029200Y009293D01*
X029200Y009300D02*
X028782Y009300D01*
X028782Y009300D01*
X028782Y008882D01*
X028815Y008882D01*
X028880Y008892D01*
X028942Y008913D01*
X029001Y008943D01*
X029054Y008981D01*
X029100Y009028D01*
X029139Y009081D01*
X029169Y009140D01*
X029189Y009202D01*
X029200Y009267D01*
X029200Y009300D01*
X029166Y009135D02*
X029376Y009135D01*
X029487Y008976D02*
X029047Y008976D01*
X028782Y008976D02*
X028782Y008976D01*
X028782Y008882D02*
X028782Y009300D01*
X028782Y009300D01*
X028782Y009300D01*
X028782Y009718D01*
X028749Y009718D01*
X028684Y009708D01*
X028621Y009687D01*
X028563Y009657D01*
X028510Y009619D01*
X028463Y009572D01*
X028424Y009519D01*
X028395Y009460D01*
X028374Y009398D01*
X028364Y009333D01*
X028364Y009300D01*
X028364Y009267D01*
X028374Y009202D01*
X028395Y009140D01*
X028424Y009081D01*
X028463Y009028D01*
X028510Y008981D01*
X028563Y008943D01*
X028621Y008913D01*
X028684Y008892D01*
X028749Y008882D01*
X028782Y008882D01*
X028782Y009135D02*
X028782Y009135D01*
X028782Y009293D02*
X028782Y009293D01*
X028782Y009300D02*
X028364Y009300D01*
X028782Y009300D01*
X028782Y009300D01*
X028782Y009452D02*
X028782Y009452D01*
X028782Y009610D02*
X028782Y009610D01*
X028501Y009610D02*
X023526Y009610D01*
X023519Y009626D02*
X023407Y009738D01*
X023261Y009798D01*
X023103Y009798D01*
X022956Y009738D01*
X022844Y009626D01*
X022784Y009479D01*
X022784Y009321D01*
X022844Y009174D01*
X022956Y009062D01*
X023103Y009002D01*
X023261Y009002D01*
X023407Y009062D01*
X023519Y009174D01*
X023580Y009321D01*
X023580Y009479D01*
X023519Y009626D01*
X023580Y009452D02*
X028392Y009452D01*
X028364Y009293D02*
X023568Y009293D01*
X023479Y009135D02*
X028397Y009135D01*
X028517Y008976D02*
X021621Y008976D01*
X021607Y008962D02*
X021719Y009074D01*
X021780Y009221D01*
X021780Y009379D01*
X021719Y009526D01*
X021607Y009638D01*
X021461Y009698D01*
X021303Y009698D01*
X021156Y009638D01*
X021044Y009526D01*
X020984Y009379D01*
X020984Y009221D01*
X021044Y009074D01*
X021156Y008962D01*
X021303Y008902D01*
X021461Y008902D01*
X021607Y008962D01*
X021744Y009135D02*
X022884Y009135D01*
X022795Y009293D02*
X021780Y009293D01*
X021750Y009452D02*
X022784Y009452D01*
X022838Y009610D02*
X021635Y009610D01*
X021129Y009610D02*
X017026Y009610D01*
X017019Y009626D02*
X016907Y009738D01*
X016761Y009798D01*
X016603Y009798D01*
X016456Y009738D01*
X016344Y009626D01*
X016284Y009479D01*
X016284Y009321D01*
X016344Y009174D01*
X016456Y009062D01*
X016603Y009002D01*
X016761Y009002D01*
X016907Y009062D01*
X017019Y009174D01*
X017080Y009321D01*
X017080Y009479D01*
X017019Y009626D01*
X017080Y009452D02*
X020190Y009452D01*
X020031Y009293D02*
X017068Y009293D01*
X016979Y009135D02*
X019984Y009135D01*
X020002Y008976D02*
X018914Y008976D01*
X018649Y008976D02*
X016469Y008976D01*
X016519Y008926D02*
X016407Y009038D01*
X016261Y009098D01*
X016103Y009098D01*
X015956Y009038D01*
X015844Y008926D01*
X015784Y008779D01*
X015784Y008621D01*
X015844Y008474D01*
X015956Y008362D01*
X016103Y008302D01*
X016261Y008302D01*
X016407Y008362D01*
X016519Y008474D01*
X016580Y008621D01*
X016580Y008779D01*
X016519Y008926D01*
X016564Y008818D02*
X018441Y008818D01*
X018384Y008659D02*
X016580Y008659D01*
X016530Y008501D02*
X018392Y008501D01*
X018477Y008342D02*
X016358Y008342D01*
X016006Y008342D02*
X012987Y008342D01*
X013019Y008374D02*
X013080Y008521D01*
X013080Y008679D01*
X013019Y008826D01*
X012907Y008938D01*
X012761Y008998D01*
X012603Y008998D01*
X012456Y008938D01*
X012344Y008826D01*
X012284Y008679D01*
X012284Y008521D01*
X012344Y008374D01*
X012456Y008262D01*
X012603Y008202D01*
X012761Y008202D01*
X012907Y008262D01*
X013019Y008374D01*
X013071Y008501D02*
X015833Y008501D01*
X015784Y008659D02*
X014904Y008659D01*
X014857Y008612D02*
X014969Y008724D01*
X015006Y008813D01*
X015056Y008762D01*
X015203Y008702D01*
X015361Y008702D01*
X015507Y008762D01*
X015619Y008874D01*
X015680Y009021D01*
X015680Y009179D01*
X015619Y009326D01*
X015507Y009438D01*
X015361Y009498D01*
X015203Y009498D01*
X015056Y009438D01*
X014944Y009326D01*
X014908Y009237D01*
X014857Y009288D01*
X014711Y009348D01*
X014553Y009348D01*
X014406Y009288D01*
X014294Y009176D01*
X014234Y009029D01*
X014234Y008871D01*
X014294Y008724D01*
X014406Y008612D01*
X014553Y008552D01*
X014711Y008552D01*
X014857Y008612D01*
X014360Y008659D02*
X013080Y008659D01*
X013023Y008818D02*
X013265Y008818D01*
X013499Y008818D02*
X014256Y008818D01*
X014234Y008976D02*
X013720Y008976D01*
X013780Y009135D02*
X014277Y009135D01*
X014420Y009293D02*
X013774Y009293D01*
X013693Y009452D02*
X015090Y009452D01*
X014931Y009293D02*
X014844Y009293D01*
X015473Y009452D02*
X016284Y009452D01*
X016295Y009293D02*
X015633Y009293D01*
X015680Y009135D02*
X016384Y009135D01*
X016338Y009610D02*
X013734Y009610D01*
X013780Y009769D02*
X016531Y009769D01*
X016832Y009769D02*
X023031Y009769D01*
X023332Y009769D02*
X037082Y009769D01*
X037082Y009927D02*
X013760Y009927D01*
X012984Y009135D02*
X008110Y009135D01*
X008180Y008976D02*
X012549Y008976D01*
X012341Y008818D02*
X009827Y008818D01*
X009947Y008659D02*
X012284Y008659D01*
X012292Y008501D02*
X009980Y008501D01*
X009947Y008342D02*
X012377Y008342D01*
X012814Y008976D02*
X013044Y008976D01*
X014230Y006611D02*
X014169Y006566D01*
X014116Y006513D01*
X014071Y006452D01*
X014037Y006384D01*
X014014Y006312D01*
X014002Y006238D01*
X014002Y006220D01*
X014462Y006220D01*
X014462Y006680D01*
X014444Y006680D01*
X014369Y006668D01*
X014297Y006645D01*
X014230Y006611D01*
X014214Y006599D02*
X001762Y006599D01*
X001762Y006757D02*
X020216Y006757D01*
X020244Y006826D02*
X020184Y006679D01*
X020184Y006521D01*
X020244Y006374D01*
X020356Y006262D01*
X020503Y006202D01*
X020661Y006202D01*
X020807Y006262D01*
X020919Y006374D01*
X020980Y006521D01*
X020980Y006679D01*
X020919Y006826D01*
X020807Y006938D01*
X020661Y006998D01*
X020503Y006998D01*
X020356Y006938D01*
X020244Y006826D01*
X020334Y006916D02*
X001762Y006916D01*
X001762Y007074D02*
X021693Y007074D01*
X021644Y007026D02*
X021584Y006879D01*
X021584Y006721D01*
X021644Y006574D01*
X021756Y006462D01*
X021903Y006402D01*
X022061Y006402D01*
X022207Y006462D01*
X022319Y006574D01*
X022380Y006721D01*
X022380Y006879D01*
X022319Y007026D01*
X022207Y007138D01*
X022061Y007198D01*
X021903Y007198D01*
X021756Y007138D01*
X021644Y007026D01*
X021599Y006916D02*
X020829Y006916D01*
X020948Y006757D02*
X021584Y006757D01*
X021634Y006599D02*
X020980Y006599D01*
X020946Y006440D02*
X021811Y006440D01*
X022153Y006440D02*
X023915Y006440D01*
X023858Y006383D02*
X023782Y006199D01*
X023782Y006001D01*
X023858Y005817D01*
X023999Y005676D01*
X024182Y005600D01*
X023999Y005524D01*
X023858Y005383D01*
X023782Y005199D01*
X023782Y005001D01*
X023858Y004817D01*
X023999Y004676D01*
X024182Y004600D01*
X023999Y004524D01*
X023858Y004383D01*
X023782Y004199D01*
X023782Y004001D01*
X023858Y003817D01*
X023999Y003676D01*
X024182Y003600D01*
X024381Y003600D01*
X024565Y003676D01*
X024706Y003817D01*
X024782Y004001D01*
X024782Y004199D01*
X024706Y004383D01*
X024565Y004524D01*
X024381Y004600D01*
X024182Y004600D01*
X024381Y004600D01*
X024565Y004676D01*
X024706Y004817D01*
X024782Y005001D01*
X024782Y005199D01*
X024706Y005383D01*
X024565Y005524D01*
X024381Y005600D01*
X024182Y005600D01*
X024381Y005600D01*
X024565Y005676D01*
X024706Y005817D01*
X024782Y006001D01*
X024782Y006199D01*
X024706Y006383D01*
X024565Y006524D01*
X024381Y006600D01*
X024182Y006600D01*
X023999Y006524D01*
X023858Y006383D01*
X023816Y006282D02*
X020826Y006282D01*
X020337Y006282D02*
X014955Y006282D01*
X014950Y006312D02*
X014927Y006384D01*
X014892Y006452D01*
X014848Y006513D01*
X014794Y006566D01*
X014733Y006611D01*
X014666Y006645D01*
X014594Y006668D01*
X014520Y006680D01*
X014502Y006680D01*
X014502Y006220D01*
X014962Y006220D01*
X014962Y006238D01*
X014950Y006312D01*
X014962Y006180D02*
X014502Y006180D01*
X014502Y006220D01*
X014462Y006220D01*
X014462Y006180D01*
X014502Y006180D01*
X014502Y005720D01*
X014520Y005720D01*
X014594Y005732D01*
X014666Y005755D01*
X014733Y005789D01*
X014794Y005834D01*
X014848Y005887D01*
X014892Y005948D01*
X014927Y006016D01*
X014950Y006088D01*
X014962Y006162D01*
X014962Y006180D01*
X014956Y006123D02*
X023782Y006123D01*
X023797Y005965D02*
X014900Y005965D01*
X014756Y005806D02*
X023869Y005806D01*
X024068Y005648D02*
X022183Y005648D01*
X022207Y005638D02*
X022061Y005698D01*
X021903Y005698D01*
X021756Y005638D01*
X021644Y005526D01*
X021584Y005379D01*
X021584Y005221D01*
X021644Y005074D01*
X021756Y004962D01*
X021903Y004902D01*
X022061Y004902D01*
X022207Y004962D01*
X022319Y005074D01*
X022380Y005221D01*
X022380Y005379D01*
X022319Y005526D01*
X022207Y005638D01*
X022334Y005489D02*
X023964Y005489D01*
X023836Y005331D02*
X022380Y005331D01*
X022360Y005172D02*
X023782Y005172D01*
X023782Y005014D02*
X022258Y005014D01*
X021705Y005014D02*
X014946Y005014D01*
X014982Y005101D02*
X014906Y004917D01*
X014765Y004776D01*
X014581Y004700D01*
X014382Y004700D01*
X014199Y004624D01*
X014058Y004483D01*
X013982Y004299D01*
X013982Y004101D01*
X014058Y003917D01*
X014199Y003776D01*
X014382Y003700D01*
X014199Y003624D01*
X014058Y003483D01*
X013982Y003299D01*
X013982Y003101D01*
X014058Y002917D01*
X014199Y002776D01*
X014382Y002700D01*
X014199Y002624D01*
X014058Y002483D01*
X013982Y002299D01*
X013982Y002101D01*
X014058Y001917D01*
X014199Y001776D01*
X014382Y001700D01*
X014581Y001700D01*
X014765Y001776D01*
X014906Y001917D01*
X014982Y002101D01*
X014982Y002299D01*
X014906Y002483D01*
X014765Y002624D01*
X014581Y002700D01*
X014382Y002700D01*
X014581Y002700D01*
X014765Y002776D01*
X014906Y002917D01*
X014982Y003101D01*
X014982Y003299D01*
X014906Y003483D01*
X014765Y003624D01*
X014581Y003700D01*
X014382Y003700D01*
X014581Y003700D01*
X014765Y003776D01*
X014906Y003917D01*
X014982Y004101D01*
X014982Y004299D01*
X014906Y004483D01*
X014765Y004624D01*
X014581Y004700D01*
X014382Y004700D01*
X014199Y004776D01*
X014058Y004917D01*
X013982Y005101D01*
X013982Y005299D01*
X014058Y005483D01*
X014199Y005624D01*
X014382Y005700D01*
X014581Y005700D01*
X014765Y005624D01*
X014906Y005483D01*
X014982Y005299D01*
X014982Y005101D01*
X014982Y005172D02*
X021604Y005172D01*
X021584Y005331D02*
X014969Y005331D01*
X014900Y005489D02*
X021629Y005489D01*
X021780Y005648D02*
X014708Y005648D01*
X014462Y005720D02*
X014462Y006180D01*
X014002Y006180D01*
X014002Y006162D01*
X014014Y006088D01*
X014037Y006016D01*
X014071Y005948D01*
X014116Y005887D01*
X014169Y005834D01*
X014230Y005789D01*
X014297Y005755D01*
X014369Y005732D01*
X014444Y005720D01*
X014462Y005720D01*
X014462Y005806D02*
X014502Y005806D01*
X014502Y005965D02*
X014462Y005965D01*
X014462Y006123D02*
X014502Y006123D01*
X014502Y006282D02*
X014462Y006282D01*
X014462Y006440D02*
X014502Y006440D01*
X014502Y006599D02*
X014462Y006599D01*
X014750Y006599D02*
X020184Y006599D01*
X020217Y006440D02*
X014898Y006440D01*
X014065Y006440D02*
X001762Y006440D01*
X001762Y006282D02*
X010862Y006282D01*
X010903Y006298D02*
X010756Y006238D01*
X010644Y006126D01*
X010584Y005979D01*
X010584Y005821D01*
X010644Y005674D01*
X010756Y005562D01*
X010903Y005502D01*
X011061Y005502D01*
X011207Y005562D01*
X011319Y005674D01*
X011380Y005821D01*
X011380Y005979D01*
X011319Y006126D01*
X011207Y006238D01*
X011061Y006298D01*
X010903Y006298D01*
X011101Y006282D02*
X014009Y006282D01*
X014008Y006123D02*
X011320Y006123D01*
X011380Y005965D02*
X011683Y005965D01*
X011644Y005926D02*
X011756Y006038D01*
X011903Y006098D01*
X012061Y006098D01*
X012207Y006038D01*
X012319Y005926D01*
X012380Y005779D01*
X012380Y005621D01*
X012319Y005474D01*
X012207Y005362D01*
X012061Y005302D01*
X011903Y005302D01*
X011756Y005362D01*
X011644Y005474D01*
X011584Y005621D01*
X011584Y005779D01*
X011644Y005926D01*
X011595Y005806D02*
X011374Y005806D01*
X011292Y005648D02*
X011584Y005648D01*
X011638Y005489D02*
X001762Y005489D01*
X001762Y005331D02*
X011833Y005331D01*
X012130Y005331D02*
X013995Y005331D01*
X013982Y005172D02*
X001762Y005172D01*
X001762Y005014D02*
X014018Y005014D01*
X014120Y004855D02*
X001762Y004855D01*
X001762Y004697D02*
X014374Y004697D01*
X014590Y004697D02*
X023978Y004697D01*
X024033Y004538D02*
X014851Y004538D01*
X014949Y004380D02*
X023856Y004380D01*
X023791Y004221D02*
X014982Y004221D01*
X014966Y004063D02*
X023782Y004063D01*
X023822Y003904D02*
X014893Y003904D01*
X014691Y003746D02*
X023929Y003746D01*
X024030Y003511D02*
X023969Y003466D01*
X023916Y003413D01*
X023871Y003352D01*
X023837Y003284D01*
X023814Y003212D01*
X023802Y003138D01*
X023802Y003120D01*
X024262Y003120D01*
X024262Y003580D01*
X024244Y003580D01*
X024169Y003568D01*
X024097Y003545D01*
X024030Y003511D01*
X023931Y003429D02*
X014928Y003429D01*
X014982Y003270D02*
X023832Y003270D01*
X023802Y003080D02*
X023802Y003062D01*
X023814Y002988D01*
X023837Y002916D01*
X023871Y002848D01*
X023916Y002787D01*
X023969Y002734D01*
X024030Y002689D01*
X024097Y002655D01*
X024169Y002632D01*
X024244Y002620D01*
X024262Y002620D01*
X024262Y003080D01*
X024302Y003080D01*
X024302Y003120D01*
X024762Y003120D01*
X024762Y003138D01*
X024750Y003212D01*
X024727Y003284D01*
X024692Y003352D01*
X024648Y003413D01*
X024594Y003466D01*
X024533Y003511D01*
X024466Y003545D01*
X024394Y003568D01*
X024320Y003580D01*
X024302Y003580D01*
X024302Y003120D01*
X024262Y003120D01*
X024262Y003080D01*
X023802Y003080D01*
X023825Y002953D02*
X014921Y002953D01*
X014982Y003112D02*
X024262Y003112D01*
X024302Y003112D02*
X034568Y003112D01*
X034600Y003079D02*
X034783Y003003D01*
X034981Y003003D01*
X035163Y003079D01*
X035303Y003219D01*
X035379Y003401D01*
X035379Y003599D01*
X035303Y003781D01*
X035163Y003921D01*
X034981Y003997D01*
X034783Y003997D01*
X034600Y003921D01*
X034461Y003781D01*
X034385Y003599D01*
X034385Y003401D01*
X034461Y003219D01*
X034600Y003079D01*
X034439Y003270D02*
X030071Y003270D01*
X030030Y003229D02*
X030153Y003352D01*
X030220Y003513D01*
X030220Y003687D01*
X030153Y003848D01*
X030030Y003971D01*
X029869Y004038D01*
X029695Y004038D01*
X029534Y003971D01*
X029411Y003848D01*
X029344Y003687D01*
X029344Y003513D01*
X029411Y003352D01*
X029534Y003229D01*
X029695Y003162D01*
X029869Y003162D01*
X030030Y003229D01*
X030185Y003429D02*
X034385Y003429D01*
X034385Y003587D02*
X030220Y003587D01*
X030195Y003746D02*
X034446Y003746D01*
X034583Y003904D02*
X030097Y003904D01*
X029467Y003904D02*
X029069Y003904D01*
X029054Y003919D02*
X029001Y003957D01*
X028942Y003987D01*
X028880Y004008D01*
X028815Y004018D01*
X028782Y004018D01*
X028782Y003600D01*
X029200Y003600D01*
X029200Y003633D01*
X029189Y003698D01*
X029169Y003760D01*
X029139Y003819D01*
X029100Y003872D01*
X029054Y003919D01*
X029174Y003746D02*
X029368Y003746D01*
X029344Y003587D02*
X029200Y003587D01*
X029200Y003600D02*
X028782Y003600D01*
X028782Y003600D01*
X028782Y003182D01*
X028815Y003182D01*
X028880Y003192D01*
X028942Y003213D01*
X029001Y003243D01*
X029054Y003281D01*
X029100Y003328D01*
X029139Y003381D01*
X029169Y003440D01*
X029189Y003502D01*
X029200Y003567D01*
X029200Y003600D01*
X029163Y003429D02*
X029379Y003429D01*
X029493Y003270D02*
X029038Y003270D01*
X028782Y003270D02*
X028782Y003270D01*
X028782Y003182D02*
X028782Y003600D01*
X028782Y003600D01*
X028782Y003600D01*
X028782Y004018D01*
X028749Y004018D01*
X028684Y004008D01*
X028621Y003987D01*
X028563Y003957D01*
X028510Y003919D01*
X028463Y003872D01*
X028424Y003819D01*
X028395Y003760D01*
X028374Y003698D01*
X028364Y003633D01*
X028364Y003600D01*
X028364Y003567D01*
X028374Y003502D01*
X028395Y003440D01*
X028424Y003381D01*
X028463Y003328D01*
X028510Y003281D01*
X028563Y003243D01*
X028621Y003213D01*
X028684Y003192D01*
X028749Y003182D01*
X028782Y003182D01*
X028782Y003429D02*
X028782Y003429D01*
X028782Y003587D02*
X028782Y003587D01*
X028782Y003600D02*
X028364Y003600D01*
X028782Y003600D01*
X028782Y003600D01*
X028782Y003746D02*
X028782Y003746D01*
X028782Y003904D02*
X028782Y003904D01*
X028495Y003904D02*
X024742Y003904D01*
X024782Y004063D02*
X034690Y004063D01*
X034699Y004058D02*
X034770Y004035D01*
X034844Y004023D01*
X034863Y004023D01*
X034863Y004482D01*
X034405Y004482D01*
X034405Y004462D01*
X034417Y004388D01*
X034440Y004317D01*
X034474Y004250D01*
X034518Y004189D01*
X034571Y004136D01*
X034632Y004092D01*
X034699Y004058D01*
X034863Y004063D02*
X034900Y004063D01*
X034900Y004023D02*
X034919Y004023D01*
X034993Y004035D01*
X035065Y004058D01*
X035132Y004092D01*
X035192Y004136D01*
X035245Y004189D01*
X035290Y004250D01*
X035324Y004317D01*
X035347Y004388D01*
X035359Y004462D01*
X035359Y004482D01*
X034900Y004482D01*
X034900Y004518D01*
X035359Y004518D01*
X035359Y004538D01*
X037082Y004538D01*
X037082Y004380D02*
X035344Y004380D01*
X035359Y004538D02*
X035347Y004612D01*
X035324Y004683D01*
X035290Y004750D01*
X035245Y004811D01*
X035192Y004864D01*
X035132Y004908D01*
X035065Y004942D01*
X034993Y004965D01*
X034919Y004977D01*
X034900Y004977D01*
X034900Y004518D01*
X034863Y004518D01*
X034863Y004482D01*
X034900Y004482D01*
X034900Y004023D01*
X035073Y004063D02*
X037082Y004063D01*
X037082Y004221D02*
X035268Y004221D01*
X035180Y003904D02*
X037082Y003904D01*
X037082Y003746D02*
X035318Y003746D01*
X035379Y003587D02*
X037082Y003587D01*
X037082Y003429D02*
X035379Y003429D01*
X035324Y003270D02*
X037082Y003270D01*
X037082Y003112D02*
X035196Y003112D01*
X034900Y004221D02*
X034863Y004221D01*
X034863Y004380D02*
X034900Y004380D01*
X034863Y004518D02*
X034405Y004518D01*
X034405Y004538D01*
X024531Y004538D01*
X024585Y004697D02*
X034447Y004697D01*
X034440Y004683D02*
X034417Y004612D01*
X034405Y004538D01*
X034440Y004683D02*
X034474Y004750D01*
X034518Y004811D01*
X034571Y004864D01*
X034632Y004908D01*
X034699Y004942D01*
X034770Y004965D01*
X034844Y004977D01*
X034863Y004977D01*
X034863Y004518D01*
X034863Y004538D02*
X034900Y004538D01*
X034900Y004697D02*
X034863Y004697D01*
X034863Y004855D02*
X034900Y004855D01*
X034981Y005003D02*
X035163Y005079D01*
X035303Y005219D01*
X035379Y005401D01*
X035379Y005599D01*
X035303Y005781D01*
X035163Y005921D01*
X034981Y005997D01*
X034783Y005997D01*
X034600Y005921D01*
X034461Y005781D01*
X034385Y005599D01*
X034385Y005401D01*
X034461Y005219D01*
X034600Y005079D01*
X034783Y005003D01*
X034981Y005003D01*
X035006Y005014D02*
X037082Y005014D01*
X037082Y005172D02*
X035256Y005172D01*
X035349Y005331D02*
X037082Y005331D01*
X037082Y005489D02*
X035379Y005489D01*
X035358Y005648D02*
X037082Y005648D01*
X037082Y005806D02*
X035278Y005806D01*
X035059Y005965D02*
X037082Y005965D01*
X037082Y006123D02*
X030016Y006123D01*
X030030Y006129D02*
X030153Y006252D01*
X030220Y006413D01*
X030220Y006587D01*
X030153Y006748D01*
X030030Y006871D01*
X029869Y006938D01*
X029695Y006938D01*
X029534Y006871D01*
X029411Y006748D01*
X029344Y006587D01*
X029344Y006413D01*
X029411Y006252D01*
X029534Y006129D01*
X029695Y006062D01*
X029869Y006062D01*
X030030Y006129D01*
X030165Y006282D02*
X037082Y006282D01*
X037082Y006440D02*
X030220Y006440D01*
X030215Y006599D02*
X037082Y006599D01*
X037082Y006757D02*
X030144Y006757D01*
X029923Y006916D02*
X037082Y006916D01*
X037082Y007074D02*
X022271Y007074D01*
X022365Y006916D02*
X028734Y006916D01*
X028749Y006918D02*
X028684Y006908D01*
X028621Y006887D01*
X028563Y006857D01*
X028510Y006819D01*
X028463Y006772D01*
X028424Y006719D01*
X028395Y006660D01*
X028374Y006598D01*
X028364Y006533D01*
X028364Y006500D01*
X028364Y006467D01*
X028374Y006402D01*
X028395Y006340D01*
X028424Y006281D01*
X028463Y006228D01*
X028510Y006181D01*
X028563Y006143D01*
X028621Y006113D01*
X028684Y006092D01*
X028749Y006082D01*
X028782Y006082D01*
X028815Y006082D01*
X028880Y006092D01*
X028942Y006113D01*
X029001Y006143D01*
X029054Y006181D01*
X029100Y006228D01*
X029139Y006281D01*
X029169Y006340D01*
X029189Y006402D01*
X029200Y006467D01*
X029200Y006500D01*
X029200Y006533D01*
X029189Y006598D01*
X029169Y006660D01*
X029139Y006719D01*
X029100Y006772D01*
X029054Y006819D01*
X029001Y006857D01*
X028942Y006887D01*
X028880Y006908D01*
X028815Y006918D01*
X028782Y006918D01*
X028782Y006500D01*
X029200Y006500D01*
X028782Y006500D01*
X028782Y006500D01*
X028782Y006082D01*
X028782Y006500D01*
X028782Y006500D01*
X028782Y006500D01*
X028782Y006918D01*
X028749Y006918D01*
X028782Y006916D02*
X028782Y006916D01*
X028829Y006916D02*
X029641Y006916D01*
X029420Y006757D02*
X029111Y006757D01*
X029189Y006599D02*
X029349Y006599D01*
X029344Y006440D02*
X029195Y006440D01*
X029139Y006282D02*
X029398Y006282D01*
X029548Y006123D02*
X028962Y006123D01*
X028782Y006123D02*
X028782Y006123D01*
X028782Y006282D02*
X028782Y006282D01*
X028782Y006440D02*
X028782Y006440D01*
X028782Y006500D02*
X028364Y006500D01*
X028782Y006500D01*
X028782Y006500D01*
X028782Y006599D02*
X028782Y006599D01*
X028782Y006757D02*
X028782Y006757D01*
X028452Y006757D02*
X022380Y006757D01*
X022329Y006599D02*
X024179Y006599D01*
X024385Y006599D02*
X028374Y006599D01*
X028368Y006440D02*
X024649Y006440D01*
X024748Y006282D02*
X028424Y006282D01*
X028601Y006123D02*
X024782Y006123D01*
X024767Y005965D02*
X034705Y005965D01*
X034485Y005806D02*
X028539Y005806D01*
X028507Y005838D02*
X028361Y005898D01*
X028203Y005898D01*
X028056Y005838D01*
X027944Y005726D01*
X027884Y005579D01*
X027884Y005421D01*
X027944Y005274D01*
X028056Y005162D01*
X028203Y005102D01*
X028361Y005102D01*
X028507Y005162D01*
X028619Y005274D01*
X028680Y005421D01*
X028680Y005579D01*
X028619Y005726D01*
X028507Y005838D01*
X028652Y005648D02*
X034405Y005648D01*
X034385Y005489D02*
X028680Y005489D01*
X028642Y005331D02*
X034414Y005331D01*
X034507Y005172D02*
X028517Y005172D01*
X028047Y005172D02*
X024782Y005172D01*
X024782Y005014D02*
X034758Y005014D01*
X034562Y004855D02*
X024721Y004855D01*
X024707Y004380D02*
X034419Y004380D01*
X034495Y004221D02*
X024773Y004221D01*
X024634Y003746D02*
X028390Y003746D01*
X028364Y003587D02*
X014802Y003587D01*
X014272Y003746D02*
X001762Y003746D01*
X001762Y003904D02*
X014071Y003904D01*
X013997Y004063D02*
X001762Y004063D01*
X001762Y004221D02*
X013982Y004221D01*
X014015Y004380D02*
X001762Y004380D01*
X001762Y004538D02*
X014113Y004538D01*
X014844Y004855D02*
X023842Y004855D01*
X024600Y005489D02*
X027884Y005489D01*
X027912Y005648D02*
X024496Y005648D01*
X024695Y005806D02*
X028025Y005806D01*
X027921Y005331D02*
X024727Y005331D01*
X024632Y003429D02*
X028400Y003429D01*
X028525Y003270D02*
X024731Y003270D01*
X024762Y003080D02*
X024302Y003080D01*
X024302Y002620D01*
X024320Y002620D01*
X024394Y002632D01*
X024466Y002655D01*
X024533Y002689D01*
X024594Y002734D01*
X024648Y002787D01*
X024692Y002848D01*
X024727Y002916D01*
X024750Y002988D01*
X024762Y003062D01*
X024762Y003080D01*
X024739Y002953D02*
X037082Y002953D01*
X037082Y002795D02*
X024653Y002795D01*
X024407Y002636D02*
X037082Y002636D01*
X037082Y002478D02*
X014908Y002478D01*
X014974Y002319D02*
X037082Y002319D01*
X037082Y002161D02*
X014982Y002161D01*
X014941Y002002D02*
X037082Y002002D01*
X037082Y001844D02*
X014832Y001844D01*
X014733Y001611D02*
X014666Y001645D01*
X014594Y001668D01*
X014520Y001680D01*
X014502Y001680D01*
X014502Y001220D01*
X014962Y001220D01*
X014962Y001238D01*
X014950Y001312D01*
X014927Y001384D01*
X014892Y001452D01*
X014848Y001513D01*
X014794Y001566D01*
X014733Y001611D01*
X014834Y001527D02*
X037082Y001527D01*
X037082Y001685D02*
X001762Y001685D01*
X001762Y001527D02*
X014129Y001527D01*
X014116Y001513D02*
X014071Y001452D01*
X014037Y001384D01*
X014014Y001312D01*
X014002Y001238D01*
X014002Y001220D01*
X014462Y001220D01*
X014462Y001680D01*
X014444Y001680D01*
X014369Y001668D01*
X014297Y001645D01*
X014230Y001611D01*
X014169Y001566D01*
X014116Y001513D01*
X014032Y001368D02*
X001762Y001368D01*
X001762Y001210D02*
X014462Y001210D01*
X014462Y001220D02*
X014462Y001180D01*
X014502Y001180D01*
X014502Y001220D01*
X014462Y001220D01*
X014462Y001180D02*
X014002Y001180D01*
X014002Y001162D01*
X014014Y001088D01*
X014037Y001016D01*
X014071Y000948D01*
X014116Y000887D01*
X014169Y000834D01*
X014230Y000789D01*
X014297Y000755D01*
X014369Y000732D01*
X014444Y000720D01*
X014462Y000720D01*
X014462Y001180D01*
X014502Y001180D02*
X014502Y000720D01*
X014520Y000720D01*
X014594Y000732D01*
X014666Y000755D01*
X014733Y000789D01*
X014794Y000834D01*
X014848Y000887D01*
X014892Y000948D01*
X014927Y001016D01*
X014950Y001088D01*
X014962Y001162D01*
X014962Y001180D01*
X014502Y001180D01*
X014502Y001210D02*
X037082Y001210D01*
X037082Y001368D02*
X014932Y001368D01*
X014938Y001051D02*
X037082Y001051D01*
X037082Y000893D02*
X014852Y000893D01*
X014601Y000734D02*
X037082Y000734D01*
X037082Y004697D02*
X035317Y004697D01*
X035201Y004855D02*
X037082Y004855D01*
X037082Y014524D02*
X015261Y014524D01*
X015300Y014682D02*
X023699Y014682D01*
X023600Y014841D02*
X015276Y014841D01*
X015174Y014999D02*
X023572Y014999D01*
X024364Y014682D02*
X025599Y014682D01*
X025542Y014739D02*
X025671Y014610D01*
X025840Y014540D01*
X026023Y014540D01*
X026192Y014610D01*
X026322Y014739D01*
X026392Y014908D01*
X026392Y015091D01*
X026322Y015261D01*
X026192Y015390D01*
X026023Y015460D01*
X025840Y015460D01*
X025671Y015390D01*
X025542Y015261D01*
X025472Y015091D01*
X025472Y014908D01*
X025542Y014739D01*
X025500Y014841D02*
X024464Y014841D01*
X024492Y014999D02*
X025472Y014999D01*
X025499Y015158D02*
X024464Y015158D01*
X024366Y015316D02*
X025597Y015316D01*
X026266Y015316D02*
X028427Y015316D01*
X028568Y015158D02*
X026364Y015158D01*
X026392Y014999D02*
X037082Y014999D01*
X037082Y014841D02*
X026364Y014841D01*
X026264Y014682D02*
X037082Y014682D01*
X037082Y015158D02*
X028995Y015158D01*
X029136Y015316D02*
X029168Y015316D01*
X029395Y015316D02*
X037082Y015316D01*
X037082Y015475D02*
X029619Y015475D01*
X029680Y015633D02*
X037082Y015633D01*
X037082Y015792D02*
X029675Y015792D01*
X029595Y015950D02*
X037082Y015950D01*
X037082Y016109D02*
X028826Y016109D01*
X028880Y015950D02*
X028969Y015950D01*
X028636Y016267D02*
X037082Y016267D01*
X037082Y016426D02*
X028480Y016426D01*
X028478Y016584D02*
X037082Y016584D01*
X037082Y016743D02*
X028402Y016743D01*
X027761Y016743D02*
X015987Y016743D01*
X016072Y016901D02*
X037082Y016901D01*
X037082Y017060D02*
X016080Y017060D01*
X016022Y017218D02*
X021201Y017218D01*
X021763Y017218D02*
X033764Y017218D01*
X033605Y017377D02*
X021861Y017377D01*
X021880Y017535D02*
X033447Y017535D01*
X033288Y017694D02*
X021832Y017694D01*
X021672Y017852D02*
X026181Y017852D01*
X026582Y017852D02*
X033130Y017852D01*
X032971Y018011D02*
X026734Y018011D01*
X026780Y018169D02*
X032813Y018169D01*
X032682Y018328D02*
X026760Y018328D01*
X026659Y018486D02*
X032682Y018486D01*
X032682Y018645D02*
X021934Y018645D01*
X021962Y018803D02*
X032682Y018803D01*
X032682Y018962D02*
X021940Y018962D01*
X021859Y019120D02*
X032682Y019120D01*
X033382Y019120D02*
X033615Y019120D01*
X033582Y019201D02*
X033658Y019017D01*
X033799Y018876D01*
X033982Y018800D01*
X034181Y018800D01*
X034365Y018876D01*
X034506Y019017D01*
X034582Y019201D01*
X034582Y019399D01*
X034506Y019583D01*
X034365Y019724D01*
X034181Y019800D01*
X033982Y019800D01*
X033799Y019724D01*
X033658Y019583D01*
X033582Y019399D01*
X033582Y019201D01*
X033582Y019279D02*
X033382Y019279D01*
X033382Y019437D02*
X033597Y019437D01*
X033670Y019596D02*
X033382Y019596D01*
X033382Y019754D02*
X033871Y019754D01*
X033382Y019913D02*
X037082Y019913D01*
X037082Y020071D02*
X033382Y020071D01*
X033382Y020230D02*
X037082Y020230D01*
X037082Y020388D02*
X033382Y020388D01*
X033382Y020547D02*
X037082Y020547D01*
X037082Y020705D02*
X034869Y020705D01*
X034861Y020702D02*
X035007Y020762D01*
X035119Y020874D01*
X035180Y021021D01*
X035180Y021179D01*
X035119Y021326D01*
X035007Y021438D01*
X034861Y021498D01*
X034703Y021498D01*
X034556Y021438D01*
X034444Y021326D01*
X034384Y021179D01*
X034384Y021021D01*
X034444Y020874D01*
X034556Y020762D01*
X034703Y020702D01*
X034861Y020702D01*
X034695Y020705D02*
X033382Y020705D01*
X033382Y020864D02*
X034455Y020864D01*
X034384Y021022D02*
X033382Y021022D01*
X033382Y021181D02*
X034384Y021181D01*
X034458Y021339D02*
X033382Y021339D01*
X033382Y021498D02*
X034701Y021498D01*
X034862Y021498D02*
X037082Y021498D01*
X037082Y021656D02*
X033382Y021656D01*
X033382Y021815D02*
X037082Y021815D01*
X037082Y021973D02*
X033382Y021973D01*
X033382Y022132D02*
X037082Y022132D01*
X037082Y022290D02*
X033382Y022290D01*
X033382Y022449D02*
X037082Y022449D01*
X037082Y022607D02*
X033382Y022607D01*
X033382Y022766D02*
X037082Y022766D01*
X037082Y022924D02*
X034769Y022924D01*
X034819Y022974D02*
X034880Y023121D01*
X034880Y023279D01*
X034819Y023426D01*
X034707Y023538D01*
X034561Y023598D01*
X034403Y023598D01*
X034256Y023538D01*
X034144Y023426D01*
X034084Y023279D01*
X034084Y023121D01*
X034144Y022974D01*
X034256Y022862D01*
X034403Y022802D01*
X034561Y022802D01*
X034707Y022862D01*
X034819Y022974D01*
X034864Y023083D02*
X037082Y023083D01*
X037082Y023241D02*
X034880Y023241D01*
X034830Y023400D02*
X037082Y023400D01*
X037082Y023558D02*
X034658Y023558D01*
X034306Y023558D02*
X033382Y023558D01*
X033382Y023400D02*
X034133Y023400D01*
X034084Y023241D02*
X033382Y023241D01*
X033382Y023083D02*
X034099Y023083D01*
X034195Y022924D02*
X033382Y022924D01*
X032682Y022924D02*
X031640Y022924D01*
X031619Y022874D02*
X031680Y023021D01*
X031680Y023179D01*
X031619Y023326D01*
X031507Y023438D01*
X031361Y023498D01*
X031203Y023498D01*
X031056Y023438D01*
X030944Y023326D01*
X030884Y023179D01*
X030884Y023021D01*
X030944Y022874D01*
X031056Y022762D01*
X031203Y022702D01*
X031361Y022702D01*
X031507Y022762D01*
X031619Y022874D01*
X031510Y022766D02*
X032682Y022766D01*
X032682Y022607D02*
X024138Y022607D01*
X024107Y022638D02*
X024219Y022526D01*
X024280Y022379D01*
X024280Y022221D01*
X024219Y022074D01*
X024107Y021962D01*
X023961Y021902D01*
X023803Y021902D01*
X023656Y021962D01*
X023544Y022074D01*
X023484Y022221D01*
X023484Y022379D01*
X023544Y022526D01*
X023656Y022638D01*
X023803Y022698D01*
X023961Y022698D01*
X024107Y022638D01*
X024251Y022449D02*
X032682Y022449D01*
X032682Y022290D02*
X024280Y022290D01*
X024243Y022132D02*
X032682Y022132D01*
X032682Y021973D02*
X032121Y021973D01*
X032324Y021815D02*
X032682Y021815D01*
X032682Y021656D02*
X032380Y021656D01*
X032370Y021498D02*
X032682Y021498D01*
X032682Y021339D02*
X032284Y021339D01*
X032682Y021181D02*
X024364Y021181D01*
X024462Y021022D02*
X032682Y021022D01*
X032682Y020864D02*
X030844Y020864D01*
X030907Y020838D02*
X030761Y020898D01*
X030603Y020898D01*
X030456Y020838D01*
X030344Y020726D01*
X030284Y020579D01*
X030284Y020421D01*
X030344Y020274D01*
X030456Y020162D01*
X030603Y020102D01*
X030761Y020102D01*
X030907Y020162D01*
X031019Y020274D01*
X031080Y020421D01*
X031080Y020579D01*
X031019Y020726D01*
X030907Y020838D01*
X031028Y020705D02*
X032682Y020705D01*
X032682Y020547D02*
X031080Y020547D01*
X031066Y020388D02*
X032682Y020388D01*
X032682Y020230D02*
X030974Y020230D01*
X030389Y020230D02*
X030359Y020230D01*
X030380Y020071D02*
X032682Y020071D01*
X032682Y019913D02*
X030335Y019913D01*
X030297Y020388D02*
X030257Y020388D01*
X030284Y020547D02*
X027580Y020547D01*
X027569Y020705D02*
X030336Y020705D01*
X030519Y020864D02*
X027481Y020864D01*
X026882Y020864D02*
X024480Y020864D01*
X023895Y020547D02*
X021941Y020547D01*
X021929Y020705D02*
X023732Y020705D01*
X023684Y020864D02*
X021856Y020864D01*
X021671Y021022D02*
X023701Y021022D01*
X023799Y021181D02*
X015503Y021181D01*
X015260Y021181D02*
X013822Y021181D01*
X014645Y023875D02*
X020082Y023875D01*
X020083Y025302D02*
X001762Y025302D01*
X001762Y025460D02*
X020242Y025460D01*
X020400Y025619D02*
X001762Y025619D01*
X001762Y025777D02*
X020559Y025777D01*
X020717Y025936D02*
X009442Y025936D01*
X009507Y025962D02*
X009619Y026074D01*
X009680Y026221D01*
X009680Y026379D01*
X009619Y026526D01*
X009507Y026638D01*
X009361Y026698D01*
X009203Y026698D01*
X009056Y026638D01*
X008944Y026526D01*
X008884Y026379D01*
X008884Y026221D01*
X008944Y026074D01*
X009056Y025962D01*
X009203Y025902D01*
X009361Y025902D01*
X009507Y025962D01*
X009627Y026094D02*
X020876Y026094D01*
X021034Y026253D02*
X011883Y026253D01*
X011907Y026262D02*
X012019Y026374D01*
X012080Y026521D01*
X012080Y026602D01*
X012161Y026602D01*
X012307Y026662D01*
X012419Y026774D01*
X012480Y026921D01*
X012480Y027079D01*
X012419Y027226D01*
X012307Y027338D01*
X012161Y027398D01*
X012003Y027398D01*
X011856Y027338D01*
X011744Y027226D01*
X011684Y027079D01*
X011684Y026998D01*
X011603Y026998D01*
X011456Y026938D01*
X011344Y026826D01*
X011284Y026679D01*
X011284Y026521D01*
X011344Y026374D01*
X011456Y026262D01*
X011603Y026202D01*
X011761Y026202D01*
X011907Y026262D01*
X012034Y026411D02*
X021193Y026411D01*
X021351Y026570D02*
X012080Y026570D01*
X012373Y026728D02*
X021510Y026728D01*
X021668Y026887D02*
X012466Y026887D01*
X012480Y027045D02*
X021827Y027045D01*
X021985Y027204D02*
X012428Y027204D01*
X012248Y027362D02*
X022144Y027362D01*
X022302Y027521D02*
X003572Y027521D01*
X003592Y027548D02*
X003627Y027616D01*
X003650Y027688D01*
X003662Y027762D01*
X003662Y027780D01*
X003202Y027780D01*
X003202Y027820D01*
X003662Y027820D01*
X003662Y027838D01*
X003650Y027912D01*
X003627Y027984D01*
X003592Y028052D01*
X003548Y028113D01*
X003494Y028166D01*
X003433Y028211D01*
X003366Y028245D01*
X003294Y028268D01*
X003220Y028280D01*
X003202Y028280D01*
X003202Y027820D01*
X003162Y027820D01*
X003162Y028280D01*
X003144Y028280D01*
X003069Y028268D01*
X002997Y028245D01*
X002930Y028211D01*
X002869Y028166D01*
X002816Y028113D01*
X002771Y028052D01*
X002737Y027984D01*
X002714Y027912D01*
X002702Y027838D01*
X002702Y027820D01*
X003162Y027820D01*
X003162Y027780D01*
X003202Y027780D01*
X003202Y027320D01*
X003220Y027320D01*
X003294Y027332D01*
X003366Y027355D01*
X003433Y027389D01*
X003494Y027434D01*
X003548Y027487D01*
X003592Y027548D01*
X003647Y027679D02*
X008040Y027679D01*
X008056Y027662D02*
X008203Y027602D01*
X008361Y027602D01*
X008507Y027662D01*
X008619Y027774D01*
X008680Y027921D01*
X008680Y028079D01*
X008619Y028226D01*
X008590Y028255D01*
X008607Y028262D01*
X008719Y028374D01*
X008780Y028521D01*
X008780Y028679D01*
X008719Y028826D01*
X008607Y028938D01*
X008461Y028998D01*
X008303Y028998D01*
X008156Y028938D01*
X008044Y028826D01*
X007984Y028679D01*
X007984Y028521D01*
X008044Y028374D01*
X008074Y028345D01*
X008056Y028338D01*
X007944Y028226D01*
X007884Y028079D01*
X007884Y027921D01*
X007944Y027774D01*
X008056Y027662D01*
X007918Y027838D02*
X003662Y027838D01*
X003621Y027996D02*
X007884Y027996D01*
X007915Y028155D02*
X003506Y028155D01*
X003465Y028376D02*
X003606Y028517D01*
X003682Y028701D01*
X003682Y028899D01*
X003606Y029083D01*
X003465Y029224D01*
X003281Y029300D01*
X003082Y029300D01*
X002899Y029224D01*
X002758Y029083D01*
X002682Y028899D01*
X002682Y028701D01*
X002758Y028517D01*
X002899Y028376D01*
X003082Y028300D01*
X003281Y028300D01*
X003465Y028376D01*
X003560Y028472D02*
X008004Y028472D01*
X007984Y028630D02*
X003653Y028630D01*
X003682Y028789D02*
X008029Y028789D01*
X008179Y028947D02*
X003662Y028947D01*
X003583Y029106D02*
X009313Y029106D01*
X009356Y029062D02*
X009503Y029002D01*
X009661Y029002D01*
X009807Y029062D01*
X009919Y029174D01*
X009980Y029321D01*
X009980Y029479D01*
X009919Y029626D01*
X009807Y029738D01*
X009661Y029798D01*
X009503Y029798D01*
X009356Y029738D01*
X009244Y029626D01*
X009184Y029479D01*
X009184Y029321D01*
X009244Y029174D01*
X009356Y029062D01*
X009207Y029264D02*
X003368Y029264D01*
X002995Y029264D02*
X001762Y029264D01*
X001762Y029106D02*
X002780Y029106D01*
X002701Y028947D02*
X001762Y028947D01*
X001762Y028789D02*
X002682Y028789D01*
X002711Y028630D02*
X001762Y028630D01*
X001762Y028472D02*
X002803Y028472D01*
X003051Y028313D02*
X001762Y028313D01*
X001762Y028155D02*
X002857Y028155D01*
X002743Y027996D02*
X001762Y027996D01*
X001762Y027838D02*
X002702Y027838D01*
X002702Y027780D02*
X002702Y027762D01*
X002714Y027688D01*
X002737Y027616D01*
X002771Y027548D01*
X002816Y027487D01*
X002869Y027434D01*
X002930Y027389D01*
X002997Y027355D01*
X003069Y027332D01*
X003144Y027320D01*
X003162Y027320D01*
X003162Y027780D01*
X002702Y027780D01*
X002716Y027679D02*
X001762Y027679D01*
X001762Y027521D02*
X002791Y027521D01*
X002984Y027362D02*
X001762Y027362D01*
X001762Y027204D02*
X002878Y027204D01*
X002899Y027224D02*
X002758Y027083D01*
X002682Y026899D01*
X002682Y026701D01*
X002758Y026517D01*
X002899Y026376D01*
X003082Y026300D01*
X003281Y026300D01*
X003465Y026376D01*
X003606Y026517D01*
X003682Y026701D01*
X003682Y026899D01*
X003606Y027083D01*
X003465Y027224D01*
X003281Y027300D01*
X003082Y027300D01*
X002899Y027224D01*
X002742Y027045D02*
X001762Y027045D01*
X001762Y026887D02*
X002682Y026887D01*
X002682Y026728D02*
X001762Y026728D01*
X001762Y026570D02*
X002736Y026570D01*
X002864Y026411D02*
X001762Y026411D01*
X001762Y026253D02*
X008884Y026253D01*
X008897Y026411D02*
X005256Y026411D01*
X005207Y026362D02*
X005319Y026474D01*
X005380Y026621D01*
X005380Y026779D01*
X005319Y026926D01*
X005207Y027038D01*
X005061Y027098D01*
X004903Y027098D01*
X004756Y027038D01*
X004644Y026926D01*
X004584Y026779D01*
X004584Y026621D01*
X004644Y026474D01*
X004756Y026362D01*
X004903Y026302D01*
X005061Y026302D01*
X005207Y026362D01*
X005359Y026570D02*
X008988Y026570D01*
X008936Y026094D02*
X001762Y026094D01*
X001762Y025936D02*
X009121Y025936D01*
X009680Y026253D02*
X011480Y026253D01*
X011329Y026411D02*
X009667Y026411D01*
X009575Y026570D02*
X011284Y026570D01*
X011304Y026728D02*
X005380Y026728D01*
X005335Y026887D02*
X011405Y026887D01*
X011684Y027045D02*
X005189Y027045D01*
X004774Y027045D02*
X003621Y027045D01*
X003682Y026887D02*
X004628Y026887D01*
X004584Y026728D02*
X003682Y026728D01*
X003627Y026570D02*
X004605Y026570D01*
X004708Y026411D02*
X003500Y026411D01*
X003485Y027204D02*
X011735Y027204D01*
X011915Y027362D02*
X003379Y027362D01*
X003202Y027362D02*
X003162Y027362D01*
X003162Y027521D02*
X003202Y027521D01*
X003202Y027679D02*
X003162Y027679D01*
X003162Y027838D02*
X003202Y027838D01*
X003202Y027996D02*
X003162Y027996D01*
X003162Y028155D02*
X003202Y028155D01*
X003313Y028313D02*
X008032Y028313D01*
X008658Y028313D02*
X023095Y028313D01*
X023253Y028472D02*
X008759Y028472D01*
X008780Y028630D02*
X023412Y028630D01*
X023570Y028789D02*
X008735Y028789D01*
X008584Y028947D02*
X037082Y028947D01*
X037082Y028789D02*
X035056Y028789D01*
X035007Y028838D02*
X035119Y028726D01*
X035180Y028579D01*
X035180Y028421D01*
X035119Y028274D01*
X035007Y028162D01*
X034861Y028102D01*
X034703Y028102D01*
X034556Y028162D01*
X034444Y028274D01*
X034384Y028421D01*
X034384Y028579D01*
X034444Y028726D01*
X034556Y028838D01*
X034703Y028898D01*
X034861Y028898D01*
X035007Y028838D01*
X035159Y028630D02*
X037082Y028630D01*
X037082Y028472D02*
X035180Y028472D01*
X035135Y028313D02*
X037082Y028313D01*
X037082Y028155D02*
X034988Y028155D01*
X034575Y028155D02*
X030827Y028155D01*
X030669Y028313D02*
X034428Y028313D01*
X034384Y028472D02*
X030510Y028472D01*
X030352Y028630D02*
X034405Y028630D01*
X034507Y028789D02*
X030193Y028789D01*
X030327Y028155D02*
X029766Y028155D01*
X029807Y028138D02*
X029661Y028198D01*
X029503Y028198D01*
X029356Y028138D01*
X029244Y028026D01*
X029184Y027879D01*
X029184Y027721D01*
X029244Y027574D01*
X029356Y027462D01*
X029503Y027402D01*
X029661Y027402D01*
X029807Y027462D01*
X029919Y027574D01*
X029980Y027721D01*
X029980Y027879D01*
X029919Y028026D01*
X029807Y028138D01*
X029931Y027996D02*
X030486Y027996D01*
X030644Y027838D02*
X029980Y027838D01*
X029963Y027679D02*
X030803Y027679D01*
X030961Y027521D02*
X029865Y027521D01*
X029397Y028155D02*
X024136Y028155D01*
X023978Y027996D02*
X029232Y027996D01*
X029184Y027838D02*
X023819Y027838D01*
X023661Y027679D02*
X029201Y027679D01*
X029298Y027521D02*
X023502Y027521D01*
X023344Y027362D02*
X023681Y027362D01*
X023644Y027326D02*
X023584Y027179D01*
X023584Y027021D01*
X023644Y026874D01*
X023756Y026762D01*
X023903Y026702D01*
X024061Y026702D01*
X024207Y026762D01*
X024319Y026874D01*
X024380Y027021D01*
X024380Y027179D01*
X024319Y027326D01*
X024207Y027438D01*
X024061Y027498D01*
X023903Y027498D01*
X023756Y027438D01*
X023644Y027326D01*
X023594Y027204D02*
X023282Y027204D01*
X023282Y027045D02*
X023584Y027045D01*
X023639Y026887D02*
X023282Y026887D01*
X023282Y026728D02*
X023839Y026728D01*
X024124Y026728D02*
X031282Y026728D01*
X031282Y026570D02*
X030675Y026570D01*
X030719Y026526D02*
X030607Y026638D01*
X030461Y026698D01*
X030303Y026698D01*
X030156Y026638D01*
X030044Y026526D01*
X029984Y026379D01*
X029984Y026221D01*
X030044Y026074D01*
X030156Y025962D01*
X030303Y025902D01*
X030461Y025902D01*
X030607Y025962D01*
X030719Y026074D01*
X030780Y026221D01*
X030780Y026379D01*
X030719Y026526D01*
X030767Y026411D02*
X031282Y026411D01*
X031429Y026253D02*
X030780Y026253D01*
X030727Y026094D02*
X031588Y026094D01*
X031746Y025936D02*
X030542Y025936D01*
X030221Y025936D02*
X023282Y025936D01*
X023282Y026094D02*
X030036Y026094D01*
X029984Y026253D02*
X023282Y026253D01*
X023282Y026411D02*
X029997Y026411D01*
X030088Y026570D02*
X023282Y026570D01*
X023282Y025777D02*
X031905Y025777D01*
X032063Y025619D02*
X023282Y025619D01*
X023282Y025460D02*
X027611Y025460D01*
X027556Y025438D02*
X027444Y025326D01*
X027384Y025179D01*
X027384Y025161D01*
X027307Y025238D01*
X027161Y025298D01*
X027003Y025298D01*
X026856Y025238D01*
X026744Y025126D01*
X026684Y024979D01*
X026684Y024821D01*
X026744Y024674D01*
X026856Y024562D01*
X027003Y024502D01*
X027161Y024502D01*
X027307Y024562D01*
X027419Y024674D01*
X027480Y024821D01*
X027480Y024839D01*
X027556Y024762D01*
X027703Y024702D01*
X027861Y024702D01*
X028007Y024762D01*
X028119Y024874D01*
X028180Y025021D01*
X028180Y025179D01*
X028119Y025326D01*
X028007Y025438D01*
X027861Y025498D01*
X027703Y025498D01*
X027556Y025438D01*
X027434Y025302D02*
X023282Y025302D01*
X023282Y025143D02*
X023562Y025143D01*
X023544Y025126D02*
X023484Y024979D01*
X023484Y024821D01*
X023544Y024674D01*
X023656Y024562D01*
X023803Y024502D01*
X023961Y024502D01*
X024107Y024562D01*
X024219Y024674D01*
X024280Y024821D01*
X024280Y024979D01*
X024219Y025126D01*
X024107Y025238D01*
X023961Y025298D01*
X023803Y025298D01*
X023656Y025238D01*
X023544Y025126D01*
X023486Y024985D02*
X023282Y024985D01*
X023282Y024826D02*
X023484Y024826D01*
X023551Y024668D02*
X023282Y024668D01*
X023282Y024509D02*
X023785Y024509D01*
X023978Y024509D02*
X026985Y024509D01*
X027178Y024509D02*
X032682Y024509D01*
X032682Y024351D02*
X023282Y024351D01*
X023282Y024192D02*
X032682Y024192D01*
X032682Y024034D02*
X023282Y024034D01*
X023282Y023875D02*
X032682Y023875D01*
X032682Y023717D02*
X023282Y023717D01*
X023282Y023558D02*
X032682Y023558D01*
X032682Y023400D02*
X031545Y023400D01*
X031654Y023241D02*
X032682Y023241D01*
X032682Y023083D02*
X031680Y023083D01*
X031053Y022766D02*
X022547Y022766D01*
X022706Y022924D02*
X030924Y022924D01*
X030884Y023083D02*
X022864Y023083D01*
X023023Y023241D02*
X030909Y023241D01*
X031018Y023400D02*
X023181Y023400D01*
X023626Y022607D02*
X022389Y022607D01*
X022230Y022449D02*
X023512Y022449D01*
X023484Y022290D02*
X022072Y022290D01*
X021913Y022132D02*
X023521Y022132D01*
X023646Y021973D02*
X021755Y021973D01*
X021596Y021815D02*
X031640Y021815D01*
X031584Y021656D02*
X021438Y021656D01*
X021442Y021022D02*
X021482Y021022D01*
X021482Y020864D02*
X021442Y020864D01*
X021442Y020705D02*
X021482Y020705D01*
X021442Y020570D02*
X020982Y020570D01*
X020982Y020552D01*
X020994Y020478D01*
X021017Y020406D01*
X021051Y020338D01*
X021096Y020277D01*
X021149Y020224D01*
X021210Y020179D01*
X021277Y020145D01*
X021349Y020122D01*
X021424Y020110D01*
X021442Y020110D01*
X021442Y020570D01*
X021442Y020547D02*
X021482Y020547D01*
X021482Y020388D02*
X021442Y020388D01*
X021442Y020230D02*
X021482Y020230D01*
X021143Y020230D02*
X019220Y020230D01*
X019338Y020388D02*
X021026Y020388D01*
X020983Y020547D02*
X019381Y020547D01*
X019369Y020705D02*
X020994Y020705D01*
X021067Y020864D02*
X019296Y020864D01*
X019111Y021022D02*
X021252Y021022D01*
X021065Y019120D02*
X019299Y019120D01*
X019380Y018962D02*
X020983Y018962D01*
X020962Y018803D02*
X019402Y018803D01*
X019374Y018645D02*
X020989Y018645D01*
X021079Y018486D02*
X019285Y018486D01*
X019044Y018328D02*
X021320Y018328D01*
X021604Y018328D02*
X026004Y018328D01*
X026105Y018486D02*
X021845Y018486D01*
X024118Y021973D02*
X031842Y021973D01*
X033382Y023717D02*
X037082Y023717D01*
X037082Y023875D02*
X033382Y023875D01*
X033382Y024034D02*
X037082Y024034D01*
X037082Y024192D02*
X033382Y024192D01*
X033382Y024351D02*
X037082Y024351D01*
X037082Y024509D02*
X033382Y024509D01*
X033382Y024668D02*
X037082Y024668D01*
X037082Y024826D02*
X033356Y024826D01*
X033197Y024985D02*
X037082Y024985D01*
X037082Y025143D02*
X033039Y025143D01*
X032880Y025302D02*
X037082Y025302D01*
X037082Y025460D02*
X032722Y025460D01*
X032563Y025619D02*
X035462Y025619D01*
X035503Y025602D02*
X035661Y025602D01*
X035807Y025662D01*
X035919Y025774D01*
X035980Y025921D01*
X035980Y026079D01*
X035919Y026226D01*
X035807Y026338D01*
X035661Y026398D01*
X035503Y026398D01*
X035356Y026338D01*
X035244Y026226D01*
X035184Y026079D01*
X035184Y025921D01*
X035244Y025774D01*
X035356Y025662D01*
X035503Y025602D01*
X035701Y025619D02*
X037082Y025619D01*
X037082Y025777D02*
X035920Y025777D01*
X035980Y025936D02*
X037082Y025936D01*
X037082Y026094D02*
X035974Y026094D01*
X035892Y026253D02*
X037082Y026253D01*
X037082Y026411D02*
X034556Y026411D01*
X034507Y026362D02*
X034619Y026474D01*
X034680Y026621D01*
X034680Y026779D01*
X034619Y026926D01*
X034507Y027038D01*
X034361Y027098D01*
X034203Y027098D01*
X034056Y027038D01*
X033944Y026926D01*
X033884Y026779D01*
X033884Y026621D01*
X033944Y026474D01*
X034056Y026362D01*
X034203Y026302D01*
X034361Y026302D01*
X034507Y026362D01*
X034659Y026570D02*
X037082Y026570D01*
X037082Y026728D02*
X034680Y026728D01*
X034635Y026887D02*
X037082Y026887D01*
X037082Y027045D02*
X034489Y027045D01*
X034074Y027045D02*
X031582Y027045D01*
X031582Y026887D02*
X033105Y026887D01*
X033156Y026938D02*
X033044Y026826D01*
X032984Y026679D01*
X032984Y026521D01*
X033044Y026374D01*
X033156Y026262D01*
X033303Y026202D01*
X033461Y026202D01*
X033607Y026262D01*
X033719Y026374D01*
X033780Y026521D01*
X033780Y026679D01*
X033719Y026826D01*
X033607Y026938D01*
X033461Y026998D01*
X033303Y026998D01*
X033156Y026938D01*
X033004Y026728D02*
X031582Y026728D01*
X031612Y026570D02*
X032984Y026570D01*
X033029Y026411D02*
X031771Y026411D01*
X031929Y026253D02*
X033180Y026253D01*
X033583Y026253D02*
X035271Y026253D01*
X035190Y026094D02*
X032088Y026094D01*
X032246Y025936D02*
X035184Y025936D01*
X035243Y025777D02*
X032405Y025777D01*
X032222Y025460D02*
X031785Y025460D01*
X031819Y025426D02*
X031707Y025538D01*
X031561Y025598D01*
X031403Y025598D01*
X031256Y025538D01*
X031144Y025426D01*
X031084Y025279D01*
X031084Y025121D01*
X031144Y024974D01*
X031256Y024862D01*
X031403Y024802D01*
X031561Y024802D01*
X031707Y024862D01*
X031819Y024974D01*
X031880Y025121D01*
X031880Y025279D01*
X031819Y025426D01*
X031871Y025302D02*
X032380Y025302D01*
X032539Y025143D02*
X031880Y025143D01*
X031823Y024985D02*
X032682Y024985D01*
X032682Y024826D02*
X031619Y024826D01*
X031344Y024826D02*
X030171Y024826D01*
X030219Y024874D02*
X030280Y025021D01*
X030280Y025179D01*
X030219Y025326D01*
X030107Y025438D01*
X029961Y025498D01*
X029803Y025498D01*
X029656Y025438D01*
X029544Y025326D01*
X029484Y025179D01*
X029484Y025021D01*
X029544Y024874D01*
X029656Y024762D01*
X029803Y024702D01*
X029961Y024702D01*
X030107Y024762D01*
X030219Y024874D01*
X030265Y024985D02*
X031140Y024985D01*
X031084Y025143D02*
X030280Y025143D01*
X030229Y025302D02*
X031093Y025302D01*
X031179Y025460D02*
X030053Y025460D01*
X029711Y025460D02*
X027953Y025460D01*
X028129Y025302D02*
X029534Y025302D01*
X029484Y025143D02*
X028180Y025143D01*
X028165Y024985D02*
X029499Y024985D01*
X029593Y024826D02*
X028071Y024826D01*
X027493Y024826D02*
X027480Y024826D01*
X027412Y024668D02*
X032682Y024668D01*
X033734Y026411D02*
X034008Y026411D01*
X033905Y026570D02*
X033780Y026570D01*
X033760Y026728D02*
X033884Y026728D01*
X033928Y026887D02*
X033658Y026887D01*
X031582Y027204D02*
X037082Y027204D01*
X037082Y027362D02*
X031582Y027362D01*
X031461Y027521D02*
X037082Y027521D01*
X037082Y027679D02*
X031303Y027679D01*
X031144Y027838D02*
X037082Y027838D01*
X037082Y027996D02*
X030986Y027996D01*
X031120Y027362D02*
X024283Y027362D01*
X024370Y027204D02*
X031278Y027204D01*
X031282Y027045D02*
X024380Y027045D01*
X024324Y026887D02*
X031282Y026887D01*
X034844Y030374D02*
X034956Y030262D01*
X035103Y030202D01*
X035261Y030202D01*
X035407Y030262D01*
X035519Y030374D01*
X035580Y030521D01*
X035580Y030679D01*
X035519Y030826D01*
X035407Y030938D01*
X035261Y030998D01*
X035103Y030998D01*
X034956Y030938D01*
X034844Y030826D01*
X034784Y030679D01*
X034784Y030521D01*
X034844Y030374D01*
X034845Y030374D02*
X004571Y030374D01*
X004619Y030326D02*
X004507Y030438D01*
X004361Y030498D01*
X004203Y030498D01*
X004056Y030438D01*
X003944Y030326D01*
X003884Y030179D01*
X003884Y030021D01*
X003944Y029874D01*
X004056Y029762D01*
X004203Y029702D01*
X004361Y029702D01*
X004507Y029762D01*
X004619Y029874D01*
X004680Y030021D01*
X004680Y030179D01*
X004619Y030326D01*
X004665Y030215D02*
X035071Y030215D01*
X035293Y030215D02*
X037082Y030215D01*
X037082Y030057D02*
X004680Y030057D01*
X004629Y029898D02*
X037082Y029898D01*
X037082Y029740D02*
X009802Y029740D01*
X009938Y029581D02*
X037082Y029581D01*
X037082Y029423D02*
X009980Y029423D01*
X009956Y029264D02*
X037082Y029264D01*
X037082Y029106D02*
X009850Y029106D01*
X009184Y029423D02*
X001762Y029423D01*
X001762Y029581D02*
X009226Y029581D01*
X009361Y029740D02*
X004452Y029740D01*
X004112Y029740D02*
X001762Y029740D01*
X001762Y029898D02*
X003934Y029898D01*
X003884Y030057D02*
X001762Y030057D01*
X001762Y030215D02*
X003898Y030215D01*
X003992Y030374D02*
X001762Y030374D01*
X001762Y030532D02*
X034784Y030532D01*
X034788Y030691D02*
X008535Y030691D01*
X008507Y030662D02*
X008619Y030774D01*
X008680Y030921D01*
X008680Y031079D01*
X008619Y031226D01*
X008507Y031338D01*
X008361Y031398D01*
X008203Y031398D01*
X008056Y031338D01*
X007944Y031226D01*
X007884Y031079D01*
X007884Y030921D01*
X007944Y030774D01*
X008056Y030662D01*
X008203Y030602D01*
X008361Y030602D01*
X008507Y030662D01*
X008650Y030849D02*
X032389Y030849D01*
X032356Y030862D02*
X032503Y030802D01*
X032661Y030802D01*
X032807Y030862D01*
X032919Y030974D01*
X032980Y031121D01*
X032980Y031279D01*
X032919Y031426D01*
X032807Y031538D01*
X032661Y031598D01*
X032503Y031598D01*
X032356Y031538D01*
X032244Y031426D01*
X032184Y031279D01*
X032184Y031121D01*
X032244Y030974D01*
X032356Y030862D01*
X032231Y031008D02*
X008680Y031008D01*
X008644Y031166D02*
X032184Y031166D01*
X032202Y031325D02*
X008520Y031325D01*
X008043Y031325D02*
X001762Y031325D01*
X001762Y031483D02*
X032302Y031483D01*
X032775Y030849D02*
X034868Y030849D01*
X035496Y030849D02*
X037082Y030849D01*
X037082Y030691D02*
X035575Y030691D01*
X035580Y030532D02*
X037082Y030532D01*
X037082Y030374D02*
X035518Y030374D01*
X037082Y031008D02*
X032933Y031008D01*
X032980Y031166D02*
X037082Y031166D01*
X037082Y031325D02*
X032961Y031325D01*
X032862Y031483D02*
X037082Y031483D01*
X037082Y031642D02*
X027686Y031642D01*
X027719Y031674D02*
X027780Y031821D01*
X027780Y031979D01*
X027719Y032126D01*
X027607Y032238D01*
X027461Y032298D01*
X027303Y032298D01*
X027156Y032238D01*
X027044Y032126D01*
X026984Y031979D01*
X026984Y031821D01*
X027044Y031674D01*
X027156Y031562D01*
X027303Y031502D01*
X027461Y031502D01*
X027607Y031562D01*
X027719Y031674D01*
X027771Y031800D02*
X037082Y031800D01*
X037082Y031959D02*
X027780Y031959D01*
X027723Y032117D02*
X033441Y032117D01*
X033482Y032100D02*
X033681Y032100D01*
X033865Y032176D01*
X034006Y032317D01*
X034082Y032501D01*
X034082Y032699D01*
X034006Y032883D01*
X033865Y033024D01*
X033681Y033100D01*
X033482Y033100D01*
X033299Y033024D01*
X033158Y032883D01*
X033082Y032699D01*
X033082Y032501D01*
X033158Y032317D01*
X033299Y032176D01*
X033482Y032100D01*
X033722Y032117D02*
X035441Y032117D01*
X035482Y032100D02*
X035681Y032100D01*
X035865Y032176D01*
X036006Y032317D01*
X036082Y032501D01*
X036082Y032699D01*
X036006Y032883D01*
X035865Y033024D01*
X035681Y033100D01*
X035482Y033100D01*
X035299Y033024D01*
X035158Y032883D01*
X035082Y032699D01*
X035082Y032501D01*
X035158Y032317D01*
X035299Y032176D01*
X035482Y032100D01*
X035722Y032117D02*
X037082Y032117D01*
X037082Y032276D02*
X035964Y032276D01*
X036054Y032434D02*
X037082Y032434D01*
X037082Y032593D02*
X036082Y032593D01*
X036060Y032751D02*
X037082Y032751D01*
X037082Y032910D02*
X035979Y032910D01*
X035758Y033068D02*
X037082Y033068D01*
X037082Y033227D02*
X021720Y033227D01*
X021661Y033202D02*
X021807Y033262D01*
X021919Y033374D01*
X021980Y033521D01*
X021980Y033679D01*
X021919Y033826D01*
X021807Y033938D01*
X021661Y033998D01*
X021503Y033998D01*
X021356Y033938D01*
X021244Y033826D01*
X021184Y033679D01*
X021184Y033521D01*
X021244Y033374D01*
X021356Y033262D01*
X021503Y033202D01*
X021661Y033202D01*
X021443Y033227D02*
X001762Y033227D01*
X001762Y033385D02*
X019934Y033385D01*
X019956Y033362D02*
X020103Y033302D01*
X020261Y033302D01*
X020407Y033362D01*
X020519Y033474D01*
X020580Y033621D01*
X020580Y033779D01*
X020519Y033926D01*
X020407Y034038D01*
X020261Y034098D01*
X020103Y034098D01*
X019956Y034038D01*
X019844Y033926D01*
X019784Y033779D01*
X019784Y033621D01*
X019844Y033474D01*
X019956Y033362D01*
X019816Y033544D02*
X003686Y033544D01*
X003765Y033576D02*
X003906Y033717D01*
X003982Y033901D01*
X003982Y034099D01*
X003906Y034283D01*
X003765Y034424D01*
X003581Y034500D01*
X003382Y034500D01*
X003199Y034424D01*
X003058Y034283D01*
X002982Y034099D01*
X002982Y033901D01*
X003058Y033717D01*
X003199Y033576D01*
X003382Y033500D01*
X003581Y033500D01*
X003765Y033576D01*
X003891Y033702D02*
X015317Y033702D01*
X015356Y033662D02*
X015503Y033602D01*
X015661Y033602D01*
X015807Y033662D01*
X015919Y033774D01*
X015980Y033921D01*
X015980Y034079D01*
X015919Y034226D01*
X015807Y034338D01*
X015661Y034398D01*
X015503Y034398D01*
X015356Y034338D01*
X015244Y034226D01*
X015184Y034079D01*
X015184Y033921D01*
X015244Y033774D01*
X015356Y033662D01*
X015209Y033861D02*
X003965Y033861D01*
X003982Y034019D02*
X015184Y034019D01*
X015224Y034178D02*
X003949Y034178D01*
X003853Y034336D02*
X015355Y034336D01*
X015809Y034336D02*
X026355Y034336D01*
X026344Y034326D02*
X026284Y034179D01*
X026284Y034021D01*
X026344Y033874D01*
X026456Y033762D01*
X026603Y033702D01*
X026761Y033702D01*
X026907Y033762D01*
X027019Y033874D01*
X027080Y034021D01*
X027080Y034179D01*
X027019Y034326D01*
X026907Y034438D01*
X026761Y034498D01*
X026603Y034498D01*
X026456Y034438D01*
X026344Y034326D01*
X026284Y034178D02*
X015939Y034178D01*
X015980Y034019D02*
X019938Y034019D01*
X019817Y033861D02*
X015955Y033861D01*
X015847Y033702D02*
X019784Y033702D01*
X020426Y034019D02*
X026284Y034019D01*
X026358Y033861D02*
X021884Y033861D01*
X021970Y033702D02*
X026602Y033702D01*
X026761Y033702D02*
X037082Y033702D01*
X037082Y033544D02*
X021980Y033544D01*
X021924Y033385D02*
X037082Y033385D01*
X037082Y033861D02*
X027005Y033861D01*
X027079Y034019D02*
X037082Y034019D01*
X037082Y034178D02*
X027080Y034178D01*
X027009Y034336D02*
X037082Y034336D01*
X037082Y034495D02*
X026770Y034495D01*
X026594Y034495D02*
X003594Y034495D01*
X003594Y034532D02*
X003666Y034555D01*
X003733Y034589D01*
X003794Y034634D01*
X003848Y034687D01*
X003892Y034748D01*
X003927Y034816D01*
X003950Y034888D01*
X003962Y034962D01*
X003962Y034980D01*
X003502Y034980D01*
X003502Y035020D01*
X003962Y035020D01*
X003962Y035038D01*
X003950Y035112D01*
X003927Y035184D01*
X003892Y035252D01*
X003848Y035313D01*
X003794Y035366D01*
X003733Y035411D01*
X003666Y035445D01*
X003594Y035468D01*
X003520Y035480D01*
X003502Y035480D01*
X003502Y035020D01*
X003462Y035020D01*
X003462Y035480D01*
X003444Y035480D01*
X003369Y035468D01*
X003297Y035445D01*
X003230Y035411D01*
X003169Y035366D01*
X003116Y035313D01*
X003071Y035252D01*
X003037Y035184D01*
X003014Y035112D01*
X003002Y035038D01*
X003002Y035020D01*
X003462Y035020D01*
X003462Y034980D01*
X003502Y034980D01*
X003502Y034520D01*
X003520Y034520D01*
X003594Y034532D01*
X003462Y034520D02*
X003462Y034980D01*
X003002Y034980D01*
X003002Y034962D01*
X003014Y034888D01*
X003037Y034816D01*
X003071Y034748D01*
X003116Y034687D01*
X003169Y034634D01*
X003230Y034589D01*
X003297Y034555D01*
X003369Y034532D01*
X003444Y034520D01*
X003462Y034520D01*
X003369Y034495D02*
X001762Y034495D01*
X001762Y034653D02*
X003150Y034653D01*
X003039Y034812D02*
X001762Y034812D01*
X001762Y034970D02*
X003002Y034970D01*
X003019Y035129D02*
X001762Y035129D01*
X001762Y035287D02*
X003097Y035287D01*
X003300Y035446D02*
X001762Y035446D01*
X001762Y035604D02*
X003171Y035604D01*
X003199Y035576D02*
X003382Y035500D01*
X003581Y035500D01*
X003765Y035576D01*
X003906Y035717D01*
X003982Y035901D01*
X003982Y036099D01*
X003906Y036283D01*
X003765Y036424D01*
X003581Y036500D01*
X003382Y036500D01*
X003199Y036424D01*
X003058Y036283D01*
X002982Y036099D01*
X002982Y035901D01*
X003058Y035717D01*
X003199Y035576D01*
X003039Y035763D02*
X001762Y035763D01*
X001762Y035921D02*
X002982Y035921D01*
X002982Y036080D02*
X001762Y036080D01*
X001762Y036238D02*
X003039Y036238D01*
X003171Y036397D02*
X001762Y036397D01*
X001762Y036555D02*
X017215Y036555D01*
X017244Y036626D02*
X017184Y036479D01*
X017184Y036321D01*
X017244Y036174D01*
X017356Y036062D01*
X017503Y036002D01*
X017661Y036002D01*
X017807Y036062D01*
X017919Y036174D01*
X017980Y036321D01*
X017980Y036479D01*
X017919Y036626D01*
X017807Y036738D01*
X017661Y036798D01*
X017503Y036798D01*
X017356Y036738D01*
X017244Y036626D01*
X017332Y036714D02*
X001762Y036714D01*
X001762Y036872D02*
X022622Y036872D01*
X022644Y036926D02*
X022584Y036779D01*
X022584Y036621D01*
X022644Y036474D01*
X022756Y036362D01*
X022903Y036302D01*
X023061Y036302D01*
X023207Y036362D01*
X023319Y036474D01*
X023380Y036621D01*
X023380Y036779D01*
X023319Y036926D01*
X023207Y037038D01*
X023061Y037098D01*
X022903Y037098D01*
X022756Y037038D01*
X022644Y036926D01*
X022749Y037031D02*
X006230Y037031D01*
X006161Y037002D02*
X006307Y037062D01*
X006419Y037174D01*
X006480Y037321D01*
X006480Y037479D01*
X006419Y037626D01*
X006307Y037738D01*
X006161Y037798D01*
X006003Y037798D01*
X005856Y037738D01*
X005744Y037626D01*
X005684Y037479D01*
X005684Y037321D01*
X005744Y037174D01*
X005856Y037062D01*
X006003Y037002D01*
X006161Y037002D01*
X005933Y037031D02*
X001762Y037031D01*
X001762Y037189D02*
X005738Y037189D01*
X005684Y037348D02*
X001762Y037348D01*
X001762Y037506D02*
X005695Y037506D01*
X005783Y037665D02*
X001762Y037665D01*
X001762Y037823D02*
X012514Y037823D01*
X012482Y037901D02*
X012558Y037717D01*
X012699Y037576D01*
X012882Y037500D01*
X013081Y037500D01*
X013265Y037576D01*
X013406Y037717D01*
X013482Y037901D01*
X013482Y038099D01*
X013406Y038283D01*
X013265Y038424D01*
X013081Y038500D01*
X012882Y038500D01*
X012699Y038424D01*
X012558Y038283D01*
X012482Y038099D01*
X012482Y037901D01*
X012482Y037982D02*
X001762Y037982D01*
X001762Y038140D02*
X012499Y038140D01*
X012573Y038299D02*
X001762Y038299D01*
X001762Y038457D02*
X012779Y038457D01*
X013185Y038457D02*
X013835Y038457D01*
X013869Y038468D02*
X013797Y038445D01*
X013730Y038411D01*
X013669Y038366D01*
X013616Y038313D01*
X013571Y038252D01*
X013537Y038184D01*
X013514Y038112D01*
X013502Y038038D01*
X013502Y038020D01*
X013962Y038020D01*
X013962Y038480D01*
X013944Y038480D01*
X013869Y038468D01*
X013962Y038457D02*
X014002Y038457D01*
X014002Y038480D02*
X014020Y038480D01*
X014094Y038468D01*
X014166Y038445D01*
X014233Y038411D01*
X014294Y038366D01*
X014348Y038313D01*
X014392Y038252D01*
X014427Y038184D01*
X014450Y038112D01*
X014462Y038038D01*
X014462Y038020D01*
X014002Y038020D01*
X014002Y037980D01*
X014462Y037980D01*
X014462Y037962D01*
X014450Y037888D01*
X014427Y037816D01*
X014392Y037748D01*
X014348Y037687D01*
X014294Y037634D01*
X014233Y037589D01*
X014166Y037555D01*
X014094Y037532D01*
X014020Y037520D01*
X014002Y037520D01*
X014002Y037980D01*
X013962Y037980D01*
X013962Y037520D01*
X013944Y037520D01*
X013869Y037532D01*
X013797Y037555D01*
X013730Y037589D01*
X013669Y037634D01*
X013616Y037687D01*
X013571Y037748D01*
X013537Y037816D01*
X013514Y037888D01*
X013502Y037962D01*
X013502Y037980D01*
X013962Y037980D01*
X013962Y038020D01*
X014002Y038020D01*
X014002Y038480D01*
X014128Y038457D02*
X014779Y038457D01*
X014699Y038424D02*
X014882Y038500D01*
X015081Y038500D01*
X015265Y038424D01*
X015406Y038283D01*
X015482Y038099D01*
X015482Y037901D01*
X015406Y037717D01*
X015265Y037576D01*
X015081Y037500D01*
X014882Y037500D01*
X014699Y037576D01*
X014558Y037717D01*
X014482Y037901D01*
X014482Y038099D01*
X014558Y038283D01*
X014699Y038424D01*
X014573Y038299D02*
X014358Y038299D01*
X014441Y038140D02*
X014499Y038140D01*
X014482Y037982D02*
X014002Y037982D01*
X013962Y037982D02*
X013482Y037982D01*
X013465Y038140D02*
X013523Y038140D01*
X013605Y038299D02*
X013390Y038299D01*
X013450Y037823D02*
X013535Y037823D01*
X013638Y037665D02*
X013353Y037665D01*
X013096Y037506D02*
X014868Y037506D01*
X015096Y037506D02*
X037082Y037506D01*
X037082Y037348D02*
X006480Y037348D01*
X006469Y037506D02*
X012868Y037506D01*
X012610Y037665D02*
X006380Y037665D01*
X006425Y037189D02*
X037082Y037189D01*
X037082Y037031D02*
X023214Y037031D01*
X023341Y036872D02*
X037082Y036872D01*
X037082Y036714D02*
X023380Y036714D01*
X023353Y036555D02*
X037082Y036555D01*
X037082Y036397D02*
X023241Y036397D01*
X022722Y036397D02*
X017980Y036397D01*
X017948Y036555D02*
X022611Y036555D01*
X022584Y036714D02*
X017831Y036714D01*
X017946Y036238D02*
X037082Y036238D01*
X037082Y036080D02*
X017824Y036080D01*
X017339Y036080D02*
X003982Y036080D01*
X003982Y035921D02*
X037082Y035921D01*
X037082Y035763D02*
X003925Y035763D01*
X003793Y035604D02*
X037082Y035604D01*
X037082Y035446D02*
X024888Y035446D01*
X024907Y035438D02*
X024761Y035498D01*
X024603Y035498D01*
X024456Y035438D01*
X024344Y035326D01*
X024284Y035179D01*
X024284Y035021D01*
X024344Y034874D01*
X024456Y034762D01*
X024603Y034702D01*
X024761Y034702D01*
X024907Y034762D01*
X025019Y034874D01*
X025080Y035021D01*
X025080Y035179D01*
X025019Y035326D01*
X024907Y035438D01*
X025035Y035287D02*
X037082Y035287D01*
X037082Y035129D02*
X025080Y035129D01*
X025059Y034970D02*
X037082Y034970D01*
X037082Y034812D02*
X024956Y034812D01*
X024407Y034812D02*
X009156Y034812D01*
X009107Y034762D02*
X009219Y034874D01*
X009280Y035021D01*
X009280Y035179D01*
X009219Y035326D01*
X009107Y035438D01*
X008961Y035498D01*
X008803Y035498D01*
X008656Y035438D01*
X008544Y035326D01*
X008484Y035179D01*
X008484Y035021D01*
X008544Y034874D01*
X008656Y034762D01*
X008803Y034702D01*
X008961Y034702D01*
X009107Y034762D01*
X009259Y034970D02*
X024305Y034970D01*
X024284Y035129D02*
X009280Y035129D01*
X009235Y035287D02*
X024328Y035287D01*
X024476Y035446D02*
X009088Y035446D01*
X008676Y035446D02*
X003664Y035446D01*
X003502Y035446D02*
X003462Y035446D01*
X003462Y035287D02*
X003502Y035287D01*
X003502Y035129D02*
X003462Y035129D01*
X003462Y034970D02*
X003502Y034970D01*
X003502Y034812D02*
X003462Y034812D01*
X003462Y034653D02*
X003502Y034653D01*
X003814Y034653D02*
X037082Y034653D01*
X035405Y033068D02*
X034695Y033068D01*
X034694Y033068D02*
X034620Y033080D01*
X034602Y033080D01*
X034602Y032620D01*
X035062Y032620D01*
X035062Y032638D01*
X035050Y032712D01*
X035027Y032784D01*
X034992Y032852D01*
X034948Y032913D01*
X034894Y032966D01*
X034833Y033011D01*
X034766Y033045D01*
X034694Y033068D01*
X034602Y033068D02*
X034562Y033068D01*
X034562Y033080D02*
X034544Y033080D01*
X034469Y033068D01*
X033758Y033068D01*
X033979Y032910D02*
X034213Y032910D01*
X034216Y032913D02*
X034171Y032852D01*
X034137Y032784D01*
X034114Y032712D01*
X034102Y032638D01*
X034102Y032620D01*
X034562Y032620D01*
X034562Y033080D01*
X034469Y033068D02*
X034397Y033045D01*
X034330Y033011D01*
X034269Y032966D01*
X034216Y032913D01*
X034126Y032751D02*
X034060Y032751D01*
X034082Y032593D02*
X034562Y032593D01*
X034562Y032580D02*
X034102Y032580D01*
X034102Y032562D01*
X034114Y032488D01*
X034137Y032416D01*
X034171Y032348D01*
X034216Y032287D01*
X034269Y032234D01*
X034330Y032189D01*
X034397Y032155D01*
X034469Y032132D01*
X034544Y032120D01*
X034562Y032120D01*
X034562Y032580D01*
X034602Y032580D01*
X034602Y032620D01*
X034562Y032620D01*
X034562Y032580D01*
X034602Y032580D02*
X034602Y032120D01*
X034620Y032120D01*
X034694Y032132D01*
X034766Y032155D01*
X034833Y032189D01*
X034894Y032234D01*
X034948Y032287D01*
X034992Y032348D01*
X035027Y032416D01*
X035050Y032488D01*
X035062Y032562D01*
X035062Y032580D01*
X034602Y032580D01*
X034602Y032593D02*
X035082Y032593D01*
X035103Y032751D02*
X035037Y032751D01*
X034950Y032910D02*
X035184Y032910D01*
X035109Y032434D02*
X035033Y032434D01*
X034936Y032276D02*
X035199Y032276D01*
X034602Y032276D02*
X034562Y032276D01*
X034562Y032434D02*
X034602Y032434D01*
X034602Y032751D02*
X034562Y032751D01*
X034562Y032910D02*
X034602Y032910D01*
X034131Y032434D02*
X034054Y032434D01*
X033964Y032276D02*
X034227Y032276D01*
X033199Y032276D02*
X027515Y032276D01*
X027248Y032276D02*
X008861Y032276D01*
X008880Y032321D02*
X008819Y032174D01*
X008707Y032062D01*
X008561Y032002D01*
X008403Y032002D01*
X008256Y032062D01*
X008144Y032174D01*
X008084Y032321D01*
X008084Y032479D01*
X008144Y032626D01*
X008256Y032738D01*
X008403Y032798D01*
X008561Y032798D01*
X008707Y032738D01*
X008819Y032626D01*
X008880Y032479D01*
X008880Y032321D01*
X008880Y032434D02*
X033109Y032434D01*
X033082Y032593D02*
X008833Y032593D01*
X008675Y032751D02*
X033103Y032751D01*
X033184Y032910D02*
X001762Y032910D01*
X001762Y033068D02*
X033405Y033068D01*
X030365Y037676D02*
X030181Y037600D01*
X029982Y037600D01*
X029799Y037676D01*
X029658Y037817D01*
X029582Y038001D01*
X029582Y038199D01*
X029658Y038383D01*
X029799Y038524D01*
X029982Y038600D01*
X030181Y038600D01*
X030365Y038524D01*
X030506Y038383D01*
X030582Y038199D01*
X030582Y038001D01*
X030506Y037817D01*
X030365Y037676D01*
X030337Y037665D02*
X037082Y037665D01*
X037082Y037823D02*
X030508Y037823D01*
X030574Y037982D02*
X037082Y037982D01*
X037082Y038140D02*
X030582Y038140D01*
X030541Y038299D02*
X037082Y038299D01*
X037082Y038457D02*
X030432Y038457D01*
X029732Y038457D02*
X029403Y038457D01*
X029394Y038466D02*
X029333Y038511D01*
X029266Y038545D01*
X029194Y038568D01*
X029120Y038580D01*
X029102Y038580D01*
X029102Y038120D01*
X029562Y038120D01*
X029562Y038138D01*
X029550Y038212D01*
X029527Y038284D01*
X029492Y038352D01*
X029448Y038413D01*
X029394Y038466D01*
X029519Y038299D02*
X029623Y038299D01*
X029582Y038140D02*
X029561Y038140D01*
X029562Y038080D02*
X029102Y038080D01*
X029102Y038120D01*
X029062Y038120D01*
X029062Y038580D01*
X029044Y038580D01*
X028969Y038568D01*
X028897Y038545D01*
X028830Y038511D01*
X028769Y038466D01*
X028716Y038413D01*
X028671Y038352D01*
X028637Y038284D01*
X028614Y038212D01*
X028602Y038138D01*
X028602Y038120D01*
X029062Y038120D01*
X029062Y038080D01*
X029102Y038080D01*
X029102Y037620D01*
X029120Y037620D01*
X029194Y037632D01*
X029266Y037655D01*
X029333Y037689D01*
X029394Y037734D01*
X029448Y037787D01*
X029492Y037848D01*
X029527Y037916D01*
X029550Y037988D01*
X029562Y038062D01*
X029562Y038080D01*
X029548Y037982D02*
X029590Y037982D01*
X029655Y037823D02*
X029474Y037823D01*
X029284Y037665D02*
X029826Y037665D01*
X029102Y037665D02*
X029062Y037665D01*
X029062Y037620D02*
X029062Y038080D01*
X028602Y038080D01*
X028602Y038062D01*
X028614Y037988D01*
X028637Y037916D01*
X028671Y037848D01*
X028716Y037787D01*
X028769Y037734D01*
X028830Y037689D01*
X028897Y037655D01*
X028969Y037632D01*
X029044Y037620D01*
X029062Y037620D01*
X028879Y037665D02*
X028337Y037665D01*
X028365Y037676D02*
X028506Y037817D01*
X028582Y038001D01*
X028582Y038199D01*
X028506Y038383D01*
X028365Y038524D01*
X028181Y038600D01*
X027982Y038600D01*
X027799Y038524D01*
X027658Y038383D01*
X027582Y038199D01*
X027582Y038001D01*
X027658Y037817D01*
X027799Y037676D01*
X027982Y037600D01*
X028181Y037600D01*
X028365Y037676D01*
X028508Y037823D02*
X028690Y037823D01*
X028616Y037982D02*
X028574Y037982D01*
X028582Y038140D02*
X028602Y038140D01*
X028644Y038299D02*
X028541Y038299D01*
X028432Y038457D02*
X028760Y038457D01*
X029062Y038457D02*
X029102Y038457D01*
X029102Y038299D02*
X029062Y038299D01*
X029062Y038140D02*
X029102Y038140D01*
X029102Y037982D02*
X029062Y037982D01*
X029062Y037823D02*
X029102Y037823D01*
X027826Y037665D02*
X024284Y037665D01*
X024266Y037655D02*
X024333Y037689D01*
X024394Y037734D01*
X024448Y037787D01*
X024492Y037848D01*
X024527Y037916D01*
X024550Y037988D01*
X024562Y038062D01*
X024562Y038080D01*
X024102Y038080D01*
X024102Y038120D01*
X024562Y038120D01*
X024562Y038138D01*
X024550Y038212D01*
X024527Y038284D01*
X024492Y038352D01*
X024448Y038413D01*
X024394Y038466D01*
X024333Y038511D01*
X024266Y038545D01*
X024194Y038568D01*
X024120Y038580D01*
X024102Y038580D01*
X024102Y038120D01*
X024062Y038120D01*
X024062Y038580D01*
X024044Y038580D01*
X023969Y038568D01*
X023897Y038545D01*
X023830Y038511D01*
X023769Y038466D01*
X023716Y038413D01*
X023671Y038352D01*
X023637Y038284D01*
X023614Y038212D01*
X023602Y038138D01*
X023602Y038120D01*
X024062Y038120D01*
X024062Y038080D01*
X024102Y038080D01*
X024102Y037620D01*
X024120Y037620D01*
X024194Y037632D01*
X024266Y037655D01*
X024102Y037665D02*
X024062Y037665D01*
X024062Y037620D02*
X024062Y038080D01*
X023602Y038080D01*
X023602Y038062D01*
X023614Y037988D01*
X023637Y037916D01*
X023671Y037848D01*
X023716Y037787D01*
X023769Y037734D01*
X023830Y037689D01*
X023897Y037655D01*
X023969Y037632D01*
X024044Y037620D01*
X024062Y037620D01*
X023879Y037665D02*
X023337Y037665D01*
X023365Y037676D02*
X023181Y037600D01*
X022982Y037600D01*
X022799Y037676D01*
X022658Y037817D01*
X022582Y038001D01*
X022582Y038199D01*
X022658Y038383D01*
X022799Y038524D01*
X022982Y038600D01*
X023181Y038600D01*
X023365Y038524D01*
X023506Y038383D01*
X023582Y038199D01*
X023582Y038001D01*
X023506Y037817D01*
X023365Y037676D01*
X023508Y037823D02*
X023690Y037823D01*
X023616Y037982D02*
X023574Y037982D01*
X023582Y038140D02*
X023602Y038140D01*
X023644Y038299D02*
X023541Y038299D01*
X023432Y038457D02*
X023760Y038457D01*
X024062Y038457D02*
X024102Y038457D01*
X024102Y038299D02*
X024062Y038299D01*
X024062Y038140D02*
X024102Y038140D01*
X024102Y037982D02*
X024062Y037982D01*
X024062Y037823D02*
X024102Y037823D01*
X024474Y037823D02*
X027655Y037823D01*
X027590Y037982D02*
X024548Y037982D01*
X024561Y038140D02*
X027582Y038140D01*
X027623Y038299D02*
X024519Y038299D01*
X024403Y038457D02*
X027732Y038457D01*
X022826Y037665D02*
X015353Y037665D01*
X015450Y037823D02*
X022655Y037823D01*
X022590Y037982D02*
X015482Y037982D01*
X015465Y038140D02*
X022582Y038140D01*
X022623Y038299D02*
X015390Y038299D01*
X015185Y038457D02*
X022732Y038457D01*
X021279Y033861D02*
X020546Y033861D01*
X020580Y033702D02*
X021193Y033702D01*
X021184Y033544D02*
X020548Y033544D01*
X020430Y033385D02*
X021240Y033385D01*
X017218Y036238D02*
X003924Y036238D01*
X003792Y036397D02*
X017184Y036397D01*
X014610Y037665D02*
X014325Y037665D01*
X014429Y037823D02*
X014514Y037823D01*
X014002Y037823D02*
X013962Y037823D01*
X013962Y037665D02*
X014002Y037665D01*
X014002Y038140D02*
X013962Y038140D01*
X013962Y038299D02*
X014002Y038299D01*
X008528Y035287D02*
X003866Y035287D01*
X003945Y035129D02*
X008484Y035129D01*
X008505Y034970D02*
X003962Y034970D01*
X003924Y034812D02*
X008607Y034812D01*
X008289Y032751D02*
X001762Y032751D01*
X001762Y032593D02*
X008131Y032593D01*
X008084Y032434D02*
X001762Y032434D01*
X001762Y032276D02*
X008102Y032276D01*
X008202Y032117D02*
X001762Y032117D01*
X001762Y031959D02*
X026984Y031959D01*
X026992Y031800D02*
X001762Y031800D01*
X001762Y031642D02*
X027077Y031642D01*
X027041Y032117D02*
X008762Y032117D01*
X007920Y031166D02*
X001762Y031166D01*
X001762Y031008D02*
X007884Y031008D01*
X007913Y030849D02*
X001762Y030849D01*
X001762Y030691D02*
X008028Y030691D01*
X008649Y028155D02*
X022936Y028155D01*
X022778Y027996D02*
X008680Y027996D01*
X008645Y027838D02*
X022619Y027838D01*
X022461Y027679D02*
X008524Y027679D01*
X003277Y033544D02*
X001762Y033544D01*
X001762Y033702D02*
X003073Y033702D01*
X002998Y033861D02*
X001762Y033861D01*
X001762Y034019D02*
X002982Y034019D01*
X003014Y034178D02*
X001762Y034178D01*
X001762Y034336D02*
X003111Y034336D01*
X001762Y038616D02*
X037082Y038616D01*
X037082Y038774D02*
X001762Y038774D01*
X001762Y038933D02*
X037082Y038933D01*
X037082Y039091D02*
X001762Y039091D01*
X001762Y039250D02*
X037082Y039250D01*
X037082Y039408D02*
X001762Y039408D01*
X001762Y039567D02*
X037082Y039567D01*
X037082Y039725D02*
X001762Y039725D01*
X001762Y039884D02*
X037082Y039884D01*
X026762Y025143D02*
X024202Y025143D01*
X024278Y024985D02*
X026686Y024985D01*
X026684Y024826D02*
X024280Y024826D01*
X024212Y024668D02*
X026751Y024668D01*
X033382Y018962D02*
X033713Y018962D01*
X033975Y018803D02*
X033382Y018803D01*
X033382Y018645D02*
X037082Y018645D01*
X037082Y018803D02*
X036189Y018803D01*
X036181Y018800D02*
X036365Y018876D01*
X036506Y019017D01*
X036582Y019201D01*
X036582Y019399D01*
X036506Y019583D01*
X036365Y019724D01*
X036181Y019800D01*
X035982Y019800D01*
X035799Y019724D01*
X035658Y019583D01*
X035582Y019399D01*
X035582Y019201D01*
X035658Y019017D01*
X035799Y018876D01*
X035982Y018800D01*
X036181Y018800D01*
X035975Y018803D02*
X034189Y018803D01*
X034450Y018962D02*
X034741Y018962D01*
X034716Y018987D02*
X034769Y018934D01*
X034830Y018889D01*
X034897Y018855D01*
X034969Y018832D01*
X035044Y018820D01*
X035062Y018820D01*
X035062Y019280D01*
X035102Y019280D01*
X035102Y019320D01*
X035562Y019320D01*
X035562Y019338D01*
X035550Y019412D01*
X035527Y019484D01*
X035492Y019552D01*
X035448Y019613D01*
X035394Y019666D01*
X035333Y019711D01*
X035266Y019745D01*
X035194Y019768D01*
X035120Y019780D01*
X035102Y019780D01*
X035102Y019320D01*
X035062Y019320D01*
X035062Y019780D01*
X035044Y019780D01*
X034969Y019768D01*
X034897Y019745D01*
X034830Y019711D01*
X034769Y019666D01*
X034716Y019613D01*
X034671Y019552D01*
X034637Y019484D01*
X034614Y019412D01*
X034602Y019338D01*
X034602Y019320D01*
X035062Y019320D01*
X035062Y019280D01*
X034602Y019280D01*
X034602Y019262D01*
X034614Y019188D01*
X034637Y019116D01*
X034671Y019048D01*
X034716Y018987D01*
X034636Y019120D02*
X034548Y019120D01*
X034582Y019279D02*
X034602Y019279D01*
X034622Y019437D02*
X034566Y019437D01*
X034493Y019596D02*
X034703Y019596D01*
X034926Y019754D02*
X034292Y019754D01*
X035062Y019754D02*
X035102Y019754D01*
X035238Y019754D02*
X035871Y019754D01*
X035670Y019596D02*
X035460Y019596D01*
X035542Y019437D02*
X035597Y019437D01*
X035582Y019279D02*
X035562Y019279D01*
X035562Y019280D02*
X035102Y019280D01*
X035102Y018820D01*
X035120Y018820D01*
X035194Y018832D01*
X035266Y018855D01*
X035333Y018889D01*
X035394Y018934D01*
X035448Y018987D01*
X035492Y019048D01*
X035527Y019116D01*
X035550Y019188D01*
X035562Y019262D01*
X035562Y019280D01*
X035528Y019120D02*
X035615Y019120D01*
X035713Y018962D02*
X035422Y018962D01*
X035102Y018962D02*
X035062Y018962D01*
X035062Y019120D02*
X035102Y019120D01*
X035102Y019279D02*
X035062Y019279D01*
X035062Y019437D02*
X035102Y019437D01*
X035102Y019596D02*
X035062Y019596D01*
X036292Y019754D02*
X037082Y019754D01*
X037082Y019596D02*
X036493Y019596D01*
X036566Y019437D02*
X037082Y019437D01*
X037082Y019279D02*
X036582Y019279D01*
X036548Y019120D02*
X037082Y019120D01*
X037082Y018962D02*
X036450Y018962D01*
X037082Y018486D02*
X033496Y018486D01*
X033654Y018328D02*
X037082Y018328D01*
X037082Y018169D02*
X033813Y018169D01*
X033971Y018011D02*
X037082Y018011D01*
X037082Y017852D02*
X034130Y017852D01*
X035108Y020864D02*
X037082Y020864D01*
X037082Y021022D02*
X035180Y021022D01*
X035179Y021181D02*
X037082Y021181D01*
X037082Y021339D02*
X035106Y021339D01*
X025307Y011037D02*
X006181Y011037D01*
X005736Y011671D02*
X005474Y011671D01*
X005582Y011037D02*
X005345Y011037D01*
X005019Y011037D02*
X004880Y011037D01*
X004862Y010878D02*
X025284Y010878D01*
X021143Y008976D02*
X020761Y008976D01*
X020780Y009135D02*
X021019Y009135D01*
X020984Y009293D02*
X020733Y009293D01*
X020573Y009452D02*
X021014Y009452D01*
X015895Y008976D02*
X015661Y008976D01*
X015562Y008818D02*
X015799Y008818D01*
X014063Y005965D02*
X012280Y005965D01*
X012369Y005806D02*
X014207Y005806D01*
X014256Y005648D02*
X012380Y005648D01*
X012325Y005489D02*
X014064Y005489D01*
X014162Y003587D02*
X001762Y003587D01*
X001762Y003429D02*
X014035Y003429D01*
X013982Y003270D02*
X001762Y003270D01*
X001762Y003112D02*
X013982Y003112D01*
X014043Y002953D02*
X001762Y002953D01*
X001762Y002795D02*
X014180Y002795D01*
X014228Y002636D02*
X001762Y002636D01*
X001762Y002478D02*
X014055Y002478D01*
X013990Y002319D02*
X001762Y002319D01*
X001762Y002161D02*
X013982Y002161D01*
X014023Y002002D02*
X001762Y002002D01*
X001762Y001844D02*
X014131Y001844D01*
X014462Y001527D02*
X014502Y001527D01*
X014502Y001368D02*
X014462Y001368D01*
X014462Y001051D02*
X014502Y001051D01*
X014502Y000893D02*
X014462Y000893D01*
X014462Y000734D02*
X014502Y000734D01*
X014363Y000734D02*
X001762Y000734D01*
X001762Y000893D02*
X014112Y000893D01*
X014025Y001051D02*
X001762Y001051D01*
X001762Y005648D02*
X010671Y005648D01*
X010590Y005806D02*
X001762Y005806D01*
X001762Y005965D02*
X010584Y005965D01*
X010643Y006123D02*
X001762Y006123D01*
X002369Y009032D02*
X002444Y009020D01*
X002462Y009020D01*
X002462Y009480D01*
X002002Y009480D01*
X002002Y009462D01*
X002014Y009388D01*
X002037Y009316D01*
X002071Y009248D01*
X002116Y009187D01*
X002169Y009134D01*
X002230Y009089D01*
X002297Y009055D01*
X002369Y009032D01*
X002462Y009135D02*
X002502Y009135D01*
X002502Y009293D02*
X002462Y009293D01*
X002462Y009452D02*
X002502Y009452D01*
X002502Y009610D02*
X002462Y009610D01*
X002462Y009769D02*
X002502Y009769D01*
X002502Y009927D02*
X002462Y009927D01*
X002263Y009927D02*
X001762Y009927D01*
X001762Y009769D02*
X002084Y009769D01*
X002013Y009610D02*
X001762Y009610D01*
X001762Y009452D02*
X002003Y009452D01*
X002048Y009293D02*
X001762Y009293D01*
X001762Y009135D02*
X002168Y009135D01*
X002189Y010086D02*
X001762Y010086D01*
X001762Y010244D02*
X002047Y010244D01*
X001982Y010403D02*
X001762Y010403D01*
X001762Y010561D02*
X001982Y010561D01*
X002031Y010720D02*
X001762Y010720D01*
X001762Y010878D02*
X002153Y010878D01*
X002297Y011255D02*
X002230Y011289D01*
X002169Y011334D01*
X002116Y011387D01*
X002071Y011448D01*
X002037Y011516D01*
X002014Y011588D01*
X002002Y011662D01*
X002002Y011680D01*
X002462Y011680D01*
X002462Y011220D01*
X002444Y011220D01*
X002369Y011232D01*
X002297Y011255D01*
X002149Y011354D02*
X001762Y011354D01*
X001762Y011512D02*
X002039Y011512D01*
X002002Y011671D02*
X001762Y011671D01*
X001762Y011829D02*
X002019Y011829D01*
X002097Y011988D02*
X001762Y011988D01*
X001762Y012146D02*
X002301Y012146D01*
X002462Y012146D02*
X002502Y012146D01*
X002502Y011988D02*
X002462Y011988D01*
X002462Y011829D02*
X002502Y011829D01*
X002502Y011671D02*
X002462Y011671D01*
X002462Y011512D02*
X002502Y011512D01*
X002502Y011354D02*
X002462Y011354D01*
X002170Y012305D02*
X001762Y012305D01*
X001762Y012463D02*
X002039Y012463D01*
X001982Y012622D02*
X001762Y012622D01*
X001762Y012780D02*
X001982Y012780D01*
X002039Y012939D02*
X001762Y012939D01*
X001762Y013097D02*
X002172Y013097D01*
X001762Y013890D02*
X006584Y013890D01*
X006612Y014048D02*
X001762Y014048D01*
X004669Y011354D02*
X004784Y011354D01*
X004832Y011195D02*
X004836Y011195D01*
X005542Y013097D02*
X007016Y013097D01*
X005653Y013256D02*
X008574Y013256D01*
X014783Y002795D02*
X023910Y002795D01*
X024156Y002636D02*
X014736Y002636D01*
X024262Y002636D02*
X024302Y002636D01*
X024302Y002795D02*
X024262Y002795D01*
X024262Y002953D02*
X024302Y002953D01*
X024302Y003270D02*
X024262Y003270D01*
X024262Y003429D02*
X024302Y003429D01*
D16*
X014882Y014700D03*
D17*
X007282Y018700D02*
X005882Y018700D01*
X003482Y016300D01*
X003082Y016300D01*
X003782Y015600D01*
X004282Y015600D01*
M02*
