G75*
%MOIN*%
%OFA0B0*%
%FSLAX24Y24*%
%IPPOS*%
%LPD*%
%AMOC8*
5,1,8,0,0,1.08239X$1,22.5*
%
%ADD10C,0.0104*%
%ADD11C,0.0024*%
%ADD12R,0.0740X0.0740*%
%ADD13C,0.0740*%
%ADD14C,0.0650*%
%ADD15R,0.0650X0.0650*%
%ADD16R,0.0433X0.0394*%
%ADD17R,0.0394X0.0433*%
%ADD18R,0.0630X0.0709*%
%ADD19R,0.0354X0.0315*%
%ADD20R,0.0500X0.0250*%
%ADD21C,0.0520*%
%ADD22R,0.0394X0.0177*%
%ADD23R,0.0250X0.0500*%
%ADD24R,0.0315X0.0472*%
%ADD25R,0.0472X0.0315*%
%ADD26C,0.0236*%
%ADD27R,0.0480X0.0880*%
%ADD28R,0.1417X0.0866*%
%ADD29C,0.0105*%
%ADD30R,0.0134X0.0134*%
%ADD31C,0.0063*%
%ADD32C,0.0300*%
%ADD33R,0.0354X0.0118*%
%ADD34R,0.0118X0.0354*%
%ADD35R,0.0866X0.0236*%
%ADD36R,0.0709X0.0630*%
%ADD37R,0.0236X0.0866*%
%ADD38R,0.0256X0.0866*%
%ADD39R,0.0866X0.0256*%
%ADD40R,0.0866X0.0551*%
%ADD41R,0.0551X0.0866*%
%ADD42R,0.0591X0.0157*%
%ADD43R,0.0472X0.0217*%
%ADD44R,0.0394X0.0551*%
%ADD45R,0.0472X0.0551*%
%ADD46C,0.0160*%
%ADD47C,0.0120*%
%ADD48C,0.0396*%
%ADD49C,0.0240*%
%ADD50C,0.0436*%
%ADD51C,0.0320*%
D10*
X020509Y011045D02*
X020509Y013027D01*
X020509Y011045D02*
X018527Y011045D01*
X018527Y013027D01*
X020509Y013027D01*
X020509Y011148D02*
X018527Y011148D01*
X018527Y011251D02*
X020509Y011251D01*
X020509Y011354D02*
X018527Y011354D01*
X018527Y011457D02*
X020509Y011457D01*
X020509Y011560D02*
X018527Y011560D01*
X018527Y011663D02*
X020509Y011663D01*
X020509Y011766D02*
X018527Y011766D01*
X018527Y011869D02*
X020509Y011869D01*
X020509Y011972D02*
X018527Y011972D01*
X018527Y012075D02*
X020509Y012075D01*
X020509Y012178D02*
X018527Y012178D01*
X018527Y012281D02*
X020509Y012281D01*
X020509Y012384D02*
X018527Y012384D01*
X018527Y012487D02*
X020509Y012487D01*
X020509Y012590D02*
X018527Y012590D01*
X018527Y012693D02*
X020509Y012693D01*
X020509Y012796D02*
X018527Y012796D01*
X018527Y012899D02*
X020509Y012899D01*
X020509Y013002D02*
X018527Y013002D01*
D11*
X018482Y013849D02*
X018482Y014219D01*
X018482Y013849D02*
X018388Y013849D01*
X018388Y014219D01*
X018482Y014219D01*
X018482Y013872D02*
X018388Y013872D01*
X018388Y013895D02*
X018482Y013895D01*
X018482Y013918D02*
X018388Y013918D01*
X018388Y013941D02*
X018482Y013941D01*
X018482Y013964D02*
X018388Y013964D01*
X018388Y013987D02*
X018482Y013987D01*
X018482Y014010D02*
X018388Y014010D01*
X018388Y014033D02*
X018482Y014033D01*
X018482Y014056D02*
X018388Y014056D01*
X018388Y014079D02*
X018482Y014079D01*
X018482Y014102D02*
X018388Y014102D01*
X018388Y014125D02*
X018482Y014125D01*
X018482Y014148D02*
X018388Y014148D01*
X018388Y014171D02*
X018482Y014171D01*
X018482Y014194D02*
X018388Y014194D01*
X018388Y014217D02*
X018482Y014217D01*
X018679Y014219D02*
X018679Y013849D01*
X018585Y013849D01*
X018585Y014219D01*
X018679Y014219D01*
X018679Y013872D02*
X018585Y013872D01*
X018585Y013895D02*
X018679Y013895D01*
X018679Y013918D02*
X018585Y013918D01*
X018585Y013941D02*
X018679Y013941D01*
X018679Y013964D02*
X018585Y013964D01*
X018585Y013987D02*
X018679Y013987D01*
X018679Y014010D02*
X018585Y014010D01*
X018585Y014033D02*
X018679Y014033D01*
X018679Y014056D02*
X018585Y014056D01*
X018585Y014079D02*
X018679Y014079D01*
X018679Y014102D02*
X018585Y014102D01*
X018585Y014125D02*
X018679Y014125D01*
X018679Y014148D02*
X018585Y014148D01*
X018585Y014171D02*
X018679Y014171D01*
X018679Y014194D02*
X018585Y014194D01*
X018585Y014217D02*
X018679Y014217D01*
X018876Y014219D02*
X018876Y013849D01*
X018782Y013849D01*
X018782Y014219D01*
X018876Y014219D01*
X018876Y013872D02*
X018782Y013872D01*
X018782Y013895D02*
X018876Y013895D01*
X018876Y013918D02*
X018782Y013918D01*
X018782Y013941D02*
X018876Y013941D01*
X018876Y013964D02*
X018782Y013964D01*
X018782Y013987D02*
X018876Y013987D01*
X018876Y014010D02*
X018782Y014010D01*
X018782Y014033D02*
X018876Y014033D01*
X018876Y014056D02*
X018782Y014056D01*
X018782Y014079D02*
X018876Y014079D01*
X018876Y014102D02*
X018782Y014102D01*
X018782Y014125D02*
X018876Y014125D01*
X018876Y014148D02*
X018782Y014148D01*
X018782Y014171D02*
X018876Y014171D01*
X018876Y014194D02*
X018782Y014194D01*
X018782Y014217D02*
X018876Y014217D01*
X019073Y014219D02*
X019073Y013849D01*
X018979Y013849D01*
X018979Y014219D01*
X019073Y014219D01*
X019073Y013872D02*
X018979Y013872D01*
X018979Y013895D02*
X019073Y013895D01*
X019073Y013918D02*
X018979Y013918D01*
X018979Y013941D02*
X019073Y013941D01*
X019073Y013964D02*
X018979Y013964D01*
X018979Y013987D02*
X019073Y013987D01*
X019073Y014010D02*
X018979Y014010D01*
X018979Y014033D02*
X019073Y014033D01*
X019073Y014056D02*
X018979Y014056D01*
X018979Y014079D02*
X019073Y014079D01*
X019073Y014102D02*
X018979Y014102D01*
X018979Y014125D02*
X019073Y014125D01*
X019073Y014148D02*
X018979Y014148D01*
X018979Y014171D02*
X019073Y014171D01*
X019073Y014194D02*
X018979Y014194D01*
X018979Y014217D02*
X019073Y014217D01*
X019270Y014219D02*
X019270Y013849D01*
X019176Y013849D01*
X019176Y014219D01*
X019270Y014219D01*
X019270Y013872D02*
X019176Y013872D01*
X019176Y013895D02*
X019270Y013895D01*
X019270Y013918D02*
X019176Y013918D01*
X019176Y013941D02*
X019270Y013941D01*
X019270Y013964D02*
X019176Y013964D01*
X019176Y013987D02*
X019270Y013987D01*
X019270Y014010D02*
X019176Y014010D01*
X019176Y014033D02*
X019270Y014033D01*
X019270Y014056D02*
X019176Y014056D01*
X019176Y014079D02*
X019270Y014079D01*
X019270Y014102D02*
X019176Y014102D01*
X019176Y014125D02*
X019270Y014125D01*
X019270Y014148D02*
X019176Y014148D01*
X019176Y014171D02*
X019270Y014171D01*
X019270Y014194D02*
X019176Y014194D01*
X019176Y014217D02*
X019270Y014217D01*
X019467Y014219D02*
X019467Y013849D01*
X019373Y013849D01*
X019373Y014219D01*
X019467Y014219D01*
X019467Y013872D02*
X019373Y013872D01*
X019373Y013895D02*
X019467Y013895D01*
X019467Y013918D02*
X019373Y013918D01*
X019373Y013941D02*
X019467Y013941D01*
X019467Y013964D02*
X019373Y013964D01*
X019373Y013987D02*
X019467Y013987D01*
X019467Y014010D02*
X019373Y014010D01*
X019373Y014033D02*
X019467Y014033D01*
X019467Y014056D02*
X019373Y014056D01*
X019373Y014079D02*
X019467Y014079D01*
X019467Y014102D02*
X019373Y014102D01*
X019373Y014125D02*
X019467Y014125D01*
X019467Y014148D02*
X019373Y014148D01*
X019373Y014171D02*
X019467Y014171D01*
X019467Y014194D02*
X019373Y014194D01*
X019373Y014217D02*
X019467Y014217D01*
X019663Y014219D02*
X019663Y013849D01*
X019569Y013849D01*
X019569Y014219D01*
X019663Y014219D01*
X019663Y013872D02*
X019569Y013872D01*
X019569Y013895D02*
X019663Y013895D01*
X019663Y013918D02*
X019569Y013918D01*
X019569Y013941D02*
X019663Y013941D01*
X019663Y013964D02*
X019569Y013964D01*
X019569Y013987D02*
X019663Y013987D01*
X019663Y014010D02*
X019569Y014010D01*
X019569Y014033D02*
X019663Y014033D01*
X019663Y014056D02*
X019569Y014056D01*
X019569Y014079D02*
X019663Y014079D01*
X019663Y014102D02*
X019569Y014102D01*
X019569Y014125D02*
X019663Y014125D01*
X019663Y014148D02*
X019569Y014148D01*
X019569Y014171D02*
X019663Y014171D01*
X019663Y014194D02*
X019569Y014194D01*
X019569Y014217D02*
X019663Y014217D01*
X019860Y014219D02*
X019860Y013849D01*
X019766Y013849D01*
X019766Y014219D01*
X019860Y014219D01*
X019860Y013872D02*
X019766Y013872D01*
X019766Y013895D02*
X019860Y013895D01*
X019860Y013918D02*
X019766Y013918D01*
X019766Y013941D02*
X019860Y013941D01*
X019860Y013964D02*
X019766Y013964D01*
X019766Y013987D02*
X019860Y013987D01*
X019860Y014010D02*
X019766Y014010D01*
X019766Y014033D02*
X019860Y014033D01*
X019860Y014056D02*
X019766Y014056D01*
X019766Y014079D02*
X019860Y014079D01*
X019860Y014102D02*
X019766Y014102D01*
X019766Y014125D02*
X019860Y014125D01*
X019860Y014148D02*
X019766Y014148D01*
X019766Y014171D02*
X019860Y014171D01*
X019860Y014194D02*
X019766Y014194D01*
X019766Y014217D02*
X019860Y014217D01*
X020057Y014219D02*
X020057Y013849D01*
X019963Y013849D01*
X019963Y014219D01*
X020057Y014219D01*
X020057Y013872D02*
X019963Y013872D01*
X019963Y013895D02*
X020057Y013895D01*
X020057Y013918D02*
X019963Y013918D01*
X019963Y013941D02*
X020057Y013941D01*
X020057Y013964D02*
X019963Y013964D01*
X019963Y013987D02*
X020057Y013987D01*
X020057Y014010D02*
X019963Y014010D01*
X019963Y014033D02*
X020057Y014033D01*
X020057Y014056D02*
X019963Y014056D01*
X019963Y014079D02*
X020057Y014079D01*
X020057Y014102D02*
X019963Y014102D01*
X019963Y014125D02*
X020057Y014125D01*
X020057Y014148D02*
X019963Y014148D01*
X019963Y014171D02*
X020057Y014171D01*
X020057Y014194D02*
X019963Y014194D01*
X019963Y014217D02*
X020057Y014217D01*
X020254Y014219D02*
X020254Y013849D01*
X020160Y013849D01*
X020160Y014219D01*
X020254Y014219D01*
X020254Y013872D02*
X020160Y013872D01*
X020160Y013895D02*
X020254Y013895D01*
X020254Y013918D02*
X020160Y013918D01*
X020160Y013941D02*
X020254Y013941D01*
X020254Y013964D02*
X020160Y013964D01*
X020160Y013987D02*
X020254Y013987D01*
X020254Y014010D02*
X020160Y014010D01*
X020160Y014033D02*
X020254Y014033D01*
X020254Y014056D02*
X020160Y014056D01*
X020160Y014079D02*
X020254Y014079D01*
X020254Y014102D02*
X020160Y014102D01*
X020160Y014125D02*
X020254Y014125D01*
X020254Y014148D02*
X020160Y014148D01*
X020160Y014171D02*
X020254Y014171D01*
X020254Y014194D02*
X020160Y014194D01*
X020160Y014217D02*
X020254Y014217D01*
X020451Y014219D02*
X020451Y013849D01*
X020357Y013849D01*
X020357Y014219D01*
X020451Y014219D01*
X020451Y013872D02*
X020357Y013872D01*
X020357Y013895D02*
X020451Y013895D01*
X020451Y013918D02*
X020357Y013918D01*
X020357Y013941D02*
X020451Y013941D01*
X020451Y013964D02*
X020357Y013964D01*
X020357Y013987D02*
X020451Y013987D01*
X020451Y014010D02*
X020357Y014010D01*
X020357Y014033D02*
X020451Y014033D01*
X020451Y014056D02*
X020357Y014056D01*
X020357Y014079D02*
X020451Y014079D01*
X020451Y014102D02*
X020357Y014102D01*
X020357Y014125D02*
X020451Y014125D01*
X020451Y014148D02*
X020357Y014148D01*
X020357Y014171D02*
X020451Y014171D01*
X020451Y014194D02*
X020357Y014194D01*
X020357Y014217D02*
X020451Y014217D01*
X020648Y014219D02*
X020648Y013849D01*
X020554Y013849D01*
X020554Y014219D01*
X020648Y014219D01*
X020648Y013872D02*
X020554Y013872D01*
X020554Y013895D02*
X020648Y013895D01*
X020648Y013918D02*
X020554Y013918D01*
X020554Y013941D02*
X020648Y013941D01*
X020648Y013964D02*
X020554Y013964D01*
X020554Y013987D02*
X020648Y013987D01*
X020648Y014010D02*
X020554Y014010D01*
X020554Y014033D02*
X020648Y014033D01*
X020648Y014056D02*
X020554Y014056D01*
X020554Y014079D02*
X020648Y014079D01*
X020648Y014102D02*
X020554Y014102D01*
X020554Y014125D02*
X020648Y014125D01*
X020648Y014148D02*
X020554Y014148D01*
X020554Y014171D02*
X020648Y014171D01*
X020648Y014194D02*
X020554Y014194D01*
X020554Y014217D02*
X020648Y014217D01*
X020844Y014219D02*
X020844Y013849D01*
X020750Y013849D01*
X020750Y014219D01*
X020844Y014219D01*
X020844Y013872D02*
X020750Y013872D01*
X020750Y013895D02*
X020844Y013895D01*
X020844Y013918D02*
X020750Y013918D01*
X020750Y013941D02*
X020844Y013941D01*
X020844Y013964D02*
X020750Y013964D01*
X020750Y013987D02*
X020844Y013987D01*
X020844Y014010D02*
X020750Y014010D01*
X020750Y014033D02*
X020844Y014033D01*
X020844Y014056D02*
X020750Y014056D01*
X020750Y014079D02*
X020844Y014079D01*
X020844Y014102D02*
X020750Y014102D01*
X020750Y014125D02*
X020844Y014125D01*
X020844Y014148D02*
X020750Y014148D01*
X020750Y014171D02*
X020844Y014171D01*
X020844Y014194D02*
X020750Y014194D01*
X020750Y014217D02*
X020844Y014217D01*
X021041Y014219D02*
X021041Y013849D01*
X020947Y013849D01*
X020947Y014219D01*
X021041Y014219D01*
X021041Y013872D02*
X020947Y013872D01*
X020947Y013895D02*
X021041Y013895D01*
X021041Y013918D02*
X020947Y013918D01*
X020947Y013941D02*
X021041Y013941D01*
X021041Y013964D02*
X020947Y013964D01*
X020947Y013987D02*
X021041Y013987D01*
X021041Y014010D02*
X020947Y014010D01*
X020947Y014033D02*
X021041Y014033D01*
X021041Y014056D02*
X020947Y014056D01*
X020947Y014079D02*
X021041Y014079D01*
X021041Y014102D02*
X020947Y014102D01*
X020947Y014125D02*
X021041Y014125D01*
X021041Y014148D02*
X020947Y014148D01*
X020947Y014171D02*
X021041Y014171D01*
X021041Y014194D02*
X020947Y014194D01*
X020947Y014217D02*
X021041Y014217D01*
X021238Y014219D02*
X021238Y013849D01*
X021144Y013849D01*
X021144Y014219D01*
X021238Y014219D01*
X021238Y013872D02*
X021144Y013872D01*
X021144Y013895D02*
X021238Y013895D01*
X021238Y013918D02*
X021144Y013918D01*
X021144Y013941D02*
X021238Y013941D01*
X021238Y013964D02*
X021144Y013964D01*
X021144Y013987D02*
X021238Y013987D01*
X021238Y014010D02*
X021144Y014010D01*
X021144Y014033D02*
X021238Y014033D01*
X021238Y014056D02*
X021144Y014056D01*
X021144Y014079D02*
X021238Y014079D01*
X021238Y014102D02*
X021144Y014102D01*
X021144Y014125D02*
X021238Y014125D01*
X021238Y014148D02*
X021144Y014148D01*
X021144Y014171D02*
X021238Y014171D01*
X021238Y014194D02*
X021144Y014194D01*
X021144Y014217D02*
X021238Y014217D01*
X021351Y013756D02*
X021721Y013756D01*
X021721Y013662D01*
X021351Y013662D01*
X021351Y013756D01*
X021351Y013685D02*
X021721Y013685D01*
X021721Y013708D02*
X021351Y013708D01*
X021351Y013731D02*
X021721Y013731D01*
X021721Y013754D02*
X021351Y013754D01*
X021351Y013560D02*
X021721Y013560D01*
X021721Y013466D01*
X021351Y013466D01*
X021351Y013560D01*
X021351Y013489D02*
X021721Y013489D01*
X021721Y013512D02*
X021351Y013512D01*
X021351Y013535D02*
X021721Y013535D01*
X021721Y013558D02*
X021351Y013558D01*
X021351Y013363D02*
X021721Y013363D01*
X021721Y013269D01*
X021351Y013269D01*
X021351Y013363D01*
X021351Y013292D02*
X021721Y013292D01*
X021721Y013315D02*
X021351Y013315D01*
X021351Y013338D02*
X021721Y013338D01*
X021721Y013361D02*
X021351Y013361D01*
X021351Y013166D02*
X021721Y013166D01*
X021721Y013072D01*
X021351Y013072D01*
X021351Y013166D01*
X021351Y013095D02*
X021721Y013095D01*
X021721Y013118D02*
X021351Y013118D01*
X021351Y013141D02*
X021721Y013141D01*
X021721Y013164D02*
X021351Y013164D01*
X021351Y012969D02*
X021721Y012969D01*
X021721Y012875D01*
X021351Y012875D01*
X021351Y012969D01*
X021351Y012898D02*
X021721Y012898D01*
X021721Y012921D02*
X021351Y012921D01*
X021351Y012944D02*
X021721Y012944D01*
X021721Y012967D02*
X021351Y012967D01*
X021351Y012772D02*
X021721Y012772D01*
X021721Y012678D01*
X021351Y012678D01*
X021351Y012772D01*
X021351Y012701D02*
X021721Y012701D01*
X021721Y012724D02*
X021351Y012724D01*
X021351Y012747D02*
X021721Y012747D01*
X021721Y012770D02*
X021351Y012770D01*
X021351Y012575D02*
X021721Y012575D01*
X021721Y012481D01*
X021351Y012481D01*
X021351Y012575D01*
X021351Y012504D02*
X021721Y012504D01*
X021721Y012527D02*
X021351Y012527D01*
X021351Y012550D02*
X021721Y012550D01*
X021721Y012573D02*
X021351Y012573D01*
X021351Y012378D02*
X021721Y012378D01*
X021721Y012284D01*
X021351Y012284D01*
X021351Y012378D01*
X021351Y012307D02*
X021721Y012307D01*
X021721Y012330D02*
X021351Y012330D01*
X021351Y012353D02*
X021721Y012353D01*
X021721Y012376D02*
X021351Y012376D01*
X021351Y012182D02*
X021721Y012182D01*
X021721Y012088D01*
X021351Y012088D01*
X021351Y012182D01*
X021351Y012111D02*
X021721Y012111D01*
X021721Y012134D02*
X021351Y012134D01*
X021351Y012157D02*
X021721Y012157D01*
X021721Y012180D02*
X021351Y012180D01*
X021351Y011985D02*
X021721Y011985D01*
X021721Y011891D01*
X021351Y011891D01*
X021351Y011985D01*
X021351Y011914D02*
X021721Y011914D01*
X021721Y011937D02*
X021351Y011937D01*
X021351Y011960D02*
X021721Y011960D01*
X021721Y011983D02*
X021351Y011983D01*
X021351Y011788D02*
X021721Y011788D01*
X021721Y011694D01*
X021351Y011694D01*
X021351Y011788D01*
X021351Y011717D02*
X021721Y011717D01*
X021721Y011740D02*
X021351Y011740D01*
X021351Y011763D02*
X021721Y011763D01*
X021721Y011786D02*
X021351Y011786D01*
X021351Y011591D02*
X021721Y011591D01*
X021721Y011497D01*
X021351Y011497D01*
X021351Y011591D01*
X021351Y011520D02*
X021721Y011520D01*
X021721Y011543D02*
X021351Y011543D01*
X021351Y011566D02*
X021721Y011566D01*
X021721Y011589D02*
X021351Y011589D01*
X021351Y011394D02*
X021721Y011394D01*
X021721Y011300D01*
X021351Y011300D01*
X021351Y011394D01*
X021351Y011323D02*
X021721Y011323D01*
X021721Y011346D02*
X021351Y011346D01*
X021351Y011369D02*
X021721Y011369D01*
X021721Y011392D02*
X021351Y011392D01*
X021351Y011197D02*
X021721Y011197D01*
X021721Y011103D01*
X021351Y011103D01*
X021351Y011197D01*
X021351Y011126D02*
X021721Y011126D01*
X021721Y011149D02*
X021351Y011149D01*
X021351Y011172D02*
X021721Y011172D01*
X021721Y011195D02*
X021351Y011195D01*
X021351Y011001D02*
X021721Y011001D01*
X021721Y010907D01*
X021351Y010907D01*
X021351Y011001D01*
X021351Y010930D02*
X021721Y010930D01*
X021721Y010953D02*
X021351Y010953D01*
X021351Y010976D02*
X021721Y010976D01*
X021721Y010999D02*
X021351Y010999D01*
X021351Y010804D02*
X021721Y010804D01*
X021721Y010710D01*
X021351Y010710D01*
X021351Y010804D01*
X021351Y010733D02*
X021721Y010733D01*
X021721Y010756D02*
X021351Y010756D01*
X021351Y010779D02*
X021721Y010779D01*
X021721Y010802D02*
X021351Y010802D01*
X021351Y010607D02*
X021721Y010607D01*
X021721Y010513D01*
X021351Y010513D01*
X021351Y010607D01*
X021351Y010536D02*
X021721Y010536D01*
X021721Y010559D02*
X021351Y010559D01*
X021351Y010582D02*
X021721Y010582D01*
X021721Y010605D02*
X021351Y010605D01*
X021351Y010410D02*
X021721Y010410D01*
X021721Y010316D01*
X021351Y010316D01*
X021351Y010410D01*
X021351Y010339D02*
X021721Y010339D01*
X021721Y010362D02*
X021351Y010362D01*
X021351Y010385D02*
X021721Y010385D01*
X021721Y010408D02*
X021351Y010408D01*
X021144Y010223D02*
X021144Y009853D01*
X021144Y010223D02*
X021238Y010223D01*
X021238Y009853D01*
X021144Y009853D01*
X021144Y009876D02*
X021238Y009876D01*
X021238Y009899D02*
X021144Y009899D01*
X021144Y009922D02*
X021238Y009922D01*
X021238Y009945D02*
X021144Y009945D01*
X021144Y009968D02*
X021238Y009968D01*
X021238Y009991D02*
X021144Y009991D01*
X021144Y010014D02*
X021238Y010014D01*
X021238Y010037D02*
X021144Y010037D01*
X021144Y010060D02*
X021238Y010060D01*
X021238Y010083D02*
X021144Y010083D01*
X021144Y010106D02*
X021238Y010106D01*
X021238Y010129D02*
X021144Y010129D01*
X021144Y010152D02*
X021238Y010152D01*
X021238Y010175D02*
X021144Y010175D01*
X021144Y010198D02*
X021238Y010198D01*
X021238Y010221D02*
X021144Y010221D01*
X020947Y010223D02*
X020947Y009853D01*
X020947Y010223D02*
X021041Y010223D01*
X021041Y009853D01*
X020947Y009853D01*
X020947Y009876D02*
X021041Y009876D01*
X021041Y009899D02*
X020947Y009899D01*
X020947Y009922D02*
X021041Y009922D01*
X021041Y009945D02*
X020947Y009945D01*
X020947Y009968D02*
X021041Y009968D01*
X021041Y009991D02*
X020947Y009991D01*
X020947Y010014D02*
X021041Y010014D01*
X021041Y010037D02*
X020947Y010037D01*
X020947Y010060D02*
X021041Y010060D01*
X021041Y010083D02*
X020947Y010083D01*
X020947Y010106D02*
X021041Y010106D01*
X021041Y010129D02*
X020947Y010129D01*
X020947Y010152D02*
X021041Y010152D01*
X021041Y010175D02*
X020947Y010175D01*
X020947Y010198D02*
X021041Y010198D01*
X021041Y010221D02*
X020947Y010221D01*
X020750Y010223D02*
X020750Y009853D01*
X020750Y010223D02*
X020844Y010223D01*
X020844Y009853D01*
X020750Y009853D01*
X020750Y009876D02*
X020844Y009876D01*
X020844Y009899D02*
X020750Y009899D01*
X020750Y009922D02*
X020844Y009922D01*
X020844Y009945D02*
X020750Y009945D01*
X020750Y009968D02*
X020844Y009968D01*
X020844Y009991D02*
X020750Y009991D01*
X020750Y010014D02*
X020844Y010014D01*
X020844Y010037D02*
X020750Y010037D01*
X020750Y010060D02*
X020844Y010060D01*
X020844Y010083D02*
X020750Y010083D01*
X020750Y010106D02*
X020844Y010106D01*
X020844Y010129D02*
X020750Y010129D01*
X020750Y010152D02*
X020844Y010152D01*
X020844Y010175D02*
X020750Y010175D01*
X020750Y010198D02*
X020844Y010198D01*
X020844Y010221D02*
X020750Y010221D01*
X020554Y010223D02*
X020554Y009853D01*
X020554Y010223D02*
X020648Y010223D01*
X020648Y009853D01*
X020554Y009853D01*
X020554Y009876D02*
X020648Y009876D01*
X020648Y009899D02*
X020554Y009899D01*
X020554Y009922D02*
X020648Y009922D01*
X020648Y009945D02*
X020554Y009945D01*
X020554Y009968D02*
X020648Y009968D01*
X020648Y009991D02*
X020554Y009991D01*
X020554Y010014D02*
X020648Y010014D01*
X020648Y010037D02*
X020554Y010037D01*
X020554Y010060D02*
X020648Y010060D01*
X020648Y010083D02*
X020554Y010083D01*
X020554Y010106D02*
X020648Y010106D01*
X020648Y010129D02*
X020554Y010129D01*
X020554Y010152D02*
X020648Y010152D01*
X020648Y010175D02*
X020554Y010175D01*
X020554Y010198D02*
X020648Y010198D01*
X020648Y010221D02*
X020554Y010221D01*
X020357Y010223D02*
X020357Y009853D01*
X020357Y010223D02*
X020451Y010223D01*
X020451Y009853D01*
X020357Y009853D01*
X020357Y009876D02*
X020451Y009876D01*
X020451Y009899D02*
X020357Y009899D01*
X020357Y009922D02*
X020451Y009922D01*
X020451Y009945D02*
X020357Y009945D01*
X020357Y009968D02*
X020451Y009968D01*
X020451Y009991D02*
X020357Y009991D01*
X020357Y010014D02*
X020451Y010014D01*
X020451Y010037D02*
X020357Y010037D01*
X020357Y010060D02*
X020451Y010060D01*
X020451Y010083D02*
X020357Y010083D01*
X020357Y010106D02*
X020451Y010106D01*
X020451Y010129D02*
X020357Y010129D01*
X020357Y010152D02*
X020451Y010152D01*
X020451Y010175D02*
X020357Y010175D01*
X020357Y010198D02*
X020451Y010198D01*
X020451Y010221D02*
X020357Y010221D01*
X020160Y010223D02*
X020160Y009853D01*
X020160Y010223D02*
X020254Y010223D01*
X020254Y009853D01*
X020160Y009853D01*
X020160Y009876D02*
X020254Y009876D01*
X020254Y009899D02*
X020160Y009899D01*
X020160Y009922D02*
X020254Y009922D01*
X020254Y009945D02*
X020160Y009945D01*
X020160Y009968D02*
X020254Y009968D01*
X020254Y009991D02*
X020160Y009991D01*
X020160Y010014D02*
X020254Y010014D01*
X020254Y010037D02*
X020160Y010037D01*
X020160Y010060D02*
X020254Y010060D01*
X020254Y010083D02*
X020160Y010083D01*
X020160Y010106D02*
X020254Y010106D01*
X020254Y010129D02*
X020160Y010129D01*
X020160Y010152D02*
X020254Y010152D01*
X020254Y010175D02*
X020160Y010175D01*
X020160Y010198D02*
X020254Y010198D01*
X020254Y010221D02*
X020160Y010221D01*
X019963Y010223D02*
X019963Y009853D01*
X019963Y010223D02*
X020057Y010223D01*
X020057Y009853D01*
X019963Y009853D01*
X019963Y009876D02*
X020057Y009876D01*
X020057Y009899D02*
X019963Y009899D01*
X019963Y009922D02*
X020057Y009922D01*
X020057Y009945D02*
X019963Y009945D01*
X019963Y009968D02*
X020057Y009968D01*
X020057Y009991D02*
X019963Y009991D01*
X019963Y010014D02*
X020057Y010014D01*
X020057Y010037D02*
X019963Y010037D01*
X019963Y010060D02*
X020057Y010060D01*
X020057Y010083D02*
X019963Y010083D01*
X019963Y010106D02*
X020057Y010106D01*
X020057Y010129D02*
X019963Y010129D01*
X019963Y010152D02*
X020057Y010152D01*
X020057Y010175D02*
X019963Y010175D01*
X019963Y010198D02*
X020057Y010198D01*
X020057Y010221D02*
X019963Y010221D01*
X019766Y010223D02*
X019766Y009853D01*
X019766Y010223D02*
X019860Y010223D01*
X019860Y009853D01*
X019766Y009853D01*
X019766Y009876D02*
X019860Y009876D01*
X019860Y009899D02*
X019766Y009899D01*
X019766Y009922D02*
X019860Y009922D01*
X019860Y009945D02*
X019766Y009945D01*
X019766Y009968D02*
X019860Y009968D01*
X019860Y009991D02*
X019766Y009991D01*
X019766Y010014D02*
X019860Y010014D01*
X019860Y010037D02*
X019766Y010037D01*
X019766Y010060D02*
X019860Y010060D01*
X019860Y010083D02*
X019766Y010083D01*
X019766Y010106D02*
X019860Y010106D01*
X019860Y010129D02*
X019766Y010129D01*
X019766Y010152D02*
X019860Y010152D01*
X019860Y010175D02*
X019766Y010175D01*
X019766Y010198D02*
X019860Y010198D01*
X019860Y010221D02*
X019766Y010221D01*
X019569Y010223D02*
X019569Y009853D01*
X019569Y010223D02*
X019663Y010223D01*
X019663Y009853D01*
X019569Y009853D01*
X019569Y009876D02*
X019663Y009876D01*
X019663Y009899D02*
X019569Y009899D01*
X019569Y009922D02*
X019663Y009922D01*
X019663Y009945D02*
X019569Y009945D01*
X019569Y009968D02*
X019663Y009968D01*
X019663Y009991D02*
X019569Y009991D01*
X019569Y010014D02*
X019663Y010014D01*
X019663Y010037D02*
X019569Y010037D01*
X019569Y010060D02*
X019663Y010060D01*
X019663Y010083D02*
X019569Y010083D01*
X019569Y010106D02*
X019663Y010106D01*
X019663Y010129D02*
X019569Y010129D01*
X019569Y010152D02*
X019663Y010152D01*
X019663Y010175D02*
X019569Y010175D01*
X019569Y010198D02*
X019663Y010198D01*
X019663Y010221D02*
X019569Y010221D01*
X019373Y010223D02*
X019373Y009853D01*
X019373Y010223D02*
X019467Y010223D01*
X019467Y009853D01*
X019373Y009853D01*
X019373Y009876D02*
X019467Y009876D01*
X019467Y009899D02*
X019373Y009899D01*
X019373Y009922D02*
X019467Y009922D01*
X019467Y009945D02*
X019373Y009945D01*
X019373Y009968D02*
X019467Y009968D01*
X019467Y009991D02*
X019373Y009991D01*
X019373Y010014D02*
X019467Y010014D01*
X019467Y010037D02*
X019373Y010037D01*
X019373Y010060D02*
X019467Y010060D01*
X019467Y010083D02*
X019373Y010083D01*
X019373Y010106D02*
X019467Y010106D01*
X019467Y010129D02*
X019373Y010129D01*
X019373Y010152D02*
X019467Y010152D01*
X019467Y010175D02*
X019373Y010175D01*
X019373Y010198D02*
X019467Y010198D01*
X019467Y010221D02*
X019373Y010221D01*
X019176Y010223D02*
X019176Y009853D01*
X019176Y010223D02*
X019270Y010223D01*
X019270Y009853D01*
X019176Y009853D01*
X019176Y009876D02*
X019270Y009876D01*
X019270Y009899D02*
X019176Y009899D01*
X019176Y009922D02*
X019270Y009922D01*
X019270Y009945D02*
X019176Y009945D01*
X019176Y009968D02*
X019270Y009968D01*
X019270Y009991D02*
X019176Y009991D01*
X019176Y010014D02*
X019270Y010014D01*
X019270Y010037D02*
X019176Y010037D01*
X019176Y010060D02*
X019270Y010060D01*
X019270Y010083D02*
X019176Y010083D01*
X019176Y010106D02*
X019270Y010106D01*
X019270Y010129D02*
X019176Y010129D01*
X019176Y010152D02*
X019270Y010152D01*
X019270Y010175D02*
X019176Y010175D01*
X019176Y010198D02*
X019270Y010198D01*
X019270Y010221D02*
X019176Y010221D01*
X018979Y010223D02*
X018979Y009853D01*
X018979Y010223D02*
X019073Y010223D01*
X019073Y009853D01*
X018979Y009853D01*
X018979Y009876D02*
X019073Y009876D01*
X019073Y009899D02*
X018979Y009899D01*
X018979Y009922D02*
X019073Y009922D01*
X019073Y009945D02*
X018979Y009945D01*
X018979Y009968D02*
X019073Y009968D01*
X019073Y009991D02*
X018979Y009991D01*
X018979Y010014D02*
X019073Y010014D01*
X019073Y010037D02*
X018979Y010037D01*
X018979Y010060D02*
X019073Y010060D01*
X019073Y010083D02*
X018979Y010083D01*
X018979Y010106D02*
X019073Y010106D01*
X019073Y010129D02*
X018979Y010129D01*
X018979Y010152D02*
X019073Y010152D01*
X019073Y010175D02*
X018979Y010175D01*
X018979Y010198D02*
X019073Y010198D01*
X019073Y010221D02*
X018979Y010221D01*
X018782Y010223D02*
X018782Y009853D01*
X018782Y010223D02*
X018876Y010223D01*
X018876Y009853D01*
X018782Y009853D01*
X018782Y009876D02*
X018876Y009876D01*
X018876Y009899D02*
X018782Y009899D01*
X018782Y009922D02*
X018876Y009922D01*
X018876Y009945D02*
X018782Y009945D01*
X018782Y009968D02*
X018876Y009968D01*
X018876Y009991D02*
X018782Y009991D01*
X018782Y010014D02*
X018876Y010014D01*
X018876Y010037D02*
X018782Y010037D01*
X018782Y010060D02*
X018876Y010060D01*
X018876Y010083D02*
X018782Y010083D01*
X018782Y010106D02*
X018876Y010106D01*
X018876Y010129D02*
X018782Y010129D01*
X018782Y010152D02*
X018876Y010152D01*
X018876Y010175D02*
X018782Y010175D01*
X018782Y010198D02*
X018876Y010198D01*
X018876Y010221D02*
X018782Y010221D01*
X018585Y010223D02*
X018585Y009853D01*
X018585Y010223D02*
X018679Y010223D01*
X018679Y009853D01*
X018585Y009853D01*
X018585Y009876D02*
X018679Y009876D01*
X018679Y009899D02*
X018585Y009899D01*
X018585Y009922D02*
X018679Y009922D01*
X018679Y009945D02*
X018585Y009945D01*
X018585Y009968D02*
X018679Y009968D01*
X018679Y009991D02*
X018585Y009991D01*
X018585Y010014D02*
X018679Y010014D01*
X018679Y010037D02*
X018585Y010037D01*
X018585Y010060D02*
X018679Y010060D01*
X018679Y010083D02*
X018585Y010083D01*
X018585Y010106D02*
X018679Y010106D01*
X018679Y010129D02*
X018585Y010129D01*
X018585Y010152D02*
X018679Y010152D01*
X018679Y010175D02*
X018585Y010175D01*
X018585Y010198D02*
X018679Y010198D01*
X018679Y010221D02*
X018585Y010221D01*
X018388Y010223D02*
X018388Y009853D01*
X018388Y010223D02*
X018482Y010223D01*
X018482Y009853D01*
X018388Y009853D01*
X018388Y009876D02*
X018482Y009876D01*
X018482Y009899D02*
X018388Y009899D01*
X018388Y009922D02*
X018482Y009922D01*
X018482Y009945D02*
X018388Y009945D01*
X018388Y009968D02*
X018482Y009968D01*
X018482Y009991D02*
X018388Y009991D01*
X018388Y010014D02*
X018482Y010014D01*
X018482Y010037D02*
X018388Y010037D01*
X018388Y010060D02*
X018482Y010060D01*
X018482Y010083D02*
X018388Y010083D01*
X018388Y010106D02*
X018482Y010106D01*
X018482Y010129D02*
X018388Y010129D01*
X018388Y010152D02*
X018482Y010152D01*
X018482Y010175D02*
X018388Y010175D01*
X018388Y010198D02*
X018482Y010198D01*
X018482Y010221D02*
X018388Y010221D01*
X018191Y010223D02*
X018191Y009853D01*
X018191Y010223D02*
X018285Y010223D01*
X018285Y009853D01*
X018191Y009853D01*
X018191Y009876D02*
X018285Y009876D01*
X018285Y009899D02*
X018191Y009899D01*
X018191Y009922D02*
X018285Y009922D01*
X018285Y009945D02*
X018191Y009945D01*
X018191Y009968D02*
X018285Y009968D01*
X018285Y009991D02*
X018191Y009991D01*
X018191Y010014D02*
X018285Y010014D01*
X018285Y010037D02*
X018191Y010037D01*
X018191Y010060D02*
X018285Y010060D01*
X018285Y010083D02*
X018191Y010083D01*
X018191Y010106D02*
X018285Y010106D01*
X018285Y010129D02*
X018191Y010129D01*
X018191Y010152D02*
X018285Y010152D01*
X018285Y010175D02*
X018191Y010175D01*
X018191Y010198D02*
X018285Y010198D01*
X018285Y010221D02*
X018191Y010221D01*
X017995Y010223D02*
X017995Y009853D01*
X017995Y010223D02*
X018089Y010223D01*
X018089Y009853D01*
X017995Y009853D01*
X017995Y009876D02*
X018089Y009876D01*
X018089Y009899D02*
X017995Y009899D01*
X017995Y009922D02*
X018089Y009922D01*
X018089Y009945D02*
X017995Y009945D01*
X017995Y009968D02*
X018089Y009968D01*
X018089Y009991D02*
X017995Y009991D01*
X017995Y010014D02*
X018089Y010014D01*
X018089Y010037D02*
X017995Y010037D01*
X017995Y010060D02*
X018089Y010060D01*
X018089Y010083D02*
X017995Y010083D01*
X017995Y010106D02*
X018089Y010106D01*
X018089Y010129D02*
X017995Y010129D01*
X017995Y010152D02*
X018089Y010152D01*
X018089Y010175D02*
X017995Y010175D01*
X017995Y010198D02*
X018089Y010198D01*
X018089Y010221D02*
X017995Y010221D01*
X017798Y010223D02*
X017798Y009853D01*
X017798Y010223D02*
X017892Y010223D01*
X017892Y009853D01*
X017798Y009853D01*
X017798Y009876D02*
X017892Y009876D01*
X017892Y009899D02*
X017798Y009899D01*
X017798Y009922D02*
X017892Y009922D01*
X017892Y009945D02*
X017798Y009945D01*
X017798Y009968D02*
X017892Y009968D01*
X017892Y009991D02*
X017798Y009991D01*
X017798Y010014D02*
X017892Y010014D01*
X017892Y010037D02*
X017798Y010037D01*
X017798Y010060D02*
X017892Y010060D01*
X017892Y010083D02*
X017798Y010083D01*
X017798Y010106D02*
X017892Y010106D01*
X017892Y010129D02*
X017798Y010129D01*
X017798Y010152D02*
X017892Y010152D01*
X017892Y010175D02*
X017798Y010175D01*
X017798Y010198D02*
X017892Y010198D01*
X017892Y010221D02*
X017798Y010221D01*
X017705Y010410D02*
X017335Y010410D01*
X017705Y010410D02*
X017705Y010316D01*
X017335Y010316D01*
X017335Y010410D01*
X017335Y010339D02*
X017705Y010339D01*
X017705Y010362D02*
X017335Y010362D01*
X017335Y010385D02*
X017705Y010385D01*
X017705Y010408D02*
X017335Y010408D01*
X017335Y010607D02*
X017705Y010607D01*
X017705Y010513D01*
X017335Y010513D01*
X017335Y010607D01*
X017335Y010536D02*
X017705Y010536D01*
X017705Y010559D02*
X017335Y010559D01*
X017335Y010582D02*
X017705Y010582D01*
X017705Y010605D02*
X017335Y010605D01*
X017335Y010804D02*
X017705Y010804D01*
X017705Y010710D01*
X017335Y010710D01*
X017335Y010804D01*
X017335Y010733D02*
X017705Y010733D01*
X017705Y010756D02*
X017335Y010756D01*
X017335Y010779D02*
X017705Y010779D01*
X017705Y010802D02*
X017335Y010802D01*
X017335Y011001D02*
X017705Y011001D01*
X017705Y010907D01*
X017335Y010907D01*
X017335Y011001D01*
X017335Y010930D02*
X017705Y010930D01*
X017705Y010953D02*
X017335Y010953D01*
X017335Y010976D02*
X017705Y010976D01*
X017705Y010999D02*
X017335Y010999D01*
X017335Y011197D02*
X017705Y011197D01*
X017705Y011103D01*
X017335Y011103D01*
X017335Y011197D01*
X017335Y011126D02*
X017705Y011126D01*
X017705Y011149D02*
X017335Y011149D01*
X017335Y011172D02*
X017705Y011172D01*
X017705Y011195D02*
X017335Y011195D01*
X017335Y011394D02*
X017705Y011394D01*
X017705Y011300D01*
X017335Y011300D01*
X017335Y011394D01*
X017335Y011323D02*
X017705Y011323D01*
X017705Y011346D02*
X017335Y011346D01*
X017335Y011369D02*
X017705Y011369D01*
X017705Y011392D02*
X017335Y011392D01*
X017335Y011591D02*
X017705Y011591D01*
X017705Y011497D01*
X017335Y011497D01*
X017335Y011591D01*
X017335Y011520D02*
X017705Y011520D01*
X017705Y011543D02*
X017335Y011543D01*
X017335Y011566D02*
X017705Y011566D01*
X017705Y011589D02*
X017335Y011589D01*
X017335Y011788D02*
X017705Y011788D01*
X017705Y011694D01*
X017335Y011694D01*
X017335Y011788D01*
X017335Y011717D02*
X017705Y011717D01*
X017705Y011740D02*
X017335Y011740D01*
X017335Y011763D02*
X017705Y011763D01*
X017705Y011786D02*
X017335Y011786D01*
X017335Y011985D02*
X017705Y011985D01*
X017705Y011891D01*
X017335Y011891D01*
X017335Y011985D01*
X017335Y011914D02*
X017705Y011914D01*
X017705Y011937D02*
X017335Y011937D01*
X017335Y011960D02*
X017705Y011960D01*
X017705Y011983D02*
X017335Y011983D01*
X017335Y012182D02*
X017705Y012182D01*
X017705Y012088D01*
X017335Y012088D01*
X017335Y012182D01*
X017335Y012111D02*
X017705Y012111D01*
X017705Y012134D02*
X017335Y012134D01*
X017335Y012157D02*
X017705Y012157D01*
X017705Y012180D02*
X017335Y012180D01*
X017335Y012378D02*
X017705Y012378D01*
X017705Y012284D01*
X017335Y012284D01*
X017335Y012378D01*
X017335Y012307D02*
X017705Y012307D01*
X017705Y012330D02*
X017335Y012330D01*
X017335Y012353D02*
X017705Y012353D01*
X017705Y012376D02*
X017335Y012376D01*
X017335Y012575D02*
X017705Y012575D01*
X017705Y012481D01*
X017335Y012481D01*
X017335Y012575D01*
X017335Y012504D02*
X017705Y012504D01*
X017705Y012527D02*
X017335Y012527D01*
X017335Y012550D02*
X017705Y012550D01*
X017705Y012573D02*
X017335Y012573D01*
X017335Y012772D02*
X017705Y012772D01*
X017705Y012678D01*
X017335Y012678D01*
X017335Y012772D01*
X017335Y012701D02*
X017705Y012701D01*
X017705Y012724D02*
X017335Y012724D01*
X017335Y012747D02*
X017705Y012747D01*
X017705Y012770D02*
X017335Y012770D01*
X017335Y012969D02*
X017705Y012969D01*
X017705Y012875D01*
X017335Y012875D01*
X017335Y012969D01*
X017335Y012898D02*
X017705Y012898D01*
X017705Y012921D02*
X017335Y012921D01*
X017335Y012944D02*
X017705Y012944D01*
X017705Y012967D02*
X017335Y012967D01*
X017335Y013166D02*
X017705Y013166D01*
X017705Y013072D01*
X017335Y013072D01*
X017335Y013166D01*
X017335Y013095D02*
X017705Y013095D01*
X017705Y013118D02*
X017335Y013118D01*
X017335Y013141D02*
X017705Y013141D01*
X017705Y013164D02*
X017335Y013164D01*
X017335Y013363D02*
X017705Y013363D01*
X017705Y013269D01*
X017335Y013269D01*
X017335Y013363D01*
X017335Y013292D02*
X017705Y013292D01*
X017705Y013315D02*
X017335Y013315D01*
X017335Y013338D02*
X017705Y013338D01*
X017705Y013361D02*
X017335Y013361D01*
X017335Y013560D02*
X017705Y013560D01*
X017705Y013466D01*
X017335Y013466D01*
X017335Y013560D01*
X017335Y013489D02*
X017705Y013489D01*
X017705Y013512D02*
X017335Y013512D01*
X017335Y013535D02*
X017705Y013535D01*
X017705Y013558D02*
X017335Y013558D01*
X017335Y013756D02*
X017705Y013756D01*
X017705Y013662D01*
X017335Y013662D01*
X017335Y013756D01*
X017335Y013685D02*
X017705Y013685D01*
X017705Y013708D02*
X017335Y013708D01*
X017335Y013731D02*
X017705Y013731D01*
X017705Y013754D02*
X017335Y013754D01*
X017892Y013849D02*
X017892Y014219D01*
X017892Y013849D02*
X017798Y013849D01*
X017798Y014219D01*
X017892Y014219D01*
X017892Y013872D02*
X017798Y013872D01*
X017798Y013895D02*
X017892Y013895D01*
X017892Y013918D02*
X017798Y013918D01*
X017798Y013941D02*
X017892Y013941D01*
X017892Y013964D02*
X017798Y013964D01*
X017798Y013987D02*
X017892Y013987D01*
X017892Y014010D02*
X017798Y014010D01*
X017798Y014033D02*
X017892Y014033D01*
X017892Y014056D02*
X017798Y014056D01*
X017798Y014079D02*
X017892Y014079D01*
X017892Y014102D02*
X017798Y014102D01*
X017798Y014125D02*
X017892Y014125D01*
X017892Y014148D02*
X017798Y014148D01*
X017798Y014171D02*
X017892Y014171D01*
X017892Y014194D02*
X017798Y014194D01*
X017798Y014217D02*
X017892Y014217D01*
X018089Y014219D02*
X018089Y013849D01*
X017995Y013849D01*
X017995Y014219D01*
X018089Y014219D01*
X018089Y013872D02*
X017995Y013872D01*
X017995Y013895D02*
X018089Y013895D01*
X018089Y013918D02*
X017995Y013918D01*
X017995Y013941D02*
X018089Y013941D01*
X018089Y013964D02*
X017995Y013964D01*
X017995Y013987D02*
X018089Y013987D01*
X018089Y014010D02*
X017995Y014010D01*
X017995Y014033D02*
X018089Y014033D01*
X018089Y014056D02*
X017995Y014056D01*
X017995Y014079D02*
X018089Y014079D01*
X018089Y014102D02*
X017995Y014102D01*
X017995Y014125D02*
X018089Y014125D01*
X018089Y014148D02*
X017995Y014148D01*
X017995Y014171D02*
X018089Y014171D01*
X018089Y014194D02*
X017995Y014194D01*
X017995Y014217D02*
X018089Y014217D01*
X018285Y014219D02*
X018285Y013849D01*
X018191Y013849D01*
X018191Y014219D01*
X018285Y014219D01*
X018285Y013872D02*
X018191Y013872D01*
X018191Y013895D02*
X018285Y013895D01*
X018285Y013918D02*
X018191Y013918D01*
X018191Y013941D02*
X018285Y013941D01*
X018285Y013964D02*
X018191Y013964D01*
X018191Y013987D02*
X018285Y013987D01*
X018285Y014010D02*
X018191Y014010D01*
X018191Y014033D02*
X018285Y014033D01*
X018285Y014056D02*
X018191Y014056D01*
X018191Y014079D02*
X018285Y014079D01*
X018285Y014102D02*
X018191Y014102D01*
X018191Y014125D02*
X018285Y014125D01*
X018285Y014148D02*
X018191Y014148D01*
X018191Y014171D02*
X018285Y014171D01*
X018285Y014194D02*
X018191Y014194D01*
X018191Y014217D02*
X018285Y014217D01*
D12*
X011882Y012200D03*
X014482Y006200D03*
X024282Y003100D03*
X034882Y005500D03*
X034882Y013400D03*
X034082Y019300D03*
X035582Y032600D03*
X028082Y038100D03*
X023082Y038100D03*
X012982Y038000D03*
X003482Y034000D03*
X003182Y028800D03*
X003182Y024600D03*
X003082Y019300D03*
D13*
X003082Y018300D03*
X003082Y017300D03*
X003082Y016300D03*
X002482Y012700D03*
X002482Y011700D03*
X002482Y010500D03*
X002482Y009500D03*
X011882Y013200D03*
X011882Y014200D03*
X011882Y015200D03*
X018902Y018810D03*
X018902Y020590D03*
X021462Y020590D03*
X021462Y018810D03*
X024282Y006100D03*
X024282Y005100D03*
X024282Y004100D03*
X014482Y004200D03*
X014482Y005200D03*
X014482Y003200D03*
X014482Y002200D03*
X014482Y001200D03*
X003182Y022600D03*
X003182Y023600D03*
X003182Y026800D03*
X003182Y027800D03*
X003482Y035000D03*
X003482Y036000D03*
X013982Y038000D03*
X014982Y038000D03*
X024082Y038100D03*
X029082Y038100D03*
X030082Y038100D03*
X033582Y032600D03*
X034582Y032600D03*
X035082Y019300D03*
X036082Y019300D03*
X034882Y012400D03*
X034882Y011400D03*
X034882Y004500D03*
X034882Y003500D03*
D14*
X028782Y003600D03*
X028782Y006500D03*
X028782Y009300D03*
X017682Y022800D03*
X014382Y023200D03*
D15*
X014382Y024200D03*
X017682Y021800D03*
X029782Y009300D03*
X029782Y006500D03*
X029782Y003600D03*
D16*
X022616Y009300D03*
X021947Y009300D03*
X022247Y010100D03*
X022916Y010100D03*
X025147Y013200D03*
X025816Y013200D03*
X022416Y014600D03*
X021747Y014600D03*
X021747Y015400D03*
X022416Y015400D03*
X021016Y016000D03*
X020347Y016000D03*
X019716Y016000D03*
X019047Y016000D03*
X019547Y015000D03*
X020216Y015000D03*
X022247Y017700D03*
X022916Y017700D03*
X023247Y020200D03*
X023916Y020200D03*
X025647Y021100D03*
X026316Y021100D03*
X030447Y021200D03*
X031116Y021200D03*
X026716Y026700D03*
X026047Y026700D03*
X027347Y028700D03*
X028016Y028700D03*
X028747Y029300D03*
X029416Y029300D03*
X029347Y030200D03*
X028716Y030200D03*
X028047Y030200D03*
X027016Y030500D03*
X026347Y030500D03*
X026347Y029700D03*
X027016Y029700D03*
X026716Y031500D03*
X026047Y031500D03*
X025116Y032100D03*
X024447Y032100D03*
X024516Y036300D03*
X023847Y036300D03*
X019316Y033800D03*
X018647Y033800D03*
X018416Y035700D03*
X017747Y035700D03*
X013216Y031200D03*
X012547Y031200D03*
X010416Y031500D03*
X009747Y031500D03*
X009947Y026400D03*
X010616Y026400D03*
X008616Y021600D03*
X007947Y021600D03*
X005816Y019700D03*
X005147Y019700D03*
X005647Y018800D03*
X006316Y018800D03*
X009447Y016600D03*
X010116Y016600D03*
X014447Y018700D03*
X015116Y018700D03*
X015116Y019700D03*
X014447Y019700D03*
X018547Y028300D03*
X019216Y028300D03*
X019847Y028300D03*
X020516Y028300D03*
X021247Y028100D03*
X021916Y028100D03*
X029547Y027000D03*
X030216Y027000D03*
X030016Y030200D03*
X013116Y036100D03*
X012447Y036100D03*
X004416Y012200D03*
X003747Y012200D03*
G36*
X015553Y009450D02*
X015858Y009755D01*
X016137Y009476D01*
X015832Y009171D01*
X015553Y009450D01*
G37*
G36*
X016026Y009924D02*
X016331Y010229D01*
X016610Y009950D01*
X016305Y009645D01*
X016026Y009924D01*
G37*
X017347Y009200D03*
X018016Y009200D03*
X018016Y008400D03*
X017347Y008400D03*
D17*
X021482Y008065D03*
X021482Y008735D03*
X016582Y013765D03*
X016582Y014435D03*
X015782Y014435D03*
X015782Y013765D03*
X017882Y015365D03*
X017882Y016035D03*
X018382Y016565D03*
X018382Y017235D03*
X024282Y017235D03*
X024282Y016565D03*
X024482Y024765D03*
X024482Y025435D03*
X032282Y025165D03*
X032282Y025835D03*
X018882Y037165D03*
X018882Y037835D03*
X015582Y031135D03*
X015582Y030465D03*
X008882Y036565D03*
X008882Y037235D03*
X006082Y010435D03*
X006082Y009765D03*
X005182Y009765D03*
X005182Y010435D03*
D18*
X004733Y014000D03*
X004531Y014900D03*
X005633Y014900D03*
X005131Y016100D03*
X006233Y016100D03*
X003533Y014900D03*
X003631Y014000D03*
X002431Y014900D03*
X005531Y020500D03*
X005531Y021400D03*
X006633Y021400D03*
X006633Y020500D03*
X006233Y028600D03*
X006233Y029500D03*
X005131Y029500D03*
X005131Y028600D03*
X004033Y031200D03*
X004033Y032100D03*
X002931Y032100D03*
X002931Y031200D03*
X005631Y034300D03*
X006733Y034300D03*
X006431Y032800D03*
X007533Y032800D03*
X012331Y034300D03*
X012331Y035200D03*
X013433Y035200D03*
X013433Y034300D03*
X014131Y033300D03*
X014131Y032400D03*
X015233Y032400D03*
X015233Y033300D03*
X015033Y029700D03*
X015033Y028800D03*
X015233Y027900D03*
X015533Y027000D03*
X014431Y027000D03*
X014131Y027900D03*
X013931Y028800D03*
X013931Y029700D03*
X017031Y024500D03*
X018133Y024500D03*
X020431Y024100D03*
X020431Y023200D03*
X021533Y023200D03*
X021533Y024100D03*
X021533Y025000D03*
X021533Y025900D03*
X020431Y025900D03*
X020431Y025000D03*
X024431Y029700D03*
X024431Y030500D03*
X025533Y030500D03*
X025533Y029700D03*
X021033Y032000D03*
X021033Y032900D03*
X019931Y032900D03*
X019931Y032000D03*
X020233Y034800D03*
X020233Y035700D03*
X019131Y035700D03*
X019131Y034800D03*
X026931Y036400D03*
X028033Y036400D03*
X029131Y036400D03*
X030233Y036400D03*
X032231Y028400D03*
X032231Y027500D03*
X033333Y027500D03*
X033333Y028400D03*
X033631Y025800D03*
X034733Y025800D03*
X034033Y021100D03*
X032931Y021100D03*
X024433Y013100D03*
X023331Y013100D03*
X023033Y016800D03*
X021931Y016800D03*
X016233Y017600D03*
X015131Y017600D03*
X026231Y007900D03*
X027333Y007900D03*
X027333Y005600D03*
X026231Y005600D03*
X008733Y038600D03*
X007631Y038600D03*
X006633Y038600D03*
X005531Y038600D03*
D19*
X016775Y016374D03*
X016775Y015626D03*
X015949Y016000D03*
D20*
X015582Y015377D03*
X015582Y015023D03*
X024882Y011150D03*
X024882Y010800D03*
X024882Y010450D03*
X030882Y016650D03*
X030882Y017000D03*
X030882Y017350D03*
X032382Y017350D03*
X032382Y017000D03*
X032382Y016650D03*
D21*
X025932Y015000D03*
X024032Y015000D03*
X012882Y017950D03*
X012882Y019850D03*
D22*
X012289Y009684D03*
X012289Y009428D03*
X012289Y009172D03*
X012289Y008916D03*
X010675Y008916D03*
X010675Y009172D03*
X010675Y009428D03*
X010675Y009684D03*
D23*
X022132Y008500D03*
X022482Y008500D03*
X022832Y008500D03*
X023932Y009800D03*
X024282Y009800D03*
X024632Y009800D03*
D24*
X009589Y006898D03*
X009116Y006898D03*
X008644Y006898D03*
X008171Y006898D03*
X007699Y006898D03*
X007227Y006898D03*
X006754Y006898D03*
X006282Y006898D03*
X005809Y006898D03*
X005337Y006898D03*
X004864Y006898D03*
X004392Y006898D03*
X003920Y006898D03*
X003447Y006898D03*
X002975Y006898D03*
X002502Y006898D03*
X002030Y006898D03*
X002030Y001702D03*
X002502Y001702D03*
X002975Y001702D03*
X003447Y001702D03*
X003920Y001702D03*
X004392Y001702D03*
X004864Y001702D03*
X005337Y001702D03*
X005809Y001702D03*
X006282Y001702D03*
X006754Y001702D03*
X007227Y001702D03*
X007699Y001702D03*
X008171Y001702D03*
X008644Y001702D03*
X009116Y001702D03*
X009589Y001702D03*
D25*
X010297Y001977D03*
X010297Y002646D03*
X010297Y003119D03*
X010297Y003591D03*
X010297Y004064D03*
X010297Y004536D03*
X010297Y005009D03*
X010297Y005481D03*
X010297Y005954D03*
X010294Y006623D03*
D26*
X002345Y005717D02*
X002109Y005717D01*
X002345Y005717D02*
X002345Y005639D01*
X002109Y005639D01*
X002109Y005717D01*
X002109Y005166D02*
X002345Y005166D01*
X002345Y005088D01*
X002109Y005088D01*
X002109Y005166D01*
X002109Y004615D02*
X002345Y004615D01*
X002345Y004537D01*
X002109Y004537D01*
X002109Y004615D01*
X002109Y004063D02*
X002345Y004063D01*
X002345Y003985D01*
X002109Y003985D01*
X002109Y004063D01*
X002109Y003512D02*
X002345Y003512D01*
X002345Y003434D01*
X002109Y003434D01*
X002109Y003512D01*
X002109Y002961D02*
X002345Y002961D01*
X002345Y002883D01*
X002109Y002883D01*
X002109Y002961D01*
D27*
X019672Y003720D03*
X020582Y003720D03*
X021492Y003720D03*
D28*
X020582Y001280D03*
D29*
X006575Y012102D02*
X006575Y012108D01*
X006575Y012102D02*
X006439Y012102D01*
X006439Y012108D01*
X006575Y012108D01*
X006575Y012299D02*
X006575Y012305D01*
X006575Y012299D02*
X006439Y012299D01*
X006439Y012305D01*
X006575Y012305D01*
X006575Y012495D02*
X006575Y012501D01*
X006575Y012495D02*
X006439Y012495D01*
X006439Y012501D01*
X006575Y012501D01*
X006575Y012692D02*
X006575Y012698D01*
X006575Y012692D02*
X006439Y012692D01*
X006439Y012698D01*
X006575Y012698D01*
X006280Y012858D02*
X006274Y012858D01*
X006274Y012994D01*
X006280Y012994D01*
X006280Y012858D01*
X006280Y012962D02*
X006274Y012962D01*
X006083Y012858D02*
X006077Y012858D01*
X006077Y012994D01*
X006083Y012994D01*
X006083Y012858D01*
X006083Y012962D02*
X006077Y012962D01*
X005886Y012858D02*
X005880Y012858D01*
X005880Y012994D01*
X005886Y012994D01*
X005886Y012858D01*
X005886Y012962D02*
X005880Y012962D01*
X005689Y012858D02*
X005683Y012858D01*
X005683Y012994D01*
X005689Y012994D01*
X005689Y012858D01*
X005689Y012962D02*
X005683Y012962D01*
X005388Y012698D02*
X005388Y012692D01*
X005388Y012698D02*
X005524Y012698D01*
X005524Y012692D01*
X005388Y012692D01*
X005388Y012501D02*
X005388Y012495D01*
X005388Y012501D02*
X005524Y012501D01*
X005524Y012495D01*
X005388Y012495D01*
X005388Y012305D02*
X005388Y012299D01*
X005388Y012305D02*
X005524Y012305D01*
X005524Y012299D01*
X005388Y012299D01*
X005388Y012108D02*
X005388Y012102D01*
X005388Y012108D02*
X005524Y012108D01*
X005524Y012102D01*
X005388Y012102D01*
X005683Y011942D02*
X005689Y011942D01*
X005689Y011806D01*
X005683Y011806D01*
X005683Y011942D01*
X005689Y011910D02*
X005683Y011910D01*
X005880Y011942D02*
X005886Y011942D01*
X005886Y011806D01*
X005880Y011806D01*
X005880Y011942D01*
X005886Y011910D02*
X005880Y011910D01*
X006077Y011942D02*
X006083Y011942D01*
X006083Y011806D01*
X006077Y011806D01*
X006077Y011942D01*
X006083Y011910D02*
X006077Y011910D01*
X006274Y011942D02*
X006280Y011942D01*
X006280Y011806D01*
X006274Y011806D01*
X006274Y011942D01*
X006280Y011910D02*
X006274Y011910D01*
D30*
X006480Y011902D03*
X006480Y012898D03*
X005480Y012898D03*
X005484Y011902D03*
D31*
X005698Y012116D02*
X006266Y012116D01*
X005698Y012116D02*
X005698Y012684D01*
X006266Y012684D01*
X006266Y012116D01*
X006266Y012178D02*
X005698Y012178D01*
X005698Y012240D02*
X006266Y012240D01*
X006266Y012302D02*
X005698Y012302D01*
X005698Y012364D02*
X006266Y012364D01*
X006266Y012426D02*
X005698Y012426D01*
X005698Y012488D02*
X006266Y012488D01*
X006266Y012550D02*
X005698Y012550D01*
X005698Y012612D02*
X006266Y012612D01*
X006266Y012674D02*
X005698Y012674D01*
D32*
X007782Y012200D03*
X008182Y011800D03*
X007282Y016700D03*
X007282Y017300D03*
X010782Y016700D03*
X011482Y016700D03*
X010982Y021900D03*
D33*
X026136Y022196D03*
X026136Y022393D03*
X026136Y022590D03*
X026136Y022787D03*
X026136Y022983D03*
X026136Y023180D03*
X026136Y023377D03*
X026136Y023574D03*
X026136Y023771D03*
X026136Y023968D03*
X026136Y024165D03*
X026136Y024361D03*
X026136Y024558D03*
X026136Y024755D03*
X026136Y024952D03*
X026136Y025149D03*
X030585Y025149D03*
X030585Y024952D03*
X030585Y024755D03*
X030585Y024558D03*
X030585Y024361D03*
X030585Y024165D03*
X030585Y023968D03*
X030585Y023771D03*
X030585Y023574D03*
X030585Y023377D03*
X030585Y023180D03*
X030585Y022983D03*
X030585Y022787D03*
X030585Y022590D03*
X030585Y022393D03*
X030585Y022196D03*
D34*
X029837Y021448D03*
X029640Y021448D03*
X029443Y021448D03*
X029246Y021448D03*
X029049Y021448D03*
X028853Y021448D03*
X028656Y021448D03*
X028459Y021448D03*
X028262Y021448D03*
X028065Y021448D03*
X027868Y021448D03*
X027671Y021448D03*
X027475Y021448D03*
X027278Y021448D03*
X027081Y021448D03*
X026884Y021448D03*
X026884Y025897D03*
X027081Y025897D03*
X027278Y025897D03*
X027475Y025897D03*
X027671Y025897D03*
X027868Y025897D03*
X028065Y025897D03*
X028262Y025897D03*
X028459Y025897D03*
X028656Y025897D03*
X028853Y025897D03*
X029049Y025897D03*
X029246Y025897D03*
X029443Y025897D03*
X029640Y025897D03*
X029837Y025897D03*
D35*
X023705Y034150D03*
X023705Y034650D03*
X023705Y035150D03*
X023705Y035650D03*
X021658Y035650D03*
X021658Y035150D03*
X021658Y034650D03*
X021658Y034150D03*
X016805Y034250D03*
X016805Y034750D03*
X016805Y035250D03*
X016805Y035750D03*
X014758Y035750D03*
X014758Y035250D03*
X014758Y034750D03*
X014758Y034250D03*
X009505Y028750D03*
X009505Y028250D03*
X009505Y027750D03*
X009505Y027250D03*
X007458Y027250D03*
X007458Y027750D03*
X007458Y028250D03*
X007458Y028750D03*
X007505Y030550D03*
X007505Y031050D03*
X007505Y031550D03*
X007505Y032050D03*
X005458Y032050D03*
X005458Y031550D03*
X005458Y031050D03*
X005458Y030550D03*
D36*
X005682Y035449D03*
X005682Y036551D03*
X011582Y033151D03*
X011582Y032049D03*
X012682Y032049D03*
X012682Y033151D03*
X010982Y028751D03*
X010982Y027649D03*
X017782Y019951D03*
X017782Y018849D03*
X019682Y029249D03*
X020582Y029249D03*
X020582Y030351D03*
X019682Y030351D03*
X024782Y033049D03*
X024782Y034151D03*
X028582Y032251D03*
X029482Y032251D03*
X029482Y031149D03*
X028582Y031149D03*
X031182Y034549D03*
X031182Y035651D03*
X036482Y029151D03*
X036482Y028049D03*
X036482Y026351D03*
X036482Y025249D03*
X032882Y023051D03*
X032882Y021949D03*
D37*
X034032Y022376D03*
X034532Y022376D03*
X035032Y022376D03*
X035532Y022376D03*
X035532Y024424D03*
X035032Y024424D03*
X034532Y024424D03*
X034032Y024424D03*
X034232Y027576D03*
X034732Y027576D03*
X035232Y027576D03*
X035732Y027576D03*
X035732Y029624D03*
X035232Y029624D03*
X034732Y029624D03*
X034232Y029624D03*
X027232Y032876D03*
X026732Y032876D03*
X026232Y032876D03*
X025732Y032876D03*
X025732Y034924D03*
X026232Y034924D03*
X026732Y034924D03*
X027232Y034924D03*
X008132Y035376D03*
X007632Y035376D03*
X007132Y035376D03*
X006632Y035376D03*
X006632Y037424D03*
X007132Y037424D03*
X007632Y037424D03*
X008132Y037424D03*
D38*
X022903Y033009D03*
X022903Y031552D03*
X029060Y033291D03*
X029060Y034748D03*
X031460Y033548D03*
X031460Y032091D03*
D39*
X023430Y029821D03*
X021973Y029821D03*
X018330Y030021D03*
X016873Y030021D03*
X016873Y032321D03*
X018330Y032321D03*
X017690Y037879D03*
X016234Y037879D03*
X019834Y037779D03*
X021290Y037779D03*
X011330Y035521D03*
X009873Y035521D03*
X010330Y033221D03*
X008873Y033221D03*
X009834Y037879D03*
X011290Y037879D03*
D40*
X010312Y022700D03*
X009052Y022700D03*
X013452Y015800D03*
X014712Y015800D03*
X019252Y017300D03*
X020512Y017300D03*
X022152Y021700D03*
X023412Y021700D03*
X029952Y028500D03*
X031212Y028500D03*
X030952Y030400D03*
X032212Y030400D03*
X031912Y019300D03*
X030652Y019300D03*
X018412Y006800D03*
X017152Y006800D03*
X018452Y005200D03*
X019712Y005200D03*
X008312Y010400D03*
X007052Y010400D03*
D41*
X008182Y014970D03*
X008182Y016230D03*
X024782Y026470D03*
X024782Y027730D03*
X025982Y037170D03*
X025982Y038430D03*
D42*
X011009Y020763D03*
X011009Y020507D03*
X011009Y020252D03*
X011009Y019996D03*
X011009Y019740D03*
X011009Y019484D03*
X011009Y019228D03*
X011009Y018972D03*
X011009Y018716D03*
X011009Y018460D03*
X011009Y018204D03*
X011009Y017948D03*
X011009Y017693D03*
X011009Y017437D03*
X008155Y017437D03*
X008155Y017693D03*
X008155Y017948D03*
X008155Y018204D03*
X008155Y018460D03*
X008155Y018716D03*
X008155Y018972D03*
X008155Y019228D03*
X008155Y019484D03*
X008155Y019740D03*
X008155Y019996D03*
X008155Y020252D03*
X008155Y020507D03*
X008155Y020763D03*
D43*
X006594Y018074D03*
X006594Y017326D03*
X005570Y017326D03*
X005570Y017700D03*
X005570Y018074D03*
D44*
X024308Y019067D03*
X025056Y019067D03*
X024682Y019933D03*
D45*
X020972Y021800D03*
X019791Y021800D03*
X015872Y021400D03*
X014691Y021400D03*
X026191Y008800D03*
X027372Y008800D03*
X027372Y006500D03*
X026191Y006500D03*
D46*
X002282Y000900D02*
X002030Y001152D01*
X002030Y001702D01*
X002227Y002922D02*
X002227Y003473D01*
X002227Y004024D01*
X002227Y004576D01*
X002227Y005127D01*
X002227Y005678D01*
X002704Y005678D01*
X002982Y005400D01*
X002030Y006898D02*
X002030Y007548D01*
X002282Y007800D01*
X004082Y007800D02*
X004392Y007610D01*
X004392Y006898D01*
X014882Y014300D02*
X014882Y014700D01*
X014882Y014300D02*
X015416Y013765D01*
X015782Y013765D01*
X015682Y017000D02*
X015282Y017000D01*
X022482Y014100D02*
X022982Y014100D01*
X022916Y010100D02*
X022982Y010100D01*
X023182Y009900D01*
X023182Y009400D01*
X022616Y009400D01*
X022616Y009300D01*
X018782Y008600D02*
X018782Y008500D01*
X018682Y008400D01*
X018016Y008400D01*
X018016Y009200D01*
X003182Y024600D02*
X003182Y025100D01*
X003382Y025300D01*
X005282Y025300D01*
X005582Y025600D01*
X008582Y025600D01*
X009282Y026300D01*
X009382Y026400D01*
X009947Y026400D01*
X010682Y026500D02*
X010382Y027100D01*
X010682Y026500D02*
X010616Y026265D01*
X010616Y026400D01*
X009505Y028750D02*
X009582Y028826D01*
X009582Y029400D01*
X007458Y027250D02*
X005532Y027250D01*
X004982Y026700D01*
X004932Y030150D02*
X004282Y030100D01*
X004482Y030600D02*
X004932Y031050D01*
X005458Y031050D01*
X005458Y030550D02*
X004932Y030150D01*
X008408Y035100D02*
X008132Y035376D01*
X008408Y035100D02*
X008882Y035100D01*
X006632Y037424D02*
X006105Y037424D01*
X006082Y037400D01*
X026732Y032876D02*
X026732Y031550D01*
X026782Y031500D01*
X026982Y031500D01*
X027382Y031900D01*
X029952Y028500D02*
X029952Y028170D01*
X029582Y027800D01*
X031212Y028070D02*
X031482Y027900D01*
X031212Y028070D02*
X031212Y028500D01*
X030952Y030400D02*
X030952Y030830D01*
X030582Y031200D01*
X032212Y030830D02*
X032212Y030400D01*
X032212Y030830D02*
X032582Y031200D01*
X035182Y030600D02*
X035232Y030550D01*
X035232Y029624D01*
X034782Y028500D02*
X035232Y028050D01*
X035232Y027576D01*
X034782Y023200D02*
X034482Y023200D01*
X034782Y023200D02*
X035032Y022950D01*
X035032Y022376D01*
D47*
X034532Y022376D02*
X034532Y021850D01*
X034782Y021600D01*
X034782Y021100D01*
X034033Y021100D02*
X034032Y021301D01*
X034032Y022376D01*
X034008Y022400D01*
X033782Y022400D01*
X033331Y021949D01*
X032882Y021949D01*
X033382Y022500D02*
X033482Y022600D01*
X033482Y025651D01*
X033631Y025800D01*
X034282Y025300D02*
X033982Y025000D01*
X033982Y024474D01*
X034032Y024424D01*
X034532Y024424D02*
X034532Y024050D01*
X033882Y023600D01*
X032982Y024100D02*
X032982Y026400D01*
X032782Y026900D01*
X032782Y028300D01*
X032682Y028400D01*
X032231Y028400D01*
X032231Y027500D02*
X032182Y027451D01*
X032182Y027000D01*
X032782Y026200D01*
X032782Y024200D01*
X032582Y024000D01*
X031982Y024000D01*
X031817Y024165D01*
X030585Y024165D01*
X030585Y024361D02*
X030043Y024361D01*
X029882Y024200D01*
X030585Y024361D02*
X032243Y024361D01*
X032282Y024400D01*
X031775Y024558D02*
X031775Y024907D01*
X031482Y025200D01*
X032247Y025200D01*
X032282Y025165D01*
X032282Y025835D02*
X030916Y025835D01*
X030782Y025700D01*
X030782Y025149D01*
X031033Y025149D01*
X031082Y025100D01*
X031082Y024800D01*
X031037Y024755D01*
X030585Y024755D01*
X030585Y024558D02*
X031775Y024558D01*
X031714Y023968D02*
X031882Y023800D01*
X032682Y023800D01*
X032982Y024100D01*
X032882Y023051D02*
X032833Y023000D01*
X032382Y023000D01*
X031611Y023771D01*
X030585Y023771D01*
X030585Y023968D02*
X031714Y023968D01*
X031508Y023574D02*
X032282Y022800D01*
X032282Y022600D01*
X032382Y022500D01*
X033382Y022500D01*
X032382Y022200D02*
X032382Y020700D01*
X032682Y020400D01*
X032682Y018200D01*
X032982Y017900D01*
X032982Y017200D01*
X032782Y017000D01*
X032382Y017000D01*
X032382Y017350D02*
X030882Y017350D01*
X030652Y017580D01*
X030652Y019300D01*
X030782Y019370D01*
X030782Y020400D01*
X030682Y020500D01*
X030447Y020635D01*
X030447Y021200D01*
X030082Y021200D01*
X029837Y021445D01*
X029837Y021448D01*
X029640Y021448D02*
X029640Y020442D01*
X029982Y020100D01*
X029443Y021448D02*
X029443Y017739D01*
X030182Y017000D01*
X030882Y017000D01*
X030882Y016650D02*
X032382Y016650D01*
X033032Y016650D01*
X033282Y016900D01*
X033482Y018400D02*
X035182Y018400D01*
X036082Y019300D01*
X036082Y023200D01*
X035532Y023750D01*
X035532Y024424D01*
X035282Y025000D02*
X035282Y023300D01*
X035582Y023000D01*
X035582Y022426D01*
X035532Y022376D01*
X035532Y020750D01*
X034082Y019300D01*
X033482Y018400D02*
X032931Y018951D01*
X032931Y021100D01*
X032382Y022200D02*
X031992Y022590D01*
X030585Y022590D01*
X030585Y022393D02*
X031889Y022393D01*
X031982Y022300D01*
X031982Y021600D01*
X031182Y021800D02*
X031182Y021065D01*
X031116Y021200D01*
X031916Y020195D01*
X031912Y019300D01*
X031182Y021800D02*
X031182Y022000D01*
X030986Y022196D01*
X030585Y022196D01*
X030585Y023574D02*
X031508Y023574D01*
X030585Y024952D02*
X030030Y024952D01*
X029882Y025100D01*
X029443Y025897D02*
X029443Y026600D01*
X030082Y026600D01*
X030382Y026300D01*
X030216Y027000D02*
X030782Y027000D01*
X030882Y026900D01*
X029547Y027000D02*
X029443Y026896D01*
X029443Y026600D01*
X029246Y025897D02*
X029246Y025465D01*
X029182Y025400D01*
X028082Y025400D01*
X027782Y025100D01*
X027868Y025897D02*
X027868Y027013D01*
X027082Y027800D01*
X026482Y027800D01*
X025582Y028700D01*
X023682Y028700D01*
X022582Y027600D01*
X017482Y027600D01*
X016182Y028900D01*
X016182Y030800D01*
X015882Y031100D01*
X015616Y031100D01*
X015582Y031135D01*
X015547Y031100D01*
X014582Y031100D01*
X014182Y030700D01*
X012882Y030700D01*
X012582Y031000D01*
X012582Y031165D01*
X012547Y031200D01*
X012447Y031100D01*
X012182Y031100D01*
X011582Y031700D01*
X011582Y032049D01*
X010782Y031800D02*
X010716Y031800D01*
X010416Y031500D01*
X010782Y031800D02*
X010782Y032500D01*
X010882Y032600D01*
X012582Y032600D01*
X012682Y032500D01*
X012682Y032049D01*
X013482Y031900D02*
X013482Y033100D01*
X013682Y033300D01*
X014131Y033300D01*
X014131Y033602D01*
X013433Y034300D01*
X013983Y034750D01*
X014758Y034750D01*
X014808Y034700D01*
X014758Y034250D02*
X015332Y034250D01*
X015582Y034000D01*
X016082Y033600D02*
X016082Y034600D01*
X016232Y034750D01*
X016805Y034750D01*
X016805Y034250D02*
X016873Y034182D01*
X016873Y032321D01*
X015312Y032321D01*
X015233Y032400D01*
X014682Y032500D02*
X014682Y033200D01*
X014782Y033300D01*
X015233Y033300D01*
X015782Y033300D01*
X016082Y033600D01*
X015932Y035250D02*
X015782Y035400D01*
X015432Y035750D01*
X014758Y035750D01*
X014758Y035250D02*
X013483Y035250D01*
X013433Y035200D01*
X012982Y035200D01*
X012882Y035100D01*
X012882Y034400D01*
X012782Y034300D01*
X012331Y034300D01*
X012133Y033700D02*
X011682Y033700D01*
X011330Y034052D01*
X011330Y035521D01*
X012082Y036100D02*
X011782Y036400D01*
X012082Y036100D02*
X012447Y036100D01*
X013116Y036100D02*
X013116Y036065D01*
X013156Y036026D01*
X012331Y035200D01*
X013156Y036026D02*
X013531Y036400D01*
X015882Y036400D01*
X016234Y036752D01*
X016234Y037879D01*
X017182Y038700D02*
X013682Y038700D01*
X012982Y038000D01*
X012182Y036800D02*
X011582Y037400D01*
X011582Y037870D01*
X011290Y037879D01*
X012182Y036800D02*
X014582Y036800D01*
X014982Y037200D01*
X014982Y038000D01*
X016805Y035750D02*
X016855Y035700D01*
X017747Y035700D01*
X017882Y035565D01*
X017882Y036100D01*
X017582Y036400D01*
X018416Y036435D02*
X018416Y035700D01*
X019131Y035700D02*
X019131Y036449D01*
X019782Y037100D01*
X019782Y037727D01*
X019834Y037779D01*
X019778Y037835D01*
X018882Y037835D01*
X018882Y037165D02*
X018882Y036900D01*
X018682Y036700D01*
X018416Y036435D01*
X017690Y037879D02*
X017690Y038191D01*
X017182Y038700D01*
X019782Y035700D02*
X020233Y035700D01*
X020482Y035700D01*
X021032Y035150D01*
X021658Y035150D01*
X021658Y034650D02*
X020383Y034650D01*
X020233Y034800D01*
X019682Y034900D02*
X019682Y035600D01*
X019782Y035700D01*
X019682Y034900D02*
X019582Y034800D01*
X019131Y034800D01*
X019816Y034200D02*
X019316Y033800D01*
X019816Y034200D02*
X021282Y034200D01*
X021432Y034150D01*
X021658Y034150D01*
X021658Y033676D01*
X021582Y033600D01*
X021033Y032900D02*
X022794Y032900D01*
X022903Y033009D01*
X022882Y033030D01*
X022882Y034300D01*
X022532Y034650D01*
X021658Y034650D01*
X021658Y035650D02*
X021708Y035700D01*
X022382Y035700D01*
X022682Y035400D01*
X022932Y035150D01*
X023705Y035150D01*
X023755Y034700D02*
X023705Y034650D01*
X024132Y034650D01*
X024582Y035100D01*
X024682Y035100D01*
X025282Y035500D02*
X025282Y034651D01*
X024782Y034151D01*
X024733Y034151D01*
X024282Y033700D01*
X024282Y032700D01*
X024382Y032600D01*
X025455Y032600D01*
X025732Y032876D01*
X025782Y032926D01*
X025782Y033200D01*
X026232Y032876D02*
X026232Y032250D01*
X026082Y032100D01*
X025116Y032100D01*
X024447Y032100D02*
X024447Y031635D01*
X024582Y031500D01*
X025482Y031500D01*
X026047Y031500D01*
X026716Y031500D02*
X026732Y031815D01*
X026732Y032876D01*
X027232Y032876D02*
X028232Y033850D01*
X028482Y034100D01*
X029982Y034100D01*
X030582Y034500D01*
X031033Y034500D01*
X031182Y034549D01*
X031460Y034328D01*
X031460Y033548D01*
X031501Y032251D02*
X031460Y032091D01*
X031501Y032251D02*
X029482Y032251D01*
X028582Y032251D02*
X028582Y032813D01*
X029060Y033291D01*
X029060Y034748D02*
X029060Y035221D01*
X028882Y035400D01*
X027708Y035400D01*
X027232Y034924D01*
X027232Y033850D01*
X026982Y033600D01*
X025382Y033600D01*
X024831Y033049D01*
X024782Y033049D01*
X023682Y032700D02*
X023682Y034126D01*
X023705Y034150D01*
X023682Y032700D02*
X023282Y032300D01*
X022282Y032300D01*
X021973Y031991D01*
X021664Y032000D01*
X021033Y032000D01*
X021973Y031991D02*
X021973Y029821D01*
X021782Y029100D02*
X021082Y029800D01*
X020233Y029800D01*
X019682Y029249D01*
X019847Y029083D01*
X019847Y028300D01*
X019216Y028300D01*
X018547Y028300D02*
X018547Y028865D01*
X018882Y029200D01*
X018603Y030021D02*
X018330Y030021D01*
X018603Y030021D02*
X018982Y030400D01*
X019633Y030400D01*
X019682Y030351D01*
X020582Y030351D02*
X020682Y030451D01*
X020682Y031000D01*
X020582Y031100D01*
X019182Y031100D01*
X018882Y031400D01*
X018882Y032100D01*
X018660Y032321D01*
X018330Y032321D01*
X018647Y033135D02*
X019082Y033000D01*
X018647Y033135D02*
X018647Y033800D01*
X019931Y033449D02*
X019931Y032900D01*
X019931Y032000D01*
X019931Y033449D02*
X020182Y033700D01*
X022882Y031531D02*
X022903Y031552D01*
X022882Y031531D02*
X023782Y030700D01*
X023982Y030500D01*
X024431Y030500D01*
X024431Y029700D02*
X024082Y029700D01*
X023982Y029800D01*
X023451Y029800D01*
X023430Y029821D01*
X023782Y028500D02*
X022682Y027400D01*
X017382Y027400D01*
X015982Y028800D01*
X015982Y030065D01*
X015582Y030465D01*
X015547Y030500D01*
X015282Y030500D01*
X014982Y030800D01*
X014682Y030800D01*
X014382Y030500D01*
X012082Y030500D01*
X010782Y031800D01*
X009747Y031500D02*
X009082Y031500D01*
X008982Y032200D02*
X008382Y031600D01*
X007555Y031600D01*
X007505Y031550D01*
X007505Y031050D02*
X007555Y031000D01*
X008282Y031000D01*
X008482Y031000D01*
X008982Y030500D01*
X011182Y030500D01*
X012882Y028800D01*
X013931Y028800D01*
X013931Y029700D02*
X012282Y029700D01*
X011282Y030700D01*
X009282Y030700D01*
X008382Y031600D01*
X008982Y032200D02*
X008982Y032600D01*
X008682Y032900D01*
X008182Y032900D01*
X008082Y032800D01*
X007533Y032800D01*
X006682Y032549D02*
X006431Y032800D01*
X004182Y032800D01*
X003482Y033500D01*
X003482Y034000D01*
X002682Y033100D02*
X002682Y035200D01*
X003482Y036000D01*
X005082Y035951D02*
X005682Y036551D01*
X005682Y037700D01*
X005482Y037900D01*
X005482Y038551D01*
X005531Y038600D01*
X006633Y038600D02*
X007631Y038600D01*
X007631Y037425D01*
X007632Y037424D01*
X008132Y037424D02*
X008132Y036850D01*
X007882Y036600D01*
X007916Y036565D01*
X008882Y036565D01*
X008782Y036100D02*
X006982Y036100D01*
X006682Y035800D01*
X006682Y035426D01*
X006632Y035376D01*
X006582Y035326D01*
X006582Y034800D01*
X006733Y034649D01*
X006733Y034300D01*
X007282Y033900D02*
X006982Y033600D01*
X005882Y033600D01*
X005631Y033851D01*
X005631Y034300D01*
X005682Y034351D01*
X005682Y035449D01*
X005082Y035951D02*
X005082Y033700D01*
X005482Y033300D01*
X008482Y033300D01*
X008560Y033221D01*
X008873Y033221D01*
X007882Y034200D02*
X007632Y034450D01*
X007632Y035376D01*
X007132Y035376D02*
X007082Y035326D01*
X007082Y034900D01*
X007282Y034700D01*
X007282Y033900D01*
X006682Y032549D02*
X006682Y030900D01*
X006982Y030600D01*
X007455Y030600D01*
X007505Y030550D01*
X007182Y030100D02*
X006482Y030800D01*
X006482Y031600D01*
X006082Y032000D01*
X005508Y032000D01*
X005458Y032050D01*
X004083Y032050D01*
X004033Y032100D01*
X003482Y031900D02*
X003382Y032000D01*
X003031Y032000D01*
X002931Y032100D01*
X002931Y032851D01*
X002682Y033100D01*
X003482Y031900D02*
X003482Y030700D01*
X003582Y030600D01*
X004482Y030600D01*
X004482Y031200D02*
X004033Y031200D01*
X004482Y031200D02*
X004832Y031550D01*
X005458Y031550D01*
X005508Y031600D01*
X005882Y031600D01*
X006282Y031200D01*
X006282Y030700D01*
X007082Y029900D01*
X008182Y029900D01*
X008382Y030100D01*
X010982Y030100D01*
X014082Y027000D01*
X014431Y027000D01*
X014131Y027900D02*
X013482Y027900D01*
X011082Y030300D01*
X008282Y030300D01*
X008082Y030100D01*
X007182Y030100D01*
X006233Y029500D02*
X008282Y029500D01*
X008782Y029000D01*
X008782Y028500D01*
X009082Y028200D01*
X009455Y028200D01*
X009505Y028250D01*
X012132Y028250D01*
X014482Y025900D01*
X020431Y025900D01*
X020431Y025000D02*
X019782Y025000D01*
X019082Y025700D01*
X014382Y025700D01*
X012482Y027600D01*
X011031Y027600D01*
X010982Y027649D01*
X010881Y027750D01*
X009505Y027750D01*
X008382Y028600D02*
X008232Y028750D01*
X007458Y028750D01*
X006383Y028750D01*
X006233Y028600D01*
X005131Y028600D02*
X005131Y028051D01*
X005232Y027750D01*
X005131Y029500D02*
X003882Y029500D01*
X003182Y028800D01*
X002931Y031200D02*
X002382Y031200D01*
X002082Y031500D01*
X005682Y036551D02*
X006833Y036551D01*
X007082Y036800D01*
X007082Y037650D01*
X007132Y037700D01*
X007132Y037424D01*
X008882Y037235D02*
X009103Y037456D01*
X009103Y037879D01*
X008782Y038200D01*
X008782Y038551D01*
X008733Y038600D01*
X009103Y037879D02*
X009834Y037879D01*
X008782Y036100D02*
X009360Y035521D01*
X009873Y035521D01*
X010330Y033221D02*
X011512Y033221D01*
X011582Y033151D01*
X012133Y033700D02*
X012682Y033151D01*
X013482Y034251D02*
X013433Y034300D01*
X014131Y032400D02*
X014582Y032400D01*
X014682Y032500D01*
X013682Y031700D02*
X013482Y031900D01*
X013682Y031700D02*
X016582Y031700D01*
X016873Y031409D01*
X016873Y030021D01*
X015782Y029300D02*
X015382Y029700D01*
X015033Y029700D01*
X015782Y029300D02*
X015782Y028700D01*
X017282Y027200D01*
X022482Y027200D01*
X023382Y026300D01*
X023382Y024500D01*
X023717Y024165D01*
X026136Y024165D01*
X026136Y024361D02*
X024886Y024361D01*
X024482Y024765D01*
X024016Y024765D01*
X023882Y024900D01*
X024482Y025435D02*
X025147Y025435D01*
X025282Y025300D01*
X025433Y025149D01*
X026136Y025149D01*
X026136Y024952D02*
X027030Y024952D01*
X027082Y024900D01*
X026136Y024558D02*
X025440Y024558D01*
X025282Y024800D01*
X026136Y023968D02*
X023614Y023968D01*
X023182Y024400D01*
X023182Y026200D01*
X022382Y027000D01*
X017182Y027000D01*
X015382Y028800D01*
X015033Y028800D01*
X015233Y027900D02*
X015982Y027900D01*
X017082Y026800D01*
X022282Y026800D01*
X022982Y026100D01*
X022982Y024300D01*
X023511Y023771D01*
X026136Y023771D01*
X026136Y023574D02*
X023408Y023574D01*
X022782Y024200D01*
X022782Y026000D01*
X022182Y026600D01*
X016982Y026600D01*
X016582Y027000D01*
X015533Y027000D01*
X014282Y025500D02*
X018682Y025500D01*
X020082Y024100D01*
X020431Y024100D01*
X019682Y024000D02*
X019682Y023500D01*
X019982Y023200D01*
X020431Y023200D01*
X019682Y024000D02*
X018382Y025300D01*
X014182Y025300D01*
X013082Y026400D01*
X011882Y026400D01*
X011682Y026600D01*
X012082Y027000D02*
X012782Y027000D01*
X014282Y025500D01*
X011182Y022700D02*
X010312Y022700D01*
X010982Y021900D02*
X010982Y020791D01*
X011009Y020763D01*
X011009Y020507D02*
X010574Y020507D01*
X010382Y020700D01*
X010382Y020900D01*
X010282Y021000D01*
X010082Y021000D01*
X009682Y021000D01*
X009082Y021600D01*
X008616Y021600D01*
X007947Y021600D02*
X007947Y022365D01*
X007982Y022400D01*
X008282Y022700D01*
X009052Y022700D01*
X008155Y020763D02*
X007818Y020763D01*
X007182Y021400D01*
X006633Y021400D01*
X006633Y020500D02*
X008147Y020500D01*
X008155Y020507D01*
X008155Y020252D02*
X007533Y020252D01*
X007382Y020100D01*
X006782Y019900D02*
X007182Y019500D01*
X007710Y018972D01*
X008155Y018972D01*
X008155Y018716D02*
X007398Y018716D01*
X007282Y018700D01*
X007742Y018460D02*
X007382Y018100D01*
X006620Y018100D01*
X006594Y018074D01*
X005570Y018074D01*
X005570Y018723D01*
X005647Y018800D01*
X005082Y018800D01*
X005382Y019200D02*
X006251Y019200D01*
X006316Y019135D01*
X006482Y019300D01*
X006316Y019135D02*
X006316Y018800D01*
X005882Y019700D02*
X006082Y019900D01*
X006782Y019900D01*
X005882Y019700D02*
X005816Y019700D01*
X005382Y019200D02*
X005147Y019435D01*
X005147Y019700D01*
X005082Y020500D02*
X005531Y020500D01*
X005082Y020500D02*
X004882Y020700D01*
X004782Y020700D01*
X004682Y020600D01*
X004682Y018300D01*
X003682Y017300D01*
X003082Y017300D01*
X002382Y018200D02*
X002482Y018300D01*
X003082Y018300D01*
X003782Y018300D01*
X004382Y018900D01*
X004382Y020900D01*
X004882Y021400D01*
X005531Y021400D01*
X008155Y019996D02*
X009077Y019996D01*
X009082Y020000D01*
X010082Y020300D02*
X010330Y020252D01*
X011009Y020252D01*
X011013Y020000D02*
X011009Y019996D01*
X011013Y020000D02*
X011382Y020000D01*
X011482Y020100D01*
X011482Y021200D01*
X012082Y021800D01*
X012482Y021800D01*
X012582Y021300D02*
X011982Y021300D01*
X011682Y021000D01*
X011682Y019900D01*
X011521Y019740D01*
X011009Y019740D01*
X011009Y019484D02*
X011498Y019484D01*
X011582Y019400D01*
X011009Y019228D02*
X010110Y019228D01*
X010082Y019200D01*
X011009Y018972D02*
X012004Y018972D01*
X012882Y019850D01*
X013032Y019700D01*
X014447Y019700D01*
X014682Y020200D02*
X013482Y021400D01*
X013782Y021800D02*
X013082Y021800D01*
X012582Y021300D01*
X013782Y021800D02*
X014082Y021500D01*
X014082Y021100D01*
X014782Y020400D01*
X015582Y020400D01*
X015882Y020100D01*
X015882Y019300D01*
X017982Y017200D01*
X018382Y017235D01*
X017882Y017000D02*
X015682Y019200D01*
X015682Y020000D01*
X015482Y020200D01*
X014682Y020200D01*
X015116Y019700D02*
X015116Y018700D01*
X015482Y018700D01*
X015782Y018400D01*
X016233Y017600D02*
X016482Y017300D01*
X017282Y016500D01*
X017282Y016100D01*
X016808Y015626D01*
X016775Y015626D01*
X016801Y015600D01*
X016982Y015500D01*
X017482Y015000D01*
X017682Y015000D01*
X018238Y014443D01*
X018238Y014034D01*
X018042Y014034D02*
X018042Y013640D01*
X018082Y013600D01*
X021082Y013600D01*
X021191Y013709D01*
X021191Y014034D01*
X020994Y014034D02*
X020994Y014713D01*
X021182Y014900D01*
X021747Y014600D02*
X021747Y015400D01*
X022416Y015400D02*
X022416Y014600D01*
X022482Y014535D01*
X022482Y014100D01*
X022482Y013700D01*
X022294Y013513D01*
X021536Y013513D01*
X021536Y013709D02*
X021891Y013709D01*
X021982Y013900D01*
X021747Y014135D01*
X021747Y014600D01*
X020797Y014034D02*
X020797Y015781D01*
X021016Y016000D01*
X021816Y016800D01*
X021931Y016800D01*
X021482Y017500D02*
X021682Y017700D01*
X022247Y017700D01*
X022916Y017700D02*
X022916Y016917D01*
X023033Y016800D01*
X024282Y016565D02*
X024332Y015300D01*
X024032Y015000D01*
X023882Y014850D01*
X023882Y013800D01*
X023782Y013700D01*
X022982Y013700D01*
X022597Y013316D01*
X021536Y013316D01*
X021536Y013119D02*
X022863Y013119D01*
X022982Y013100D01*
X023331Y013100D01*
X022982Y012500D02*
X026782Y012500D01*
X027082Y012800D01*
X027082Y017500D01*
X026382Y018200D01*
X027282Y018000D02*
X026182Y019100D01*
X025089Y019100D01*
X025056Y019067D01*
X025082Y019041D01*
X025082Y018800D01*
X024882Y018600D01*
X021682Y018600D01*
X021472Y018810D01*
X021462Y018810D01*
X018902Y018810D01*
X017821Y018810D01*
X017782Y018849D01*
X017782Y019951D02*
X016833Y019951D01*
X016782Y019900D01*
X016582Y021000D02*
X016182Y021400D01*
X015872Y021400D01*
X015382Y020800D02*
X015291Y020800D01*
X014691Y021400D01*
X014447Y018700D02*
X013632Y018700D01*
X012882Y017950D01*
X012116Y018716D01*
X011009Y018716D01*
X011009Y018460D02*
X011521Y018460D01*
X011582Y018400D01*
X011582Y018000D01*
X011530Y017948D01*
X011009Y017948D01*
X010530Y017948D01*
X010182Y017600D01*
X010182Y017400D01*
X010116Y017335D01*
X010116Y016600D01*
X009447Y016600D02*
X009447Y017665D01*
X009982Y018200D01*
X009986Y018204D01*
X011009Y018204D01*
X011009Y017693D02*
X011489Y017693D01*
X011582Y017600D01*
X011582Y016800D01*
X011482Y016700D01*
X011009Y016927D02*
X010782Y016700D01*
X011009Y016927D02*
X011009Y017437D01*
X009082Y018200D02*
X009077Y018204D01*
X008155Y018204D01*
X008155Y017948D02*
X007630Y017948D01*
X007282Y017600D01*
X007282Y017300D01*
X006882Y017200D02*
X006882Y016749D01*
X006233Y016100D01*
X005682Y016600D02*
X005682Y015400D01*
X005633Y015351D01*
X005633Y014900D01*
X005682Y014851D01*
X005682Y014400D01*
X005282Y014000D01*
X004733Y014000D01*
X005282Y013400D02*
X005682Y013400D01*
X005883Y013198D01*
X005883Y012926D01*
X006080Y012926D02*
X006080Y012498D01*
X005982Y012400D01*
X005883Y012498D01*
X005456Y012498D01*
X005456Y012302D02*
X004518Y012302D01*
X004416Y012200D01*
X004682Y012700D02*
X002482Y012700D01*
X002482Y014000D02*
X002431Y014051D01*
X002431Y014900D01*
X002482Y015700D02*
X002382Y015800D01*
X002382Y018200D01*
X004182Y016100D02*
X003782Y015700D01*
X002482Y015700D01*
X003533Y014900D02*
X003533Y014098D01*
X003631Y014000D01*
X004531Y014900D02*
X004531Y015351D01*
X004282Y015600D01*
X004182Y016100D02*
X005131Y016100D01*
X005682Y016600D02*
X005382Y016900D01*
X005082Y016900D01*
X004882Y017100D01*
X004882Y017600D01*
X004982Y017700D01*
X005570Y017700D01*
X005570Y017326D02*
X006056Y017326D01*
X006082Y017300D01*
X006082Y016900D01*
X006594Y017326D02*
X006756Y017326D01*
X006882Y017200D01*
X007282Y016700D02*
X007582Y017000D01*
X007582Y017600D01*
X007674Y017693D01*
X008155Y017693D01*
X008155Y017437D02*
X008155Y016927D01*
X008182Y016900D01*
X008682Y016900D01*
X008782Y016800D01*
X008182Y016900D02*
X008182Y017409D01*
X008155Y017437D01*
X008182Y016900D02*
X008182Y016230D01*
X007082Y015300D02*
X007412Y014970D01*
X008182Y014970D01*
X006982Y013900D02*
X006282Y013200D01*
X006282Y012930D01*
X006277Y012926D01*
X006080Y012926D02*
X006080Y013498D01*
X006082Y013800D01*
X006882Y013300D02*
X006480Y012898D01*
X006507Y012695D02*
X007112Y012700D01*
X007282Y012800D01*
X006983Y012498D02*
X007282Y012200D01*
X007782Y012200D01*
X008082Y012600D02*
X008382Y012600D01*
X010282Y010700D01*
X015282Y010700D01*
X015929Y011347D01*
X017520Y011347D01*
X017520Y011150D02*
X016132Y011150D01*
X014082Y009100D01*
X014082Y008700D01*
X011682Y006300D01*
X009882Y006300D01*
X009682Y006100D01*
X009682Y005200D01*
X009873Y005009D01*
X010297Y005009D01*
X010297Y005481D02*
X010316Y005500D01*
X011182Y005500D01*
X014632Y008950D01*
X014682Y009100D01*
X014682Y009400D01*
X016235Y010954D01*
X017520Y010954D01*
X017520Y010757D02*
X016338Y010757D01*
X015282Y009700D01*
X015282Y009100D01*
X014782Y008500D01*
X014482Y008500D01*
X011982Y006000D01*
X011982Y005700D01*
X012582Y005400D02*
X011682Y004500D01*
X010334Y004500D01*
X010297Y004536D01*
X010351Y005900D02*
X010297Y005954D01*
X010351Y005900D02*
X010982Y005900D01*
X010705Y006623D02*
X010294Y006623D01*
X010705Y006623D02*
X010982Y006900D01*
X010382Y007600D02*
X010282Y007700D01*
X010282Y008800D01*
X010398Y008916D01*
X010675Y008916D01*
X010675Y009172D02*
X009854Y009172D01*
X009582Y008900D01*
X009582Y008500D01*
X010675Y009684D02*
X010675Y010007D01*
X010582Y010100D01*
X010382Y010900D02*
X007982Y013300D01*
X006882Y013300D01*
X006983Y012498D02*
X006507Y012498D01*
X006507Y012302D02*
X006880Y012302D01*
X007382Y011800D01*
X008182Y011800D01*
X007882Y011000D02*
X008312Y010570D01*
X008312Y010400D01*
X007052Y010400D02*
X006082Y010435D01*
X006182Y010900D02*
X005382Y010900D01*
X005182Y010700D01*
X004782Y010700D01*
X004482Y011000D01*
X005182Y010700D02*
X005182Y010435D01*
X005182Y009765D02*
X005116Y009700D01*
X004482Y009700D01*
X005882Y011300D02*
X005882Y011873D01*
X005883Y011874D01*
X005686Y011874D02*
X005686Y011605D01*
X005482Y011400D01*
X005182Y011400D01*
X006182Y012200D02*
X005982Y012400D01*
X006182Y012200D02*
X006377Y012105D01*
X006507Y012105D01*
X006480Y011902D02*
X006480Y011402D01*
X006982Y010900D01*
X006982Y010470D01*
X007052Y010400D01*
X006816Y009765D02*
X006882Y009700D01*
X006816Y009765D02*
X006082Y009765D01*
X006182Y010900D02*
X006277Y010995D01*
X006277Y011874D01*
X005456Y012695D02*
X004886Y012695D01*
X004682Y012700D01*
X003747Y012200D02*
X003747Y011835D01*
X002482Y010500D01*
X008882Y012700D02*
X008882Y013000D01*
X008882Y012700D02*
X010482Y011100D01*
X015082Y011100D01*
X015723Y011741D01*
X017520Y011741D01*
X017520Y011938D02*
X015620Y011938D01*
X014982Y011300D01*
X014482Y011300D01*
X014182Y011600D01*
X014782Y011900D02*
X015282Y011900D01*
X015516Y012135D01*
X017520Y012135D01*
X017520Y012331D02*
X015513Y012331D01*
X013782Y012300D01*
X014282Y012700D02*
X014610Y012528D01*
X017520Y012528D01*
X017520Y012725D02*
X014857Y012725D01*
X014482Y013100D01*
X013482Y013100D01*
X013482Y013800D02*
X011882Y012200D01*
X011882Y013200D02*
X012682Y014000D01*
X014482Y014000D01*
X015363Y013119D01*
X017520Y013119D01*
X017520Y013316D02*
X015466Y013316D01*
X014582Y014200D01*
X011882Y014200D01*
X013482Y013800D02*
X014382Y013800D01*
X015260Y012922D01*
X017520Y012922D01*
X017520Y013513D02*
X016834Y013513D01*
X016582Y013765D01*
X015782Y013765D01*
X015782Y014435D02*
X016582Y014435D01*
X017147Y014435D01*
X017182Y014400D01*
X017182Y013800D01*
X017272Y013709D01*
X017520Y013709D01*
X017845Y014034D02*
X017845Y014237D01*
X017682Y014400D01*
X017182Y014400D01*
X017582Y014800D02*
X016782Y014800D01*
X016382Y015200D01*
X016382Y015980D01*
X016775Y016374D01*
X015949Y016000D02*
X015882Y016000D01*
X015282Y017000D02*
X015131Y017151D01*
X015131Y017600D01*
X013982Y016500D02*
X013782Y016500D01*
X013452Y016230D01*
X013452Y015800D01*
X017582Y014800D02*
X018042Y014340D01*
X018042Y014034D01*
X018435Y014034D02*
X018435Y014546D01*
X017882Y015100D01*
X017882Y015365D01*
X018382Y014900D02*
X018382Y016565D01*
X017882Y017000D02*
X017882Y016035D01*
X018782Y015400D02*
X018782Y015100D01*
X018829Y015053D01*
X018829Y014034D01*
X019026Y014034D02*
X019026Y014344D01*
X019182Y014500D01*
X019182Y015400D01*
X019282Y015500D01*
X018982Y015600D02*
X018982Y015935D01*
X019047Y016000D01*
X019047Y017095D01*
X019252Y017300D01*
X019716Y016000D02*
X020347Y016000D01*
X019782Y015935D02*
X019716Y016000D01*
X018982Y015600D02*
X018782Y015400D01*
X018382Y014900D02*
X018632Y014650D01*
X018632Y014034D01*
X019482Y014600D02*
X019482Y014935D01*
X019547Y015000D01*
X019482Y014600D02*
X019582Y014500D01*
X019782Y014500D01*
X020282Y014500D01*
X020404Y014378D01*
X020404Y014034D01*
X020601Y014034D02*
X020601Y014616D01*
X020216Y015000D01*
X020216Y015065D01*
X021536Y012922D02*
X022460Y012922D01*
X022982Y012500D01*
X022882Y012300D02*
X026882Y012300D01*
X027282Y012700D01*
X027282Y018000D01*
X028082Y016500D02*
X027882Y016300D01*
X027882Y011500D01*
X023682Y007300D01*
X019882Y007300D01*
X019182Y008000D01*
X019182Y009500D01*
X019282Y009600D01*
X019682Y009600D01*
X019813Y009731D01*
X019813Y010038D01*
X020010Y010038D02*
X020010Y009628D01*
X019782Y009400D01*
X019482Y009400D01*
X019382Y009300D01*
X019382Y008100D01*
X019982Y007500D01*
X023582Y007500D01*
X027671Y011590D01*
X027671Y021448D01*
X027475Y021448D02*
X027475Y020693D01*
X027382Y020600D01*
X027182Y020600D01*
X027182Y020000D02*
X027482Y019700D01*
X027482Y011700D01*
X023482Y007700D01*
X020082Y007700D01*
X019582Y008200D01*
X019582Y009100D01*
X019682Y009200D01*
X019882Y009200D01*
X020207Y009525D01*
X020207Y010038D01*
X020404Y010038D02*
X020404Y009578D01*
X020382Y009200D01*
X020382Y009100D01*
X020601Y009481D02*
X020782Y009300D01*
X020782Y008900D01*
X020282Y008400D01*
X019982Y008400D01*
X020682Y008200D02*
X020982Y008500D01*
X020982Y009400D01*
X020797Y009584D01*
X020797Y010038D01*
X020601Y010038D02*
X020601Y009481D01*
X020994Y009687D02*
X020994Y010038D01*
X021191Y010038D02*
X021191Y009891D01*
X021282Y009800D01*
X021582Y009800D01*
X021682Y009900D01*
X021782Y009800D01*
X021782Y009300D01*
X021947Y009300D01*
X021882Y008700D02*
X021516Y008700D01*
X021482Y008735D01*
X021382Y008835D01*
X021382Y009300D01*
X020994Y009687D01*
X021682Y009900D02*
X021882Y010100D01*
X021982Y010100D01*
X022247Y010100D01*
X021982Y010100D02*
X021719Y010363D01*
X021536Y010363D01*
X021536Y010560D02*
X022457Y010560D01*
X022916Y010100D01*
X023425Y010757D02*
X023582Y010600D01*
X023582Y009000D01*
X023482Y008900D01*
X022582Y008900D01*
X022482Y008800D01*
X022482Y008500D01*
X022832Y008500D02*
X023382Y008500D01*
X023382Y008200D01*
X023182Y008000D01*
X021682Y008000D01*
X021616Y008065D01*
X021482Y008065D01*
X022082Y008500D02*
X021882Y008700D01*
X022082Y008500D02*
X022132Y008500D01*
X023382Y008500D02*
X023882Y008500D01*
X023982Y008600D01*
X023982Y009200D01*
X024682Y009200D01*
X026282Y010800D01*
X026282Y011300D01*
X026182Y011400D01*
X025132Y011400D01*
X024882Y011150D01*
X024932Y011100D01*
X024882Y010800D02*
X024482Y010800D01*
X024031Y011150D01*
X021536Y011150D01*
X021536Y010954D02*
X023928Y010954D01*
X024282Y010600D01*
X024282Y009800D01*
X023982Y009750D02*
X023932Y009800D01*
X023982Y009750D02*
X023982Y009200D01*
X024632Y009800D02*
X024632Y010400D01*
X024882Y010450D01*
X025332Y010450D01*
X025682Y010900D01*
X024082Y011600D02*
X023829Y011347D01*
X021536Y011347D01*
X021536Y011544D02*
X022726Y011544D01*
X023082Y011900D01*
X022882Y012300D02*
X022357Y012725D01*
X021536Y012725D01*
X021536Y012528D02*
X022153Y012528D01*
X022282Y012400D01*
X022282Y012200D01*
X021536Y010757D02*
X023425Y010757D01*
X024433Y013100D02*
X024982Y013100D01*
X025147Y013200D01*
X025147Y014215D01*
X025932Y015000D01*
X025816Y013200D02*
X026482Y013200D01*
X028782Y015500D02*
X028882Y015600D01*
X028882Y016000D01*
X029049Y016168D01*
X029049Y021448D01*
X028853Y021448D02*
X028853Y016271D01*
X028482Y015900D01*
X029246Y016065D02*
X029282Y015800D01*
X029282Y015700D01*
X029246Y016065D02*
X029246Y021448D01*
X028459Y021448D02*
X028459Y021123D01*
X028282Y020900D01*
X028262Y021448D02*
X028065Y021448D01*
X027868Y021448D02*
X027868Y020513D01*
X028082Y020300D01*
X028082Y020000D01*
X028262Y021448D02*
X028459Y021448D01*
X026884Y021448D02*
X026884Y021202D01*
X026782Y021100D01*
X026316Y021100D01*
X026316Y020535D01*
X026182Y020400D01*
X025647Y021100D02*
X025582Y021165D01*
X025582Y021800D01*
X025582Y022000D01*
X025778Y022196D01*
X026136Y022196D01*
X026136Y022590D02*
X025371Y022590D01*
X025082Y022300D01*
X025082Y019093D01*
X025056Y019067D01*
X024308Y019067D02*
X023715Y019067D01*
X023682Y019100D01*
X023247Y019535D01*
X023247Y020200D01*
X023916Y020200D02*
X023916Y020735D01*
X024082Y020900D01*
X023916Y020200D02*
X024183Y019933D01*
X024682Y019933D01*
X023412Y021700D02*
X023412Y021830D01*
X023882Y022300D01*
X023001Y023180D02*
X022382Y023800D01*
X022382Y024700D01*
X022082Y025000D01*
X021533Y025000D01*
X021533Y024100D02*
X021782Y024100D01*
X022898Y022983D01*
X026136Y022983D01*
X026136Y022787D02*
X022795Y022787D01*
X022382Y023200D01*
X021533Y023200D01*
X022582Y023900D02*
X022582Y025600D01*
X022182Y026000D01*
X021633Y026000D01*
X021533Y025900D01*
X022582Y023900D02*
X023105Y023377D01*
X026136Y023377D01*
X026136Y023180D02*
X023001Y023180D01*
X022152Y021700D02*
X022182Y021300D01*
X022582Y020900D01*
X024282Y018100D02*
X024247Y017735D01*
X024282Y017235D01*
X019518Y012036D02*
X019282Y011800D01*
X017520Y011544D02*
X015826Y011544D01*
X015182Y010900D01*
X010382Y010900D01*
X012289Y009428D02*
X013010Y009428D01*
X013382Y009800D01*
X013382Y009200D02*
X013354Y009172D01*
X012289Y009172D01*
X012289Y008916D02*
X012466Y008916D01*
X012682Y008700D01*
X012682Y008600D01*
X014582Y008300D02*
X015782Y008300D01*
X016182Y008700D01*
X016182Y009100D02*
X016382Y009100D01*
X016582Y008900D01*
X016582Y008400D01*
X016682Y008300D01*
X016582Y008200D01*
X016582Y007200D01*
X016982Y006800D01*
X017152Y006800D01*
X018412Y006800D02*
X020382Y006800D01*
X020582Y006600D01*
X021982Y005300D02*
X022582Y005300D01*
X023382Y006100D01*
X024282Y006100D01*
X026191Y006500D02*
X026231Y006461D01*
X026231Y005600D01*
X027333Y005600D02*
X028182Y005600D01*
X028282Y005500D01*
X028782Y006500D02*
X027372Y006500D01*
X026231Y007900D02*
X026191Y007939D01*
X026191Y008800D01*
X027372Y008800D02*
X028282Y008800D01*
X028782Y009300D01*
X018042Y009206D02*
X018016Y009200D01*
X018042Y009206D02*
X018042Y010038D01*
X017845Y010038D02*
X017845Y009863D01*
X017682Y009700D01*
X017282Y009700D01*
X017082Y009900D01*
X017082Y010300D01*
X017145Y010363D01*
X017520Y010363D01*
X017520Y010560D02*
X016942Y010560D01*
X016318Y009937D01*
X016318Y009863D01*
X016682Y009500D01*
X016682Y009400D01*
X017282Y009265D02*
X017347Y009200D01*
X017247Y009100D01*
X017347Y009200D02*
X017347Y008400D01*
X016782Y008400D01*
X016682Y008300D01*
X016182Y009100D02*
X015845Y009437D01*
X015845Y009463D01*
X017282Y009265D02*
X017282Y009700D01*
X014582Y008300D02*
X012582Y006300D01*
X012582Y005400D01*
X013982Y004200D02*
X011082Y001300D01*
X009282Y001300D01*
X009116Y001465D01*
X009116Y001702D01*
X009589Y001702D02*
X009680Y001702D01*
X009682Y001700D01*
X009782Y001700D01*
X009982Y001500D01*
X010882Y001500D01*
X014482Y005100D01*
X014482Y005200D01*
X014482Y004200D02*
X013982Y004200D01*
X014482Y003200D02*
X013382Y003200D01*
X011282Y001100D01*
X008982Y001100D01*
X008644Y001438D01*
X008644Y001702D01*
X008171Y001702D02*
X008171Y001310D01*
X008582Y000900D01*
X011482Y000900D01*
X012782Y002200D01*
X014482Y002200D01*
X011082Y002400D02*
X010659Y001977D01*
X010297Y001977D01*
X008155Y018460D02*
X007742Y018460D01*
X008282Y028000D02*
X008032Y028250D01*
X007458Y028250D01*
X010882Y029600D02*
X010982Y029500D01*
X010982Y028751D01*
X013216Y031200D02*
X013982Y031200D01*
X015932Y035250D02*
X016805Y035250D01*
X021290Y037779D02*
X021612Y038100D01*
X023082Y038100D01*
X022982Y036700D02*
X023382Y036300D01*
X023847Y036300D01*
X023705Y036158D01*
X023705Y035650D01*
X024516Y036300D02*
X024982Y036300D01*
X025182Y036500D01*
X025982Y035700D02*
X025732Y035450D01*
X025732Y034924D01*
X026232Y034924D02*
X026232Y034050D01*
X026182Y034000D01*
X025782Y034000D01*
X026682Y034100D02*
X026732Y034150D01*
X026732Y034924D01*
X025982Y035700D02*
X030282Y035700D01*
X030282Y035651D01*
X031182Y035651D01*
X030282Y035700D02*
X030282Y036351D01*
X030233Y036400D01*
X029131Y036400D02*
X029131Y036649D01*
X030082Y037600D01*
X030082Y038100D01*
X028082Y038100D02*
X028082Y036449D01*
X028033Y036400D01*
X027182Y036500D02*
X027031Y036500D01*
X026931Y036400D01*
X027082Y036400D01*
X027182Y036500D01*
X026931Y036400D02*
X026182Y036400D01*
X025282Y035500D01*
X027382Y031100D02*
X027582Y031100D01*
X027382Y031100D02*
X027016Y030735D01*
X027016Y030500D01*
X027382Y030100D02*
X026382Y030100D01*
X026347Y030135D01*
X026347Y030500D01*
X025533Y030500D01*
X025533Y029700D02*
X026347Y029700D01*
X026347Y028835D01*
X026482Y028700D01*
X027347Y028700D01*
X027382Y028665D01*
X027382Y028400D01*
X028459Y027323D01*
X028459Y025897D01*
X028656Y025897D02*
X028656Y028061D01*
X028016Y028700D01*
X027582Y029135D01*
X027582Y029900D01*
X027382Y030100D01*
X027016Y029700D02*
X027016Y029265D01*
X026782Y029100D01*
X026682Y028200D02*
X025782Y029100D01*
X021782Y029100D01*
X021782Y028900D02*
X021282Y028400D01*
X021282Y028135D01*
X021247Y028100D01*
X020982Y028100D01*
X020782Y028300D01*
X020516Y028300D01*
X020516Y029183D01*
X020582Y029249D01*
X021782Y028900D02*
X025682Y028900D01*
X026582Y028000D01*
X027182Y028000D01*
X028065Y027117D01*
X028065Y025897D01*
X028262Y025897D02*
X028262Y027220D01*
X027282Y028200D01*
X026682Y028200D01*
X026982Y027600D02*
X026382Y027600D01*
X025482Y028500D01*
X023782Y028500D01*
X024782Y027730D02*
X025852Y027730D01*
X026282Y027300D01*
X026782Y026735D01*
X026716Y026700D01*
X027082Y026700D01*
X027475Y026307D01*
X027475Y025897D01*
X027278Y025897D01*
X027671Y025897D02*
X027671Y026910D01*
X026982Y027600D01*
X026047Y026700D02*
X026047Y026265D01*
X025782Y026000D01*
X025312Y026470D01*
X024782Y026470D01*
X022682Y028300D02*
X022482Y028100D01*
X021916Y028100D01*
X028047Y029535D02*
X028182Y029400D01*
X028047Y029535D02*
X028047Y030200D01*
X028582Y030600D02*
X028682Y030500D01*
X028682Y030235D01*
X028716Y030200D01*
X028747Y030169D01*
X028747Y029300D01*
X028782Y029265D01*
X028782Y028900D01*
X028853Y028829D01*
X028853Y025897D01*
X029049Y025897D02*
X029049Y028868D01*
X029382Y029100D01*
X029382Y029265D01*
X029416Y029300D01*
X029416Y029665D01*
X029282Y029800D01*
X029282Y030135D01*
X029347Y030200D01*
X029347Y030565D01*
X029482Y030700D01*
X029482Y031149D01*
X030016Y030200D02*
X030016Y029565D01*
X030082Y029500D01*
X028582Y030600D02*
X028582Y031149D01*
X033333Y028400D02*
X033782Y028400D01*
X034232Y028950D01*
X036181Y028950D01*
X036482Y029151D01*
X035732Y029624D02*
X035732Y031050D01*
X035282Y031500D01*
X033882Y031500D01*
X033582Y031800D01*
X033582Y032600D01*
X034482Y030800D02*
X034732Y030550D01*
X034732Y029624D01*
X034232Y029624D02*
X034232Y028950D01*
X034232Y027576D02*
X033409Y027576D01*
X033333Y027500D01*
X033382Y027451D01*
X033382Y026600D01*
X034282Y026700D02*
X034732Y027150D01*
X034732Y027576D01*
X035732Y027576D02*
X036204Y028049D01*
X036482Y028049D01*
X037031Y028049D01*
X037182Y028200D01*
X037182Y030000D01*
X035582Y031600D01*
X035582Y032600D01*
X036133Y026700D02*
X034882Y026700D01*
X034733Y026551D01*
X034733Y025800D01*
X034733Y025451D01*
X034582Y025300D01*
X034282Y025300D01*
X035032Y025150D02*
X035032Y024424D01*
X035282Y025000D02*
X035531Y025249D01*
X036482Y025249D01*
X035582Y025700D02*
X035582Y026000D01*
X035582Y025700D02*
X035032Y025150D01*
X036482Y026351D02*
X036133Y026700D01*
X030782Y025149D02*
X030585Y025149D01*
D48*
X030782Y025700D03*
X030382Y026300D03*
X030882Y026900D03*
X031482Y027900D03*
X032082Y026400D03*
X033382Y026600D03*
X034282Y026700D03*
X035582Y026000D03*
X036282Y027300D03*
X034782Y028500D03*
X035182Y030600D03*
X034482Y030800D03*
X032582Y031200D03*
X030582Y031200D03*
X030082Y029500D03*
X029582Y027800D03*
X028182Y029400D03*
X026782Y029100D03*
X027582Y031100D03*
X027382Y031900D03*
X025482Y031500D03*
X025782Y034000D03*
X026682Y034100D03*
X027882Y034400D03*
X025182Y036500D03*
X024682Y035100D03*
X022982Y036700D03*
X022682Y035400D03*
X021582Y033600D03*
X020182Y033700D03*
X019082Y033000D03*
X017582Y036400D03*
X018682Y036700D03*
X015782Y035400D03*
X015582Y034000D03*
X013982Y031200D03*
X012682Y030100D03*
X010882Y029600D03*
X010282Y029700D03*
X009582Y029400D03*
X008382Y028600D03*
X008282Y028000D03*
X009282Y026300D03*
X010382Y027100D03*
X011682Y026600D03*
X012082Y027000D03*
X011382Y024600D03*
X012532Y024450D03*
X012582Y023400D03*
X011182Y022700D03*
X012482Y021800D03*
X013482Y021400D03*
X015382Y020800D03*
X016582Y021000D03*
X016782Y019900D03*
X015782Y018400D03*
X015682Y017000D03*
X013982Y016500D03*
X011582Y019400D03*
X010082Y019200D03*
X009082Y020000D03*
X010082Y020300D03*
X010082Y021000D03*
X007982Y022400D03*
X007382Y020100D03*
X007182Y019500D03*
X006482Y019300D03*
X007282Y018700D03*
X009082Y018200D03*
X009982Y018200D03*
X010182Y017400D03*
X008782Y016800D03*
X007082Y015300D03*
X006982Y013900D03*
X006082Y013800D03*
X005282Y013400D03*
X005182Y011400D03*
X005882Y011300D03*
X004482Y011000D03*
X004482Y009700D03*
X004082Y007800D03*
X002282Y007800D03*
X002982Y005400D03*
X002282Y000900D03*
X007782Y008900D03*
X006882Y009700D03*
X007882Y011000D03*
X008082Y012600D03*
X007282Y012800D03*
X008882Y013000D03*
X010582Y010100D03*
X009582Y008500D03*
X010382Y007600D03*
X010982Y006900D03*
X010982Y005900D03*
X011982Y005700D03*
X012682Y008600D03*
X013382Y009200D03*
X013382Y009800D03*
X014632Y008950D03*
X015282Y009100D03*
X016182Y008700D03*
X016682Y008300D03*
X016682Y009400D03*
X017282Y009700D03*
X018782Y008600D03*
X019982Y008400D03*
X020682Y008200D03*
X020382Y009100D03*
X021382Y009300D03*
X021682Y009900D03*
X023182Y009400D03*
X023382Y008500D03*
X021982Y006800D03*
X021982Y005300D03*
X020582Y006600D03*
X020282Y011300D03*
X019782Y011300D03*
X019282Y011300D03*
X019282Y011800D03*
X019782Y011800D03*
X020282Y011800D03*
X020282Y012300D03*
X020282Y012800D03*
X019782Y012800D03*
X019782Y012300D03*
X019282Y012300D03*
X019282Y012800D03*
X018782Y012800D03*
X018782Y012300D03*
X018782Y011800D03*
X018782Y011300D03*
X019782Y014500D03*
X018782Y015100D03*
X017182Y014400D03*
X014782Y011900D03*
X014182Y011600D03*
X013782Y012300D03*
X014282Y012700D03*
X013482Y013100D03*
X006082Y016900D03*
X005082Y018800D03*
X004282Y015600D03*
X002482Y014000D03*
X005382Y023100D03*
X004982Y026700D03*
X004482Y027900D03*
X003082Y029600D03*
X004282Y030100D03*
X002082Y031500D03*
X004582Y035000D03*
X004782Y036700D03*
X006082Y037400D03*
X007882Y036600D03*
X008882Y035100D03*
X007882Y034200D03*
X008482Y032400D03*
X009082Y031500D03*
X008282Y031000D03*
X010582Y035000D03*
X011782Y036400D03*
X018882Y029200D03*
X022682Y028300D03*
X023982Y027100D03*
X025282Y025300D03*
X025282Y024800D03*
X025782Y026000D03*
X026382Y025700D03*
X027082Y024900D03*
X027782Y025100D03*
X029882Y025100D03*
X029882Y024200D03*
X031282Y023100D03*
X032282Y024400D03*
X031482Y025200D03*
X033882Y023600D03*
X034482Y023200D03*
X036182Y023800D03*
X034782Y021100D03*
X035582Y020200D03*
X033282Y016900D03*
X030682Y020500D03*
X029982Y020100D03*
X028282Y020900D03*
X028082Y020000D03*
X027182Y020000D03*
X027182Y020600D03*
X026182Y020400D03*
X025582Y021800D03*
X026982Y022100D03*
X023882Y022300D03*
X024082Y020900D03*
X022582Y020900D03*
X023682Y019100D03*
X024282Y018100D03*
X026382Y018200D03*
X028082Y016500D03*
X028482Y015900D03*
X028782Y015500D03*
X029282Y015700D03*
X026482Y013200D03*
X025682Y010900D03*
X024082Y011600D03*
X023082Y011900D03*
X022282Y012200D03*
X021982Y013900D03*
X021182Y014900D03*
X022982Y014100D03*
X021482Y017500D03*
X023882Y024900D03*
X031182Y021800D03*
X031982Y021600D03*
X028282Y005500D03*
X011082Y002400D03*
X025182Y038600D03*
D49*
X025352Y038430D01*
X025982Y038430D01*
X025982Y037170D02*
X023452Y037170D01*
X022982Y036700D01*
X024612Y027730D02*
X023982Y027100D01*
X024612Y027730D02*
X024782Y027730D01*
X020782Y022400D02*
X019882Y022400D01*
X019282Y023000D01*
X019282Y023600D01*
X018482Y024400D01*
X018233Y024400D01*
X018133Y024500D01*
X017031Y024500D02*
X016682Y024500D01*
X016282Y024100D01*
X016282Y022300D01*
X017682Y022800D02*
X018382Y022800D01*
X019382Y021800D01*
X019791Y021800D01*
X020782Y022400D02*
X020972Y022209D01*
X020972Y021800D01*
X021482Y017500D02*
X021282Y017300D01*
X020512Y017300D01*
X019716Y016505D01*
X019716Y016000D01*
X019782Y015935D02*
X019782Y015500D01*
X020216Y015065D01*
X019782Y015500D02*
X019282Y015500D01*
X016775Y016374D02*
X016149Y017000D01*
X015682Y017000D01*
X015949Y016000D02*
X015949Y015744D01*
X015582Y015377D01*
X015134Y015377D01*
X014712Y015800D01*
X015205Y015023D02*
X014882Y014700D01*
X015205Y015023D02*
X015582Y015023D01*
X015382Y007100D02*
X013982Y007100D01*
X013482Y006600D01*
X013482Y005000D01*
X012073Y003591D01*
X010297Y003591D01*
X010297Y004064D01*
X007782Y008900D02*
X007782Y009600D01*
X006982Y010400D01*
X006982Y010900D01*
X015382Y007100D02*
X017282Y005200D01*
X018452Y005200D01*
X018452Y004030D01*
X018762Y003720D01*
X019672Y003720D01*
X020582Y003720D02*
X020582Y002700D01*
X020782Y002500D01*
X023682Y002500D01*
X024282Y003100D01*
X024282Y005100D02*
X023582Y005100D01*
X022202Y003720D01*
X021492Y003720D01*
X020582Y003720D02*
X020582Y004900D01*
X020282Y005200D01*
X019712Y005200D01*
X021982Y006800D02*
X025182Y006800D01*
X025582Y007200D01*
X027082Y007200D01*
X027282Y007400D01*
X027282Y007849D01*
X027333Y007900D01*
X028382Y007900D01*
X029782Y009300D01*
X009505Y027250D02*
X008932Y027250D01*
X008382Y026700D01*
X005882Y026700D01*
X004982Y025800D01*
X002482Y025800D01*
X002282Y026000D01*
X002282Y028500D01*
X002582Y028800D01*
X003182Y028800D01*
X003182Y026800D02*
X004282Y026800D01*
X005232Y027750D01*
X007458Y027750D01*
X007505Y032050D02*
X008132Y032050D01*
X008482Y032400D01*
D50*
X014882Y014700D03*
D51*
X016782Y021800D02*
X017682Y021800D01*
X016782Y021800D02*
X016282Y022300D01*
X013682Y022300D01*
X012582Y023400D01*
X011382Y024600D01*
X006182Y024600D01*
X004182Y022600D01*
X003182Y022600D01*
X003182Y024600D02*
X005382Y024600D01*
X005882Y025100D01*
X011882Y025100D01*
X012532Y024450D01*
X013782Y023200D01*
X014382Y023200D01*
X029782Y009300D02*
X031882Y011400D01*
X034882Y011400D01*
X035682Y013100D02*
X035682Y006300D01*
X034882Y005500D01*
X033882Y006500D01*
X029782Y006500D01*
X029782Y005900D01*
X028482Y004600D01*
X025482Y004600D01*
X024982Y005100D01*
X024282Y005100D01*
X029782Y003600D02*
X029882Y003500D01*
X034882Y003500D01*
X035682Y013100D02*
X035382Y013400D01*
X034882Y013400D01*
M02*
