G75*
%MOIN*%
%OFA0B0*%
%FSLAX24Y24*%
%IPPOS*%
%LPD*%
%AMOC8*
5,1,8,0,0,1.08239X$1,22.5*
%
%ADD10R,0.0870X0.0240*%
%ADD11R,0.0630X0.0709*%
%ADD12R,0.0709X0.0630*%
%ADD13R,0.0551X0.0630*%
%ADD14R,0.0236X0.0866*%
%ADD15R,0.0880X0.0480*%
%ADD16R,0.0866X0.1417*%
%ADD17R,0.0591X0.0197*%
%ADD18R,0.0197X0.0591*%
%ADD19R,0.0433X0.0394*%
%ADD20R,0.0394X0.0433*%
%ADD21R,0.0354X0.0315*%
D10*
X005766Y019608D03*
X005766Y020108D03*
X005766Y020608D03*
X005766Y021108D03*
X007826Y021108D03*
X007826Y020608D03*
X007826Y020108D03*
X007826Y019608D03*
D11*
X004447Y020858D03*
X003345Y020858D03*
X011045Y011258D03*
X011045Y010458D03*
X012147Y010458D03*
X012147Y011258D03*
D12*
X007896Y017007D03*
X007896Y018109D03*
X007096Y018109D03*
X007096Y017007D03*
X004796Y016709D03*
X004796Y015607D03*
D13*
X002845Y005258D03*
X003947Y005258D03*
X011745Y012858D03*
X012847Y012858D03*
D14*
X010446Y015235D03*
X009946Y015235D03*
X009446Y015235D03*
X008946Y015235D03*
X008946Y017282D03*
X009446Y017282D03*
X009946Y017282D03*
X010446Y017282D03*
D15*
X011476Y015968D03*
X011476Y015058D03*
X011476Y014148D03*
D16*
X013916Y015058D03*
D17*
X009980Y009933D03*
X009980Y009618D03*
X009980Y009303D03*
X009980Y008988D03*
X009980Y008673D03*
X009980Y008358D03*
X009980Y008043D03*
X009980Y007728D03*
X009980Y007413D03*
X009980Y007098D03*
X009980Y006783D03*
X005413Y006783D03*
X005413Y007098D03*
X005413Y007413D03*
X005413Y007728D03*
X005413Y008043D03*
X005413Y008358D03*
X005413Y008673D03*
X005413Y008988D03*
X005413Y009303D03*
X005413Y009618D03*
X005413Y009933D03*
D18*
X006121Y010642D03*
X006436Y010642D03*
X006751Y010642D03*
X007066Y010642D03*
X007381Y010642D03*
X007696Y010642D03*
X008011Y010642D03*
X008326Y010642D03*
X008641Y010642D03*
X008956Y010642D03*
X009271Y010642D03*
X009271Y006075D03*
X008956Y006075D03*
X008641Y006075D03*
X008326Y006075D03*
X008011Y006075D03*
X007696Y006075D03*
X007381Y006075D03*
X007066Y006075D03*
X006751Y006075D03*
X006436Y006075D03*
X006121Y006075D03*
D19*
X008161Y005058D03*
X008831Y005058D03*
X007031Y012858D03*
X006361Y012858D03*
D20*
X004196Y007893D03*
X004196Y007224D03*
X011596Y008824D03*
X011596Y009493D03*
D21*
X004490Y017484D03*
X004490Y018232D03*
X003663Y017858D03*
M02*
