G75*
%MOIN*%
%OFA0B0*%
%FSLAX24Y24*%
%IPPOS*%
%LPD*%
%AMOC8*
5,1,8,0,0,1.08239X$1,22.5*
%
%ADD10R,0.0820X0.0820*%
%ADD11C,0.0820*%
%ADD12R,0.0710X0.0631*%
%ADD13R,0.0789X0.0710*%
%ADD14R,0.0710X0.0789*%
%ADD15C,0.1380*%
%ADD16OC8,0.0820*%
%ADD17R,0.0880X0.0880*%
%ADD18C,0.0880*%
%ADD19R,0.0880X0.1480*%
%ADD20R,0.0580X0.0659*%
%ADD21C,0.0730*%
%ADD22R,0.0730X0.0730*%
%ADD23R,0.0555X0.0555*%
%ADD24R,0.0516X0.0516*%
%ADD25R,0.0476X0.0476*%
%ADD26R,0.0611X0.0611*%
D10*
X001496Y011458D03*
X004496Y022858D03*
X007996Y022858D03*
X013496Y008358D03*
D11*
X013496Y009358D03*
X013496Y010358D03*
X013496Y011358D03*
X012796Y006858D03*
X012796Y005858D03*
X012796Y003858D03*
X012796Y002858D03*
X005996Y016058D03*
X005996Y017058D03*
X005996Y018058D03*
X004396Y019758D03*
X003396Y019758D03*
X003496Y022858D03*
X002496Y022858D03*
X001196Y023258D03*
X001196Y022258D03*
X005996Y022858D03*
X006996Y022858D03*
X001496Y010458D03*
X001496Y009458D03*
X001496Y008458D03*
X001496Y007458D03*
X001496Y006458D03*
D12*
X006796Y019607D03*
X006796Y020709D03*
D13*
X007896Y015409D03*
X007896Y014307D03*
X002496Y012009D03*
X002496Y010907D03*
D14*
X010645Y005858D03*
X010645Y004958D03*
X011747Y004958D03*
X011747Y005858D03*
X012147Y008658D03*
X012147Y009558D03*
X011045Y009558D03*
X011045Y008658D03*
D15*
X001596Y003358D03*
X010196Y003358D03*
X001496Y020458D03*
X013096Y022358D03*
D16*
X009996Y012958D03*
X009996Y011958D03*
X008996Y011958D03*
X008996Y012958D03*
X007996Y012958D03*
X007996Y011958D03*
X008296Y003858D03*
X008296Y002858D03*
X007296Y002858D03*
X007296Y003858D03*
X006296Y003858D03*
X006296Y002858D03*
X005296Y002858D03*
X005296Y003858D03*
X004296Y003858D03*
X004296Y002858D03*
X002596Y013858D03*
X002596Y014858D03*
X002596Y015858D03*
X002596Y016858D03*
X002596Y017858D03*
X001596Y017858D03*
X001596Y016858D03*
X001596Y015858D03*
X001596Y014858D03*
X001596Y013858D03*
D17*
X010996Y022458D03*
D18*
X009618Y022458D03*
D19*
X011296Y015358D03*
X013296Y015358D03*
D20*
X013243Y016958D03*
X011550Y016958D03*
D21*
X010796Y019458D03*
X013396Y018358D03*
D22*
X012396Y018358D03*
X009796Y019458D03*
D23*
X011196Y018158D03*
X008896Y014358D03*
X001696Y012458D03*
D24*
X004696Y009058D03*
X006296Y007958D03*
X007796Y007058D03*
X008796Y008758D03*
X007796Y009358D03*
X004696Y005558D03*
X002396Y006858D03*
X011696Y011958D03*
D25*
X007296Y007258D03*
X006796Y007058D03*
X003596Y008958D03*
X003096Y008858D03*
X006696Y014758D03*
X007096Y015258D03*
X005996Y018958D03*
X006596Y021758D03*
X005096Y021758D03*
X003496Y018558D03*
X008796Y020358D03*
D26*
X003896Y012758D03*
M02*
