%
M48
M72
T01C0.0236
T02C0.0276
T03C0.0315
T04C0.0320
T05C0.0354
T06C0.0400
T07C0.0472
T08C0.1300
%
T01
X3096Y8858
X3596Y8958
X6796Y7058
X7296Y7258
X6696Y14758
X7096Y15258
X5996Y18958
X6596Y21758
X5096Y21758
X3496Y18558
X8796Y20358
T02
X9796Y19458
X10796Y19458
X12396Y18358
X13396Y18358
X11696Y11958
X8796Y8758
X7796Y9358
X6296Y7958
X7796Y7058
X4696Y5558
X4696Y9058
X2396Y6858
T03
X1696Y12458
X8896Y14358
X11196Y18158
T04
X12796Y6858
X12796Y5858
X12796Y3858
X12796Y2858
T05
X3896Y12758
T06
X2596Y13858
X2596Y14858
X2596Y15858
X2596Y16858
X2596Y17858
X1596Y17858
X1596Y16858
X1596Y15858
X1596Y14858
X1596Y13858
X1496Y11458
X1496Y10458
X1496Y9458
X1496Y8458
X1496Y7458
X1496Y6458
X4296Y3858
X4296Y2858
X5296Y2858
X5296Y3858
X6296Y3858
X6296Y2858
X7296Y2858
X7296Y3858
X8296Y3858
X8296Y2858
X13496Y8358
X13496Y9358
X13496Y10358
X13496Y11358
X9996Y11958
X9996Y12958
X8996Y12958
X8996Y11958
X7996Y11958
X7996Y12958
X5996Y16058
X5996Y17058
X5996Y18058
X4396Y19758
X3396Y19758
X3496Y22858
X2496Y22858
X1196Y23258
X1196Y22258
X4496Y22858
X5996Y22858
X6996Y22858
X7996Y22858
T07
X9618Y22458
X10996Y22458
T08
X1596Y3358
X10196Y3358
X1496Y20458
X13096Y22358
M30
