G75*
%MOIN*%
%OFA0B0*%
%FSLAX24Y24*%
%IPPOS*%
%LPD*%
%AMOC8*
5,1,8,0,0,1.08239X$1,22.5*
%
%ADD10C,0.0000*%
%ADD11R,0.0870X0.0240*%
%ADD12R,0.0740X0.0740*%
%ADD13C,0.0740*%
%ADD14R,0.0630X0.0709*%
%ADD15R,0.0709X0.0630*%
%ADD16C,0.0500*%
%ADD17OC8,0.0740*%
%ADD18R,0.0551X0.0630*%
%ADD19R,0.0800X0.0800*%
%ADD20C,0.0800*%
%ADD21R,0.0236X0.0866*%
%ADD22C,0.0650*%
%ADD23R,0.0650X0.0650*%
%ADD24R,0.0880X0.0480*%
%ADD25R,0.0866X0.1417*%
%ADD26R,0.0591X0.0197*%
%ADD27R,0.0197X0.0591*%
%ADD28R,0.0433X0.0394*%
%ADD29R,0.0394X0.0433*%
%ADD30R,0.0354X0.0315*%
%ADD31C,0.0240*%
%ADD32R,0.0475X0.0475*%
%ADD33C,0.0120*%
%ADD34R,0.0436X0.0436*%
%ADD35C,0.0160*%
%ADD36R,0.0396X0.0396*%
%ADD37C,0.0400*%
%ADD38C,0.0320*%
%ADD39R,0.0531X0.0531*%
D10*
X000100Y001858D02*
X014596Y001858D01*
X014596Y024228D01*
X000100Y024228D01*
X000100Y001858D01*
X000946Y003358D02*
X000948Y003408D01*
X000954Y003458D01*
X000964Y003508D01*
X000977Y003556D01*
X000994Y003604D01*
X001015Y003650D01*
X001039Y003694D01*
X001067Y003736D01*
X001098Y003776D01*
X001132Y003813D01*
X001169Y003848D01*
X001208Y003879D01*
X001249Y003908D01*
X001293Y003933D01*
X001339Y003955D01*
X001386Y003973D01*
X001434Y003987D01*
X001483Y003998D01*
X001533Y004005D01*
X001583Y004008D01*
X001634Y004007D01*
X001684Y004002D01*
X001734Y003993D01*
X001782Y003981D01*
X001830Y003964D01*
X001876Y003944D01*
X001921Y003921D01*
X001964Y003894D01*
X002004Y003864D01*
X002042Y003831D01*
X002077Y003795D01*
X002110Y003756D01*
X002139Y003715D01*
X002165Y003672D01*
X002188Y003627D01*
X002207Y003580D01*
X002222Y003532D01*
X002234Y003483D01*
X002242Y003433D01*
X002246Y003383D01*
X002246Y003333D01*
X002242Y003283D01*
X002234Y003233D01*
X002222Y003184D01*
X002207Y003136D01*
X002188Y003089D01*
X002165Y003044D01*
X002139Y003001D01*
X002110Y002960D01*
X002077Y002921D01*
X002042Y002885D01*
X002004Y002852D01*
X001964Y002822D01*
X001921Y002795D01*
X001876Y002772D01*
X001830Y002752D01*
X001782Y002735D01*
X001734Y002723D01*
X001684Y002714D01*
X001634Y002709D01*
X001583Y002708D01*
X001533Y002711D01*
X001483Y002718D01*
X001434Y002729D01*
X001386Y002743D01*
X001339Y002761D01*
X001293Y002783D01*
X001249Y002808D01*
X001208Y002837D01*
X001169Y002868D01*
X001132Y002903D01*
X001098Y002940D01*
X001067Y002980D01*
X001039Y003022D01*
X001015Y003066D01*
X000994Y003112D01*
X000977Y003160D01*
X000964Y003208D01*
X000954Y003258D01*
X000948Y003308D01*
X000946Y003358D01*
X009546Y003358D02*
X009548Y003408D01*
X009554Y003458D01*
X009564Y003508D01*
X009577Y003556D01*
X009594Y003604D01*
X009615Y003650D01*
X009639Y003694D01*
X009667Y003736D01*
X009698Y003776D01*
X009732Y003813D01*
X009769Y003848D01*
X009808Y003879D01*
X009849Y003908D01*
X009893Y003933D01*
X009939Y003955D01*
X009986Y003973D01*
X010034Y003987D01*
X010083Y003998D01*
X010133Y004005D01*
X010183Y004008D01*
X010234Y004007D01*
X010284Y004002D01*
X010334Y003993D01*
X010382Y003981D01*
X010430Y003964D01*
X010476Y003944D01*
X010521Y003921D01*
X010564Y003894D01*
X010604Y003864D01*
X010642Y003831D01*
X010677Y003795D01*
X010710Y003756D01*
X010739Y003715D01*
X010765Y003672D01*
X010788Y003627D01*
X010807Y003580D01*
X010822Y003532D01*
X010834Y003483D01*
X010842Y003433D01*
X010846Y003383D01*
X010846Y003333D01*
X010842Y003283D01*
X010834Y003233D01*
X010822Y003184D01*
X010807Y003136D01*
X010788Y003089D01*
X010765Y003044D01*
X010739Y003001D01*
X010710Y002960D01*
X010677Y002921D01*
X010642Y002885D01*
X010604Y002852D01*
X010564Y002822D01*
X010521Y002795D01*
X010476Y002772D01*
X010430Y002752D01*
X010382Y002735D01*
X010334Y002723D01*
X010284Y002714D01*
X010234Y002709D01*
X010183Y002708D01*
X010133Y002711D01*
X010083Y002718D01*
X010034Y002729D01*
X009986Y002743D01*
X009939Y002761D01*
X009893Y002783D01*
X009849Y002808D01*
X009808Y002837D01*
X009769Y002868D01*
X009732Y002903D01*
X009698Y002940D01*
X009667Y002980D01*
X009639Y003022D01*
X009615Y003066D01*
X009594Y003112D01*
X009577Y003160D01*
X009564Y003208D01*
X009554Y003258D01*
X009548Y003308D01*
X009546Y003358D01*
X000846Y020458D02*
X000848Y020508D01*
X000854Y020558D01*
X000864Y020608D01*
X000877Y020656D01*
X000894Y020704D01*
X000915Y020750D01*
X000939Y020794D01*
X000967Y020836D01*
X000998Y020876D01*
X001032Y020913D01*
X001069Y020948D01*
X001108Y020979D01*
X001149Y021008D01*
X001193Y021033D01*
X001239Y021055D01*
X001286Y021073D01*
X001334Y021087D01*
X001383Y021098D01*
X001433Y021105D01*
X001483Y021108D01*
X001534Y021107D01*
X001584Y021102D01*
X001634Y021093D01*
X001682Y021081D01*
X001730Y021064D01*
X001776Y021044D01*
X001821Y021021D01*
X001864Y020994D01*
X001904Y020964D01*
X001942Y020931D01*
X001977Y020895D01*
X002010Y020856D01*
X002039Y020815D01*
X002065Y020772D01*
X002088Y020727D01*
X002107Y020680D01*
X002122Y020632D01*
X002134Y020583D01*
X002142Y020533D01*
X002146Y020483D01*
X002146Y020433D01*
X002142Y020383D01*
X002134Y020333D01*
X002122Y020284D01*
X002107Y020236D01*
X002088Y020189D01*
X002065Y020144D01*
X002039Y020101D01*
X002010Y020060D01*
X001977Y020021D01*
X001942Y019985D01*
X001904Y019952D01*
X001864Y019922D01*
X001821Y019895D01*
X001776Y019872D01*
X001730Y019852D01*
X001682Y019835D01*
X001634Y019823D01*
X001584Y019814D01*
X001534Y019809D01*
X001483Y019808D01*
X001433Y019811D01*
X001383Y019818D01*
X001334Y019829D01*
X001286Y019843D01*
X001239Y019861D01*
X001193Y019883D01*
X001149Y019908D01*
X001108Y019937D01*
X001069Y019968D01*
X001032Y020003D01*
X000998Y020040D01*
X000967Y020080D01*
X000939Y020122D01*
X000915Y020166D01*
X000894Y020212D01*
X000877Y020260D01*
X000864Y020308D01*
X000854Y020358D01*
X000848Y020408D01*
X000846Y020458D01*
X012446Y022358D02*
X012448Y022408D01*
X012454Y022458D01*
X012464Y022508D01*
X012477Y022556D01*
X012494Y022604D01*
X012515Y022650D01*
X012539Y022694D01*
X012567Y022736D01*
X012598Y022776D01*
X012632Y022813D01*
X012669Y022848D01*
X012708Y022879D01*
X012749Y022908D01*
X012793Y022933D01*
X012839Y022955D01*
X012886Y022973D01*
X012934Y022987D01*
X012983Y022998D01*
X013033Y023005D01*
X013083Y023008D01*
X013134Y023007D01*
X013184Y023002D01*
X013234Y022993D01*
X013282Y022981D01*
X013330Y022964D01*
X013376Y022944D01*
X013421Y022921D01*
X013464Y022894D01*
X013504Y022864D01*
X013542Y022831D01*
X013577Y022795D01*
X013610Y022756D01*
X013639Y022715D01*
X013665Y022672D01*
X013688Y022627D01*
X013707Y022580D01*
X013722Y022532D01*
X013734Y022483D01*
X013742Y022433D01*
X013746Y022383D01*
X013746Y022333D01*
X013742Y022283D01*
X013734Y022233D01*
X013722Y022184D01*
X013707Y022136D01*
X013688Y022089D01*
X013665Y022044D01*
X013639Y022001D01*
X013610Y021960D01*
X013577Y021921D01*
X013542Y021885D01*
X013504Y021852D01*
X013464Y021822D01*
X013421Y021795D01*
X013376Y021772D01*
X013330Y021752D01*
X013282Y021735D01*
X013234Y021723D01*
X013184Y021714D01*
X013134Y021709D01*
X013083Y021708D01*
X013033Y021711D01*
X012983Y021718D01*
X012934Y021729D01*
X012886Y021743D01*
X012839Y021761D01*
X012793Y021783D01*
X012749Y021808D01*
X012708Y021837D01*
X012669Y021868D01*
X012632Y021903D01*
X012598Y021940D01*
X012567Y021980D01*
X012539Y022022D01*
X012515Y022066D01*
X012494Y022112D01*
X012477Y022160D01*
X012464Y022208D01*
X012454Y022258D01*
X012448Y022308D01*
X012446Y022358D01*
D11*
X007826Y021108D03*
X007826Y020608D03*
X007826Y020108D03*
X007826Y019608D03*
X005766Y019608D03*
X005766Y020108D03*
X005766Y020608D03*
X005766Y021108D03*
D12*
X004496Y022858D03*
X007996Y022858D03*
X001496Y011458D03*
X013496Y008358D03*
D13*
X013496Y009358D03*
X013496Y010358D03*
X013496Y011358D03*
X012796Y006858D03*
X012796Y005858D03*
X012796Y003858D03*
X012796Y002858D03*
X005996Y016058D03*
X005996Y017058D03*
X005996Y018058D03*
X004396Y019758D03*
X003396Y019758D03*
X003496Y022858D03*
X002496Y022858D03*
X001196Y023258D03*
X001196Y022258D03*
X005996Y022858D03*
X006996Y022858D03*
X001496Y010458D03*
X001496Y009458D03*
X001496Y008458D03*
X001496Y007458D03*
X001496Y006458D03*
D14*
X003345Y020858D03*
X004447Y020858D03*
X011045Y011258D03*
X011045Y010458D03*
X012147Y010458D03*
X012147Y011258D03*
D15*
X007896Y017007D03*
X007896Y018109D03*
X007096Y018109D03*
X007096Y017007D03*
X004796Y016709D03*
X004796Y015607D03*
D16*
X005196Y018958D03*
X007096Y015958D03*
X007896Y015958D03*
X002496Y019158D03*
D17*
X002596Y017858D03*
X002596Y016858D03*
X002596Y015858D03*
X002596Y014858D03*
X002596Y013858D03*
X001596Y013858D03*
X001596Y014858D03*
X001596Y015858D03*
X001596Y016858D03*
X001596Y017858D03*
X007996Y012958D03*
X007996Y011958D03*
X008996Y011958D03*
X008996Y012958D03*
X009996Y012958D03*
X009996Y011958D03*
X008296Y003858D03*
X008296Y002858D03*
X007296Y002858D03*
X007296Y003858D03*
X006296Y003858D03*
X006296Y002858D03*
X005296Y002858D03*
X005296Y003858D03*
X004296Y003858D03*
X004296Y002858D03*
D18*
X003947Y005258D03*
X002845Y005258D03*
X011745Y012858D03*
X012847Y012858D03*
D19*
X010996Y022458D03*
D20*
X009618Y022458D03*
D21*
X009446Y017282D03*
X008946Y017282D03*
X009946Y017282D03*
X010446Y017282D03*
X010446Y015235D03*
X009946Y015235D03*
X009446Y015235D03*
X008946Y015235D03*
D22*
X010796Y019458D03*
X013396Y018358D03*
D23*
X012396Y018358D03*
X009796Y019458D03*
D24*
X011476Y015968D03*
X011476Y015058D03*
X011476Y014148D03*
D25*
X013916Y015058D03*
D26*
X009980Y009933D03*
X009980Y009618D03*
X009980Y009303D03*
X009980Y008988D03*
X009980Y008673D03*
X009980Y008358D03*
X009980Y008043D03*
X009980Y007728D03*
X009980Y007413D03*
X009980Y007098D03*
X009980Y006783D03*
X005413Y006783D03*
X005413Y007098D03*
X005413Y007413D03*
X005413Y007728D03*
X005413Y008043D03*
X005413Y008358D03*
X005413Y008673D03*
X005413Y008988D03*
X005413Y009303D03*
X005413Y009618D03*
X005413Y009933D03*
D27*
X006121Y010642D03*
X006436Y010642D03*
X006751Y010642D03*
X007066Y010642D03*
X007381Y010642D03*
X007696Y010642D03*
X008011Y010642D03*
X008326Y010642D03*
X008641Y010642D03*
X008956Y010642D03*
X009271Y010642D03*
X009271Y006075D03*
X008956Y006075D03*
X008641Y006075D03*
X008326Y006075D03*
X008011Y006075D03*
X007696Y006075D03*
X007381Y006075D03*
X007066Y006075D03*
X006751Y006075D03*
X006436Y006075D03*
X006121Y006075D03*
D28*
X008161Y005058D03*
X008831Y005058D03*
X007031Y012858D03*
X006361Y012858D03*
D29*
X004196Y007893D03*
X004196Y007224D03*
X011596Y008824D03*
X011596Y009493D03*
D30*
X004490Y017484D03*
X004490Y018232D03*
X003663Y017858D03*
D31*
X008496Y016858D02*
X008796Y016558D01*
X010096Y016558D01*
X010446Y016908D01*
X010446Y017282D01*
X009946Y017282D02*
X009946Y017958D01*
X010146Y018158D01*
X011196Y018158D01*
X012396Y017758D02*
X011476Y016838D01*
X011476Y015968D01*
X011476Y015058D02*
X010996Y015058D01*
X010846Y015208D01*
X010446Y015235D01*
X009946Y015235D01*
X009446Y015235D01*
X008946Y015235D01*
X008946Y014608D01*
X008896Y014358D01*
X008496Y016858D02*
X008496Y018958D01*
X008996Y019458D01*
X009796Y019458D01*
X009796Y020258D01*
X009618Y020636D01*
X009618Y022458D01*
X009996Y018758D02*
X011996Y018758D01*
X012396Y018358D01*
X012396Y017758D01*
X009996Y018758D02*
X009446Y018208D01*
X009446Y017282D01*
D32*
X011196Y018158D03*
X008896Y014358D03*
X001696Y012458D03*
D33*
X001696Y013058D01*
X001596Y014858D02*
X002096Y015358D01*
X003096Y015358D01*
X003296Y015158D01*
X003296Y014458D01*
X004596Y013158D01*
X004596Y010158D01*
X005136Y009618D01*
X005413Y009618D01*
X005413Y009933D02*
X005121Y009933D01*
X004796Y010258D01*
X004796Y013258D01*
X003496Y014558D01*
X003496Y015458D01*
X003096Y015858D01*
X002596Y015858D01*
X002096Y016358D02*
X001596Y015858D01*
X002096Y016358D02*
X003096Y016358D01*
X003696Y015758D01*
X003696Y014658D01*
X004996Y013358D01*
X004996Y012058D01*
X006121Y010933D01*
X006121Y010642D01*
X006436Y010642D02*
X006436Y010918D01*
X005196Y012158D01*
X005196Y013458D01*
X003896Y014758D01*
X003896Y015958D01*
X002996Y016858D01*
X002596Y016858D01*
X002996Y017358D02*
X002096Y017358D01*
X001596Y016858D01*
X001596Y017858D02*
X002296Y018558D01*
X002896Y018558D01*
X003196Y018258D01*
X003196Y017458D01*
X004496Y016158D01*
X005196Y016158D01*
X005296Y015958D01*
X005296Y014258D01*
X005796Y013758D01*
X005796Y012558D01*
X007381Y010973D01*
X007381Y010642D01*
X007066Y010642D02*
X007066Y010988D01*
X005596Y012458D01*
X005596Y013658D01*
X004796Y014458D01*
X004796Y015607D01*
X004096Y016258D02*
X004096Y014858D01*
X005396Y013558D01*
X005396Y012358D01*
X006796Y010958D01*
X006796Y010758D01*
X006751Y010713D01*
X006751Y010642D01*
X007996Y011058D02*
X007031Y012058D01*
X007031Y012858D01*
X007996Y012958D02*
X008496Y012458D01*
X008496Y011658D01*
X008956Y011198D01*
X008956Y010642D01*
X009271Y010642D02*
X009271Y011133D01*
X009496Y011358D01*
X009496Y012458D01*
X009996Y012958D01*
X010696Y011158D02*
X010945Y011158D01*
X011045Y011258D01*
X010696Y011158D02*
X010396Y010858D01*
X010396Y010058D01*
X010271Y009933D01*
X009980Y009933D01*
X009980Y009618D02*
X010456Y009618D01*
X011096Y010258D01*
X011096Y010407D01*
X011045Y010458D01*
X011596Y009493D02*
X010806Y009303D01*
X009980Y009303D01*
X009980Y008988D02*
X010831Y008988D01*
X011596Y008824D01*
X012196Y008258D02*
X013296Y009358D01*
X013496Y009358D01*
X013496Y008358D02*
X013196Y008058D01*
X010696Y008058D01*
X010396Y008358D01*
X009980Y008358D01*
X009980Y008673D02*
X010181Y008673D01*
X010196Y008658D01*
X010396Y008658D01*
X010796Y008258D01*
X012196Y008258D01*
X012796Y006858D02*
X011496Y005758D01*
X009796Y005758D01*
X009696Y005858D01*
X009696Y006358D01*
X009296Y006758D01*
X009096Y006758D01*
X008956Y006618D01*
X008956Y006075D01*
X008641Y006075D02*
X008641Y005713D01*
X008796Y005558D01*
X011496Y005558D01*
X012796Y004258D01*
X012796Y003858D01*
X009980Y008988D02*
X009026Y008988D01*
X008796Y008758D01*
X008011Y009573D02*
X007796Y009358D01*
X008011Y009573D02*
X008011Y010642D01*
X008011Y011043D01*
X007996Y011058D01*
X006296Y007958D02*
X006066Y007728D01*
X005413Y007728D01*
X004961Y007728D01*
X004196Y007893D01*
X004496Y008258D02*
X003696Y008258D01*
X003096Y008858D01*
X003596Y008958D02*
X004096Y008458D01*
X004596Y008458D01*
X004996Y008358D01*
X005413Y008358D01*
X005398Y008658D02*
X005413Y008673D01*
X005398Y008658D02*
X004296Y008658D01*
X004196Y008758D01*
X004196Y009958D01*
X003696Y010458D01*
X001496Y010458D01*
X001496Y007458D02*
X002496Y007458D01*
X003096Y006858D01*
X004796Y006858D01*
X005036Y007098D01*
X005413Y007098D01*
X005413Y006783D02*
X005121Y006783D01*
X004896Y006558D01*
X002696Y006558D01*
X002396Y006858D01*
X004196Y007224D02*
X004586Y007413D01*
X005413Y007413D01*
X005413Y008043D02*
X005011Y008043D01*
X004496Y008258D01*
X004766Y008988D02*
X004696Y009058D01*
X004766Y008988D02*
X005413Y008988D01*
X005413Y009303D02*
X005151Y009303D01*
X004396Y010058D01*
X004396Y013058D01*
X002596Y014858D01*
X004096Y016258D02*
X002996Y017358D01*
X003496Y018025D02*
X003663Y017858D01*
X003496Y018025D02*
X003496Y018558D01*
X004490Y018232D02*
X005270Y018232D01*
X005396Y018258D01*
X004490Y017484D02*
X004796Y017178D01*
X004796Y016709D01*
X006696Y014758D02*
X007496Y014758D01*
X007896Y015158D01*
X007896Y015958D01*
X007896Y017007D01*
X007096Y017007D02*
X007096Y015958D01*
X007096Y015258D01*
X007826Y020108D02*
X007876Y020158D01*
X008396Y020158D01*
X008596Y020358D01*
X008796Y020358D01*
X011476Y015058D02*
X011996Y015058D01*
X012847Y014207D01*
X012847Y012858D01*
X012696Y011358D02*
X013496Y011358D01*
X013496Y010358D02*
X012896Y010358D01*
X012147Y010458D01*
X012147Y011258D02*
X012696Y011358D01*
X008326Y005663D02*
X008831Y005058D01*
X008326Y005663D02*
X008326Y006075D01*
X008011Y006075D02*
X008011Y005873D01*
X007996Y005858D01*
X007996Y005393D01*
X008161Y005058D01*
X007696Y004658D02*
X007796Y004258D01*
X007796Y002658D01*
X007496Y002358D01*
X006796Y002358D01*
X006296Y002858D01*
X006796Y003358D02*
X007296Y002858D01*
X006796Y003358D02*
X006796Y004958D01*
X007381Y005543D01*
X007381Y006075D01*
X007066Y006075D02*
X007066Y005628D01*
X006296Y004858D01*
X006296Y003858D01*
X006396Y005358D02*
X005596Y005358D01*
X005296Y005058D01*
X005296Y003858D01*
X006396Y005358D02*
X006751Y005713D01*
X006751Y006075D01*
X006436Y006075D02*
X006436Y006598D01*
X006496Y006658D01*
X007196Y006658D01*
X007296Y006758D01*
X007296Y007258D01*
X007796Y007058D02*
X008011Y006843D01*
X008011Y006075D01*
X007696Y006075D02*
X007696Y004658D01*
X006696Y006958D02*
X006296Y006958D01*
X006121Y006783D01*
X006121Y006075D01*
X006696Y006958D02*
X006796Y007058D01*
D34*
X006296Y007958D03*
X007796Y007058D03*
X008796Y008758D03*
X007796Y009358D03*
X004696Y009058D03*
X004696Y005558D03*
X002396Y006858D03*
X011696Y011958D03*
D35*
X011696Y012658D02*
X011745Y012858D01*
X011745Y012707D01*
X009980Y009303D02*
X008651Y009303D01*
X008596Y009258D01*
X007896Y008558D01*
X007896Y007958D01*
X007096Y007958D01*
X007096Y009458D01*
X007696Y010058D01*
X007696Y010642D01*
X007696Y010958D01*
X006361Y012358D01*
X006361Y012858D01*
X006361Y013704D01*
X006406Y013748D01*
X005996Y016058D02*
X005596Y016058D01*
X005396Y016358D01*
X005396Y018258D01*
X005996Y018958D01*
X005696Y019258D01*
X005696Y019538D01*
X005766Y019608D01*
X005766Y020108D02*
X004746Y020108D01*
X004396Y019758D01*
X004396Y019158D01*
X004596Y018958D01*
X005196Y018958D01*
X004697Y020608D02*
X004447Y020858D01*
X004447Y021307D01*
X004196Y021558D01*
X002696Y021558D01*
X002696Y022658D01*
X002496Y022858D01*
X002796Y023558D02*
X003496Y022858D01*
X004096Y022258D01*
X006396Y022258D01*
X006996Y022858D01*
X007596Y023458D02*
X005096Y023458D01*
X004496Y022858D01*
X005096Y021758D02*
X005096Y021358D01*
X005346Y021108D01*
X005766Y021108D01*
X005766Y020608D02*
X006446Y020608D01*
X006596Y020758D01*
X006596Y021758D01*
X007296Y021058D02*
X007096Y020858D01*
X007096Y018109D01*
X007826Y018179D02*
X007896Y018109D01*
X007826Y018179D02*
X007826Y019608D01*
X007826Y020108D02*
X007826Y020608D01*
X007776Y021058D02*
X007826Y021108D01*
X007776Y021058D02*
X007296Y021058D01*
X007996Y022858D02*
X007996Y023058D01*
X007596Y023458D01*
X005766Y020608D02*
X004697Y020608D01*
X003345Y020858D02*
X003345Y019809D01*
X003396Y019758D01*
X002696Y019858D02*
X002696Y021558D01*
X002696Y019858D02*
X002496Y019658D01*
X002496Y019158D01*
X001696Y023258D02*
X001196Y023258D01*
X001696Y023258D02*
X001996Y023558D01*
X002796Y023558D01*
X007096Y007958D02*
X006551Y007413D01*
X005413Y007413D01*
X004696Y005558D02*
X004396Y005258D01*
X003947Y005258D01*
X007896Y007958D02*
X008326Y007528D01*
X008326Y006075D01*
D36*
X007296Y007258D03*
X006796Y007058D03*
X003596Y008958D03*
X003096Y008858D03*
X006696Y014758D03*
X007096Y015258D03*
X005996Y018958D03*
X006596Y021758D03*
X005096Y021758D03*
X003496Y018558D03*
X008796Y020358D03*
D37*
X000696Y012758D02*
X000696Y006758D01*
X000996Y006458D01*
X001496Y006458D01*
D38*
X001496Y005958D01*
X002196Y005258D01*
X002845Y005258D01*
X002896Y005207D01*
X002896Y004358D01*
X003396Y003858D01*
X004296Y003858D01*
X003896Y012758D02*
X003596Y013058D01*
X001696Y013058D01*
X000996Y013058D01*
X000696Y012758D01*
X005996Y014158D02*
X005996Y016058D01*
X005996Y014158D02*
X006406Y013748D01*
X006416Y013758D01*
X009496Y013758D01*
X009886Y014148D01*
X011476Y014148D01*
X011696Y014048D01*
X011696Y012658D01*
X011696Y011958D01*
X009996Y011958D01*
D39*
X003896Y012758D03*
M02*
