G75*
%MOIN*%
%OFA0B0*%
%FSLAX24Y24*%
%IPPOS*%
%LPD*%
%AMOC8*
5,1,8,0,0,1.08239X$1,22.5*
%
%ADD10C,0.0730*%
%ADD11R,0.0730X0.0730*%
%ADD12C,0.0680*%
%ADD13R,0.0880X0.0880*%
%ADD14C,0.0880*%
%ADD15R,0.0820X0.0820*%
%ADD16C,0.0820*%
%ADD17R,0.0552X0.0631*%
%ADD18R,0.0710X0.0789*%
%ADD19C,0.0595*%
%ADD20R,0.0789X0.0710*%
%ADD21R,0.0476X0.0476*%
D10*
X006200Y006600D03*
X006200Y009600D03*
X008700Y007100D03*
X009200Y004600D03*
X009200Y010600D03*
D11*
X008200Y010600D03*
X008700Y008100D03*
X008200Y004600D03*
X006200Y005600D03*
X006200Y008600D03*
D12*
X012400Y008600D02*
X013000Y008600D01*
X013000Y009600D02*
X012400Y009600D01*
X012400Y010600D02*
X013000Y010600D01*
X013000Y006100D02*
X012400Y006100D01*
X012400Y005100D02*
X013000Y005100D01*
X013000Y004100D02*
X012400Y004100D01*
D13*
X002200Y002100D03*
D14*
X003578Y002100D03*
X004956Y002100D03*
X006334Y002100D03*
D15*
X007700Y013600D03*
X009700Y015600D03*
X009700Y018600D03*
X005200Y018600D03*
X001200Y020100D03*
D16*
X002200Y020100D03*
X003200Y020100D03*
X006200Y018600D03*
X007200Y018600D03*
X008200Y018600D03*
X010700Y018600D03*
X011700Y018600D03*
X012700Y018600D03*
X012700Y015600D03*
X011700Y015600D03*
X010700Y015600D03*
X006700Y013600D03*
X005700Y013600D03*
D17*
X006109Y016100D03*
X007291Y016100D03*
D18*
X009649Y013100D03*
X010751Y013100D03*
D19*
X003200Y012600D03*
X003200Y011600D03*
X003200Y010600D03*
X003200Y009600D03*
X003200Y008600D03*
X003200Y007600D03*
X003200Y006600D03*
X003200Y005600D03*
X002200Y005600D03*
X002200Y006600D03*
X002200Y007600D03*
X002200Y008600D03*
X002200Y009600D03*
X002200Y010600D03*
X002200Y011600D03*
X002200Y012600D03*
X002200Y013600D03*
X002200Y014600D03*
X002200Y015600D03*
X002200Y016600D03*
X002200Y017600D03*
X003200Y017600D03*
X003200Y016600D03*
X003200Y015600D03*
X003200Y014600D03*
X003200Y013600D03*
D20*
X001100Y011451D03*
X001100Y010349D03*
X000900Y009251D03*
X000900Y008149D03*
D21*
X004700Y016100D03*
X004200Y019600D03*
M02*
