%
M48
M72
T01C0.0236
T02C0.0276
T03C0.0315
T04C0.0400
T05C0.0472
%
T01
X4700Y16100
X4200Y19600
T02
X8200Y10600
X9200Y10600
X8700Y8100
X8700Y7100
X8200Y4600
X9200Y4600
X6200Y5600
X6200Y6600
X6200Y8600
X6200Y9600
T03
X3200Y9600
X3200Y10600
X3200Y11600
X3200Y12600
X3200Y13600
X3200Y14600
X3200Y15600
X3200Y16600
X3200Y17600
X2200Y17600
X2200Y16600
X2200Y15600
X2200Y14600
X2200Y13600
X2200Y12600
X2200Y11600
X2200Y10600
X2200Y9600
X2200Y8600
X2200Y7600
X2200Y6600
X2200Y5600
X3200Y5600
X3200Y6600
X3200Y7600
X3200Y8600
T04
X5700Y13600
X6700Y13600
X7700Y13600
X9700Y15600
X10700Y15600
X11700Y15600
X12700Y15600
X12700Y18600
X11700Y18600
X10700Y18600
X9700Y18600
X8200Y18600
X7200Y18600
X6200Y18600
X5200Y18600
X3200Y20100
X2200Y20100
X1200Y20100
X12700Y10600
X12700Y9600
X12700Y8600
X12700Y6100
X12700Y5100
X12700Y4100
T05
X2200Y2100
X3578Y2100
X4956Y2100
X6334Y2100
M30
