G75*
%MOIN*%
%OFA0B0*%
%FSLAX24Y24*%
%IPPOS*%
%LPD*%
%AMOC8*
5,1,8,0,0,1.08239X$1,22.5*
%
%ADD10C,0.0000*%
%ADD11C,0.0650*%
%ADD12R,0.0650X0.0650*%
%ADD13C,0.0600*%
%ADD14R,0.0800X0.0800*%
%ADD15C,0.0800*%
%ADD16R,0.0740X0.0740*%
%ADD17C,0.0740*%
%ADD18R,0.0472X0.0551*%
%ADD19R,0.0630X0.0709*%
%ADD20C,0.0515*%
%ADD21R,0.0709X0.0630*%
%ADD22C,0.0160*%
%ADD23C,0.0120*%
%ADD24R,0.0396X0.0396*%
%ADD25C,0.0500*%
D10*
X000200Y000100D02*
X000200Y022096D01*
X015070Y022096D01*
X015070Y000100D01*
X000200Y000100D01*
D11*
X006200Y006600D03*
X006200Y009600D03*
X008700Y007100D03*
X009200Y004600D03*
X009200Y010600D03*
D12*
X008200Y010600D03*
X008700Y008100D03*
X008200Y004600D03*
X006200Y005600D03*
X006200Y008600D03*
D13*
X012400Y008600D02*
X013000Y008600D01*
X013000Y009600D02*
X012400Y009600D01*
X012400Y010600D02*
X013000Y010600D01*
X013000Y006100D02*
X012400Y006100D01*
X012400Y005100D02*
X013000Y005100D01*
X013000Y004100D02*
X012400Y004100D01*
D14*
X002200Y002100D03*
D15*
X003578Y002100D03*
X004956Y002100D03*
X006334Y002100D03*
D16*
X007700Y013600D03*
X009700Y015600D03*
X009700Y018600D03*
X005200Y018600D03*
X001200Y020100D03*
D17*
X002200Y020100D03*
X003200Y020100D03*
X006200Y018600D03*
X007200Y018600D03*
X008200Y018600D03*
X010700Y018600D03*
X011700Y018600D03*
X012700Y018600D03*
X012700Y015600D03*
X011700Y015600D03*
X010700Y015600D03*
X006700Y013600D03*
X005700Y013600D03*
D18*
X006109Y016100D03*
X007291Y016100D03*
D19*
X009649Y013100D03*
X010751Y013100D03*
D20*
X003200Y012600D03*
X003200Y011600D03*
X003200Y010600D03*
X003200Y009600D03*
X003200Y008600D03*
X003200Y007600D03*
X003200Y006600D03*
X003200Y005600D03*
X002200Y005600D03*
X002200Y006600D03*
X002200Y007600D03*
X002200Y008600D03*
X002200Y009600D03*
X002200Y010600D03*
X002200Y011600D03*
X002200Y012600D03*
X002200Y013600D03*
X002200Y014600D03*
X002200Y015600D03*
X002200Y016600D03*
X002200Y017600D03*
X003200Y017600D03*
X003200Y016600D03*
X003200Y015600D03*
X003200Y014600D03*
X003200Y013600D03*
D21*
X001100Y011451D03*
X001100Y010349D03*
X000900Y009251D03*
X000900Y008149D03*
D22*
X006109Y016100D02*
X005200Y017009D01*
X005200Y018600D01*
X006200Y018600D02*
X006200Y018100D01*
X006700Y017600D01*
X010700Y017600D01*
X010700Y018600D01*
X010700Y017600D02*
X010700Y015600D01*
X009649Y013651D02*
X007700Y015600D01*
X007200Y016191D01*
X007291Y016100D01*
X009649Y013651D02*
X009649Y013100D01*
X010700Y013100D02*
X010751Y013100D01*
X012700Y011100D01*
X012700Y010600D01*
X012700Y015600D02*
X012700Y018600D01*
D23*
X004700Y016100D02*
X004700Y007600D01*
X003700Y006600D01*
X003200Y006600D01*
X003200Y007600D02*
X003700Y007600D01*
X004200Y008100D01*
X004200Y019600D01*
X003200Y020100D02*
X001300Y018200D01*
X001300Y012600D01*
X001100Y012400D01*
X001100Y011451D01*
X000500Y012200D02*
X001000Y012700D01*
X001000Y019900D01*
X001200Y020100D01*
X000500Y012200D02*
X000500Y009600D01*
X000849Y009251D01*
X000900Y009251D01*
X001849Y009600D02*
X001100Y010349D01*
X001849Y009600D02*
X002200Y009600D01*
X002200Y008600D02*
X001900Y008600D01*
X001500Y008200D01*
X000951Y008200D01*
X000900Y008149D01*
D24*
X004700Y016100D03*
X004200Y019600D03*
D25*
X007200Y019100D02*
X007200Y018600D01*
X007200Y019100D02*
X007700Y019600D01*
X011200Y019600D01*
X011700Y019100D01*
X011700Y018600D01*
X011700Y015600D01*
X011700Y014600D01*
X012200Y014100D01*
X013700Y014100D01*
X014200Y013600D01*
X014200Y002100D01*
X013200Y001100D01*
X009200Y001100D01*
X008200Y002100D01*
X008200Y004600D01*
X008200Y002100D02*
X006334Y002100D01*
X005334Y001100D01*
X001700Y001100D01*
X001200Y001600D01*
X001200Y003600D01*
X002200Y004600D01*
X002200Y005600D01*
X002200Y006600D01*
X002700Y003600D02*
X004200Y003600D01*
X004700Y004100D01*
X004700Y006600D01*
X005700Y007600D01*
X007200Y007600D01*
X007700Y007100D01*
X008700Y007100D01*
X009700Y007100D01*
X011700Y005100D01*
X012700Y005100D01*
X012700Y008600D02*
X010200Y008600D01*
X009200Y009600D01*
X008200Y009600D01*
X008200Y010600D01*
X007700Y011100D01*
X007700Y013600D01*
X005700Y013600D02*
X005700Y010100D01*
X006200Y009600D01*
X006200Y005600D02*
X006200Y004100D01*
X004956Y002856D01*
X004956Y002100D01*
X002700Y003600D02*
X002200Y003100D01*
X002200Y002100D01*
M02*
